<?xml version="1.0" encoding="UTF-8"?>
<svg id="Layer_1" data-name="Layer 1" xmlns="http://www.w3.org/2000/svg" viewBox="0 0 389.04 290.17">
  <defs>
    <style>
      .cls-1 {
        fill: #c64647;
      }

      .cls-2 {
        fill: #5a2728;
      }

      .cls-3 {
        fill: #cbbbe1;
      }

      .cls-4 {
        fill: #d1c3e6;
      }

      .cls-5 {
        fill: #cb5152;
      }

      .cls-6 {
        fill: #613b3c;
      }

      .cls-7 {
        fill: #ccbce3;
      }

      .cls-8 {
        fill: #84709c;
      }

      .cls-9 {
        fill: #5f2f30;
      }
    </style>
  </defs>
  <g>
    <g>
      <path class="cls-8" d="M46.43,170.37c-2.98-1.73-10.97.93-14.49.94-9.63,0-24.53-12.03-28.61-20.55s-3.98-20.1-2.23-28.9c2.67-13.41,34.71-27.62,47.31-29.03,31.41-3.51,70.45,28.97,46.69,59.76-4.54,5.88-12.73,12.78-19.9,15-3.5,1.08-10.79,1.14-12.2,1.98-3.07,1.83-3.12,13.27-9.81,9.86-1.73-.88-5.73-8.46-6.75-9.06ZM88.47,114.16c-5.15-5.86-8.99-9.93-16.84-13.15-18.46-7.56-38.8-1.6-54.34,9.77-6.84,5.01-11.3,8.28-12.12,17.33-.98,10.88.75,21.6,9.29,28.97,12.86,11.09,13.74,7.52,28.33,7.57,5.61.02,8.95,4.66,12.05,8.74,2.22-1.11,4.27-9.11,5.08-9.61,1.36-.85,9.03.2,12.12-.42,8.67-1.77,24.84-17.74,25.64-26.72.37-4.16-2.4-15.14-4.75-18.74-1.44-2.21-3.33-2.44-4.45-3.72Z"/>
      <path class="cls-4" d="M82.64,150.5c-2.92,3.03-7.16-8.21-9.38-8.67-1.35-.28-11.18,9.49-17.56,6.79-2.27-.96-4.12-4.71-6.31-4.7-2.42,0-6.05,6.3-11.72,5.32-2.01-.35-4.22-2.75-5.92-2.9-1.8-.16-3.85,3.14-7.44,3.14-3.94,0-10.17-4.32-11.45-8.22,4.21-5.16,6.64,3.49,10.41,3.85,8.58.83,1.35-9.88.78-13.96-2.71-19.54,13.44-19.05,13.96-7.34.31,7.13-8.28,18.29-.08,20.82,3.47,1.07,9-3.86,9.61-6.92.85-4.29-5.69-19.51,2.06-21.88,9.16-2.8,8.75,4.29,7.97,11.24-.68,6.08-7.29,12.2-2.14,16.33,3.35,2.68,7.85,0,10.79-2.23,7.91-5.99,2.07-9.52,3.83-17.98,1.06-5.1,5.31-11.04,9.96-5.47,5.51,6.59-4.01,14.59-3.66,18.99.26,3.2,8.85,11.14,6.29,13.8ZM31.38,135.24c.87-.91,2.72-11.57,1.16-13.69-4.37-5.94-4.64,5.08-4.29,8.67.06.66.98,7.27,3.13,5.03ZM53.2,119.98c-6.18.6-1.9,8.21-2.16,11.98,3.52-2.24,1.8-8.48,2.16-11.98ZM77.19,119.98c-4.07-.39-2.99,7.48-3.25,9.81,3.24-1.69,3.3-6.64,3.25-9.81Z"/>
    </g>
    <g>
      <path class="cls-7" d="M119.47,196.55c1.59,1.62,4.47,26.72,4.66,30.78.83,17.23-1.95,35.62-1.7,52.91-.84,1.86-5.81,4.79-7.86,5.22-5.02,1.06-20.22,3.5-24.89,3.55-10.92.11-18.5.41-29.4,1.04-8.69.5-18.22-.83-27.24-.99-11.15-.2-19.03-7.58-21-18.36-2.52-13.86-1.49-27.21-1.78-40.97-.18-8.23-2.72-21.56-.39-29.34.48-1.59,1.97-3.29,2.99-4.63,27.63-3.11,55.69,1.83,83.38-1.69,4.91-.09,20.06-.77,23.24,2.48ZM35.76,226.83c-3.05,3.02,5.04,8.29,8.28,8.69,8.79,1.07,13.18-8.77,8.61-9.78-2.51-.55-2.43,6.39-9.58,4.14-1.3-.41-5.29-5.05-7.31-3.05ZM96.69,226.97c-5.86-3.35-4.71,7.45,1.99,9.44,7.5,2.23,13.93-1.28,12.32-9.58-3.88-.41-3.81,5.18-7.09,5.51-5.32.52-6.42-4.92-7.21-5.37ZM58.26,242.4c-7.06.72-3.59,12.4-.2,16.1,6.91,7.56,19.79,4.54,25.09-3.38,9.36-13.99-7.77-10.36-16.29-10.86-2.84-.17-6.34-2.09-8.59-1.86Z"/>
      <path class="cls-8" d="M58.26,242.4c2.25-.23,5.75,1.69,8.59,1.86,8.52.5,25.65-3.13,16.29,10.86-5.3,7.92-18.18,10.94-25.09,3.38-3.39-3.71-6.86-15.38.2-16.1ZM80.46,248.63c-6.21,2.3-14.15-.36-20.7-1.09-.86,15.01,17.62,13.14,20.7,1.09Z"/>
      <path class="cls-8" d="M96.69,226.97c.79.45,1.89,5.89,7.21,5.37,3.29-.32,3.21-5.91,7.09-5.51,1.62,8.3-4.82,11.81-12.32,9.58-6.69-1.99-7.85-12.79-1.99-9.44Z"/>
      <path class="cls-8" d="M35.76,226.83c2.02-2,6,2.64,7.31,3.05,7.14,2.26,7.07-4.69,9.58-4.14,4.58,1.01.18,10.84-8.61,9.78-3.24-.39-11.33-5.66-8.28-8.69Z"/>
      <path class="cls-3" d="M80.46,248.63c-3.08,12.05-21.56,13.92-20.7-1.09,6.56.73,14.5,3.39,20.7,1.09Z"/>
    </g>
  </g>
  <g>
    <g>
      <path class="cls-1" d="M168.8,229.01c-1.21-9.52-5.85-32.28-1.12-39.82,3.9-6.22,23.8-9.9,31.06-10.36,13.17-.83,6.16,3.06,12.51,8.29,9.64,7.94-.52-10.34-.92-13.25-4.38-31.84,35.54-47.7,61.43-43.97,15.34,2.21,25.91,27.33,24.64,41.34,8.49,2.13,4.21-12.42,2.71-17.44-4.39-14.61-14.85-28.17-31.02-29.49.77-6.06-2.06-13.16.16-18.84,1.55-3.97,14.03-2.52,17.78-2.94,4.28-.47,8.77-1.95,13.06-2.21,5.03-.3,32.71-.06,35.23,2.48.69.7,3.98,10.79,4.34,12.56,4.1,19.98-5.23,39.44-4.26,59.52-4.14,3.21-25.05,12.7-23.82,18.69s7.11-2.64,7.74-3.15c5.66-4.62,21.57-12.96,28.74-12.67,12.09.49,32.56,17.3,35.24,29.18,1.08,4.79,2.36,17.46,2.44,22.09.25,13.89-23.22,34.98-38.17,30.52.16,3.1-.32,8.73-2.11,11.25-4.79,6.75-31.99,1.03-39.83.71-18.54-.77-37.03,1.15-55.54,1.07-1.16.32-.56,5.41-4.76,7.42-2.83,1.36-22.68,3.48-26.93,3.6-7.52.2-26.17-1.37-32.61-4.57-6.07-3.02-9.46-10.93-11.09-17.26-2.31-8.99-3.65-23.08-4.88-32.73ZM283.31,122.13c.37-.49-2.37-11.43-2.75-11.94-4.93-6.58-4.61,8.4-2.16,11.98,1.12,1.63,4.72.22,4.91-.04ZM297.49,122.15c-.99-3.14.31-14.72-4.9-13.07-2.97.94-.99,12.55-.5,13.01s4.12-.16,5.4.05ZM249.45,144.01c-1.39-.99-4.22.35-4.39,2.7-.05.67,4.41,12.48,5.08,12.53.92.07,5.17-.77,4.83-2.74-.12-.67-4.97-12.1-5.52-12.5ZM236.3,149.54c-.65-.54-3.06.07-4.24-.12.58,5.65.31,14.23,7.62,11.99-.48-1.76-2.91-11.47-3.39-11.86ZM197.26,209.27c1.08.76,4.92.08,5.31-1.6.2-.86-3.47-12.14-4.88-12.46-6.31-1.44-1.51,13.3-.42,14.06ZM289.86,200.66c.16-2.23.37-5.37-2.63-5.39-4.11-.04-11.01,1.91-15.38,2.12-14.7.71-44.37-.06-56.9,6.35-8.46,4.33-7.49,9.21-6.75,18.05.23,2.82,3.64,23.01,4.33,24.02.97,1.41,3.33,2.7,4.25,1.74,2.74-2.86-9.5-33.17-.4-39.1,10.01-6.53,38.69-4.78,51.11-5.6,7.29-.48,14.99-2.26,22.37-2.17ZM348.74,211.56c.84-.84-3.18-15.88-5.98-15.25-4.78,1.07.4,13.99,1.58,14.76.89.58,4.11.79,4.4.5ZM186.25,211.57c.61-2.75-.73-15.13-4.89-14.17-4.25,1.04-1.18,13.46-.46,14.06s4-.11,5.35.11ZM332.37,198.49c-.94-.65-3.85.15-4.27,1.76-.16.62,2.83,11.88,3.31,12.29.71.6,3.99-.13,5.34.11-.54-2.04-3.77-13.74-4.38-14.16ZM269.03,218.22c-1.75-1.2-5,.01-5.4,2.64-.29,1.92,2.81,13.41,3.97,13.67,8.91,2.01,2.27-15.73,1.43-16.31ZM249.51,236.64c.31-5.44-.55-15.45-7.62-15.26-1.87,1.31.94,13.03,2.04,14.63.95,1.39,3.98.41,5.58.64Z"/>
      <path class="cls-9" d="M168.8,229.01c-1.94.04-4.3.63-5.25-1.84-1.03-2.67-3.49-22.5-3.52-26.01-.02-2.15,1.03-10.66,1.61-12.55,3.56-11.61,32.92-14.62,43.21-15.67,2.83-3.27-.22-7.74-.03-10.92.73-12.07,15.44-25.14,25.72-29.91s20.43-5.96,31.58-7.73c-1.11-17.32-4.04-24.64,15.32-27.15,12.46-1.62,27.74-3.07,40.26-2.37,4.71.26,18.89,1.24,21.28,5.17,1.71,2.82,5.11,15.69,5.43,19.37,1.6,18.29-5.42,35.82-4.4,54.01,6.59-1.7,10.44-.59,16.64,1.35,22.11,6.92,32.93,25.2,32.35,48.08-.06,2.34-.45,7.64-4.28,6.17-.08-4.63-1.36-17.3-2.44-22.09-2.68-11.88-23.15-28.69-35.24-29.18-7.17-.29-23.08,8.05-28.74,12.67-.62.51-6.5,9.13-7.74,3.15s19.68-15.47,23.82-18.69c-.97-20.07,8.36-39.53,4.26-59.52-.36-1.77-3.65-11.86-4.34-12.56-2.52-2.54-30.2-2.78-35.23-2.48-4.3.25-8.78,1.73-13.06,2.21-3.75.41-16.23-1.03-17.78,2.94-2.22,5.68.62,12.79-.16,18.84,16.18,1.33,26.64,14.89,31.02,29.49,1.51,5.02,5.78,19.56-2.71,17.44,1.27-14.01-9.3-39.13-24.64-41.34-25.89-3.74-65.81,12.12-61.43,43.97.4,2.91,10.56,21.19.92,13.25-6.35-5.23.66-9.12-12.51-8.29-7.27.46-27.16,4.14-31.06,10.36-4.73,7.55-.09,30.3,1.12,39.82Z"/>
      <path class="cls-2" d="M289.86,200.66c-7.38-.09-15.08,1.69-22.37,2.17-12.42.82-41.09-.93-51.11,5.6-9.1,5.94,3.14,36.24.4,39.1-.92.96-3.27-.33-4.25-1.74-.69-1-4.1-21.2-4.33-24.02-.74-8.84-1.71-13.71,6.75-18.05,12.52-6.41,42.19-5.64,56.9-6.35,4.37-.21,11.27-2.15,15.38-2.12,3,.03,2.78,3.16,2.63,5.39Z"/>
      <path class="cls-2" d="M269.03,218.22c.83.57,7.48,18.31-1.43,16.31-1.15-.26-4.26-11.75-3.97-13.67.4-2.62,3.65-3.84,5.4-2.64Z"/>
      <path class="cls-2" d="M249.51,236.64c-1.6-.23-4.63.75-5.58-.64-1.1-1.59-3.91-13.32-2.04-14.63,7.08-.19,7.94,9.82,7.62,15.26Z"/>
      <path class="cls-2" d="M186.25,211.57c-1.35-.22-4.65.48-5.35-.11s-3.79-13.02.46-14.06c4.16-.96,5.5,11.42,4.89,14.17Z"/>
      <path class="cls-2" d="M249.45,144.01c.56.4,5.41,11.82,5.52,12.5.34,1.96-3.91,2.81-4.83,2.74-.67-.05-5.13-11.86-5.08-12.53.17-2.35,2.99-3.69,4.39-2.7Z"/>
      <path class="cls-2" d="M348.74,211.56c-.29.3-3.51.08-4.4-.5-1.17-.77-6.35-13.68-1.58-14.76,2.8-.63,6.81,14.42,5.98,15.25Z"/>
      <path class="cls-2" d="M197.26,209.27c-1.09-.76-5.89-15.5.42-14.06,1.42.32,5.08,11.6,4.88,12.46-.38,1.68-4.23,2.36-5.31,1.6Z"/>
      <path class="cls-2" d="M332.37,198.49c.61.42,3.84,12.12,4.38,14.16-1.35-.23-4.63.5-5.34-.11-.48-.41-3.47-11.68-3.31-12.29.42-1.61,3.33-2.41,4.27-1.76Z"/>
      <path class="cls-2" d="M297.49,122.15c-1.28-.21-4.89.43-5.4-.05s-2.47-12.08.5-13.01c5.21-1.65,3.91,9.93,4.9,13.07Z"/>
      <path class="cls-2" d="M283.31,122.13c-.19.26-3.8,1.67-4.91.04-2.45-3.58-2.77-18.57,2.16-11.98.38.51,3.12,11.45,2.75,11.94Z"/>
      <path class="cls-2" d="M236.3,149.54c.48.39,2.91,10.1,3.39,11.86-7.31,2.24-7.04-6.33-7.62-11.99,1.18.2,3.59-.41,4.24.12Z"/>
    </g>
    <g>
      <path class="cls-6" d="M273.64,10.8c3.01,1.75,13.72-9.65,19.98-8.59,3.47.59,11.96,11.58,16.68,12.84,5.08,1.35,20.7.41,23.21,2.96,4.31,4.37-4.81,17.11-3.32,22.7.25.94,2.25,1.17,3.09,2.6,1.76,2.99.15,7.2.11,10.73-.03,2.75,2.08,7.65-.64,9.34-6.95,4.31-20.97.05-28.65,3.79-4.57,2.22-10.39,16.07-15.93,16.87-5.09.74-14.27-8.05-17.24-7.49-2.3.44-13.26,13.47-16.57,14.01-6.56,1.07-15.15-6.69-22.3-5.47-.74.76-1.46,18.17-2.14,21.08-.2.85-2.32,1.63-2.97,1.61-4.59-.17-10.65-18.09-15.29-19.26-2.08-.52-14.53,6.7-17.44,8.36-1.97,1.13-4.17,4.1-5.46,4.43-4.29,1.13-10.1-8.77-16.16-8.67-4.27.07-17.29,10.63-20.7,10.64-.76,0-10.79-6.67-12.53-7.86-1.5-1.02-1.7-3.05-3.03-3.77-3.76-2.03-20.94-3.38-21.59-4.3-3.46-4.98,3.61-15.53,3.54-20.05-.12-7.85-9.65-14.6-8.18-19.58s15.3-7.91,18.84-11.74c3.01-3.26,6.54-16.05,10.4-17.94,7.53-3.68,17.62,5.47,23.21,4.71,6.44-.88,20.38-13.59,22.28-13.78,4.43-.43,13.63,7.27,17.08,7.19,2.85-.07,12.44-13.24,19.62-12.79,4.79.3,18.97,6.4,20.7,6.25,5.4-.46,16.03-9.38,18.81-9.6,3.02-.25,11.57,7.28,12.6,10.8ZM270.56,14.97c-1.73-1.25-6.6-9.78-9.4-9.33-4.64,2.54-15.04,9.32-19.92,9.66-3.8.27-14.03-8.14-21.44-6.32-5.4,1.33-12.99,12.1-16.89,12.7-3.67.56-14.12-7.41-17.22-7.16-1.34.11-16.51,13.24-22.99,13.87-5.18.5-16.28-7.7-20.14-5.97-3.63,1.63-7.4,16.36-10.01,18.79-1.1,1.02-14.59,4.91-16.02,6.9s3.92,8.54,4.83,10.82c4.37,10.94-1.62,14.77-1.64,25.08,3.7-.08,16.69.8,19.38,2.43.83.5,1.53,3.76,2.76,4.87.43.39,9.4,5.69,9.98,5.73,5.6.31,13.91-9.13,18.67-9.76,7.41-.99,15.25,8.31,18.23,7.51,3.98-2.47,20.56-13.43,24.08-12.74,1.53.3,3.65,3.61,5.03,4.71l7.65,11.42c.37-5.25,1.04-11.77,2.24-16.84.3-1.25.24-2.21,1.73-2.7,4.7-1.51,18.77,6.9,22.71,6.5,4.24-.44,16.62-15.01,18.57-14.88,3.71.5,13.41,8.66,16.22,8.12,3.88-.74,10.62-14.59,13.55-16.16,4.3-2.3,27.04-1.2,28.44-3.45.51-.82.36-9.6-.07-11.07-.76-2.59-4.98-3.71-5.15-6.69-.2-3.39,6.49-17.89,5.38-19.14-7-2.09-15.26.01-22.05-2.49-4.24-1.56-11.42-11.41-14.52-11.73-5.99-.61-14.31,12.85-21.98,7.32Z"/>
      <path class="cls-5" d="M211.35,43.65l1.58-.02c2.62-2.04,8.1-9.09,11.13-9.56,1.96-.31,8.62,2.57,7.88,5.67-.28,1.19-9.8,8.03-9.69,12.12.16,6.03,24.58,15.39,2.85,20.04l-12.06-10.77c-4.14,2.54-12.22,16.43-17.08,10.41-4.32-5.35,8.36-13.23,9.84-18.48-2.76-5.57-15.79-10.24-12.47-17.06,4.25-8.76,16.35,1.77,18.02,7.63Z"/>
    </g>
  </g>
</svg>