<?xml version="1.0" encoding="UTF-8"?>
<svg id="Layer_2" xmlns="http://www.w3.org/2000/svg" version="1.1" viewBox="0 0 973.09 824.1">
  <!-- Generator: Adobe Illustrator 29.3.1, SVG Export Plug-In . SVG Version: 2.1.0 Build 151)  -->
  <defs>
    <style>
      .st0 {
        fill: #c54143;
      }

      .st1 {
        fill: #71598d;
      }

      .st2 {
        fill: #482f2f;
      }

      .st3 {
        fill: #bfaadb;
      }

      .st4 {
        fill: #472e2e;
      }

      .st5 {
        fill: #725a8e;
      }

      .st6 {
        fill: #70588c;
      }

      .st7 {
        fill: #462d2d;
      }

      .st8 {
        fill: #483030;
      }

      .st9 {
        fill: #735b8e;
      }

      .st10 {
        fill: #432323;
      }

      .st11 {
        fill: #452d2d;
      }

      .st12 {
        fill: #c64446;
      }

      .st13 {
        fill: #725a8d;
      }

      .st14 {
        fill: #462e2e;
      }

      .st15 {
        fill: #432324;
      }

      .st16 {
        fill: #442424;
      }

      .st17 {
        fill: #452c2c;
      }

      .st18 {
        fill: #c0abdb;
      }
    </style>
  </defs>
  <g>
    <path class="st7" d="M614.12,745.19c.29-3.16-.18-6.61,0-9.82,20.32-7.96,43.09-14.59,62.71-23.99,4.78-2.29,16.84-11.98,21.24-9.28,3.13,1.92,4.2,6.18,1.05,8.68-3.55,2.81-14.38,8.5-18.84,10.59-17.1,8-40.95,16.77-59.01,22.78-2.37.79-4.63,1.32-7.15,1.03Z"/>
    <path class="st14" d="M381.87,731c-.02,2.88.02,6.77,0,9.82-2.57.27-4.95-.08-7.43-.74-15.36-4.13-44.9-19.83-56.34-30.9-6.2-6-1.82-5.69,2.77-9.27.76-.62,1.52-.66,2.45-.41,1.94.52,19.05,14.75,24.03,17.52,10.41,5.8,23.21,10.24,34.53,13.99Z"/>
  </g>
  <g>
    <g>
      <g>
        <path class="st3" d="M381.87,731c.07-10.79,1.32-21.44,1.14-32.23-.2-11.72-4.03-27.19-3.29-38.12.33-4.94,4.43-24.25,6.19-28.71,6.04-15.36,45.13-19.06,59.9-21.89,23.69-4.55,38.44-7.21,63.06-7.73,31.23-.65,65.03-3.31,90.8,18.12,7.08,5.88,5.57,15.1,6.97,22.6,2.07,11.14,5.65,23.36,7.42,34.03,3.09,18.64,1.15,39.53.08,58.28-.18,3.21.29,6.66,0,9.82-1.83,19.79-5.55,53.77-25.42,63.47-31.32,15.29-76.46,10.16-110.37,11.75-17.07.8-34,4.85-51.24,3.36-18.82-1.63-35.28-22.46-39.9-39.72-3.16-11.78-5.4-31.16-5.31-43.23.02-3.05-.02-6.94,0-9.82ZM523.34,657.04c-10.33,2.13-4.76,29.33-1.28,35.71,3.2,5.88,11.09,5.39,13.07-.96,2.14-6.85-.8-37.01-11.79-34.75ZM456.81,660.29c-10.97,2.29-5.22,31.93-.22,37.95,2.48,2.98,7.6,3.16,9.73,0,3.03-4.52.66-25.02-.57-30.97-.94-4.54-4.01-8-8.94-6.97ZM507.48,707.22c-2.29,1.35-4.25,8.48-10.63,9.53-16.56,2.71-12.24-18.27-24.55-4.77,9.03,22.25,39.65,18.65,44.79-3.89-2.65.47-7.43-2.16-9.6-.88Z"/>
        <path class="st6" d="M523.34,657.04c10.98-2.26,13.93,27.89,11.79,34.75-1.98,6.35-9.87,6.84-13.07.96-3.47-6.38-9.05-33.58,1.28-35.71Z"/>
        <path class="st1" d="M456.81,660.29c4.93-1.03,8,2.43,8.94,6.97,1.23,5.95,3.61,26.45.57,30.97-2.13,3.17-7.25,2.99-9.73,0-5.01-6.01-10.75-35.66.22-37.95Z"/>
        <path class="st9" d="M507.48,707.22c2.18-1.29,6.95,1.35,9.6.88-5.14,22.54-35.75,26.14-44.79,3.89,12.32-13.5,7.99,7.48,24.55,4.77,6.38-1.05,8.34-8.18,10.63-9.53Z"/>
      </g>
      <g>
        <g>
          <path class="st12" d="M500.72,465.91c-1.2,2.55-3.48,3.01-5.98,3.3-7.55.85-41.05-2.84-44.01-.96-4.63,2.93,4.7,12.02,5.25,15.74.88,5.91-3.96,14.77-9.73,16.33-12.69,3.43-24.95-4.67-22.68-18.34.87-5.27,8.33-12.73-.75-13.94-11.45-1.53-26.31,6.98-36.05-1.02-11.53-9.47-2.72-42.41-4.96-44.68-.24-.24-6.05-1.08-6.77-.94-2.01.41-6.02,4.33-9.22,4.99-21.51,4.41-23.48-34.47-1-33.17,3.83.22,12.2,6.15,15.43.71,2.14-3.59-2.97-25.23-2.83-31.1s2.9-12.4,9.34-12.57l39.82-1.07c1.21-1.14-3.92-11.31-4.29-13.69-4.16-26.82,37.45-25.32,35.98-4.32-.29,4.13-8.09,14.55-4.31,17.9,2.24,1.99,32.08-3.18,39.43-.7,1.65.56,2.55,2.27,4.07,3-2.06,3.07,3.31,40.38,1.71,42.61-2.63,3.67-7.26-1.13-9.28-1.76-13.58-4.24-22.73,8.53-21.94,20.83.56,8.77,7.1,12.43,15.4,9.83,2.97-.93,9.8-10.58,13.84-5.77,6.62,7.88,1.24,45.16,3.54,48.81Z"/>
          <path class="st18" d="M497.45,351.37c.34-.51,9.98-4.21,11.42-4.39,7.34-.9,14.94.88,21.83,1.12,4.79.17,13.87-3.76,16.41,4.31,3.45,10.99-6.55,12.58-4.21,21.68,2.78,10.78,16.13,8.65,23.98,4.76,14.68-7.28.61-9.09-.69-18.28-.89-6.31,2.13-9.33,8.22-10.18,5.37-.75,16-1.22,21.66-1.24,5.13-.02,11.37.11,16.11,2.25,3.24,1.46,1.63,16.42,1.94,20.15.51,6.3,2.84,12.63,2.17,19.11,5.52.85,8.03-4.85,13-6.09,7.15-1.78,12.52-2.22,17.5,3.39,10.4,11.7,7.61,30.35-10.31,31.13-7.55.33-11.02-5.82-17.51-1.2-.99,11.83-.26,23.68-.59,35.5-.05,1.78.94,3.63.83,5.31-.23,3.54-3.7,8.94-7.22,10.02-9.01-.81-35.66,2.96-42.56-.08-4.19-1.85-4.01-8.55-2.48-12.25,1.37-3.3,4.02-2.39,3.49-8.32-1.04-11.46-7.72-12.43-17.19-9.75-28.88,8.16,4.27,16.14-7.82,29.26-11.51-.53-25.44,3.02-36.56,1.66-1.39-.17-7.91-2.93-8.15-3.3-2.31-3.65,3.08-40.93-3.54-48.81-4.04-4.81-10.87,4.84-13.84,5.77-8.3,2.6-14.83-1.06-15.4-9.83-.79-12.29,8.35-25.06,21.94-20.83,2.02.63,6.65,5.43,9.28,1.76,1.6-2.23-3.77-39.54-1.71-42.61Z"/>
        </g>
        <g>
          <path class="st3" d="M578.14,107c-.05,2.75-.82,6.65-1.09,9.82-3.32,38.45-18.52,62.28-49.64,85.06-33.84,24.77-101.59,24.43-135.15-1.09-33.62-25.56-37.88-48.87-35.46-89.43.2-3.42.73-7.34,1.09-10.91,5.56-55.18,45.75-106.64,105.8-99.86,8.55.97,16.65,4.18,24.8,5.73,13.83,2.64,23.03,1.4,36.11,8.6,18.62,10.25,21.75,17.51,33.92,32.61,4.05,5.01,8.55,6.37,11.42,12.57,5.69,12.29,8.43,33.42,8.2,46.89ZM504.85,134.03c6.45-3.66-1.06-36.44-5.89-40.02-2-1.49-8.73.65-9.51,2.31-3.26,6.99.95,29.98,6.28,35.87,1.94,2.15,6.77,3.19,9.12,1.85ZM420.25,99.58c-4.17,3.49,2.92,39.09,7.4,41.8,2.25,1.36,7.07,1.06,8.66-1.18,4.05-5.71-1.46-41.25-8.31-42.92-.39-.1-7.44,2.04-7.75,2.3ZM480.86,146.55c-5.56-3.17-5.4,7.8-12.27,8.53-10.31,1.09-12.1-9.85-18.44-7.6-1.61.57-2.86,5.53-2.6,6.86.91,4.66,13.13,10.96,17.83,11.49,7.87.9,21.12-7.28,19.02-15.48-.06-.25-3.31-3.66-3.54-3.79Z"/>
          <path class="st8" d="M202.19,207.15c-.79-1.39-.33-3.76.34-5.21,1.31-2.84,11.37-14.46,14.13-17.49,10.88-11.95,19.87-16.42,33.03-24.8,1.57-1,2.08-2.85,3.3-3.52,6.43-3.53,10,3.99,7.87,9.19-17.18,8.71-29.03,16.99-41.44,31.7-3.13,3.71-7.26,13.31-12.47,12.52-.77-.12-4.54-2.01-4.76-2.4Z"/>
          <path class="st17" d="M357.88,100.46c-.36,3.57-.89,7.49-1.09,10.91l-55.33,27.07c-3.36,1.92-6.87-4.48-6.82-6.94.04-2.15,5.88-4.89,8-6.14,6.35-3.74,14.32-7.29,21.06-10.57,11.05-5.37,22.32-11.1,34.19-14.34Z"/>
          <path class="st14" d="M577.05,116.82c.27-3.17,1.04-7.07,1.09-9.82,14.4,1.78,31.01,5.22,44.68,10.39,6.02,2.28,19.83,6.29,14.8,13.67-4.35,6.38-11.52-1.36-17.29-3.54-13.71-5.17-28.92-7.84-43.28-10.7Z"/>
          <path class="st13" d="M420.25,99.58c.31-.26,7.36-2.4,7.75-2.3,6.85,1.67,12.36,37.21,8.31,42.92-1.58,2.23-6.4,2.53-8.66,1.18-4.48-2.7-11.57-38.31-7.4-41.8Z"/>
          <path class="st5" d="M504.85,134.03c-2.35,1.33-7.18.3-9.12-1.85-5.33-5.89-9.54-28.88-6.28-35.87.77-1.66,7.51-3.79,9.51-2.31,4.83,3.59,12.34,36.37,5.89,40.02Z"/>
          <path class="st5" d="M480.86,146.55c.23.13,3.47,3.54,3.54,3.79,2.11,8.2-11.15,16.38-19.02,15.48-4.7-.54-16.92-6.84-17.83-11.49-.26-1.33.99-6.29,2.6-6.86,6.34-2.25,8.13,8.7,18.44,7.6,6.87-.73,6.71-11.7,12.27-8.53Z"/>
        </g>
      </g>
    </g>
    <g>
      <path class="st0" d="M840.92,495.37c-3.64-.1-7.83.16-10.9,0-23.41-1.21-55.52-3.47-74.69-18.55-5.63-4.43-7.38-7.82-9.55-14.44-8.1-24.68-12.69-76.98-13.93-103.88-1.55-33.51,2.55-62.09-2.19-95.99-.65-4.68-.53-33.08.65-36.56,1.31-3.86,6.42-8.19,9.22-10.96,1.53-1.51,6.65-4.82,7.35-5.8s.12-2.74.28-2.92c1.94-2.23,51.08-13.88,57.2-14.23,10.08-.58,20.47.63,30.57.03,24.25-1.43,63.81-13.91,85.24-3.44,39.96,19.51,39.5,45.19,45.34,84.45,7.23,48.54,9.26,105.43,6.26,155.17-1.58,26.23-7.52,55.76-36.78,62.48-29.83,6.85-63.52,5.47-94.06,4.63ZM895.25,315.19c3.04-2.02,1.56-15.05.95-18.6-.7-4.07-3.03-18.37-7.84-18.34-.46,0-7.97,3.66-8.22,4.05-2.26,3.59,2.54,32.07,5.62,34.02.49.31,9.09-.87,9.49-1.14ZM784.37,284.97c-.65.4-1.1,3.41-1,4.48.48,5.56,4.1,22.61,6.06,27.8,3.23,8.53,13.46,8.51,13.36-1.27-.04-3.71-3.72-28.57-4.99-31.1-2.02-4.02-4.61-.77-7.66-.09-1.7.38-4.68-.47-5.77.19ZM867.09,330.64c-11.3-2.83-8.14,1.39-14.16,7.11-5.5,5.23-12.36,6.88-17.93.44-4.88-5.64-1.02-13.33-13.72-10.83-1.28,17.42,18.64,32.28,33.86,21.33,2.72-1.96,15.48-14.66,11.95-18.05Z"/>
      <path class="st14" d="M756.55,656.07c-.16-.38-1.81-.41-1.83-.94-.09-1.95,13.34-15.96,15.77-19.12,8.19-10.63,17.52-24.3,23.94-36.05,1.62-2.96,2.29-9.03,5.57-9.69,16.54-3.34,2.12,17.81-1.83,24.35-9.4,15.56-21.97,29.22-32.01,44.34-1.67,2.1-7.16,3.48-8.72,1.16-.52-.78-.31-2.65-.9-4.04Z"/>
      <path class="st2" d="M747.14,206.28c-.16.18.41,1.96-.28,2.92s-5.82,4.29-7.35,5.8c-4.94-7.97-12.21-15.46-19.05-21.85-4.11-3.84-19.58-14.83-21.34-17.91-3.72-6.5,1.02-6.04,5.16-9.2,15.39,11.71,29.7,25.74,42.87,40.23Z"/>
      <path class="st11" d="M840.92,495.37c-1.82,6.84-2.12,14.06-3.57,20.97-.97,4.61-7.79,34.34-8.95,35.77-2.26,2.77-10.66-.57-10.39-4.82.14-2.22,3.13-7.37,3.87-10.43,3.33-13.68,6.45-27.52,8.14-41.49,3.07.16,7.26-.1,10.9,0Z"/>
      <path class="st16" d="M867.09,330.64c3.53,3.39-9.23,16.09-11.95,18.05-15.22,10.96-35.14-3.9-33.86-21.33,12.69-2.5,8.84,5.19,13.72,10.83,5.57,6.44,12.43,4.78,17.93-.44,6.02-5.72,2.86-9.94,14.16-7.11Z"/>
      <path class="st15" d="M784.37,284.97c1.09-.66,4.07.19,5.77-.19,3.04-.68,5.64-3.92,7.66.09,1.27,2.53,4.96,27.39,4.99,31.1.09,9.77-10.13,9.8-13.36,1.27-1.96-5.18-5.58-22.23-6.06-27.8-.09-1.07.35-4.08,1-4.48Z"/>
      <path class="st15" d="M895.25,315.19c-.4.26-9,1.45-9.49,1.14-3.08-1.94-7.87-30.42-5.62-34.02.24-.39,7.76-4.05,8.22-4.05,4.82-.03,7.14,14.27,7.84,18.34.61,3.55,2.09,16.58-.95,18.6Z"/>
    </g>
    <g>
      <path class="st0" d="M151.8,275c.49.17,6.71,4.33,8.72,5.45,33.98,18.97,67.94,84.75,84.48,120.02,8.95,19.08,22.08,44.86,19.15,66.03-.65,4.67-9.9,15.76-13.82,18.85-12.1,9.56-32.4,9.14-47.54,11.39-18.45,2.75-29.48,4.84-48.82,5.16-3.27.05-7.68-.02-10.9,0-22.68.14-40.73-1.88-62.65-3.31-14.12-.92-29.17,1.49-43.71,1.18-4.63-.1-16.76-.29-20.53-1.26-6.78-1.74-15.23-8.63-15.93-15.71-1.65-16.75,5.08-34.63,10.84-50.22,15.29-41.37,37.65-89.15,64.38-124.32,7.6-10,33.18-34.07,45.25-35.45,7.1-.81,24.45-.17,31.08,2.18ZM107.92,403.47c3.78-3.77-.39-30-3.21-34.99-1.91-3.36-9.58-2.9-11.86-1.36-3.9,2.63,1.44,33.18,5.96,36.71,2,1.56,7.37,1.39,9.11-.36ZM162.78,369.98c-2.28,2.27,4.95,30.22,8.16,33.69,2.94,3.19,9.47,2.98,10.3-1.57,1.1-6.01-1.24-30.68-5.92-34.48-3.61-2.93-8.23,3.05-12.55,2.36ZM160.48,421.23c-.29-.29-7.59-2.29-7.99-2.17-3.24.93-7.23,20.63-20.87,10.87-4.63-3.31-4.26-6.34-6.6-9.76-3.49-5.11-10.84-.19-9.99,4.67.25,1.4,9.06,11.8,10.66,13.2,3.25,2.83,10.29,5.37,14.56,4.96,6.37-.61,24.99-17.06,20.23-21.76Z"/>
      <path class="st4" d="M245.1,646.42c2.35,2.2,3.84,3.72,2.72,7.59-.28.96-1.94.44-2.89,1.04-.85.53-.04,2.18-3.03,1.78-4.1-.54-13.75-11.19-17.07-14.71-6.45-6.83-12.71-14.63-17.88-22.48-2.43-3.69-10.58-16.56-11.79-19.86-2.13-5.81,5.55-7.39,9.61-6.34,4.7,9.12,9.19,18.99,15.26,27.29,7.04,9.61,16.5,17.69,25.06,25.68Z"/>
      <path class="st7" d="M153.98,501.91c-.96,3.15,1.09,7.36,2.14,10.41,3.35,9.75,8.42,25.22,12.89,34.01,1.5,2.95,7.61,4.88,4.45,9.98-.19.31-6.19,2.31-6.98,2.28-3.57-.16-6.21-6.98-7.54-9.8-6.64-14.12-12.05-31.76-15.85-46.87,3.22-.02,7.63.05,10.9,0Z"/>
      <path class="st7" d="M151.8,275l18.86-35.66c3.37-2.78,3.96-.28,6.37,1.21.93.57,2.8.5,3.01.74,2.9,3.22-17.42,33.64-19.51,39.17-2.01-1.12-8.23-5.28-8.72-5.45Z"/>
      <path class="st15" d="M160.48,421.23c4.76,4.7-13.86,21.15-20.23,21.76-4.26.41-11.31-2.13-14.56-4.96-1.6-1.39-10.41-11.8-10.66-13.2-.86-4.87,6.49-9.79,9.99-4.67,2.33,3.41,1.96,6.44,6.6,9.76,13.64,9.76,17.63-9.94,20.87-10.87.4-.11,7.69,1.88,7.99,2.17Z"/>
      <path class="st16" d="M107.92,403.47c-1.75,1.74-7.11,1.92-9.11.36-4.51-3.53-9.86-34.08-5.96-36.71,2.28-1.53,9.95-1.99,11.86,1.36,2.83,4.99,6.99,31.22,3.21,34.99Z"/>
      <path class="st10" d="M162.78,369.98c4.31.69,8.94-5.29,12.55-2.36,4.67,3.8,7.02,28.47,5.92,34.48-.83,4.56-7.36,4.77-10.3,1.57-3.21-3.48-10.44-31.43-8.16-33.69Z"/>
    </g>
  </g>
</svg>