<?xml version="1.0" encoding="UTF-8"?>
<svg id="Layer_2" xmlns="http://www.w3.org/2000/svg" version="1.1" viewBox="0 0 1041.45 835.49">
  <!-- Generator: Adobe Illustrator 29.3.1, SVG Export Plug-In . SVG Version: 2.1.0 Build 151)  -->
  <defs>
    <style>
      .st0 {
        fill: #873233;
      }

      .st1 {
        fill: #c54143;
      }

      .st2 {
        fill: #e4c6d1;
      }

      .st3 {
        fill: #ce7274;
      }

      .st4 {
        fill: #c8484a;
      }

      .st5 {
        fill: #c74648;
      }

      .st6 {
        fill: #422121;
      }

      .st7 {
        fill: #d07374;
      }

      .st8 {
        fill: #715a8c;
      }

      .st9 {
        fill: #a891c2;
      }

      .st10 {
        fill: #3f2020;
      }

      .st11 {
        fill: #d17576;
      }

      .st12 {
        fill: #705a8b;
      }

      .st13 {
        fill: #3d2020;
      }

      .st14 {
        fill: #7f699c;
      }

      .st15 {
        fill: #f1d6d6;
      }

      .st16 {
        fill: #e5c8d3;
      }

      .st17 {
        fill: #c84c4d;
      }

      .st18 {
        fill: #725b8e;
      }

      .st19 {
        fill: #cb5354;
      }

      .st20 {
        fill: #522525;
      }

      .st21 {
        fill: #6e588a;
      }

      .st22 {
        fill: #bfaada;
      }

      .st23 {
        fill: #c39abd;
      }
    </style>
  </defs>
  <path class="st5" d="M112.3,105.88c2.34.96,10.96,11.91,15.15,13.16l30.48,30.54c.96,1.85,2.28,5.55,1.06,7.29-.3.43-8.81,4.82-9.32,4.97-2.59.75-13.7-7.68-16.4-9.91-7.21-5.94-18.64-17.07-25.12-23.95-1.59-1.69-7.79-9.77-8.2-11.45-1.24-5.1,3-6.92,4.55-11.02,2.44.34,5.51-.55,7.79.38Z"/>
  <path class="st17" d="M991.41,7.44c-.98,4.84-.96,2.2-3.08,5.06-6.16,8.29-14.06,14.64-19.67,21.82-3.74,4.79-1.25,7.63-7.86,12.85-10.48,8.29-11.5,4.44-17.45-5.28,8.41-5.7,14.45-16.44,21.89-22.45,2.45-1.98,1.92.38,4.36-4.36.36-.71.74-1.47,1.09-2.18,2.19.09,3.3-1.06,3.27-3.27,1.53-1.77,2.71-4.35,5.45-6.54,5.49-1.44,7.19,3.82,11.99,4.36Z"/>
  <path class="st4" d="M184.38,134.92c-.38.36-2.32-.27-2.92.29-.8.74.44,3.03-.75,3.1-3.82.22-9.28-1.56-10.93-5.39-2.09-4.85-4.84-22.34-4.95-27.88-.05-2.86.83-8.35,4.12-9.09,1.32-.3,2.83.77,4.01.6,1.52-.22,2.91-1.95,4.34-1.71,6.3,1.06,4.58,12.81,5.08,16.73.47,3.71,3.81,21.66,2.01,23.36Z"/>
  <path class="st4" d="M105.25,173.46c.11-.27,3.79-3.43,4.56-3.57,3.16-.6,7.45.43,10.92,0,5.96-.73,23.06-6.59,22.32,4.99-.03.52-4.49,8.84-4.92,9.14-2.08,1.47-9.81,1.81-12.91,2.35-1.98.35-3.03,2.05-5.41,2.05-7.66,0-18.34-5.78-14.56-14.96Z"/>
  <path class="st4" d="M990.22,75.22c.36.38-.26,2.31.31,2.89.63.63,2.9-.33,3.14.81.97,4.51-.14,8.72-3.89,11.4-1.69,1.2-18.87,8.61-21.26,9.27-1.05.29-5.3.28-6-.49-.35-.38-3.55-9.06-3.63-9.57-.22-1.32,1.03-2.33,1.94-3.09.96-.82,21.45-10.79,22.67-11.12,1.33-.36,6.13-.71,6.72-.09Z"/>
  <path class="st19" d="M919.9,27.72c.67,1.03,2.82,1.09,2.72,4.25-.18,5.76-11.65,11.92-16.32,6.61-.71-.81-7.49-16.55-7.49-17.5,0-1.05,4.82-9.52,5.31-9.9,6-4.52,13.18,12.54,15.77,16.54Z"/>
  <path class="st19" d="M979.42,3.08c1.18-.94,1.51-2.74,4.04-3.07.85-.11,7.49.78,7.8,1.04,1.41,1.19.46,4.92.16,6.39-4.8-.54-6.5-5.8-11.99-4.36Z"/>
  <path class="st19" d="M969.61,15.07c-2.44,4.74-1.91,2.38-4.36,4.36.13-2.54,1.78-4.23,4.36-4.36Z"/>
  <path class="st19" d="M973.97,9.62c.03,2.21-1.08,3.36-3.27,3.27,2.06-4.18,2.78-2.7,3.27-3.27Z"/>
  <g>
    <g>
      <path class="st22" d="M680.66,523.19c-.32,13.52-5.57,28.6-7.51,42.11l-2.31,29.86c-4.91,1.02-17.29-3.35-22.9-4.36.77-2.1-5.42-4.97-6.26-5.19-8.19-2.13-11.92,2.08-11.21,10.03l5.47.61c.14,1.87.72,2.7,2.2,3.79,3.68,2.74,25.6,7.02,30.52,7.11.7,10.04-.83,19.66-2.72,29.45s-4.83,24.53-7.91,33.53c-1.25,3.67-1.72,6.58-5.18,8.99-21.2,14.79-44.36,13.14-68.75,12.03-9.51-.43-19.18-2.01-28.85-1.14-.72-4.89-.48-11.06-1.35-15.55-.64-3.29-4.21-15.61-5.43-18.56-1.48-3.61-9.52-7.21-12.88-3.53-4.6,5.06.97,13.69,1.95,18.82,1.07,5.66.64,12.27,1.35,17.73l-97.04-3.27c1.53-2.83,2.38-5.89,3.77-8.77,2.53-5.27,7.13-8.81,7-15.69-.38-1.49-11.73-4.31-13.34-3.98-1.23.25-3.22,7.31-3.97,8.81-1.8-.44-3.16-1.7-4.89-.04-2.3,2.19-5.66,13.86-7.1,17.49-.33-.1-.76.11-1.09,0s-.73.08-1.09,0l-1.09-1.09c-28.55-2.83-82.6,5.36-104.69-13.62-5.33-4.58-7.84-11.02-14.03-14.32l3.14-45.11c7.34-8.73,17.38-20.82,25.6-28.38,4.15-3.82,21.76-13.11,22.15-17.07.51-5.21-2.05-6.85-7.02-6.83-6.41.02-27.76,20.24-33.07,25.64-1.14,1.17-3.13,1.38-3.3,1.56l7.63-59.97c.36,0,.73,0,1.09,0,120.83.77,242.44,1.27,363.1-1.09ZM566.94,529.94c-3.8.57-5.97,6.23-6.83,9.54-1.48,5.69-2.6,19.84-2.55,25.8.06,7.04,3,16.13,11.89,11.88,5.39-2.58,8.3-38.59,5.74-43.91-1.15-2.4-5.8-3.67-8.25-3.31ZM474.43,541.87c-1.77-1.1-22.27-1.96-26.45-2.44-8.08-.91-34.52-9.35-27.86,8.24,2.3,6.08,8.42.49,13.52.56,2.53.04,10.21,1.59,13.13,2.22,1.49.32,2.81,0,3.82,1.63-4.63,3.05-21.43,8.26-24.01,12.23-2.89,4.44,4.43,5.78,6.1,10.1l42.52-20.65c2.86-.92-.23-11.57-.76-11.9ZM520.37,576.61c-8.19-2.14-30.56-4.92-37.51.1-3.38,2.44,0,9.61,1.72,10.62.78.46,7.01-.58,8.53-.91,8.43,2.84,16.98,1.66,25.53,2.27,2.58.18,4.69,2.29,7.42,1.85,5.08-.81,6.44-3.93,4.99-8.82-1.13-3.81-7.6-4.3-10.69-5.11Z"/>
      <path class="st12" d="M555.26,690.01c2.72,18.56,5.65,35.01,3.26,53.96-1.07,8.5-2.66,10.05-9.47,14.51-15.66,10.26-34.64,16.82-52.7,21.48-2.98,5.18,9.81,20.54,2.55,23.24-.82.31-8.75,1.46-9.57,1.35-3.21-.44-4.76-7.61-5.71-10.73-.86-2.84-5.26-21.03-4.59-21.93.38-.51,2.73-.43,3.55-1.07,1.09-.85.85-3.1,2.27-4.54,3.87-3.9,27.34-6.41,35.17-9.56,30.56-12.27,22.27-41.7,18.89-67.8-.71-5.46-.28-12.07-1.35-17.73-.97-5.13-6.55-13.76-1.95-18.82,3.36-3.69,11.4-.08,12.88,3.53,1.21,2.95,4.79,15.28,5.43,18.56.87,4.5.63,10.66,1.35,15.55Z"/>
      <path class="st12" d="M308.84,584.25c.17-.18,2.15-.39,3.3-1.56,5.3-5.41,26.65-25.62,33.07-25.64,4.97-.02,7.52,1.63,7.02,6.83-.38,3.96-18,13.25-22.15,17.07-8.22,7.56-18.25,19.65-25.6,28.38-13.9,16.52-26.15,34.35-36.94,53.09,2.42,5.75,10.69,12.58,9.2,18.88-2.58,10.9-13.28,3.45-18.61-1.08-12.67,21.17-26.44,8.37-13.65-10.38-17.22-6.08-17.68-25.18,4.69-19.92,2.6.61,5.85,4.2,8.43,2.55.88-.56,5.33-9.75,6.74-11.85,11.19-16.62,30.98-42.16,44.5-56.36Z"/>
      <path class="st23" d="M421.15,683.47c-.76-.18-1.01-1.08-1.09-1.09l1.09,1.09Z"/>
      <path class="st18" d="M474.43,541.87c.53.33,3.62,10.99.76,11.9l-42.52,20.65c-1.67-4.32-8.99-5.66-6.1-10.1,2.59-3.97,19.38-9.18,24.01-12.23-1.01-1.64-2.33-1.31-3.82-1.63-2.92-.63-10.6-2.18-13.13-2.22-5.09-.07-11.22,5.52-13.52-.56-6.66-17.59,19.78-9.15,27.86-8.24,4.18.47,24.69,1.33,26.45,2.44Z"/>
      <path class="st21" d="M566.94,529.94c2.45-.37,7.1.91,8.25,3.31,2.56,5.32-.36,41.33-5.74,43.91-8.89,4.26-11.82-4.84-11.89-11.88-.05-5.96,1.07-20.11,2.55-25.8.86-3.3,3.04-8.97,6.83-9.54Z"/>
      <path class="st12" d="M520.37,576.61c-.31,2.55,1.23,8.71-1.8,9.71-2.53.83-15.59-2.06-19.48-2.08-3.21-.02-4.54,1.88-5.99,2.19s-7.75,1.36-8.53.91c-1.72-1.01-5.1-8.18-1.72-10.62,6.95-5.02,29.32-2.24,37.51-.1Z"/>
      <path class="st14" d="M520.37,576.61c3.09.81,9.56,1.31,10.69,5.11,1.45,4.89.09,8-4.99,8.82-2.73.44-4.84-1.67-7.42-1.85-8.55-.61-17.11.57-25.53-2.27,1.45-.31,2.78-2.21,5.99-2.19,3.89.02,16.95,2.91,19.48,2.08,3.03-.99,1.48-7.16,1.8-9.71Z"/>
      <g>
        <path class="st21" d="M441.87,685.65c-16.82,31.14-37.29,63.62-56.24,93.69-4.2,6.66-17.71,22.89-19.54,28.52-1.58,4.86,6.17,13.9,7.17,18.97-14.74,17.9-11.63,3.86-18.14-4.82-2.88-3.84-8.12-4.36-8.16-10.4-.04-6.42,5.33-10.29,7.88-15.08,19.19-35.92,46.4-67.8,64.12-104.34,2.3.44,3.71-4.78,5.45-7.63,3.8-6.22,7.61-11.98,10.9-18.54.76-1.5,2.75-8.56,3.97-8.81,1.61-.33,12.96,2.49,13.34,3.98.13,6.88-4.47,10.42-7,15.69-1.39,2.88-2.24,5.94-3.77,8.77Z"/>
        <path class="st23" d="M424.42,684.56c-1.74,2.86-3.15,8.07-5.45,7.63,1.33-2.74,3.21-5.55,3.27-8.72.33.11.76-.1,1.09,0,.52.15.9.59,1.09,1.09Z"/>
        <path class="st9" d="M435.32,666.02c-3.29,6.56-7.11,12.32-10.9,18.54-.19-.5-.57-.94-1.09-1.09,1.44-3.63,4.81-15.29,7.1-17.49,1.73-1.65,3.09-.4,4.89.04Z"/>
      </g>
      <path class="st22" d="M319.74,506.83c2.05-14.79,2.91-31.33,5.97-45.83,3.85-18.29,11.49-26.61,30.68-29.29,70.18-9.83,135.85-3.7,205.84,2.19,28.17,2.37,67.52,1.1,93.58,6.74,12.13,2.62,28.41,6.68,30.18,21.06,1.97,15.98-1.32,29.03-2.05,44.03-121.48,0-242.52.97-364.19,1.09ZM481.6,479.12c-1.11-1.59-2.21-3.86-4.26-3.9-1.72-.03-14.07,6.37-18.85,7.33-7.12,1.43-21.93,2.44-29.16,2.24-11.94-.32-25.98-10.47-38.75-3.51,2.01,3.72-1.03,10.77,4.13,11.14,4.41.32,5.89-3.26,13.59-.76,18.46,5.99,45.59,6.69,64.85-1,1.14-.46,8.59-4.62,8.98-5.18,2.75-3.96.81-4.47-.52-6.37ZM626.08,489.34c1.77-1.86-1.99-7.77-4.59-8.94-8.78-3.97-40.08-5.72-50.4-5.18-12.04.63-23.55,4.91-35.45,6.54l1.09,11.99c7.1.99,13.37-3.53,20.27-4.28,15.58-1.69,31.24,1.51,46.8,3.17,3.04.33,15.36,1.63,17.26,1.15,1.55-.39.93-3.39,2.09-4.21.75-.53,2.68.02,2.93-.24Z"/>
      <path class="st12" d="M626.08,489.34c-.25.26-2.18-.29-2.93.24-1.16.83-.54,3.82-2.09,4.21-1.9.48-14.22-.83-17.26-1.15-15.56-1.66-31.22-4.86-46.8-3.17-6.9.75-13.18,5.27-20.27,4.28l-1.09-11.99c11.9-1.62,23.41-5.91,35.45-6.54,10.33-.54,41.63,1.22,50.4,5.18,2.59,1.17,6.35,7.08,4.59,8.94Z"/>
      <path class="st21" d="M481.6,479.12c1.33,1.9,3.27,2.41.52,6.37-.39.56-7.84,4.73-8.98,5.18-19.26,7.69-46.38,6.99-64.85,1-7.7-2.5-9.19,1.08-13.59.76-5.15-.37-2.12-7.42-4.13-11.14,12.77-6.96,26.81,3.19,38.75,3.51,7.23.2,22.03-.81,29.16-2.24,4.78-.96,17.13-7.37,18.85-7.33,2.06.04,3.15,2.31,4.26,3.9Z"/>
      <g>
        <path class="st8" d="M729.72,505.74c1.22-3.48,5.53-9.57,4.23-13.45-1.22-3.63-17.37-7.25-12.37-19.24,4.44-10.66,17.72-.92,19.45-1.25,3.28-.62,5.92-14.98,15.28-9.54,7.13,4.15-.4,16.98.69,18.4,10.19-5.38,18.73,4.94,12.02,13.66s-21.95,2.22-23.91,3.9c-.58.5-.73,5.18-1.2,6.42-2.34,6.14-5.2,12.37-7.63,18.54-10.32,26.21-26.17,63.77-50.88,79.42-4.28,2.71-11.64,4.63-16.72,4.54s-26.83-4.37-30.52-7.11c-1.47-1.1-2.05-1.93-2.2-3.79-.67-8.79,6.46-6.45,11.99-5.45s17.99,5.38,22.9,4.36c.65-.13,10.18-5.65,11.45-6.54,19.06-13.37,28.88-43.55,38.71-64.33.39-.81,1.52-1.9,2.18-3.27,2.18-4.56,4.64-8.11,6.54-13.08.21-.54-.2-1.61,0-2.18Z"/>
        <path class="st9" d="M635.95,596.24l-5.47-.61c-.72-7.95,3.02-12.15,11.21-10.03.84.22,7.03,3.09,6.26,5.19-5.53-1-12.67-3.34-11.99,5.45Z"/>
      </g>
    </g>
    <g>
      <g>
        <g>
          <path class="st1" d="M668.66,353.09c-1-10.09,2.04-18.09,2.17-26.72.35-22.25-8.09-47.19-7.4-69.77.78-25.17.72-50.89-.18-76.38-.71-19.95-7.18-55.74,1.7-73.45,2.03-4.05,14.86-18.81,18.57-20.69s6.3-.57,9.39-1.52c30.7-9.39,52.7-7.75,84.26-9.52,46.4-2.59,87.86-4.24,132.85,5.81,23.25,5.19,29.61,22.76,33.15,44.06,6.96,41.9.3,77.4-3.22,118.58-2.22,25.97-6.58,56.47-7.31,81.89-.24,8.32,2.48,18.61,2.08,26.6-.04.71.11,1.52,0,2.18-.58,3.46-2.39,8.71-3.27,13.08-.07.34-.87,1.19-1.09,2.18-1.08,4.78-2.07,17.23-4.68,20.41-.59.71-2.19,1.03-3,1.88-13.36,13.87-32.43,7.99-49.62,10.37-20.7,2.87-34.57,4.4-55.6,5.47-23.6,1.2-46.16,8.25-69.93,8.34-14.84.05-36.76-4.38-50.51-9.39-.12-3.31,2.29-8.7,2.1-11.54-.13-1.97-1.88-2.46-2.56-3.81s-.53-3.42-1.15-4.29c-1.9-2.68-11.65-.37-14.74.03-.11-3.25-1.55-6.22-2.07-9.38-.96-5.82,2.78-9.27-5.57-8.07-1.52-3.76-3.97-12.36-4.36-16.36ZM754.57,176.2c.43-.24,5.4-7.7,5.52-8.18.66-2.65-5.07-6.32-7.45-7.4-13.61-6.16-39.22-5.77-50.21,5.43-6.41,6.54-1.86,5.88.1,8.97.95,1.51.72,5.08,2.8,5.73.9.28,14.94-5.19,17.86-5.93,6.13-1.55,19.1-4.89,24.45-1.52,1.61,1.02,2.35,5.49,6.93,2.9ZM844.21,167.76c-.55-.74-15.37-5.54-17.42-6.05-16.25-4.07-31.46,2.08-44.8,10.99,7.15,14.62,6.45,9.37,16.43,5.39,8.72-3.48,15.2-2.73,24.23-1.34,3.17.49,16.34,4.37,17.62,3.98,1.58-.48,4.35-12.42,3.94-12.97ZM721.27,239.43c1.09.54,4.84-1.04,5.78-1.87,2.48-2.17,2.83-7.3,2.74-10.43-.19-7.28-.99-21.29-2.51-28.07-2.35-10.44-13.51-13.6-16.47-3.9-2.47,8.12-2.09,24.53-.66,33.01,1.17,6.93,5.14,7.52,10.48,9.76.38.16.41,1.39.63,1.5ZM778.94,190.77c-3.71,2.34-6.28,47.04,11.9,44.1,11.01-1.78,4.04-22.45,3.23-30.63-.58-5.86,2.44-13.42-6.25-14.49-.82-.1-8.5.78-8.88,1.02ZM796.24,270.22c3.11-1.64,10.17-4.63,12.57-6.51.83-.65,12.57-15.47,13.03-16.41,2.54-5.16-1.13-4.04-3.75-6.01-1.81-1.36-3.16-4.39-5.85-3.69-11.64,14.81-27.68,21.21-44.13,29.02l-27.36,5.9c.1,3.38-.13,11.18,3.7,11.9,6.21,1.17,25.2-4.6,32.15-6.57,9.21-2.61,11.08-3.13,19.63-7.63Z"/>
          <path class="st13" d="M776.61,277.85c-6.96,1.97-25.94,7.74-32.15,6.57-3.83-.72-3.6-8.51-3.7-11.9l27.36-5.9c16.45-7.81,32.49-14.21,44.13-29.02,2.69-.7,4.04,2.33,5.85,3.69,2.62,1.97,6.29.85,3.75,6.01-.46.94-12.2,15.77-13.03,16.41-2.4,1.88-9.47,4.87-12.57,6.51.47-3.29-1.18-2.29-3.3-1.66-4.09,1.21-9.59,4.16-13.46,6.22-1.53.82-3.45.43-2.87,3.07Z"/>
          <path class="st6" d="M754.57,176.2c-4.58,2.59-5.32-1.88-6.93-2.9-5.35-3.37-18.32-.03-24.45,1.52-2.92.74-16.96,6.21-17.86,5.93-2.08-.64-1.84-4.22-2.8-5.73-1.96-3.09-6.51-2.44-.1-8.97,10.99-11.21,36.6-11.59,50.21-5.43,2.38,1.08,8.11,4.75,7.45,7.4-.12.48-5.09,7.94-5.52,8.18Z"/>
          <path class="st6" d="M844.21,167.76c.41.55-2.36,12.5-3.94,12.97-1.28.39-14.45-3.49-17.62-3.98-9.03-1.4-15.51-2.14-24.23,1.34-9.98,3.98-9.28,9.23-16.43-5.39,13.34-8.91,28.55-15.06,44.8-10.99,2.05.51,16.87,5.31,17.42,6.05Z"/>
          <path class="st10" d="M721.27,239.43c-.22-.11-.25-1.34-.63-1.5-5.34-2.24-9.31-2.83-10.48-9.76-1.44-8.49-1.82-24.89.66-33.01,2.95-9.7,14.12-6.54,16.47,3.9,1.52,6.78,2.32,20.79,2.51,28.07.08,3.12-.27,8.26-2.74,10.43-.95.83-4.69,2.41-5.78,1.87Z"/>
          <path class="st10" d="M778.94,190.77c.38-.24,8.05-1.12,8.88-1.02,8.69,1.07,5.66,8.63,6.25,14.49.81,8.18,7.78,28.85-3.23,30.63-18.17,2.93-15.61-41.77-11.9-44.1Z"/>
          <path class="st19" d="M673.02,369.44c8.35-1.21,4.61,2.25,5.57,8.07.52,3.17,1.96,6.14,2.07,9.38,3.09-.39,12.84-2.7,14.74-.03.62.87.47,2.94,1.15,4.29s2.43,1.84,2.56,3.81c.19,2.85-2.21,8.23-2.1,11.54-4.76-1.73-10.12-3.27-13.81-6.97-.73-.74-5.04-9.68-5.23-10.55-1.98-8.82-1.33-9.42-4.95-18.45-.13-.31.13-.78,0-1.09Z"/>
          <path class="st20" d="M776.61,277.85c-.58-2.64,1.34-2.26,2.87-3.07,3.87-2.07,9.37-5.01,13.46-6.22,2.12-.63,3.77-1.63,3.3,1.66-8.55,4.5-10.42,5.03-19.63,7.63Z"/>
        </g>
        <g>
          <path class="st1" d="M194.35,354.18c-12.61-15.67-29.23-56.9-30.58-76.83-1.55-22.96,4.8-44.65,11.44-66.07,4.47-14.42,12.43-39.87,21.85-51.2,15.57-18.74,37.38-29.13,58.03-40.06,32.28-17.08,93.67-14.33,125.94,2.22,16.75,8.59,37.6,25.58,48.82,40.59,9.52,12.74,14.85,33.56,17.29,49.23,5.97,38.32,11.24,99.01-10.69,132.88-2.24,3.46-5.14,4.84-6.57,8.14-2.48-.6-2.03,2.08-2.18,2.18-7.58,5.15-15.33,10.9-22.9,16.36-9.13,6.58-13.88,10.29-22.38,17.41-13.89,11.63-25.84,10.22-41.71,14.99-12.04,3.62-18.31,9.73-32.31,7.85-4.84-.65-10.36-4.34-14.52-5.11-18.02-3.33-34.44-4.04-51.54-13.34-2.44-1.33-8.21-5.68-10.9-7.63-4.55-3.29-11.76-12.18-17.45-13.08-.34-3.63-7.3-6.44-9.81-8.72-1.79-1.63-7.76-7.57-8.72-8.72-.33-.39-.77-.7-1.09-1.09ZM369.06,199.58c.87-.75,9.21-2.41,10.91-2.21,8.22.94,34.3,18.59,32.55-.76-.31-3.43-2.54-5.21-5.54-6.53-11.43-5.02-34.87-9.72-45.75-2.13-3.22,2.25-10.28,13.68-6.44,16.71.52.41,3.03.04,4.44.44,2.35.66,5.19,2.7,8.2-.58.98-1.07.5-3.96,1.63-4.93ZM285.94,199.34c-7.31,1.11-19.15,19.08-14.28,24.66,1.19,1.37,3.64,1.1,4.25,1.8,1,1.14-1.51,4.7,4.64,2.5,5.14-1.85,3.97-4.5,5.39-7.14,5.58-10.42,7.98-11.3,17.12-17.78.86-.61,1.23-2.76,3.17-3.91,6.42-3.81,12.34,4.4,18.94,4.25,3.16-10.56,6.46-11.61-5.2-16.03-14.18-5.37-24.67.72-34.02,11.67ZM388.32,270.1c.43-.3,2.29-7.86,2.3-9.15.03-8.02-2.13-31.13-6.04-37.57-5.9-9.75-10-3.81-16.92.58,3.67,8.37,7.4,17.89,7.74,27.14.14,3.93-2.37,14.95.65,17.04,1.14.79,11.32,2.63,12.27,1.96ZM317.56,263.68c.5,2.45,1.97,8.63,4.84,8.7.76.02,9.99-2.93,10.27-3.39.62-.98.08-5.64.15-7.48.28-7.38-.35-36.29-5.48-40.85-2.97-2.64-8.26-1.26-10.8,1.12-3.65,3.42.65,15.35,1.01,20.66.46,6.82-1.13,15.64.01,21.25ZM359,282.21c-10.36-.66-21.81-1.23-32.13,1.12-1.14.26-5.84,3.29-6.04,4.01-1.79,6.44,2.92,10.3,4.9,15.6,3.92,10.49,6.16,25.64,15.29,32.69,5.54,4.27,11.97,6.36,17.94,1.59,6.22-4.98,20.93-40.53,19.5-47.73-.32-1.6-1.49-2.05-2.01-2.92-.16-.27.27-1.38-.26-1.89-3.77-3.64-12.27-2.16-17.18-2.48Z"/>
          <path class="st6" d="M369.06,199.58c-1.13.97-.65,3.86-1.63,4.93-3.01,3.29-5.85,1.25-8.2.58-1.41-.4-3.92-.03-4.44-.44-3.84-3.03,3.22-14.46,6.44-16.71,10.88-7.59,34.32-2.89,45.75,2.13,3,1.32,5.23,3.1,5.54,6.53,1.75,19.35-24.32,1.7-32.55.76-1.7-.19-10.04,1.47-10.91,2.21Z"/>
          <path class="st10" d="M285.94,199.34c9.35-10.94,19.84-17.04,34.02-11.67,11.66,4.42,8.36,5.47,5.2,16.03-6.6.15-12.52-8.05-18.94-4.25-1.93,1.15-2.31,3.3-3.17,3.91-9.14,6.49-11.54,7.37-17.12,17.78-19.01-.39-7.16-11.58-.62-19.69.52-.65.38-1.84.62-2.12Z"/>
          <path class="st10" d="M388.32,270.1c-.95.67-11.14-1.17-12.27-1.96-3.02-2.09-.51-13.11-.65-17.04-.34-9.25-4.07-18.78-7.74-27.14,6.92-4.38,11.02-10.32,16.92-.58,3.91,6.45,6.07,29.55,6.04,37.57,0,1.29-1.87,8.85-2.3,9.15Z"/>
          <path class="st13" d="M332.83,261.5c-4.19-1.11-4.09,4.15-7.07,4.4-2.27.19-5.91-1.51-8.2-2.22-1.14-5.62.45-14.43-.01-21.25-.36-5.32-4.66-17.24-1.01-20.66,2.54-2.38,7.83-3.76,10.8-1.12,5.13,4.56,5.76,33.47,5.48,40.85Z"/>
          <path class="st20" d="M285.94,199.34c-.23.27-.09,1.47-.62,2.12-6.54,8.11-18.39,19.3.62,19.69-1.42,2.65-.25,5.3-5.39,7.14-6.15,2.21-3.64-1.35-4.64-2.5-.61-.7-3.06-.43-4.25-1.8-4.87-5.57,6.98-23.55,14.28-24.66Z"/>
          <path class="st20" d="M332.83,261.5c-.07,1.85.47,6.5-.15,7.48-.29.46-9.51,3.41-10.27,3.39-2.87-.07-4.34-6.24-4.84-8.7,2.29.72,5.93,2.42,8.2,2.22,2.97-.26,2.88-5.51,7.07-4.4Z"/>
          <g>
            <path class="st13" d="M359,282.21c-.43,4.5,2.15,8.12-1.09,11.99-1.27-.39-18.61-.26-20,.17-4.48,1.4.27,3.91.37,4.19,1.9,5.28,6.06,28.61,13.59,27.31,1.1-.19,8.31-17.63,9.34-20.19,1.2-2.97,1.22-6.9,2.15-9.3.06-.16,1.2-.43,1.54-1.2.82-1.8.6-3.95,2.19-5.43,1.51-1.39,7.02-2.96,9.35-3.19.52.87,1.69,1.32,2.01,2.92,1.42,7.21-13.28,42.76-19.5,47.73-5.97,4.77-12.4,2.68-17.94-1.59-9.13-7.04-11.36-22.2-15.29-32.69-1.98-5.3-6.69-9.16-4.9-15.6.2-.73,4.9-3.75,6.04-4.01,10.33-2.35,21.78-1.78,32.13-1.12Z"/>
            <path class="st20" d="M359,282.21c4.92.31,13.41-1.17,17.18,2.48.53.51.1,1.62.26,1.89-2.33.23-7.84,1.8-9.35,3.19-1.6,1.47-1.38,3.63-2.19,5.43-.35.76-1.48,1.04-1.54,1.2-1.38.17-3.08-.24-4.36,0-.38-.48-.87-2.11-1.09-2.18,3.24-3.87.66-7.49,1.09-11.99Z"/>
            <path class="st1" d="M363.36,296.39c-.93,2.41-.95,6.33-2.15,9.3-1.03,2.55-8.24,20-9.34,20.19-7.53,1.31-11.69-22.02-13.59-27.31,6.96.27,14.13-.94,20.72-2.18,1.28-.24,2.98.17,4.36,0Z"/>
            <path class="st0" d="M357.91,294.21c.22.07.71,1.7,1.09,2.18-6.58,1.24-13.76,2.45-20.72,2.18-.1-.27-4.85-2.79-.37-4.19,1.39-.43,18.73-.56,20-.17Z"/>
          </g>
        </g>
      </g>
      <g>
        <path class="st15" d="M194.35,354.18c.32.39.76.7,1.09,1.09l-13.09,1.08c.45,2.84-1.09,11.14,1.03,12.61,1.04.72,17.33.89,19,.33,2.28-.77,1.86-3.51,1.79-5.3,2.51,2.29,9.48,5.09,9.81,8.72l-64.65.22c-3.28.98-28.71,32.13-33.49,37.38-1.29,1.41-2.19,2.7-4.35,2.74,1.74-2.59,8.97-12.85,8.8-14.69-.19-2.12-8-7.88-10.48-6.12-1.37.97-11.42,14.71-11.44,15.88l10.94,7.12c-.28.39.21,3-1.03,3.84l-77.48,87.74c95.94-.05,191.92.1,287.86.01l-1.09,17.45c-.36,0-.73,0-1.09,0-3.21-.02-7.16-1.08-8.72-1.09v-13.08h-20.72v13.08c-9.27.13-17.93.39-27.26,0v-13.08h-20.72v13.09c2.89.05,5.82-.08,8.72,0l-3.77,2.18c-76.36-1.91-153.95,2.55-230.17,0-2.1-.07-4.38,1.11-3.77-2.18,3.63.06,7.28-.04,10.91,0v-12.01s-18.54,0-18.54,0c8.72-13.75,19.96-22.03,29.44-33.8l9.44,6.44c1.09.16,12.07-14.39,12.21-15.9.29-3.11-6.43-4.96-7.48-7.99,8.52-7.91,17.31-19.74,25.28-28.7,1.25-1.41,1.69-3.02,4.16-2.92-3.33,4.77-6.32,9.98-9.82,14.68,2.99,1.58,8.28,8.41,11.49,6.13,1.4-.99,11.61-14.88,11.38-15.83l-10.88-7.17c15.2-20.88,34.04-40.75,51.45-60.32,1.25-1.41,1.69-3.02,4.16-2.92.08,1.48-.33,3.34.15,4.72,1.3,3.7,17.55,1.01,21.66,1.83v-13.1c-5.42.19-10.94-.25-16.36,0-.02-2.95,1.29-3.06,3.76-3.33,11.98-1.33,33.38-.58,45.9.02,2.06.1,4,.54,5.94,1.13ZM68.96,510.1h-20.72v13.08h20.72v-13.08ZM116.93,510.1h-20.17c-2.59,0-1.42,10.76-1.64,13.08h21.81v-13.08ZM143.1,510.1v13.08h21.81v-13.08h-21.81ZM191.08,510.1v13.08h20.72v-13.08h-20.72Z"/>
        <path class="st15" d="M946.71,465.4c-.97,1.83-7.07,13.46-6.54,14.16,4.51.64,7,5.3,11.99,4.38-4.57,8.13-10.17,14.33-14.65,21.88-.92,1.54-.4,3.86-1.64,5.99-1.12,1.93-6.79,7.21-8.79,8.11-.43-1.46.6-11.99,0-11.99h-21.81c.45,2.84-1.1,11.14,1.02,12.61,1.12.78,16.16.8,18.61.48-.39,5.65-5.9,2.19-9.22,2.13-59.76-1.02-119.65.87-179.41.05,2.43-6.17,5.29-12.4,7.63-18.54,1.13,1.81,4.14,1.09,5.98,1.11,54.87.68,109.79-.55,164.67,0l2.15-1.12c8.71-11.99,17.09-24.3,26.05-36.1,1.13-1.49,1.46-3.29,3.95-3.14ZM784.24,507.92h-21.81v13.08h21.81v-13.08ZM810.41,507.92v13.08h20.72v-13.08h-20.72ZM858.39,507.92v13.08h20.72v-13.08h-20.72Z"/>
        <path class="st11" d="M924.9,521c-2.44.33-17.48.31-18.61-.48-2.12-1.47-.57-9.77-1.02-12.61h21.81c.6,0-.43,10.53,0,11.99-.65.29-.99.93-2.18,1.09Z"/>
        <path class="st7" d="M247.78,523.19c-2.9-.07-5.83.05-8.73,0v-13.09h20.72v13.08c-3.97-.16-8.01.1-11.99,0Z"/>
        <path class="st7" d="M287.03,523.19v-13.08h20.72v13.08c-6.88-.05-13.84-.1-20.72,0Z"/>
        <path class="st3" d="M2.44,511.19h18.54s0,12,0,12c-3.63-.05-7.28.05-10.91,0-3.26-.05-6.56.04-9.82,0,.55-3.26-.77-8.43-.02-11.29.32-1.21,2.15-.61,2.21-.71Z"/>
        <path class="st23" d="M683.93,505.74c-.04.72.02,1.46,0,2.16h-16.37s0,13.12,0,13.12h13.1c-.01.71.02,1.44,0,2.16-120.66,2.36-242.26,1.86-363.1,1.09l1.09-17.45c.36,0,.73,0,1.09,0,121.67-.12,242.71-1.09,364.19-1.09ZM355.73,522.1c-.45-2.84,1.1-11.14-1.02-12.61-1.25-.87-18.57-.84-19.77,0-2.11,1.48-.57,9.73-1.02,12.61h21.81ZM403.7,522.1c-.21-2.33.96-13.08-1.64-13.08h-20.17v13.08h21.81ZM429.87,509.01v13.08h20.72v-13.08h-20.72ZM476.76,509.01v13.08h21.81v-13.08h-21.81ZM545.45,509.01h-21.81c.21,2.33-.96,13.08,1.64,13.08h20.17v-13.08ZM593.43,509.01h-21.81c.45,2.84-1.1,11.14,1.02,12.61,1.25.87,18.57.84,19.77,0,2.11-1.48.57-9.73,1.02-12.61ZM640.31,509.01h-20.72c.21,2.33-.96,13.08,1.64,13.08h19.08v-13.08Z"/>
        <rect class="st11" x="143.1" y="510.1" width="21.81" height="13.08"/>
        <path class="st11" d="M116.93,510.1v13.08h-21.81c.21-2.33-.96-13.08,1.64-13.08h20.17Z"/>
        <rect class="st7" x="48.24" y="510.1" width="20.72" height="13.08"/>
        <rect class="st7" x="191.08" y="510.1" width="20.72" height="13.08"/>
        <path class="st15" d="M729.72,505.74c-.2.57.21,1.64,0,2.18h-14.18s0,13.09,0,13.09h7.64c-.66,1.37-1.8,2.45-2.18,3.27-1.13-1.81-4.14-1.09-5.98-1.11-11.42-.14-22.96-.2-34.36.02.02-.73-.01-1.45,0-2.16h7.65s0-13.12,0-13.12h-4.38c.02-.71-.04-1.44,0-2.16h45.8Z"/>
        <path class="st7" d="M729.72,507.92c-1.9,4.97-4.36,8.53-6.54,13.08h-7.64s0-13.09,0-13.09h14.18Z"/>
        <rect class="st11" x="762.44" y="507.92" width="21.81" height="13.08"/>
        <rect class="st7" x="858.39" y="507.92" width="20.72" height="13.08"/>
        <rect class="st7" x="810.41" y="507.92" width="20.72" height="13.08"/>
        <rect class="st3" x="476.76" y="509.01" width="21.81" height="13.08"/>
        <path class="st3" d="M545.45,509.01v13.08h-20.17c-2.59,0-1.42-10.76-1.64-13.08h21.81Z"/>
        <path class="st3" d="M403.7,522.1h-21.81v-13.08h20.17c2.59,0,1.42,10.76,1.64,13.08Z"/>
        <path class="st3" d="M355.73,522.1h-21.81c.45-2.88-1.09-11.13,1.02-12.61,1.2-.84,18.52-.87,19.77,0,2.12,1.47.57,9.77,1.02,12.61Z"/>
        <path class="st3" d="M593.43,509.01c-.45,2.88,1.09,11.13-1.02,12.61-1.2.84-18.52.87-19.77,0-2.12-1.47-.57-9.77-1.02-12.61h21.81Z"/>
        <rect class="st3" x="667.55" y="507.9" width="20.76" height="13.12"/>
        <rect class="st3" x="429.87" y="509.01" width="20.72" height="13.08"/>
        <path class="st3" d="M640.31,509.01v13.08h-19.08c-2.59,0-1.42-10.76-1.64-13.08h20.72Z"/>
      </g>
      <g>
        <path class="st15" d="M429.87,353.09h238.79c.4,4,2.84,12.6,4.36,16.36.13.31-.13.78,0,1.09l-268.23,1.09c7.57-5.46,15.31-11.21,22.9-16.36v13.08h20.74v-13.1h-20.74v.02c.15-.1-.3-2.78,2.18-2.18ZM476.76,355.27v13.08h20.72v-13.08h-20.72ZM525.82,355.27v13.08h20.72v-13.08h-20.72ZM574.89,355.27v13.08h20.72v-13.08h-20.72ZM623.96,355.27v13.08h20.72v-13.08h-20.72Z"/>
        <path class="st15" d="M934.72,352l105.66.1,1.07,15.52c-9.79,9.74-18.02,20.69-26.08,31.83-.95,1.31-.77,3.26-3.24,2.7,1.1-2.11,5.82-12.2,5.54-13.51-.14-.65-10.04-6.16-12.08-5.03l8.72-14.17h-83.95c.22-1,1.02-1.84,1.09-2.19h7.64c-.2-3.79.26-7.69,0-11.48-.21-3.11-2.7-1.14-4.37-1.6.11-.66-.04-1.47,0-2.18ZM988.14,354.18h-21.81v13.08h21.81v-13.08ZM1037.21,354.18h-21.81v13.08h21.81v-13.08Z"/>
        <path class="st15" d="M1005.59,384.71c-1.74,3.31-8.38,15.25-7.72,17.91.13.54,8.51,3.79,9.9,4.99-3.53,5.93-6.79,11.83-11.1,17.79-2.12,2.92-5.08,8.31-8.52,9.47.59-1.19,2.68-6.76,2.11-7.55-2.71-.12-9.92-5.73-11.84-4.37-.11,3.92-9.31,15.29-8.73,17.81.51,2.2,8.28,3.72,9.73,6.11-6.64,10.31-13.23,20.92-21.11,30.69-1.16,1.44-1.52,3.28-3.97,3.11,1.14-2.23,6.84-13.4,6.63-14.62-.1-.6-9.08-5.48-10.99-5.01,14.58-24.69,33.97-50,51.66-73.19,1.13-1.48,1.46-3.29,3.95-3.14Z"/>
        <path class="st11" d="M75.5,428.32c.29-.42,1.4-1.1,2.18-2.18l10.88,7.17c.22.95-9.99,14.84-11.38,15.83-3.21,2.28-8.5-4.55-11.49-6.13,3.49-4.7,6.48-9.91,9.82-14.68Z"/>
        <path class="st11" d="M138.74,356.36c5.42-.25,10.94.19,16.36,0v13.1c-4.11-.82-20.36,1.87-21.66-1.83-.48-1.38-.08-3.24-.15-4.72-.11-2.17.07-4.38,0-6.55,1.81-.07,3.65.09,5.46,0Z"/>
        <path class="st11" d="M1005.59,383.62c2.04-1.13,11.94,4.38,12.08,5.03.28,1.31-4.44,11.4-5.54,13.51-.99,1.89-3.62,4.21-4.36,5.45-1.39-1.2-9.76-4.45-9.9-4.99-.66-2.67,5.98-14.61,7.72-17.91.15-.28-.15-.81,0-1.09Z"/>
        <path class="st11" d="M46.06,459.94c1.05,3.03,7.76,4.88,7.48,7.99-.14,1.51-11.12,16.05-12.21,15.9l-9.44-6.44c2.6-3.23,6.91-13.24,10.4-16.35,1.56-1.39,3.63-.96,3.77-1.09Z"/>
        <path class="st11" d="M979.42,446.86c-1.46-2.39-9.22-3.91-9.73-6.11-.58-2.51,8.61-13.88,8.73-17.81,1.91-1.36,9.13,4.25,11.84,4.37.57.79-1.52,6.36-2.11,7.55-1.89,3.82-6.7,8.85-8.72,11.99Z"/>
        <path class="st11" d="M949.98,461.03c1.91-.47,10.89,4.41,10.99,5.01.21,1.22-5.48,12.39-6.63,14.62-.42.82-1.49,2.04-2.18,3.27-4.99.92-7.49-3.74-11.99-4.38-.53-.7,5.57-12.32,6.54-14.16.92-1.74,2.48-3.02,3.27-4.36Z"/>
        <path class="st11" d="M934.72,354.18c1.67.46,4.16-1.51,4.37,1.6.26,3.79-.2,7.7,0,11.49h-7.64c.88-4.38,2.69-9.63,3.27-13.09Z"/>
        <path class="st11" d="M195.44,355.27c.97,1.16,6.93,7.09,8.72,8.72.07,1.79.5,4.53-1.79,5.3-1.67.56-17.96.4-19-.33-2.11-1.47-.57-9.78-1.03-12.61l13.09-1.08Z"/>
        <path class="st11" d="M111.48,413.06c-.25.36-1.39,1.07-2.18,2.18l-10.94-7.12c.03-1.17,10.08-14.91,11.44-15.88,2.49-1.76,10.29,4,10.48,6.12.16,1.85-7.06,12.1-8.8,14.69Z"/>
        <rect class="st7" x="623.96" y="355.27" width="20.72" height="13.08"/>
        <rect class="st7" x="525.82" y="355.27" width="20.72" height="13.08"/>
        <rect class="st7" x="427.69" y="355.25" width="20.74" height="13.1"/>
        <rect class="st7" x="574.89" y="355.27" width="20.72" height="13.08"/>
        <rect class="st7" x="476.76" y="355.27" width="20.72" height="13.08"/>
        <rect class="st11" x="966.34" y="354.18" width="21.81" height="13.08"/>
        <rect class="st11" x="1015.4" y="354.18" width="21.81" height="13.08"/>
        <path class="st2" d="M943.34,415.14c-.16.18-3.2.56-4.62,1.35-34.68,19.37-76.82,50.23-112.78,64.96-2.18.89-4.33,1.71-6.76,1.35.7-3.51-3.1-8.09-3.33-10.41-.5-5.12,7.9-5.36,11.3-7.17,15.51-8.25,31.19-20.75,46.87-29.45,15.02-8.33,32.55-14.22,46.88-22.9,5.15-3.12,10.79-10.7,17.61-9.67,3.59.54,6.13,10.48,4.84,11.95Z"/>
        <path class="st16" d="M926.75,465.08c-.92,1.1-14.89,7.24-17.85,8.85s-10.64,7.83-12.4,8.36-3.37-.68-5.42-.11c-2.52.7-5.6,5.46-8.7,3.43-.79-.52-1.49-2.61-2.87-3.76-.99-.83-3.48-1-3.67-1.25-.28-.37,1.22-6.07,2.2-6.99,1.22-1.15,7.84-3.71,10.12-5.15,7.35-4.65,10.06-5.24,16.76-8.22,3.14-1.4,9.79-6.03,12.08-6.61,4.83-1.23,14.4,5.9,9.75,11.45Z"/>
        <path class="st16" d="M180.04,389.25c.65,1.18-.77,3.27-.76,4.72.05,4.87,3.05,4.6-2.9,8.21-3.84,2.32-20.14,8.89-24.28,9.54-1.84.29-9.38-.07-10.1-.85-.4-.44,1.27-3.36,1.11-4.85-.36-3.39-4.9-3.24,1.21-7.55,4.35-3.07,26.27-12.15,30.85-11.57.69.09,4.73,2.12,4.86,2.36Z"/>
        <g>
          <path class="st2" d="M242.33,393.43c.1,2.47-1.52,2.91-2.92,4.16-20,17.79-44.55,33.28-66.86,48.18-1.38-1.95-3.44-2.55-5.71-1.98-3.68.92-20.74,13.07-24.82,16.15s-6.94,4.71-10.39,8.69-1.2,6.99-8.45,5.23c-2.47-.6-4.6-2.83-7.32-3.07.96-8,7.64-13.71,13.64-18.46,21.03-16.62,46.32-26.19,68.69-40.35,11.46-7.25,23.62-16.7,33.23-26.19,2.69,1.95,8.46,6.3,10.9,7.63Z"/>
          <path class="st15" d="M172.54,445.77c-5.39,3.6-20.81,15.91-25.89,17.23-2.74.71-4.56.14-4.64-3.06,4.08-3.08,21.14-15.24,24.82-16.15,2.28-.57,4.33.03,5.71,1.98Z"/>
        </g>
      </g>
    </g>
  </g>
</svg>