<?xml version="1.0" encoding="UTF-8"?>
<svg id="Layer_1" xmlns="http://www.w3.org/2000/svg" version="1.1" viewBox="0 0 2460 1105">
  <!-- Generator: Adobe Illustrator 29.3.1, SVG Export Plug-In . SVG Version: 2.1.0 Build 151)  -->
  <defs>
    <style>
      .st0 {
        fill: #bea9d9;
      }

      .st1 {
        fill: #6d568a;
      }

      .st2 {
        fill: #6b5487;
      }

      .st3 {
        fill: #f8f3f7;
      }
    </style>
  </defs>
  <g>
    <path class="st0" d="M2339.4,170.6c21.7,18.5,29,54.4,29.5,82s-3.9,27.7-2.4,33.4c5.5,21.6,6,46.9,0,69s-16.7,61.5-33,78-15.8,10.1-24.3,13.7-4.1.3-5.5,1.2-2.1,5.7-9.5,7.8c-18.6,5.3-53.9,6.4-73.7,7.5-59.2,3.4-117.7,1.1-177,2.8s-32.3-1-49.8-1.6c-32-1.2-64.9,1.9-97.2.7-34.2-1.3-67.8-4-102.1-6-37-2.2-72.5-3.6-110.1-3.7-82-.4-164-2.6-245.7-5-118.6-3.5-238.7,9.3-357.1,13.7-87.2,3.2-174.3,8-262.1,8-43.8,0-89,1.4-132.8-5.4-9.8-1.5-27.1-6.7-34.2-13.6-18.1-17.6-25.9-42.5-25.3-67.5s2-17.1,2.4-25.5c-9.6-5.7-17.3-13.2-26.7-19.4s-17.2-11.2-25.6-16.4-7.4-2.9-8.3-3.7c-1.6-1.4-.7-4.1-1-4.5s-1.8,1-2.4.8c-2.6-.7-3.3-12.7-1.3-15.5s2.4-1.2,3.3-2.2c10.1-11.5,23.6-19.5,37.1-26.9s20-8.8,28.9-15.2c.8-11.8-.5-23.7,0-35.5.9-20.9,2.8-38.3,16.4-55s9-7.9,15.4-11.1,20.9-8.9,27.1-9.4c32.8-2.4,63.1-4.3,96-4,67.2.6,135.1,6.6,202,7,65.7.5,131.2,2.3,197.1-.9,25.6-1.3,52.8-5.7,77.9-5s39,2.4,59.1,2.9c86.3,2.2,172.8,3,260,1.2,99.8-2.1,199.2-12.5,298.1-8.2s66.2,3.7,98.8,4.9c46.8,1.8,92.4,3.2,139.2,0s57,5.2,84.9,3.9,24.8-3.9,37.1-4c29.1-.2,74.6,7.6,96.9,26.7ZM1629.4,207.6c-2.3-2.2-4.3-4.7-7.1-6.4-5.7.7-12.6-1.3-17.8-1.3-11.9,0-33.8,3.1-45.8,5.2-21.3,3.8-29.1,14-28.7,35.4.4,24.3,2.1,50,4.4,74.1,2.9,29.5,4.4,69.5,40.2,75.2s68.9,1.3,96.9,1.1,50.2.4,78.1-2,16,1.5,23.8-3.2,12.9-15.1,14.5-25.5c3.8-24.8,2.5-44.4,1.1-68.9-1.2-22.2,2.9-64.7-26.7-69.3-25.7-4-60-2.2-85.8-1.2-12,.5-23.8.2-35.8,2-3.7-6.5-6-10.3-11.3-15.4ZM1163.7,243.3c-2-1.8-4.4-3.8-6.7-5.8-12.6-11.3-29.6-17.8-43.7-26.3-19-11.4-68.7-7.1-89.5,0s-37.4,24-44.4,33.1c-23.6,30.3-27.4,80.8-13.1,115.9,1.6,4,10.6,22.5,12.7,25.3,6.1,8.3,34.2,26.1,44.8,29.2,18,5.1,54.8,8.7,72.5,4,37.2-9.8,64.1-33.9,80.5-68.5,7.7-16.3,7.3-33,7.3-50.8s-2.5-12.8-5-20.2-8.5-29.9-15.3-36ZM1987.8,243.2c1,1.7,1.5,14.7,1.3,17.3-.4,4.5-2.5,10.1-6.1,12.9-4.6,3.7-18.5,7.6-21.5,11.5s-3.1,9.4-3.3,11.7c-1.6,15.6,1.1,33.7.2,49.6,0,8.5,14.4,11.2,21,9.5s6.1-15.5,6.1-22.1.8-3.9.7-6.2c-.2-5.3-3.2-19-1-22.9s18.2-13.8,22.9-18.1c8.6-7.8,12.1-13.1,13-25,2.4-32.1-13.9-49.2-44.7-54.2s-25.5-.6-42.1,7.4c-12.8,6.2-31,15.5-31.1,32s10.9,14.1,16.7,15.1c9.7,1.6,7.4-2.7,12.8-8.8,12.1-13.9,37.5-27.6,52.5-11.5s2.5,1.3,2.8,1.7ZM1379.2,281.9c-2-2.5-.2-5.2-.4-7.4-.4-8-4.2-32.9-9.3-38.5s-21.4-1.5-25.8.1-5.5,4.6-5.7,5.3l2,42.5c-17.6,1.1-36.2-.4-53.4,2.9-3.3,2.2-1.7,29.2.3,32.4s2.1.7,2.9,1.3.9,1.9,1.9,2.3,4.1.2,5.7.8l45.5-1.8,3.4,49.1c4.7,2.9,9.8,1.1,14.8,1.4s19.4,5,20.7-6.1c.8-6.5-1.8-18.8-2-25.9s-.6-18,1-19.1c15.3.4,33.3,0,48.4-2.5s7.7-1,7.7-5.4c-2.7-7.8-.6-20.7-3.2-27.7s-3.3-3.5-3.6-3.6l-51.2-.3ZM1962.7,366.2c-8.7,1.8-13.8,13.7-11.3,21.8s7.5,8.7,10.1,9.8c15.7,6.9,27.1-5.2,22.9-20.9s-14.3-12.3-21.8-10.7Z"/>
    <g>
      <path class="st0" d="M421.6,161.4c9.3,7.7,15.8,21.7,20.1,33.4,9.2,25,12.9,52.5,16.6,79.4,6.9,50.6,7.5,102.2,12.2,153.3,1.6,17,5.4,30.6-2.9,46.5s.6,2.2.3,2.8c-1.2,1.8-17.3,13.9-20.2,15.4-5.6,3-11.6,6.5-16.6,9.3s-8.6.9-12.8,2.4c-8,2.9-19.5-.1-27.8,1s-1.3,2-2,2c-8.4.8-17.4,1.2-26,1.9-21.4,1.8-37.7.5-60,4-33.2,5.3-63.6,7.2-98,2.2s-20.8-.9-28.3-5.7-6.8-5.6-7.6-6.4-8.7-10.3-8.9-11c-.4-1.3.9-3.6.4-4s-2.4.6-3-.6-.2-2.9-.8-4c-12.7-24.3-21.7-65.5-28.1-92.2-10.2-42.4-10.5-84.7-10-127.7.1-12.3-.5-64.7,6.2-72.3s3.1-.7,3.6-1.4-.2-3,1.1-4.3,6.5-2.1,8.6-4.4,1.3-3.7,1.6-3.9c.5-.4,10-2.7,11.8-3.7,13.4-7.4,15.2-5.2,29.4-7.6,48.7-8.1,100.3-14.1,149.1-16.9s31.3-1.1,48.9.1,28.2-.2,43.2,12.3ZM315,313h-14.5l-27.5,8c-3.2-20.2,2.4-51.3-18.9-62.6-4.9,1.1-10.5,1.8-15.3,2.8-19.1,4.3-49.1,12.6-66.9,20.1s-18.4,7.8-19.8,17.2c-3.3,22,5.9,72.1,15.2,92.7,3.8,8.6,14.6,11.6,23.4,13.6,17.1,4,55.9-5.7,71.5-14.4,5.7-3.2,7.7-7,12-11.3l.5-42.3c1.7-3.6,26.3-9.4,31.1-9.9s10.6-.8,11.9.9c1.6,11.1,5.3,21.8,7.3,32.8s-.8,3.7-.4,6.2c1.7,9.1,9.7,21.3,18.8,24.3s44.3.9,57.6-2c20.7-4.4,45.2-9.3,48.2-33.8,1.6-13.1.7-36.5,0-50-.9-16.9-8.4-48.7-23.8-58.2s-18.3-2.7-25.7-2.2c-18.7,1.2-64.2,5-79.2,13.8s-8.7,6.7-9.3,12.7.6,16.4,1,21,3.8,19.7,3,20.5ZM334,416l-12.4-5.9c-7.5,12.8-18.2,25.4-34.9,21.7-8.4-1.9-15.8-17.4-19.7-18.4s-7.9,4.3-11.1,4.2c-.6,6.4,12.1,19,17.1,22.8,22.3,16.9,52.5-1.1,60.9-24.4Z"/>
      <path class="st1" d="M334,416c-8.5,23.3-38.6,41.3-60.9,24.4-5-3.8-17.7-16.4-17.1-22.8,3.1.1,9.3-4.7,11.1-4.2,3.9,1,11.3,16.5,19.7,18.4,16.7,3.7,27.4-8.9,34.9-21.7l12.4,5.9Z"/>
      <g>
        <path class="st1" d="M315,313c.8-.9-2.7-17.5-3-20.5-.4-4.6-1.5-16.9-1-21,.6-6,4.4-9.8,9.3-12.7,15-8.8,60.5-12.6,79.2-13.8,7.4-.5,19.7-1.5,25.7,2.2,15.4,9.5,22.9,41.3,23.8,58.2.7,13.6,1.5,36.9,0,50-3,24.5-27.4,29.4-48.2,33.8-13.3,2.8-45.3,6.1-57.6,2s-17-15.2-18.8-24.3.7-4,.4-6.2c-2-11-5.7-21.7-7.3-32.8-1.3-1.7-9.4-1.1-11.9-.9-4.9.5-29.4,6.3-31.1,9.9l-.5,42.3c-4.3,4.3-6.2,8.1-12,11.3-15.6,8.7-54.4,18.4-71.5,14.4s-19.5-5.1-23.4-13.6c-9.2-20.6-18.4-70.8-15.2-92.7s11.9-13.9,19.8-17.2c17.8-7.5,47.8-15.8,66.9-20.1s10.4-1.7,15.3-2.8c21.3,11.3,15.8,42.3,18.9,62.6l27.5-8h14.5ZM341.3,366.7c1.6,2.5,3.2,4.9,4.8,7.7,2.4,4.1,9.6,4.7,14.3,4.7,18,0,46.9-4.3,63.5-11.6,7.8-3.4,8.1-8.4,9.6-16.4,3.4-18.6,2.3-53.2-4.1-71s-7.6-20-15-21-13,1.3-19,1.8c-16.6,1.4-33.2,2.4-49.6,5.4s-15.8,2.2-17.9,5.1-1.2,21.6-.8,26c1.1,10.4,10,62.7,14.2,69.3ZM251.8,275.2c-1.6-.9-6.7,0-8.8.2-12.6,2-34.9,9.2-47.7,13.3s-25.9,8.3-27.7,12.3-.8,27-.4,31.4c1,10.3,5.8,30.9,9.2,40.8s4.8,12.6,6.3,13.7c2.4,1.8,11.9,4.4,15.1,4.9,12.1,1.5,44.7-7.7,55.9-13.5s5.9-6.9,6.4-13.6c1.3-19-1.1-58-4.3-76.8s-2.2-11.6-3.9-12.6Z"/>
        <path class="st0" d="M341.3,366.7c-4.2-6.6-13.1-58.9-14.2-69.3s-1.2-23.2.8-26,13.9-4.4,17.9-5.1c16.5-3,33-4,49.6-5.4s12.6-2.7,19-1.8,12.7,14.5,15,21c6.4,17.9,7.5,52.4,4.1,71s-1.8,13-9.6,16.4c-16.6,7.3-45.5,11.7-63.5,11.6s-11.9-.6-14.3-4.7-3.2-5.2-4.8-7.7ZM377.8,289.2c-16.2,3.9-6.3,44.6,3.9,47.6,17.2,5.1,16.8-20.3,13.8-30.8s-5.3-12.8-7.6-14.4-8.4-2.8-10.2-2.4Z"/>
        <path class="st0" d="M251.8,275.2c1.7,1,3.5,10.1,3.9,12.6,3.2,18.8,5.6,57.8,4.3,76.8s-.2,10.4-6.4,13.6c-11.2,5.8-43.8,15.1-55.9,13.5s-12.8-3.1-15.1-4.9-5.4-11-6.3-13.7c-3.4-9.9-8.2-30.5-9.2-40.8s-.8-28.8.4-31.4c1.8-4,22.6-10.7,27.7-12.3,12.9-4.1,35.1-11.3,47.7-13.3s7.3-1.1,8.8-.2ZM202.7,308.2c-11.9,2.1-8.5,19.6-6.2,27.8s8.7,25.2,20.6,22.6,7.7-19.4,6.9-27.1c-1.2-11.9-6.8-25.9-21.3-23.3Z"/>
        <path class="st1" d="M377.8,289.2c1.8-.4,8.7,1.3,10.2,2.4,2.3,1.6,6.7,11.3,7.6,14.4,3,10.6,3.3,35.9-13.8,30.8s-20.1-43.7-3.9-47.6Z"/>
        <path class="st1" d="M202.7,308.2c14.4-2.6,20.1,11.4,21.3,23.3s2.3,25-6.9,27.1-18-13.6-20.6-22.6-5.7-25.6,6.2-27.8Z"/>
      </g>
    </g>
    <g>
      <path class="st3" d="M1629.4,207.6c5.3,5.2,7.7,8.9,11.3,15.4,12-1.8,23.8-1.6,35.8-2,25.7-1,60.1-2.7,85.8,1.2,29.6,4.6,25.5,47,26.7,69.3,1.4,24.5,2.7,44.1-1.1,68.9s-5.2,19.9-14.5,25.5-15.6,2.4-23.8,3.2c-27.9,2.4-50.3,1.8-78.1,2s-69.7,3.2-96.9-1.1-37.3-45.7-40.2-75.2c-2.4-24.1-4-49.8-4.4-74.1-.4-21.4,7.4-31.6,28.7-35.4,12.1-2.2,33.9-5.2,45.8-5.2s12.1,2,17.8,1.3c2.8,1.7,4.8,4.2,7.1,6.4Z"/>
      <path class="st2" d="M1379.2,281.9l51.2.3c.2,0,3.5,3.4,3.6,3.6,2.6,7.1.4,19.9,3.2,27.7,0,4.4-4.2,4.8-7.7,5.4-15.1,2.6-33.2,2.9-48.4,2.5-1.6,1.2-1.1,16-1,19.1.2,7.1,2.8,19.4,2,25.9-1.3,11.1-13.7,6.4-20.7,6.1s-10.1,1.5-14.8-1.4l-3.4-49.1-45.5,1.8c-1.7-.6-4.4-.3-5.7-.8s-1.1-1.7-1.9-2.3-2.2-.3-2.9-1.3c-2-3.2-3.6-30.1-.3-32.4,17.2-3.3,35.8-1.8,53.4-2.9l-2-42.5c.2-.7,5.3-5.1,5.7-5.3,4.4-1.6,22.6-3.6,25.8-.1,5.2,5.6,8.9,30.5,9.3,38.5s-1.7,4.8.4,7.4Z"/>
      <g>
        <path class="st2" d="M1987.8,243.2c-.2-.4-1.9-.8-2.8-1.7-15-16.2-40.4-2.4-52.5,11.5-5.3,6.1-3,10.4-12.8,8.8s-16.7-9-16.7-15.1c0-16.5,18.3-25.8,31.1-32,16.6-8,23.1-10.5,42.1-7.4,30.8,5.1,47.2,22.1,44.7,54.2-.9,11.9-4.4,17.2-13,25-4.7,4.3-20.5,14.1-22.9,18.1s.8,17.6,1,22.9-.7,4.3-.7,6.2c0,6.6,2.6,19.9-6.1,22.1s-20.9-1-21-9.5c1-15.9-1.8-34.1-.2-49.6s2-10.1,3.3-11.7c3-3.8,16.9-7.7,21.5-11.5,3.5-2.8,5.7-8.5,6.1-12.9s-.3-15.6-1.3-17.3Z"/>
        <path class="st1" d="M1962.7,366.2c7.5-1.6,19.7,2.6,21.8,10.7,4.1,15.8-7.2,27.8-22.9,20.9-2.6-1.1-9.3-7.2-10.1-9.8-2.5-8.1,2.5-20,11.3-21.8Z"/>
      </g>
      <g>
        <path class="st3" d="M1163.7,243.3c6.8,6.1,12.4,27.3,15.3,36s5,10.2,5,20.2c0,17.8.4,34.4-7.3,50.8-16.4,34.6-43.3,58.6-80.5,68.5-17.6,4.7-54.5,1.1-72.5-4s-38.8-20.8-44.8-29.2-11.1-21.4-12.7-25.3c-14.3-35.1-10.5-85.6,13.1-115.9s33.3-29.2,44.4-33.1c20.8-7.2,70.6-11.5,89.5,0,14.1,8.5,31.1,15,43.7,26.3s4.6,4,6.7,5.8ZM1089.3,265.3c-5.3,4.9-2.9,24.6.4,30.6,6,11,18.8,13.6,20.3-1.5s-1.8-20-7.9-26.9-8.5-6.1-12.8-2.2ZM1020.8,271.2c-6.6,1.7-9.3,16.2-8.6,22s4.4,12.2,5.8,14.3c5.8,8.5,16.3,7.5,17.9-3.1s-1.3-36.8-15.2-33.2ZM1055.3,316.8c-.9-.8-1.2-7.4-6.8-1.8-6.3,6.3,4.2,21,13,22.1,12.6,1.6,25.8-11.6,23.5-24-2.7,1.7-7.9-.3-9.3.1-2.6.7-4,12.6-11.1,13s-5.7-7.9-6.7-9-2,.2-2.6-.3Z"/>
        <path class="st1" d="M1020.8,271.2c13.9-3.6,16.6,24,15.2,33.2s-12.1,11.5-17.9,3.1-5.5-12-5.8-14.3c-.8-5.7,2-20.3,8.6-22Z"/>
        <path class="st1" d="M1089.3,265.3c4.2-3.9,9.4-1.6,12.8,2.2,6.1,6.9,8.7,17.9,7.9,26.9-1.5,15.1-14.2,12.5-20.3,1.5s-5.6-25.8-.4-30.6Z"/>
        <path class="st1" d="M1055.3,316.8c.6.5,2.2,0,2.6.3,1,1-.6,9.3,6.7,9s8.5-12.3,11.1-13,6.6,1.6,9.3-.1c2.3,12.4-10.9,25.6-23.5,24s-19.3-15.8-13-22.1c5.6-5.6,5.9,1,6.8,1.8Z"/>
      </g>
    </g>
  </g>
  <g>
    <path class="st0" d="M1804.6,632.4c7.3,2.2,14.6,6.1,21.2,9.5s6.8,1.8,8.6,3.2,11.9,15.2,13.7,18.4c6.4,11.4,7.8,29.8,8.4,43,.5,11.8-.7,23.7,0,35.5,8.9,6.4,19.4,9.9,28.9,15.2,13.5,7.4,27,15.5,37.1,26.9.9,1,2.7,1.5,3.3,2.2,2,2.8,1.3,14.8-1.3,15.5s-2.3-1-2.4-.8c-.3.4.7,3.1-1,4.5s-6.2,2.4-8.3,3.7c-8.5,5.2-17.3,10.9-25.6,16.4-9.4,6.2-17,13.7-26.7,19.4.4,8.4,2.2,17.1,2.4,25.5.5,21.6-5,42.6-18.3,59.5-14.6,18.6-29.4,19.1-51,22-41.6,5.7-81.5,5-123,5-92.3,0-184.6-5.6-276-8.9-88-3.2-176.7-12-264.9-13.1-67.2-.9-133.5,4.2-201,5-58.3.7-116.7-1.4-175,1-53,2.3-106.6,6.9-160,9-32.2,1.2-65.1-1.9-97.2-.7s-32.3,2.1-49.8,1.6c-59.3-1.7-117.8.6-177-2.8-19.8-1.1-55.1-2.2-73.7-7.5s-7.4-6.5-9.5-7.8c-2.9-1.8-13.3-4-17.6-6.2-12.3-6.2-21.7-19.4-27.2-31.8s-13.3-37.3-18.1-54.9c-6.2-22.9-3.9-37.6-2.4-60.5.3-5.2,2.8-7.8,3-12s-2.8-13.9-3.1-20c-1.4-22.1,5.9-60.7,17.7-79.4,19.6-31,70.7-37,103.8-38.2,21.2-.8,42.7,3.4,64.1,3.2,10.2,0,22.6-2.4,33-3,30.5-1.8,61.5,1.5,92,1,59.2-1,116.6-4.4,175.9-7,45-2,90.8-.5,136.1.9,53.6,1.7,108,6.1,162,7.2,87,1.8,173.6,1,260-1.2,20-.5,39.3-2.3,59.1-2.9,25.2-.7,52.4,3.7,77.9,5,65.8,3.3,131.4,1.4,197.1.9,76.6-.5,153.6-7.5,230.9-6.9,18.5.1,33.8,2.6,52.1,4,7.7.6,14.4-1,22.1,1.4ZM1214.9,872.9c.3-.2.6-2.1,1.6-2.9,7.4-5.7,4.9-5.9,9.2-12.9,5.8-9.4,12.8-15.4,19.4-23.6,25.3-31.3,51.9-61.3,78.5-91.5,10.2-11.6,30.8-29.8,36.7-43.3s-3.9-10.9-11.1-15.3-2.6-3-4.2-3.9c-6-3.4-11-4.3-16.9,0-16.5,25.2-39.7,45-59.6,67.4-9.8,11-21.1,24.2-30.5,35.5-12.7,15.3-24.4,31.7-36.6,47.4-1.6.4-17-9.4-19.7-11.1-11-6.9-27.3-22.1-37.4-26.6-8.2-3.6-13.3-2.1-19.2,4.3s-11.9,15.1-4.5,21.5,21.5,17.3,31.2,22.8,16.2,9.5,26,16,35.2,17.2,37.2,16ZM1448.3,693.3c-1.6,1.9-4,10.5-4.3,13.2-3.7,34.8,4.4,79.1,8,114,.3,2.6-1.1,8.5,1.6,9.4s5.2-.2,7.7.3,6.6,5.5,11.2,1.8c4.2-3.4,2.2-19.6,2.5-25.5,1.3-32.3,2.3-65.6,0-98s2.1-18.1-6.6-19.4-16.1-.5-20.1,4.3ZM903.6,701.4c-2.4-2.6-7.7-7-11.1-7.4-14.5-1.7-49.5,1.4-63.5,5.5-16.9,4.9-20.5,17-20,33,.9,33.3,2.1,77.6,10.5,109.5,10,37.6,51.5,29.8,82.1,29.9,13,0,26.1,0,39,0,26.3,0,51.9,1.1,77.9-1.1,17.2-1.5,28-6.2,31.4-24.6,4.8-26.7,3.3-58.8,1.3-85.8-1.3-17.7-3-42.9-24.8-46.2s-55.9-2.2-81.7-1.2-21.4-.2-31.9,2c-3.1-4.4-5.3-9.7-9-13.7ZM727.3,800.3c11.9-17.8,15.6-23.4,18.5-45.9s1.1-19.9-4.4-32.4c-3-6.7-9.4-18.8-16.5-21.5s-24.9-6.2-29.7-6.1c-13.7.4-30,17.4-37.2,28.3s-6.8,14.1-7.8,14.4-2.5.1-3.2-.3c-10.2-11.9-19.5-25.3-35.2-30.3-21.5-6.8-46.4,4.8-55.5,25.5-10.5,24,.5,55.3,13.7,76.3,6.1,9.7,11.2,12.3,18.4,19.6,7.2,7.4,11.3,14,20,21,4.4,3.5,20.2,16.2,23.9,18.1s7.3,1.2,10.8,2.2,7.9,6,12.5,7.5,6,.6,8.7,1.3c5.8,1.4,10.9,6.5,17.1,0,8.4-14,16.6-28.2,24.6-42.4s12.8-22.9,21.2-35.3ZM1451.7,851.2c-1.1.3-6.2,5.4-6.5,6.5-.6,2.2-.5,13.2.3,15.3,2.5,6,16.3,7.7,21.5,5.5s6.6-8.1,6.8-10.2-.1-7.7-.2-8.3c-.5-3.4-3.7-7.9-7.3-8.7s-12.4-.6-14.6,0Z"/>
    <g>
      <path class="st3" d="M903.6,701.4c3.7,4,5.9,9.4,9,13.7,10.5-2.2,21.3-1.6,31.9-2,25.8-.9,56.1-2.7,81.7,1.2s23.5,28.5,24.8,46.2c2,27,3.5,59.1-1.3,85.8s-14.1,23.2-31.4,24.6c-26,2.2-51.5,1.1-77.9,1.1-12.9,0-26,0-39,0-30.6-.1-72.1,7.7-82.1-29.9-8.5-31.8-9.6-76.2-10.5-109.5-.4-16,3.1-28.1,20-33,14-4.1,49.1-7.2,63.5-5.5s8.8,4.8,11.1,7.4Z"/>
      <path class="st2" d="M727.3,800.3c-8.3,12.5-13.9,22.5-21.2,35.3s-16.2,28.4-24.6,42.4c-6.2,6.5-11.3,1.4-17.1,0s-5.1-.1-8.7-1.3-8.5-6.4-12.5-7.5-6.7-.2-10.8-2.2-19.6-14.6-23.9-18.1c-8.7-7-12.8-13.6-20-21-7.2-7.3-12.3-10-18.4-19.6-13.2-21-24.2-52.3-13.7-76.3,9-20.7,34-32.2,55.5-25.5,15.7,4.9,25,18.3,35.2,30.3.7.4,2.4.5,3.2.3s6.5-12.4,7.8-14.4c7.1-10.8,23.5-27.9,37.2-28.3,4.8-.1,24.9,4.2,29.7,6.1,7,2.7,13.5,14.8,16.5,21.5,5.5,12.5,6.2,18.8,4.4,32.4-3,22.5-6.6,28.1-18.5,45.9Z"/>
      <path class="st2" d="M1214.9,872.9c-2,1.2-33.1-13.3-37.2-16-9.8-6.5-15.7-10.1-26-16s-22.9-15.6-31.2-22.8-.7-15.8,4.5-21.5,11-7.9,19.2-4.3c10.2,4.4,26.4,19.6,37.4,26.6,2.7,1.7,18.1,11.5,19.7,11.1,12.2-15.7,23.9-32.1,36.6-47.4,9.4-11.3,20.7-24.5,30.5-35.5,19.9-22.5,43-42.2,59.6-67.4,5.9-4.2,10.9-3.4,16.9,0s2.5,2.9,4.2,3.9c7.2,4.4,15.7,4.7,11.1,15.3s-26.5,31.7-36.7,43.3c-26.6,30.2-53.2,60.1-78.5,91.5s-13.6,14.3-19.4,23.6c-4.3,6.9-1.7,7.1-9.2,12.9s-1.2,2.7-1.6,2.9Z"/>
      <path class="st2" d="M1448.3,693.3c4-4.8,14.4-5.1,20.1-4.3,8.7,1.4,6.2,13.2,6.6,19.4,2.2,32.3,1.3,65.6,0,98-.2,5.9,1.8,22.1-2.5,25.5-4.6,3.7-8-1.1-11.2-1.8s-5.6.3-7.7-.3-1.4-6.8-1.6-9.4c-3.6-34.9-11.7-79.2-8-114s2.7-11.2,4.3-13.2Z"/>
      <path class="st1" d="M1451.7,851.2c2.1-.6,12.2-.5,14.6,0,3.6.8,6.8,5.3,7.3,8.7s.3,7.9.2,8.3c-.3,2.1-4.8,9.3-6.8,10.2-5.2,2.2-19,.5-21.5-5.5s-1-13.1-.3-15.3,5.4-6.2,6.5-6.5Z"/>
    </g>
    <g>
      <path class="st0" d="M2313.3,669.7c4.7,4.5,7.7,9.8,11.7,13.8,1.2,1.1,6.7,3.7,7.4,4.6,1.3,1.6,3.4,10.8,5,14,6.1,12.7,14.7,25.6,21,38s10.5,29,15.5,42.7c6.1,17,5.3,53.6,5.2,72.7,0,4.7-2.8,10.8-3.1,14s2,.4,2.1,1c0,1-3.8,17.1-4.5,19.5-12.2,39.6-24.8,70.6-64.1,89.9-41.4,20.2-86.4,26.4-132,24.8-38.7-1.4-91-21.3-122.3-44.2-10.6-7.8-19.7-20-26.9-31.1-12.6-19.4-24.3-43.6-28.9-66.1-8.3-41.4-4.8-71.9,5.2-112.2,3.6-14.5,18.8-44.9,29.1-55.9,17.4-18.6,44.6-38.7,68.7-48.4,15-6,31.3-10.9,47-16s20.8-8.6,30.3-8.8c33.2-.8,61.1.5,89,20,2.3,1.6,6.1,6.5,8.5,7.5s2.3-1.2,3.5-1.2c1.7,0,5.1,3.4,6.5,4s2.5-.6,4,0c5.1,2.4,18.1,13.1,22.4,17.2ZM2231.7,758.2c-6.4,1.6-10,14.5-10.6,20.4-.9,8.8,3.5,30.1,7.7,38,8,15.1,25.5,14.2,27.9-3.4s1.8-34.2-6.9-47.6c-4.6-7-9.3-9.6-18.1-7.4ZM2108.7,766.2c-2,.5-5.4,3.6-6.6,5.4-5.3,8.1-3.5,35.9-.9,45.5,5.2,18.9,25.9,25.4,30.5,3.1,3.2-15.7,2.5-60.6-23-54ZM2209,843c-2.9.5-11.1-1-13.1.4s-.7,6-2.1,8.9c-2.7,5.5-10.2,14.1-16.3,8.6s-6.2-13.8-9.2-14.8-9.7,2-10.3,2.4c-4.7,2.8,1.7,12.1,3.8,15.2,5.8,8.8,12.9,15.9,24.5,14,11.2-1.9,27.3-22.9,22.7-34.7Z"/>
      <path class="st1" d="M2231.7,758.2c8.7-2.2,13.5.5,18.1,7.4,8.7,13.4,9.1,32.1,6.9,47.6s-20,18.5-27.9,3.4c-4.2-7.9-8.6-29.2-7.7-38s4.2-18.7,10.6-20.4Z"/>
      <path class="st1" d="M2108.7,766.2c25.5-6.5,26.2,38.4,23,54-4.6,22.3-25.3,15.8-30.5-3.1s-4.4-37.4.9-45.5c1.2-1.8,4.6-4.9,6.6-5.4Z"/>
      <path class="st1" d="M2209,843c4.6,11.9-11.5,32.9-22.7,34.7-11.6,1.9-18.7-5.3-24.5-14s-8.5-12.4-3.8-15.2,9.6-2.7,10.3-2.4c3,1,5.2,11.1,9.2,14.8,6.1,5.5,13.6-3.1,16.3-8.6,1.4-2.9.7-8,2.1-8.9,1.9-1.4,10.2,0,13.1-.4Z"/>
    </g>
  </g>
</svg>