<?xml version="1.0" encoding="UTF-8"?>
<svg id="Layer_1" data-name="Layer 1" xmlns="http://www.w3.org/2000/svg" viewBox="0 0 259.26 206.98">
  <defs>
    <style>
      .cls-1 {
        fill: #553a3a;
      }

      .cls-2 {
        fill: #ccbde3;
      }

      .cls-3 {
        fill: #cbbbe1;
      }

      .cls-4 {
        fill: #7d6798;
      }

      .cls-5 {
        fill: #ccbce3;
      }

      .cls-6 {
        fill: #84709c;
      }
    </style>
  </defs>
  <g>
    <path class="cls-5" d="M65.29,63.51c15.87-4.71,19.97,24.43,28.52,33.18,9.15,17.71,14.99,36.62,22.53,54.89,3.55,8.61,17.6,35.21,18.01,42.02.1,1.68.23,3.38-.51,4.95-2.49,3.59-34.24-1.17-40.36-1.21-17.98-.12-35.71,3.01-53.5,4.4-7.56.59-16.7-.98-23.91.08-6.31.93-18.51,9.18-15.62-5.81,1.56-8.09,9.91-26.95,13.39-35.67,11.66-29.2,27.42-61.24,43.97-87.97,1.5-2.42,4.85-8.07,7.5-8.85ZM76.29,121.36c-3.71-2.3-4.49,2.62-.82,5.67,3.68,3.06,10.56,4.29,15.23,3.85.86-5.97-4.86-3.8-8.75-4.87s-4.53-3.95-5.65-4.65ZM32.9,134.14c2.12,2.2,19.23-7.08,18.53-10.34-.97-4.51-11.29,3.57-13.77,4.76-1.26.61-4.46,1.17-4.62,1.35-.33.39-.28,4.07-.14,4.22ZM84.15,137.41c-7.5-2.46-7.14,13.14-2.71,16.35,4.55.94,2.16-13.59,2.71-16.35ZM49.25,138.5c-8.04-3.48-6.16,15.6-3.8,16.35,6.2,1.95,3.13-13.31,3.8-16.35ZM67.81,165.77c.88.81,4.32-.15,4.36-2.67.08-4.8-8.79-12.67-14.23-6.63-2.26,2.51-5.33,10.46-.5,10.34,1.49-.04,2.9-7.65,6.54-7.64s3.46,6.27,3.82,6.6Z"/>
    <path class="cls-6" d="M67.81,165.77c-.36-.33-.08-6.6-3.82-6.6s-5.05,7.61-6.54,7.64c-4.83.12-1.76-7.83.5-10.34,5.44-6.05,14.3,1.83,14.23,6.63-.04,2.53-3.48,3.49-4.36,2.67Z"/>
    <path class="cls-6" d="M32.9,134.14c-.15-.15-.19-3.83.14-4.22.15-.18,3.36-.75,4.62-1.35,2.49-1.2,12.81-9.27,13.77-4.76.7,3.26-16.41,12.54-18.53,10.34Z"/>
    <path class="cls-6" d="M49.25,138.5c-.67,3.04,2.4,18.3-3.8,16.35-2.36-.74-4.24-19.83,3.8-16.35Z"/>
    <path class="cls-4" d="M84.15,137.41c-.55,2.76,1.84,17.3-2.71,16.35-4.43-3.22-4.8-18.81,2.71-16.35Z"/>
    <path class="cls-6" d="M76.29,121.36c1.12.69,1.63,3.55,5.65,4.65s9.61-1.1,8.75,4.87c-4.66.44-11.55-.79-15.23-3.85-3.67-3.05-2.89-7.96.82-5.67Z"/>
  </g>
  <g>
    <path class="cls-1" d="M257.43,43.77l1.83,162.4c-1.65,2.38-13.67-1.15-16.78-1.89-28.47-6.77-58.1-12.98-86.19-20.68-5.63-1.54-10.62-4.61-16.53-5.28-3.39-2.21-1.88-17.49-2.12-21.87-1.01-18.69-1.81-37.9-2.27-56.61-.81-32.95-.31-65.84-1.66-98.78,1.53-1.76,3.22-.9,5.02-.56,9.03,1.7,25.7,10.21,35.38,13.72,27.7,10.04,55.75,19.2,83.32,29.54ZM245.56,198.47c1.57.5,8.58,4.53,9.81,3.27.07-1.44-.08-2.91,0-4.36,1.32-23.1-1.71-49.21-2.23-72.46-.57-25.66,1.33-51.42-1.55-76.96L138.69,6.58l3.79,165.74c2.85,3.15,7.17,1.59,10.66,2.43,28.67,6.85,64.83,14.9,92.41,23.73Z"/>
    <path class="cls-3" d="M255.37,197.38c-.08,1.44.07,2.92,0,4.36-1.23,1.26-8.24-2.77-9.81-3.27l9.82-1.09Z"/>
    <g>
      <path class="cls-2" d="M211.75,61.09c2.54.66,3.14-2.67,5.03-3.01.41-.08,7.86.69,8.37.83,1.11.3,2.28,4.01,3.61,5.36,1.75,1.78,6.24,3.44,6.84,5.19,1.26,3.69-3.77,7.43-.68,11,2.14,2.48,5.59-1.41,3.83,8.18-1.4,7.61-6.71,9.21-10.6,14.36,5.73,5.37,11.03,8.28,9.52,17.26-.44,2.63-3.02,6.05-2.99,7.92.06,3.7,6.16,3.17,6.23,10.07.05,4.97-4.52,9.69-4.11,12.78.15,1.11,2.94.2,3.89,1.58.22.32,2.27,6.96,2.32,7.34,1.18,9.18-8.47,17.87-17.67,16.84-4.85-2.42-13.2-1.66-17.2-4.45-1.26-.88-.76-2.09-.77-3.31-2.44,2.61-11.18,4.83-14.12,3.82-4.82-1.65-10.88-6.96-7.69-12.53-4.96-.09-7.87,6.3-12.77,7.4-2.43.54-10.26.71-12.32-.31-.54-.26-6.85-8.31-7.14-9.22-1.75-5.41,1.95-9.13,1.51-11.37-.41-2.08-3.97-2.68-4.78-3.96-1.29-2.06.93-4.2.7-5.84-.15-1.03-2.33-.99-2.86-1.76-2.42-3.52,6.11-12.38,4.94-17.79-.16-.74-1.76-.72-2.08-1.61-3.3-9.4,3.99-15.21,1.76-22.43-.49-1.59-2.47-2.34-2.71-3.55s1.1-3.3.83-5.21c-.42-3.02-2.25-5.3-2.25-8.85,0-5.6,3.99-9.67,4.45-13.18.31-2.36-1.66-4.95-.09-7.32.94-1.41,4.3-1.96,5.99-3.08,1.27-.84,1.6-2.79,1.94-2.99.67-.39,2.49.87,4.18.48,2.45-.57,5.04-3.61,7.95-3.59,4.84.04,15.25,5.38,21.22,6.05,2.72.31,4.79-1,7.35-.99,5.29,0,14.06,3.5,10.37,9.9ZM167.04,117.79c.82.95,14.82-6.25,14.17-9.25-1.12-5.11-11.08,4.4-14,3.96l-.16,5.29ZM211.74,113.45c-.2-.19-3.83.06-5.49-.52-2.3-.8-9.27-7.63-10.86-6.04-3.38,3.39,13.31,14.04,16.35,10.89.15-.16.15-4.18,0-4.33ZM180.12,117.79c-7.77-3.55-6.38,14.57-3.71,15.21,6.09,1.46,3.08-11.59,3.71-15.21ZM203.02,117.79c-1.19.08-2.59-.24-3.69.13-2.26.77-5.43,17.56,1.93,15.01,3.36-1.16,1.16-11.82,1.76-15.14ZM195.12,135.52c-7.44-6.86-18.31,3.66-14.48,9.57,2.65,4.08,4.89-4.37,6.49-5.57,6.88-5.14,4.96,6.35,8.79,5.53,3.22-.69.71-8.13-.8-9.52Z"/>
      <path class="cls-4" d="M195.12,135.52c1.51,1.4,4.02,8.83.8,9.52-3.83.83-1.92-10.67-8.79-5.53-1.6,1.2-3.84,9.65-6.49,5.57-3.83-5.9,7.04-16.42,14.48-9.57Z"/>
      <path class="cls-4" d="M203.02,117.79c-.6,3.32,1.61,13.98-1.76,15.14-7.36,2.55-4.19-14.25-1.93-15.01,1.1-.37,2.5-.05,3.69-.13Z"/>
      <path class="cls-6" d="M180.12,117.79c-.63,3.62,2.37,16.67-3.71,15.21-2.67-.64-4.05-18.75,3.71-15.21Z"/>
      <path class="cls-6" d="M211.74,113.45c.15.15.15,4.18,0,4.33-3.04,3.15-19.73-7.5-16.35-10.89,1.59-1.59,8.55,5.24,10.86,6.04,1.66.58,5.3.32,5.49.52Z"/>
      <path class="cls-6" d="M167.04,117.79l.16-5.29c2.92.44,12.88-9.07,14-3.96.66,3-13.34,10.2-14.17,9.25Z"/>
    </g>
  </g>
</svg>