<?xml version="1.0" encoding="UTF-8"?>
<svg id="Layer_1" data-name="Layer 1" xmlns="http://www.w3.org/2000/svg" viewBox="0 0 341.19 198.97">
  <defs>
    <style>
      .cls-1 {
        fill: #5e2c2d;
      }

      .cls-2 {
        fill: #c44144;
      }

      .cls-3 {
        fill: #5a2728;
      }

      .cls-4 {
        fill: #cbbbe1;
      }

      .cls-5 {
        fill: #7d6798;
      }

      .cls-6 {
        fill: #cc5658;
      }

      .cls-7 {
        fill: #766192;
      }

      .cls-8 {
        fill: #5f2f30;
      }
    </style>
  </defs>
  <path class="cls-2" d="M329.66,92.02l-1.09-1.09c.33.39.77.69,1.09,1.09Z"/>
  <g>
    <path class="cls-2" d="M66.83,46.23c.42-.36,2.07.23,3.06-1.81,1.08-2.23,1.25-6.75,2.35-9.68,4.73-12.57,19.4-23.81,31.97-28.01,9.76-3.26,36.02-.61,43.35,7.3,1.68,1.82,4.68,10,6.17,10.4,8.33,2.25-.14-7.86.25-10.23.44-2.7,14.87-6.24,18.08-6.23,4.8.01,21.96,6.38,17.95,12.03-.75,1.06-15.6,4.89-16.34,11.54-1.03,9.25,8.18-2.01,9.92-3.24,10.19-7.26,25.5-10.4,35.95-2.28,3.61,2.8,9.63,13.32,10.47,13.51.34.08,3.57-.8,3.68-.95,1.68-2.3-6.37-8.14-1.46-9.64,14.89-4.53,38.11,8.5,35.28,26,1.06-.18,4.08.26,4.35,0,.35-.34.2-8.38,0-9.82,1.24-.24,3.39.35,4.36,0,.66,5.99,8.79,1.09,13.3,1.34,14.14.76,22.69,9.91,26.35,22.81.85,3.01.78,8.98,1.77,11.12.73,1.6,4,.37,5.48.71.29,1.24-.02,2.46.62,4.29.76,2.2,2.47,3.02,3.75,4.43-8.65-2.83-14.99-7.08-24.52-6.53-4.28.25-8.58.36-7.11,5.43,14.22-3.38,32.28,4.25,38.19,17.97,4.13,9.58-.2,27.21-5.05,36.44-2.13,4.06-8.55,8.86-5.88,13.2-10.35,10.18-17.82,23.64-34.36,21.8-2.77-.31-9.06-3.33-9.7-3.18-1.14.27-10.7,12.96-18.03,14.71-9.8,2.34-29.79.69-39.34-2.8,18.02-11.7,19.14-34.83,17.49-54.01-2.05-23.84-27.88-50.58-51.78-52.9-55.06-5.34-94.23,65.28-54.04,105.82l-31.17,6.45c-8.47-.15-20.23,2.21-28.02-1.25-2.96-1.31-10.08-7.79-12.52-8.3-1.77-.37-9.46,3.19-13.91,3.18-26.24-.03-39.16-22.51-44.17-44.79,9.76-3.83,1.79-17.51,1.09-23.99-1.58-14.62,11.9-43.06,22.89-52.89,19.23-17.21,45.96-11.69,59.36,9.36,2.14,3.37.06,6.55,6.08,5.36,3.59-3.36-9.73-17.42-12.54-19.62-5.96-4.68-18.14-10.32-25.63-10.9,3.27-.53,8.42.77,11.28.03,1.22-.32.58-2.1.71-2.21ZM113.71,11.34c-8.05-1.24-2.85,16.53,4.37,13.08l-4.37-13.08ZM107.13,27.63c.67-.92-3.6-12.41-5.93-11.92-4.07,1.12,1.1,12.65,1.67,13.07.33.24,4.14-.97,4.27-1.14ZM176.97,57.12c.32-.33,0-4.6-.25-5.74-1.32-5.95-9.51-12.68-15.6-12.84-3.52-.09-6.78,2.1-10.64.92-1.85-.56-5.38-5.23-8.51-6.76-9.71-4.75-22.46-3.38-30.71,3.69-2.26,1.93-10.77,15.48-2.61,11.85,2.07-.92,2.43-4.08,3.98-5.84,4.01-4.56,11.69-8.38,17.82-8.08,3.4.16,14.18,3.35,14.81,7.15.21,1.23-10.71,11.86-8.65,14.56.13.18,3.54,1.27,4.4.65.65-.47,2.45-5.33,3.87-7.1,5.06-6.34,18.01-8.18,23.9-2.26,1.99,2,5.21,12.86,8.18,9.8ZM210.75,34.23c-10.03-1.5-5.51,14.18-.51,14.22,5.42.04,1.56-11.34.51-14.22ZM196.49,35.44c-.74-.61-3.97.1-5.34-.12.17,4.18-1.5,14.11,4.77,11.87,3.12-1.12,1.46-11.01.57-11.75ZM133.35,50.58c-1.39-4.96.78-12.29-6.53-10.9.54,5.89-1.16,12.91,6.53,10.9ZM259.88,64.76c5.71,3.69,3.68-6.86,2.68-9.78-4.95-14.47-21.69-16.6-34.6-11.76-2.69,1.01-15.64,8.48-16.09,10.33-.34,1.38-.8,5.37,1.63,4.66s8.42-6.87,11.99-8.73c11.25-5.86,27.51-5.8,32.74,7.66.56,1.44,1.22,7.34,1.66,7.62ZM124.56,41.23l-5.59.66,1.37,11.51,5.59-.66-1.37-11.51ZM155.17,63.67c-.09-2.22-.42-12.69-3.8-11.99-4.42.92-3.98,15.69,3.8,11.99ZM163.89,51.67c-7.49-2.07-5.19,11.44-2.63,11.94,6.46,1.27,2.17-8.86,2.63-11.94ZM246.6,52.94c-.24-.39-3.85-1.64-4.19-1.26l-1.1,14.17h5.46c-.59-2.8.9-11.17-.18-12.91ZM291.49,52.78c-.11-.15-3.21-.97-3.67-.89-3.67.63-8.45,15.42-1.38,13.83,2.17-.49,5.48-12.37,5.05-12.93ZM238.05,65.83c-1.92-3.11.81-14.85-4.9-13.05-3.58,1.13-.54,11.25-.55,14.17l5.45-1.12ZM303.44,57.2c-.12-.16-3.26-1.13-3.81-1.1-5.77.33-8.62,18.88-.63,13.96.58-.36,5.22-11.81,4.45-12.86ZM56.64,65.98c-5.43,1.42-3.65,22.59,3.06,20.58,2.73-.82,3.34-22.25-3.06-20.58ZM42.74,88.65c2.5-1.68,1.41-21.27-4.7-19.45-5.7,1.7-2.42,24.24,4.7,19.45ZM252.79,76.76c-3.6.76-4.72,9.54-2.16,13.03,6.78,9.23,8.31-14.33,2.16-13.03ZM264.78,76.76c-2.7.83-3.05,17.12,2.04,16.28,4.71-.78,4.07-18.16-2.04-16.28ZM117.1,102.8c1.09.93,5.64.09,5.25-2.48-.29-1.91-6.85-8.48-8.95-9.62-14.93-8.14-43.08,1.79-52.5,15.56-2.74,4-3.51,12.01,1.51,8.61.29-.2,1.6-4.73,2.85-6.43,8.71-11.82,30.61-19.23,44.41-14.01,6.69,2.53,6.19,7.33,7.42,8.38ZM301.45,119.11c.35.55,3.18,1.29,4.2.79,3.89-1.94,5.17-17.03.4-17.89-6.36-1.15-5.63,15.49-4.61,17.11ZM102.73,104.11c-7.47-5.03-7.88,15.04-1.39,16.16,6.13,1.06,2.42-15.47,1.39-16.16ZM321.93,105.2c-7.55-5.09-8.03,15.61-4.7,16.32,8.2,1.77,6.33-15.23,4.7-16.32ZM81.01,107.28c-.74.71-.87,16.12,4.77,15.2,4.86-.79,2.42-13-.39-14.67-.93-.55-4.03-.86-4.37-.53Z"/>
    <path class="cls-8" d="M66.83,46.23c-4-1.23-.25-9.89.8-12.83C78.12,4.22,117.11-8.01,144.14,5.47c1.89.94,5.59,4.54,6.28,4.66s9.39-5.04,12.38-5.88c11.67-3.3,22.01-1.29,29.96,8.24,1.04,1.25,1.26,4.09,2.4,4.37,2.7.67,7.38-1.24,10.72-1.25,10.89-.03,20.08,9.87,21.79,9.9,1.41.02,4.47-1.93,7.6-2.23,14.55-1.35,34.42,5.57,36.59,21.86.19,1.44.35,9.48,0,9.82-.28.27-3.3-.18-4.35,0,2.83-17.51-20.39-30.53-35.28-26-4.91,1.49,3.14,7.34,1.46,9.64-.11.15-3.34,1.03-3.68.95-.84-.19-6.86-10.71-10.47-13.51-10.45-8.12-25.76-4.98-35.95,2.28-1.73,1.23-10.95,12.49-9.92,3.24.74-6.65,15.59-10.48,16.34-11.54,4.01-5.65-13.15-12.01-17.95-12.03-3.22,0-17.64,3.53-18.08,6.23-.39,2.37,8.08,12.48-.25,10.23-1.49-.4-4.49-8.59-6.17-10.4-7.33-7.92-33.59-10.56-43.35-7.3-12.57,4.2-27.24,15.44-31.97,28.01-1.1,2.93-1.28,7.45-2.35,9.68-.99,2.04-2.64,1.45-3.06,1.81Z"/>
    <path class="cls-1" d="M54.83,48.41c7.48.58,19.67,6.23,25.63,10.9,2.81,2.2,16.13,16.26,12.54,19.62-6.01,1.18-3.94-2-6.08-5.36-13.4-21.05-40.13-26.57-59.36-9.36-10.99,9.83-24.47,38.28-22.89,52.89h-2.18c-.06-.1-1.89.44-2.2-.71-1.28-4.76,1.96-17.32,3.6-22.42,6.82-21.24,25.91-47.51,50.95-45.56Z"/>
    <path class="cls-1" d="M327.48,89.84c.34.38.76.7,1.09,1.09l1.09,1.09c10.37,12.79,13,18.97,10.82,36.44-.85,6.76-8.12,22.2-13.32,26.49-1.33,1.1-3.74,1.11-4.04,1.4-2.67-4.34,3.75-9.14,5.88-13.2,4.85-9.22,9.18-26.86,5.05-36.44-5.92-13.72-23.98-21.34-38.19-17.97-1.47-5.07,2.83-5.18,7.11-5.43,9.53-.55,15.87,3.69,24.52,6.53Z"/>
    <path class="cls-8" d="M323.11,81.12c-1.48-.34-4.75.89-5.48-.71-.98-2.14-.92-8.12-1.77-11.12-3.65-12.9-12.21-22.05-26.35-22.81-4.51-.24-12.64,4.66-13.3-1.34.13-.04.63-1.52,1.88-1.89,12.9-3.82,31.22.15,38.29,12.42,4.5,7.8,4.74,16.91,6.72,25.45Z"/>
    <path class="cls-6" d="M4.67,117.1c.7,6.47,8.67,20.16-1.09,23.99-1.33-5.91-.43-22.97-1.09-23.99h2.18Z"/>
    <path class="cls-3" d="M176.97,57.12c-2.97,3.06-6.19-7.8-8.18-9.8-5.89-5.92-18.84-4.08-23.9,2.26-1.42,1.77-3.22,6.64-3.87,7.1-.86.61-4.27-.48-4.4-.65-2.06-2.7,8.85-13.33,8.65-14.56-.64-3.8-11.41-6.99-14.81-7.15-6.13-.29-13.82,3.52-17.82,8.08-1.54,1.76-1.9,4.91-3.98,5.84-8.15,3.63.36-9.92,2.61-11.85,8.25-7.06,21-8.44,30.71-3.69,3.13,1.53,6.66,6.2,8.51,6.76,3.86,1.17,7.12-1.01,10.64-.92,6.1.16,14.29,6.89,15.6,12.84.25,1.14.57,5.41.25,5.74Z"/>
    <path class="cls-3" d="M117.1,102.8c-1.23-1.05-.73-5.85-7.42-8.38-13.81-5.21-35.7,2.19-44.41,14.01-1.25,1.7-2.56,6.24-2.85,6.43-5.02,3.4-4.25-4.61-1.51-8.61,9.41-13.77,37.57-23.7,52.5-15.56,2.09,1.14,8.65,7.72,8.95,9.62.4,2.56-4.16,3.41-5.25,2.48Z"/>
    <path class="cls-3" d="M259.88,64.76c-.44-.28-1.1-6.18-1.66-7.62-5.23-13.46-21.49-13.53-32.74-7.66-3.57,1.86-9.49,8-11.99,8.73s-1.97-3.28-1.63-4.66c.45-1.85,13.4-9.32,16.09-10.33,12.91-4.84,29.65-2.71,34.6,11.76,1,2.92,3.04,13.46-2.68,9.78Z"/>
    <path class="cls-3" d="M42.74,88.65c-7.12,4.79-10.4-17.75-4.7-19.45,6.11-1.82,7.2,17.77,4.7,19.45Z"/>
    <path class="cls-3" d="M56.64,65.98c6.4-1.67,5.8,19.76,3.06,20.58-6.71,2.01-8.5-19.16-3.06-20.58Z"/>
    <path class="cls-3" d="M301.45,119.11c-1.03-1.62-1.76-18.26,4.61-17.11,4.77.87,3.48,15.96-.4,17.89-1.02.51-3.85-.24-4.2-.79Z"/>
    <path class="cls-3" d="M321.93,105.2c1.62,1.1,3.49,18.1-4.7,16.32-3.32-.72-2.85-21.42,4.7-16.32Z"/>
    <path class="cls-3" d="M102.73,104.11c1.04.7,4.75,17.22-1.39,16.16-6.5-1.12-6.09-21.2,1.39-16.16Z"/>
    <path class="cls-3" d="M81.01,107.28c.34-.33,3.44-.02,4.37.53,2.81,1.67,5.26,13.88.39,14.67-5.64.92-5.51-14.5-4.77-15.2Z"/>
    <path class="cls-3" d="M264.78,76.76c6.11-1.88,6.74,15.5,2.04,16.28-5.08.84-4.74-15.45-2.04-16.28Z"/>
    <path class="cls-3" d="M303.44,57.2c.77,1.05-3.87,12.51-4.45,12.86-7.99,4.92-5.14-13.63.63-13.96.56-.03,3.7.94,3.81,1.1Z"/>
    <path class="cls-3" d="M252.79,76.76c6.15-1.3,4.62,22.27-2.16,13.03-2.56-3.49-1.44-12.27,2.16-13.03Z"/>
    <path class="cls-3" d="M210.75,34.23c1.04,2.88,4.91,14.27-.51,14.22-4.99-.04-9.51-15.72.51-14.22Z"/>
    <path class="cls-3" d="M291.49,52.78c.43.56-2.87,12.44-5.05,12.93-7.07,1.6-2.3-13.2,1.38-13.83.46-.08,3.55.74,3.67.89Z"/>
    <path class="cls-1" d="M238.05,65.83l-5.45,1.12c0-2.92-3.03-13.04.55-14.17,5.72-1.8,2.98,9.94,4.9,13.05Z"/>
    <path class="cls-3" d="M196.49,35.44c.89.74,2.55,10.63-.57,11.75-6.28,2.25-4.6-7.69-4.77-11.87,1.36.22,4.6-.49,5.34.12Z"/>
    <path class="cls-3" d="M246.6,52.94c1.07,1.75-.42,10.12.18,12.92h-5.46s1.1-14.17,1.1-14.17c.34-.38,3.95.87,4.19,1.26Z"/>
    <path class="cls-3" d="M113.71,11.34l4.37,13.08c-7.22,3.45-12.43-14.32-4.37-13.08Z"/>
    <path class="cls-3" d="M155.17,63.67c-7.79,3.7-8.22-11.07-3.8-11.99,3.39-.71,3.72,9.76,3.8,11.99Z"/>
    <path class="cls-3" d="M107.13,27.63c-.13.18-3.94,1.38-4.27,1.14-.56-.41-5.73-11.94-1.67-13.07,2.34-.49,6.61,11,5.93,11.92Z"/>
    <path class="cls-3" d="M163.89,51.67c-.46,3.08,3.84,13.21-2.63,11.94-2.57-.5-4.86-14.01,2.63-11.94Z"/>
    <rect class="cls-1" x="119.64" y="41.52" width="5.63" height="11.59" transform="translate(-4.73 14.79) rotate(-6.78)"/>
    <path class="cls-1" d="M133.35,50.58c-7.69,2.01-5.99-5.01-6.53-10.9,7.31-1.39,5.14,5.94,6.53,10.9Z"/>
    <g>
      <path class="cls-4" d="M221.69,186.88c-17.95,11.65-44.36,14.49-65.27,10.2-2.99-.61-21.27-9.47-23.06-11.29-40.19-40.54-1.02-111.15,54.04-105.82,23.9,2.32,49.73,29.06,51.78,52.9,1.65,19.18.53,42.31-17.49,54.01ZM200.59,118.32c-7.01,2.26-1.79,34.11,5.59,19.8,2.49-4.82,1.31-22.02-5.59-19.8ZM155.34,119.46c-3.93,2.4-3.92,25.85,4.54,23.7,7.05-1.8,4.72-29.34-4.54-23.7ZM193.33,148.72c-.75-.75-19.59.8-21.09,1.26-2.57.79-3.31,4.7,1.19,4.57,3.96-.11,16.19-.11,18.78-2.05,1.14-.85,1.69-3.21,1.11-3.78Z"/>
      <path class="cls-7" d="M155.34,119.46c9.26-5.65,11.59,21.9,4.54,23.7-8.46,2.16-8.47-21.3-4.54-23.7Z"/>
      <path class="cls-7" d="M200.59,118.32c6.9-2.22,8.08,14.98,5.59,19.8-7.38,14.31-12.6-17.54-5.59-19.8Z"/>
      <path class="cls-5" d="M193.33,148.72c.58.58.02,2.93-1.11,3.78-2.59,1.94-14.83,1.94-18.78,2.05-4.5.12-3.76-3.78-1.19-4.57,1.5-.46,20.34-2,21.09-1.26Z"/>
    </g>
  </g>
</svg>