<?xml version="1.0" encoding="UTF-8"?>
<svg id="Layer_1" xmlns="http://www.w3.org/2000/svg" version="1.1" viewBox="0 0 2460 1105">
  <!-- Generator: Adobe Illustrator 29.3.1, SVG Export Plug-In . SVG Version: 2.1.0 Build 151)  -->
  <defs>
    <style>
      .st0 {
        fill: #bea9d8;
      }

      .st1 {
        fill: #bea9d9;
      }

      .st2 {
        fill: #6d568a;
      }

      .st3 {
        fill: #6b5487;
      }

      .st4 {
        fill: #bca7d7;
      }

      .st5 {
        fill: #6f588c;
      }

      .st6 {
        fill: #6a5386;
      }

      .st7 {
        fill: #6c5689;
      }

      .st8 {
        fill: #6b5488;
      }

      .st9 {
        fill: #bda8d8;
      }

      .st10 {
        fill: #6b5588;
      }

      .st11 {
        fill: #beaad9;
      }

      .st12 {
        fill: #6a5387;
      }
    </style>
  </defs>
  <g>
    <g>
      <path class="st11" d="M2054.2,340.8c11.3,10.6,19.3,24.3,29,36.3,11.3,14.4,24.5,27,35.2,42,9.5,13.1,16.9,27.4,23.2,42.3,5.2,12.2,9.7,24.7,14.2,37.2,30,85.1,71.7,165.7,97.9,252,8.6,27.2,16.8,54.6,27.3,81.1,6,15.2,13,29.8,17.1,45.6,2.3,8.7,3.9,17.6,5.2,26.5,2.5,15.9,5.7,33.4-2.9,47.6-7.4,11.9-19.8,19.3-32.1,25.6-11.2,5.9-22.8,10.5-35.2,13.3-12.1,2.9-24.9,4.4-37.4,6.5-23.7,3.5-47.4,4.3-71.3,5.7-15.1.8-29.8-.5-45-.9-14.4,0-28.7,1.2-43.1.2-13.1-.6-26.1-1.7-39.2-1.8-17.1-.6-34-3.5-51.2-4.5-18.9-.7-37.4,2.3-56.2,2.6-32.5.5-64.9-1.3-97.1-2.6-32.6-1.2-65.3-1.7-96.7-11.8-9.5-3-19.1-7-26.5-13.9-17-16.2-13.7-42.5-11.9-63.8.7-6.4,1.5-13.1,3.1-19.5,3.3-13.5,8.7-25.5,13.1-38.7,7.4-25.2,17.2-49.6,27.1-73.9,15.9-39.9,35.5-78.1,53.7-117,13.4-28.5,30.5-55.3,41.6-84.8,3.4-9.1,6.4-18.3,9.7-27.4,7.8-20.7,17.8-40.3,29.7-58.9,8.2-12.3,18.2-23.3,27.3-34.8,16.8-21.1,32.7-43.3,47.8-65.7,15.7-22.5,31.4-48.2,57.8-59.2,12.9-5,27.7-5.7,41.4-4.9,16.6.9,32,7.9,44.3,19.4h.1ZM2050.4,654.9c-5.3-2.1-11.2-2.2-16.2.5-17.8,9.3-14.6,41.2-13.9,59.1,1.2,12.6,2.1,26.6,8.8,37.3,11.3,16.2,29,10.1,35.5-6.8,6.3-15.8,5.9-33.1,5.3-49.9-.5-15-3.8-34-19.4-40.1h-.2ZM1844.4,657c-29.4,9.2-20.6,60.2-14.4,83,2.3,7.7,5.8,16.2,12,21.2,8.4,6.9,19.6,3.6,25-5.4,5.4-9.2,6-20.6,6.8-31.3.5-17.7,2.2-45.1-8.1-58.9-4.8-6.4-13.1-10.6-21.1-8.6h-.2ZM1978,789.4c-8-4.3-18-2.8-27.4-1.7-6,.8-11.8,3-17.7,3.5-6.8.8-13.6-.3-19.6,2.7-13.6,7.2-5.4,28.5-1.6,41.1,3.6,11.4,5.8,23.4,14.3,30.9,15.1,13.6,38.7,13.1,51-3.9,8.9-11.6,11.8-27.7,11.9-42.3-.2-11.7-.8-24.6-10.9-30.3h-.1Z"/>
      <path class="st8" d="M1978.8,787.3c.4.2,6.6,6.3,6.8,6.7.6,1.5,2.3,3,2.6,4.4s0,3.4.6,5.3c1.2,4.7.8,24.8-.2,30.3-5.3,30.1-25.8,52.2-57.3,36.2-16.1-8.2-25.1-42.2-27-59s0-11.4.8-12.2,1.9-1.6,2.2-2.9c.9-3.1,3.5-3.9,3.7-4.1.8-.9,21.6-2,25.4-2.3,9.4-.8,35-5.5,42.4-2.4Z"/>
      <path class="st12" d="M2051.8,654.3c.3.1.4,1.3,1,1.7,5.7,3.7,13.1,8.9,14.8,16,2.8,11.8,2.2,28.4,2.4,40.6,1.7,12.6-2.3,29.9-9.1,40.8s-6.2,7.4-7.5,7.6-10.2.8-11.7.7c-2.8-.2-10.2-5.5-12-7.8-10.5-13.9-11.3-61.1-8.7-78.4s3.7-13.8,5.1-15.9,3.6-1.6,5.4-2.7,1.3-2.4,1.8-2.6c.9-.5,17.2-.5,18.5,0Z"/>
      <path class="st8" d="M1843.8,657.2c2.2-.1,7.5-.2,9.7-.2,7.5.2,15,9.3,17.1,15.9,5.2,16.4,5.2,66.3-2.1,81.9-1.2,2.6-7.3,9.6-9.9,10.1-16.6,3.2-22.6-7.4-27-21-6.5-19.7-8.4-40.7-7.4-61.4.4-8.9,10.2-24.8,19.7-25.4Z"/>
    </g>
    <g>
      <g>
        <path class="st6" d="M1552.2,573.5c15.2,11,29.6,24.2,40.9,39.4,20.6,28.4,31,64,26.8,98.7-1.9,14.5-7.4,27.9-12,41.7-3.7,11-7.2,21.8-12.8,31.7-7.9,14-15.5,27.1-10.6,43.4,2.4,9.4,7.4,18.6,8.6,27.9,2.3,15.2-9.8,19.6-22.9,17.6-16.1-1.8-33.2-10.9-49.3-8.8-15.3,1.9-25.1,13.5-37.7,22.5-11.5,8.3-24.5,14.8-38,19.9-17.3,6.4-35.7,7.9-53.8,7.4-11.1-.3-22.4-1.1-33.1-4.1-19.4-5-35.9-15.5-52.2-26.7-17.3-12.5-33.9-25.2-47-41.8-20.5-26.2-31.1-53.9-32.3-87.1-2.3-47-8.8-74.1,14.5-118.2,21.2-44,60.1-77.8,105.9-94,20.8-8.1,43.1-13.5,65.3-14,13.8-.3,27.9-.1,41.6,2.6,34.1,7,69.5,21.5,98,41.7h.2ZM1497.2,622.4c-8.3-9.8-6.2-19.1-15.5-10.8-7.4,5.9-11.8,15.4-15.6,24-18.4,40.7-32,83.8-53.2,123.2-2.9,5.2-7.6,22.1-12.8,23.7-15.8,5-38.3-43.6-59.2-46.6-8.5-1.8-16.4,2.5-21.2,9.6-10,14.1,6.8,21,17.9,29.1,17.2,12,29.7,25.7,45.1,40,4.8,4.5,14.1,9.9,19.2,14.1,8.3,7.1,13.1,20.3,23.9,14.4,11.4-6.5,13.6-22.6,18.9-34.4,6.9-16.7,12.2-35.1,18.8-51.9,12-31.5,25.5-60.6,38.3-91.9,4.8-13.2,21.6-36.1,12.2-47.9l-16.6,5.4Z"/>
        <path class="st4" d="M1516.2,613.8c2.1,2.2,5.2-.9,3.7,7.7-1.5,8.8-7.9,25.8-11.2,34.8-10.8,29.7-26,58-37.9,87.1-11.9,29.1-22.5,63.9-36.6,91.4-2.4,4.7-8.3,15.7-14.5,12.1s-1.5-2.8-3.6-3.4-5.9-1.9-6.5-2.4-1.9-.8-3.1-2.1c-1.6-2-5.5-3.4-7.6-5.4-5.8-5.4-11.1-12.2-17-17s-11.1-8.3-12-11.5-2.5-3.7-4-5.4-7.1-4.6-9.5-6.6c-4.7-3.8-9.8-8.8-14.6-12.4s-20.6-12.3-23.6-15.9-1.5-5.7-2.3-8,0-3.1-.2-3.7c-.2-1.4,2.1-8.7,3.3-9.5s1.9-2.2,3.2-3.2,2.4-1.2,3.1-2,6.3-5.5,6.7-5.8c.8-.5,9.4-2.2,10.6-2.2,1.9,0,9.9,3.9,11.3,5.2,2.6,2.4,6.4,7.7,9.5,10.5,9,8.3,18.7,16.3,27.5,24.5,1.9,1.8,6.8,10.3,10.1,8s1.6-4.8,2.5-6.5c23.8-41.2,40.5-86.9,59.2-130.8,2-4.8,5.8-9.9,7.6-14.4s1-8.4,3.7-12.3,5.5-6,5.8-6.2c.8-.4,9.8-1.5,11.5-1.5,4.2,0,7.5,1.1,11,1.1"/>
      </g>
      <g>
        <path class="st6" d="M1470.8,111.2c5.6,4.9,12.2,8,16.9,13.7,5,5.8,11.1,14.5,15.8,21.1,5.7,7.5,8.8,15.8,13,24.2,2.1,4.3,5.2,6.9,7,10.9,10.9,30.1,9.4,61.2,9.8,93,.2,5.9,1.4,11.6.8,17.5-.8,9-1.3,17.4-3.8,25.9-2.8,12.9-10.3,26-16.2,38-2.9,6.5-8.3,11.4-12.4,17.1-4.2,5.7-8.6,10.4-13.7,15.2-4.1,3.8-8.9,7.1-13,11-6,5.5-12.3,10.6-18,15.7-2.1,1.9-4.2,3.7-6.6,5.2-7.6,4.7-14.7,9.7-22.7,13.3-5,2.6-9.7,5.8-15.2,7.7-16.4,6.3-30.4,3.6-46.8,5.6-8,1.5-16.1,2-24.2.1-10.2-1.8-19.4-4.4-28.8-8.2-11.9-4.9-24-11-34.4-18.6-6.6-4.9-12.3-10.9-18.9-15.6-5.1-3.8-11.3-3.4-16.9-1.1-10.5,3.8-20.9,7.2-31.1,11.1-7.2,2.8-14.7,5.9-22.4,7-6.9,1.2-16.6-.7-17.5-8.9-.6-6,2.2-12,4.5-17.4,4.9-10.9,8.9-22.5,10.3-34.4,1.9-11.5-8.5-16.8-15.2-24-5-5.3-7.5-12.3-10.1-19-6.4-17.6-15.7-35.9-21.3-53.5-2.5-8.9-2.8-17.8-2.9-27.1-3-50.2,26.9-94.8,66-125.1,29.5-21.8,74.2-43.8,113.8-47.9,11.5-.6,24.7-.2,36.6-.5,34.2,4.4,69,12.9,96.8,31.6,7.1,4.6,14.1,10.6,20.8,16.3h.2ZM1444.1,182.2c-1.2-14.1-23.7-21.8-35.7-25.2-34.5-10.5-59.2,11.1-69.2,43.2-1.5,4.3-3.3,6.8-7.1,8.2-11.9,4.6-28.7,7.7-41.4,12.6-24.2,8.9-53.1,18.7-70.7,37.7-9.6,11.7-10.8,31.6-.8,43.5,14,14.4,36.3,7.3,52.7,1.2,22.3-8.3,44.7-17.5,66.5-26.9,4.1-1.7,8-3.7,12-5.7,4.2-2.2,8.3-2.2,12.6.5,23.5,15.4,49.3,14.5,72.5-.7,12.6-8.6,22.3-23.2,25.6-38.4,1.1-5.6,1.9-13.5-2.4-17.7-3.8-3.3-10.9,0-17.3,2.4-7,2.6-14.2,5.4-21.6,6.3-6.3.4-9.5-7.2-11.5-12.2-2-5.6-3-9.3,3.2-11.7,7.1-3.2,22-10,28.8-13.1,1.7-.8,3.6-1.8,3.9-3.7h0Z"/>
        <path class="st9" d="M1444.9,183.9l-38.9,17.7c-1.2,5.3,5.9,20.9,10.8,22.2s16.3-4.1,19.5-5.1c11.3-3.7,27.1-15.5,25.7,6.6-1.1,18-14.1,38.5-29.9,47.2-23.9,13.2-44.3,13.2-67.7-.3-2.3-1.3-5.2-5.3-7.6-5-4.5,1.8-8.7,4.9-13.2,6.8-19.5,8.3-39.6,17-59.6,24.4-15.8,5.9-38.1,16.2-54.3,10.3s-14.7-9.8-16.7-20.3c-2.5-13.6,1.8-27.3,12.9-36,20.9-16.2,48.3-26,73.5-34.5,7.9-2.7,33.1-7.9,37.8-11.9s2.8-9.7,3.9-12.3c15.4-35.2,39.1-47.6,76.2-33.8,10.7,4,26.8,11,27.4,24Z"/>
      </g>
    </g>
  </g>
  <g>
    <path class="st1" d="M741.4,123.6c129,14.4,256.3,94,301.4,219.4,29.1,60.8,49.9,127.1,51.4,194.9-1.3,17.3-6,35.9-7.4,52.9-2.3,55.7-17.9,114.6-40.5,164.4-22,40-52.7,76.8-85.8,107.5-84.2,66.3-193,108.4-301.4,103.7-126.1-8.4-205.2-20.9-299.7-113.5-8-10.4-17.9-18.9-27-28.1-17.3-23.5-34.9-46.3-47.5-73.5-10.6-19.5-17.8-40.2-25.4-61-8.7-20.6-18.5-41.1-22.1-63.4-31.8-143.7,23.4-310.9,143.8-399.3,15.1-10.4,28.1-23.4,42.5-34.6,17.6-9.7,33.4-22.5,50.5-31.8,26.5-9.2,52.3-20.2,79.2-27.9,10.8-3.7,22.4-3.3,33.9-3.5,15.7-.1,30.5-5.6,45.9-7.7,18-2.1,36-1.3,53.9-.2,17.9-1.3,36.5-.7,54.3,1.6ZM1002,302.7c-7.7,12-78.9-39.2-70.3-37.3,12.3,4.2,26.3,10.1,37,17.4,9.3,6.1,9.7,12,19.9,16.8,11.4,4.4,18.3,2,10.6-4.9-16.2-20.4-28.8-29.3-53.1-37.8-7.4-2.5,61.2,39,55.9,45.7ZM541.2,245.5c8.3-9.3-1.5-15.2-10.1-10.4-19.3,6.4-83.9,76.7-78,95.9,7.2,8.8,13.7-3,17.6-9.7,18.6-30,40-58,70.5-75.7ZM752,435c-13.8,6.4,2.7-74.9-3.1-88-1.3-11.8-7.7-22-20.6-23.3-60.6-5.8-121.7-8.4-182.6-9-16.3.3-30.9,3.5-30.8,23-12,61.8-7.5,125.3-.7,187.3,3,14,20.1,12.7,31.1,16.1,25.2,6.7,50.8-3,76.4-.5,12,.4,24.1,1.5,36.2.5,11.2-.8,22.1-4.2,33.4-5.7,12.9-1.8,26.1-1,38.9-3,14.7-2.3,1.5-11,2.2-22.4,2.5-15.9,16.3-33.1,17.2-49.3,0-13.5-3.2-17.7,8.9-16.8,72.1-1.1,70.5-36.1,76.5,21.7,1.1,30.3-6,59.6,24.3,63.5,21.3,3.4,45.5.4,67.1-.2,16.3-.9,28.1,1.2,44.3,4.1,6.9.7,14.9-4,21.8-5.2,20.3-7,24.7-20.3,30.6-38,4.6-28.5,17.7-137.7-12.2-151.4-47.9-22.4-94.7-17-144.9-1.9-18,3.6-27.6,13.7-29.5,29.3-2.2,12.2-1.2,41.3-3.1,53.6-1.9,12.3-4.1,9.3-21,8.4-18.8,1-41.9,4.8-60.4,7.3ZM818.9,608.4c18.6-23.2,49.3-49.1-2.9-36.2-29.7,1.8-54.4,4.7-83.6,9.8-19.5,1.8-38.7-13.1-26.2,14.5,12.7,70.4,78.3,69.9,112.7,11.9Z"/>
    <path class="st3" d="M825.3,612.3c-5.6,8-6.6,12.5-14.8,19.7-37.3,32.5-85.6,28.9-104.3-20.7-2.3-6.2-2.8-13.8-4.7-19.3s-7.4-7.4-5.4-13.3,4.4-1,6-2.1.4-3.3,1.5-3.6c1.7-.5,11,1.3,14.9,1.1,19.5-1.2,42.1-7.6,62.1-9.9,14.3-1.6,27.5-1.3,42-4,1.6-.3,5.9.3,6.4-.2s-.5-2.7.6-3c3-.6,11.4,1.3,14,3.1,11.1,7.5.3,24.6-4.7,33.3-3.9,6.8-9.2,12.9-13.5,19Z"/>
    <path class="st5" d="M544,250c-.2.3-5.4.7-7.2,1.3-11.8,4.4-31.7,24.8-40.3,34.7-12.2,14.1-22.6,30-32,46-1.6,0-3.9,2.9-4.2,3-1.1.2-8,.4-8.3,0s.3-3.1,0-4.3-2.9-.8-3.1-3.2c-.4-4,18.9-31.4,22.7-36.4,11.5-15.3,44.9-53,63.1-56.9s13.4,0,12.1,6.1-2.1,2.9-2.6,4.5,0,4.9-.3,5.2Z"/>
    <path class="st5" d="M914,247c3.2.8,6.6-1,9.4-.9,7.8.2,45.3,16.2,52.9,21.1,11.1,7.2,16.7,17.7,26.1,25.5s2.1.1,2.4.5.9,5.4.9,6.2c-.3,3.7-3,2-3.7,3.3s-.5,3.9-1,4.3-8.3-1.1-9.7-1.7c-6.3-2.7-12.6-14.8-18.7-20.3s-37-19.6-48.3-21.7-10.3.4-10.3-1.7v-14.5Z"/>
    <g>
      <path class="st2" d="M757.3,445.7c-.6,1.8-2,3.2-3.4,6.3-1.8,3.9-1.9,8.6-2.3,12.9-1,13.9-4,27.2-6.2,40.8-1,6.7.2,13.4-2.5,19.5-4.4,8-15.8,7.9-24.1,8.5-8,.4-16,.6-23.9,1.6-14.1,1.6-27.6,5.7-41.7,6.1-18.7.7-37.6-2-56.3-.4-11.2.7-22.5,2.8-33.8,2.7-11-.2-21.7-2.8-32.3-5.2-5-1.1-10.3-2.3-14-5.9-6.2-5.7-5.9-15.3-6.7-23.2-2.6-32.4-5.4-67.2-5.7-100.2.3-22.6,4.9-46,7.8-68.7.6-6.3,2-14.1,6.1-18.7,4.7-5.8,19.9-6.9,27.6-7.1,48-.3,96,3.4,144,5.5,8,.5,16,1,24,1.7,9.3,1,20.3,1.1,27.8,6.9,18.8,15.4,7.4,69.5,10.1,92.8.5,5.5,2,10.1,4.1,15.2,1.3,2.8,2.2,6.1,1.2,9h0ZM726,345.7c-6.1-5.2-15.2-4.5-23.1-5.8-30.6-4.8-61.5-3.2-92.3-5.1-20.6-2.4-41.6-1.4-62.6-1.2-4.1,0-9.5.4-11.6,2.4-4.6,4.2-4.5,13-5.9,19.2-7.2,43.2-4.6,86.8-.4,130.1.5,6.1.9,12.2,1.3,18.1.4,6.5,2,13.5,7.9,16.6,4.4,2.6,11.2,3.4,17.6,4.4,10.8,1.6,21.1,0,31.7-1.6,19.7-2.7,39.8.3,59.5-.4,18.2-.8,36.1-5,54.3-6.7,6-.7,13.3-1.1,17.8-5.2,5.5-5.2,5.5-14.1,7.1-21.4,1.7-9.7,3.4-19.4,4.1-29.2,1.2-16.3-.8-32.6-.6-48.9-.6-15,6.4-55.8-4.6-65h-.1Z"/>
      <path class="st7" d="M982.1,536.4c-11.5-.9-23.2-2.2-34.8-1.7-33.2,2.4-67-1.8-99.8-7.4-5.9-1.3-12.5-2.4-16.2-7.2-6.5-8.5-4.1-22-5.6-32.1-.8-7.4-1.7-15.1-1.8-22.5.1-4.3.5-8.6,0-12.9-.1-9.1-9.6-7.4-16.1-7-10.7-.1-21.4,0-32.1.7-5.4.1-17-.9-22.2-2.3-6-1.9-8.7-9.8-3.2-13.4,2.9-1.8,12.5-1.2,15.9-1.4,5.6-.4,10.8.2,16.5-.3,6.9-.3,13.7-.6,20.5-.9,5.2,0,11,0,15.9-.8,5.9-1,7.4-7,8.1-13,.6-5.4,1.2-10.7,2.2-15.9,2-11.8,4.7-23.6,6.7-35.4,1.5-9.4,2.2-20,9.9-26.7,2.8-2.6,6.1-4.3,9.7-5.3,7.4-2,15.9-3.3,23.5-5.5,37.6-10.1,75.2-6.6,111.8,5.1,8.8,3,19,6,26.2,11.8,7,5.8,7.5,15.6,8.7,24.1,6.7,48.6,4.6,110.2-13.3,155.7-1.3,2.9-3.1,5.3-5,7.8M989.3,540,847.8,506.5c1.6,1.7,3.9,2.7,6.7,3.4,34.2,7.7,69.3,5.5,103.6,6.9,8.3.3,16.9-.3,25.6-1.3,3.6-.4,7.5-1.6,9.8-3.7,2.6-2.1,4.4-5.9,5.9-9.3,9.5-22.3,9.6-47.2,10.7-71,.7-21.3,2-43.6-2.1-64.7-1.3-7.2-4.8-11.6-11.6-13.9-38.1-14.7-80.1-20.7-119.7-7.8-8.3,1.9-17.5.8-20.2,10.5-8,31.2-14,75.4-14.7,107-.2,10.3,1.4,20.2,2.5,30.6.4,4.5.7,10.5,3.4,13.3h0Z"/>
      <path class="st2" d="M826,496c3.6-1,1.8,7.1,1,10,0-2.4-1-6.3-1-10Z"/>
      <path class="st2" d="M822,427c.7,4.3-4.6,1.1-6,1"/>
      <path class="st2" d="M819,446c-.8-3.5,3.6-1.6,6-2,0,.7,0,1.3,0,2-2,0-4,0-6,0Z"/>
      <path class="st2" d="M824,455c0-1.8-.4-3.5,1-5"/>
      <path class="st2" d="M824,468c0-1.7,0-3.3,0-5"/>
      <path class="st2" d="M760,429"/>
      <path class="st2" d="M812,446"/>
      <path class="st2" d="M813.2,446.7"/>
      <path class="st2" d="M829,443.1"/>
      <path class="st2" d="M771,429"/>
      <path class="st1" d="M728.8,343.2c1.1.8,3,14.8,3.2,17.3,1.5,16.9-1.5,33.5-1.6,50.2,0,15.1,1.9,30.5,1.2,45.7s-6.6,38.4-8.6,57.7c-8.6-2.1-16.3,1-24.6,1.9s-17,1.1-26.6,3.4c-28.1,6.7-57.6-1.2-86.1,2.9s-8,2.5-12.1,2.9c-9.9,1-26.7-2.3-36.1-4.9s-3,.2-4.4,0c.1-2.2-1-4.3-1.1-6.5-.4-22.2-3.6-46.3-5-69-1.8-29.7-1-57.4,3.1-86.9,1.1-7.9,4-15.5,3.9-23.6l60.3-.6c26,4.2,52.2,2,78.2,3.6,18.7,1.1,37.6,4.6,56.2,6.2ZM610.4,479.6c7.3,6.6,17.2,6.7,23.1-1.7,10-14.4,10.7-75.3,5.8-92.7s-11.3-25.9-28.7-23.2-9.7,7.5-12.6,13.2-1.9.8-2.3,1.9c-1.4,3.6-3.5,27.1-3.7,32.3-.8,17.8,4.7,57.8,18.3,70.1Z"/>
      <path class="st0" d="M845,509c1.3-12.5-2.5-25.3-3-37.6-1.4-29.9,7.2-85.7,14.3-115.7s3.4-9.4,3.8-9.7,8-.4,10.2-.6c4.7-.4,10.7-1.9,15.8-3,32-7.3,59.3-5,90.3,3.8s27.7,9.1,28.8,10.2c1.8,1.8,3.2,10.3,3.7,13.3,3.1,19.6,2.1,41.9,1.3,61.8s-1.3,50.1-10.7,71.3-5.2,11-6.4,11.6l-26.5,2.5c-32.6-2.1-62.6.3-95.8-4.2-8.8-1.2-16.7-4.7-25.6-3.9ZM934.7,476.7c.3-.3,4.1-6.4,4.4-7.1,3.6-8,7-36.7,7-46.1s-1.1-5.3-1.1-8c0-14.8,2.1-40.8-8.4-52.6s-22.1-4.2-27.6,4.5c-13.5,21.3-15.1,47.4-13.9,71.9s3.9,9.7,5.4,14.7c4.2,13.4,4,29.5,22.9,27.9s9.3-3.1,11.3-5.2Z"/>
      <path class="st10" d="M610.4,479.6c-13.6-12.4-19.1-52.3-18.3-70.1s2.3-28.7,3.7-32.3,2-1.2,2.3-1.9c2.8-5.7,4.7-12,12.6-13.2,17.3-2.7,24.5,8.4,28.7,23.2s4.1,78.3-5.8,92.7-15.8,8.3-23.1,1.7Z"/>
      <path class="st12" d="M934.7,476.7c-2,2.2-8.3,5-11.3,5.2-18.8,1.6-18.7-14.5-22.9-27.9s-5.1-8.9-5.4-14.7c-1.2-24.4.3-50.5,13.9-71.9,5.5-8.7,20.2-12.8,27.6-4.5,10.5,11.8,8.5,37.7,8.4,52.6s1.1,5.1,1.1,8c0,9.4-3.4,38-7,46.1s-4.1,6.8-4.4,7.1Z"/>
    </g>
  </g>
</svg>