<?xml version="1.0" encoding="UTF-8"?>
<svg id="Layer_1" data-name="Layer 1" xmlns="http://www.w3.org/2000/svg" viewBox="0 0 291.98 248.39">
  <defs>
    <style>
      .cls-1 {
        fill: #5e2c2d;
      }

      .cls-2 {
        fill: #5a2728;
      }

      .cls-3 {
        fill: #cb5152;
      }

      .cls-4 {
        fill: #7d6798;
      }

      .cls-5 {
        fill: #cc5658;
      }

      .cls-6 {
        fill: #613b3c;
      }

      .cls-7 {
        fill: #c44345;
      }

      .cls-8 {
        fill: #ccbce3;
      }

      .cls-9 {
        fill: #4f2425;
      }

      .cls-10 {
        fill: #cb5e5f;
      }
    </style>
  </defs>
  <g>
    <path class="cls-8" d="M49.45,113.07c19.63-.36,32.24-4.54,34.07,19.81,1.66,21.97.81,46.21,2.15,68.72.52,8.68,5.49,24.57-2.71,31.11-3.86,3.08-20.53,5.05-26.21,5.41-16.19,1.05-32.42-1.14-48.58-1.56-8.19-2.65-4.62-27.76-5.34-35C-.26,175.03.46,148.13,0,121.42c.74-1.92,1.69-3.14,3.59-4.04,9.51-4.48,34.48-4.1,45.86-4.31ZM43.13,136.74c-.04,1.24-.21,2.15.53,3.29,1.81,2.78,21.77-3.35,20.16-9.22-1.3-4.73-3.49.06-4.03.45-4.79,3.48-10.62,5.66-16.66,5.47ZM25.67,140c2.68-9.19-20.72-7.52-17.97.02,7.02-2.18,11.03-2.63,17.97-.02ZM58.26,148.88c-8.83-5.48-7.95,15.16-1.5,15.16,4.71,0,2.69-14.42,1.5-15.16ZM20.37,163.83c8.26,4.97,6.58-19.2-.78-13.02-2.85,2.4-1.1,11.89.78,13.02ZM47.47,167.26c-.74-.56-15.31,2.08-17.83,4.5-2.74,2.62-2.3,5.86.97,4.26,6.5-3.17,10.52-4,17.98-4.4.24-.24-.94-4.22-1.12-4.36Z"/>
    <path class="cls-4" d="M58.26,148.88c1.2.74,3.21,15.17-1.5,15.16-6.46,0-7.33-20.64,1.5-15.16Z"/>
    <path class="cls-4" d="M43.13,136.74c6.04.18,11.87-2,16.66-5.47.54-.39,2.73-5.18,4.03-.45,1.61,5.88-18.34,12-20.16,9.22-.75-1.14-.57-2.06-.53-3.29Z"/>
    <path class="cls-4" d="M20.37,163.83c-1.88-1.13-3.63-10.62-.78-13.02,7.36-6.18,9.04,17.99.78,13.02Z"/>
    <path class="cls-4" d="M47.47,167.26c.18.14,1.36,4.12,1.12,4.36-7.47.4-11.48,1.23-17.98,4.4-3.27,1.6-3.7-1.64-.97-4.26,2.52-2.42,17.09-5.06,17.83-4.5Z"/>
    <path class="cls-4" d="M25.67,140c-6.94-2.61-10.96-2.16-17.97.02-2.75-7.54,20.65-9.21,17.97-.02Z"/>
  </g>
  <g>
    <g>
      <path class="cls-7" d="M129.28,207.61c2.7-7.79-.22-7.94-.08-15.82.19-10.62,6.03-22.86,13.14-30.54,3.58-3.87,22.05-20.32,27.19-16.78,3.24,5.49-2.7,16.54,6.64,15.16-1.59-13.58-3.4-29.39-2.16-43.04.37-4.03,2.94-14.3,7.28-15.62,3.55-1.08,17.92-.36,22.74-.25,5.99.14,11.99,1.26,18.55,1.19,9.03-.1,19.31-5.13,24.95,5.48,1.33,2.51,4.45,22.07,4.58,25.72.1,2.67-1.16,6.02-.78,8.99-14.18,2.82-30.63,7.66-30.43,25.17,6.39,1.59,3.83-4.74,7.14-9.75,8.16-12.36,42.26-15.34,52.35-4.47,1.46,1.57,4.49,6.71,5.41,8.77.73,1.65,3.56,9.55,3.81,10.91.36,1.94,1.22,13.79,1.05,15.68-.46,5.04-5.57,11.83-5.35,16.4.48,10.15,11.94,17.24,3.21,29.52-7.18,10.1-15.25,14.13-27.71,12.45-4.29-.58-11.45-4.68-15.35-4.28-2.32.24-5.51,4.71-9.9,5.39-7.69,1.18-21.42.35-28.49-3-2.65-1.26-4.99-4.6-5.34-4.6-3.33-.03-9.95,4.93-15.17,5.5-6.62.72-21.83.45-28.07-1.38-9.8-2.88-32.89-26.11-29.19-36.78ZM221.45,122.57c-3.77,1.46-3.78,12.22-1.1,13.07,5.68,1.8,5.04-13.86,1.1-13.07ZM193.62,123.65c-4.95-4.01-4.87,10.38-4.35,13.09,7.73,3.52,5.55-12.11,4.35-13.09ZM202.01,141.31c-8.1,2.48-1.8,16.26,6.86,12.31,8.46-3.86,4.1-15.66-6.86-12.31ZM243.76,165.1c-.15-.15-4.17-.17-4.32-.02-1.06,1.01-.74,12.96,5.44,9.81-.43-1.6-.76-9.45-1.12-9.79ZM256.89,173.81c6.32,2.5,7.06-7.69,3.8-8.72-4.79-1.51-3.96,6.26-3.8,8.72ZM154.36,166.18c-3.86-2.77-7.14,12.83.45,13.12,2.57.1.15-12.69-.45-13.12ZM176.02,166.34c-.99-.58-2.92.01-4.2-.17.25,2.43-1.08,10.04,1.64,10.9,5.57,1.75,4.02-9.87,2.55-10.73ZM244.04,189.91c5.93,6.11,18.53-6.41,14.02-12.36-1.34-1.77-13.46-.72-15.09.89-2.02,2-.48,9.88,1.07,11.48ZM167.26,182.8c-3.19.28-12.93,1.22-13.85,4.85-.7,2.77,4.9,9.29,7.2,9.96,9.64,2.83,16.78-15.7,6.65-14.81Z"/>
      <path class="cls-1" d="M129.28,207.61c-1.84-.77-2.52-2.28-3-4.09-7.47-28.08,16.71-57.48,42.87-64.54,2.66-18.06-6.53-42.96,19.57-43.46,13.99-.27,34.82-1.46,48.03-.27,12.41,1.12,14.27,5.16,16.54,16.18,2.07,10.02,3.52,20.64,2.5,30.76,7.51-.29,15.38-.14,22.19,3.44,7.16,3.76,13.61,15.25,13.85,23.27.06,2.06.93,4.45-2.23,3.81-.25-1.36-3.08-9.26-3.81-10.91-.91-2.06-3.95-7.2-5.41-8.77-10.08-10.87-44.19-7.89-52.35,4.47-3.31,5.01-.74,11.35-7.14,9.75-.2-17.51,16.25-22.35,30.43-25.17-.38-2.97.88-6.31.78-8.99-.13-3.65-3.25-23.21-4.58-25.72-5.63-10.61-15.92-5.59-24.95-5.48-6.56.08-12.56-1.05-18.55-1.19-4.82-.11-19.19-.83-22.74.25-4.34,1.33-6.91,11.6-7.28,15.62-1.24,13.65.57,29.47,2.16,43.04-9.34,1.38-3.4-9.67-6.64-15.16-5.13-3.54-23.6,12.91-27.19,16.78-7.11,7.68-12.95,19.92-13.14,30.54-.14,7.88,2.78,8.04.08,15.82Z"/>
      <path class="cls-9" d="M167.26,182.8c10.13-.88,2.99,17.64-6.65,14.81-2.29-.67-7.89-7.19-7.2-9.96.91-3.63,10.65-4.57,13.85-4.85Z"/>
      <path class="cls-9" d="M244.04,189.91c-1.55-1.59-3.1-9.48-1.07-11.48,1.63-1.61,13.75-2.66,15.09-.89,4.51,5.96-8.09,18.47-14.02,12.36Z"/>
      <path class="cls-9" d="M202.01,141.31c10.96-3.35,15.31,8.45,6.86,12.31-8.65,3.95-14.95-9.84-6.86-12.31Z"/>
      <path class="cls-9" d="M193.62,123.65c1.21.98,3.39,16.61-4.35,13.09-.52-2.71-.61-17.1,4.35-13.09Z"/>
      <path class="cls-2" d="M221.45,122.57c3.94-.8,4.59,14.86-1.1,13.07-2.68-.85-2.67-11.61,1.1-13.07Z"/>
      <path class="cls-2" d="M154.36,166.18c.6.43,3.02,13.22.45,13.12-7.59-.29-4.31-15.89-.45-13.12Z"/>
      <path class="cls-2" d="M176.02,166.34c1.46.86,3.02,12.48-2.55,10.73-2.72-.86-1.39-8.47-1.64-10.9,1.27.18,3.2-.42,4.2.17Z"/>
      <path class="cls-2" d="M243.76,165.1c.35.35.69,8.19,1.12,9.79-6.18,3.15-6.5-8.8-5.44-9.81.16-.15,4.17-.13,4.32.02Z"/>
      <path class="cls-9" d="M256.89,173.81c-.15-2.46-.99-10.23,3.8-8.72,3.26,1.03,2.52,11.22-3.8,8.72Z"/>
    </g>
    <g>
      <path class="cls-6" d="M158.98,74.85c-1.72,2.03-2.46,14.95-2.44,18.28-9.6-.19-7.65-9.11-18.82-7.37-9.89,1.54-13.61,5.95-26.17,3.84-13.33-2.24-23.45-23.52-22.62-36.24,2.67-40.94,58.07-66.71,92.97-46.08,7.07,4.18,8.86,17.76,8.5,25.4-.55,11.71-7.81,34.7-19.7,39.17-2.62.99-10.69,1.81-11.72,3.01ZM152.17,86.58c1.56-4.2.7-11.97,3.85-15.25,2.5-2.61,10.65-1.95,15.09-4.54,12.28-7.18,19.73-41.74,11.05-53.24-6.57-8.69-31.46-9.95-41.33-8.65-25.28,3.31-56.14,37.08-45.25,63.59.98,2.38,8.84,12.81,10.9,14.18,16.22,10.83,32.48-10.68,45.7,3.9Z"/>
      <path class="cls-3" d="M123.52,50.78c4.75-1.38,16.53,6.69,12.31,11.28-.44.48-10.82,5.99-11.47,6-5.36.07-5.51-15.92-.84-17.27Z"/>
      <path class="cls-3" d="M134.74,28.8c-.3,4.62-2.8,6.93-1.1,11.98-2.34.92-5.6-2.52-7.03-2.15-1.12.29-1.33,2.67-1.91,3-5.71,3.3-3.52-3.13-4.12-5.53-.29-1.18-2.3-1.17-2.74-1.82-2.98-4.4,2.93-3.37,3.66-4.54.96-1.56-1.66-8.59,4.51-4.75,2.2,1.37,2.19,5.74,8.73,3.81Z"/>
      <path class="cls-5" d="M149.99,8.08c-.89,4.93,5.08,4.97,5.46,5.47.85,1.1-1.85,3.09-2.01,4-.23,1.36,3.2,4.36,2,6.88-5.08-3.35-8.8,2.85-11.43,2.18-3.75-.95.95-4.81.43-6.86-.41-1.64-3.63-2.78-3.17-4.57,6.8-1.64,1.96-6.87,8.71-7.11Z"/>
      <path class="cls-3" d="M151.9,39.98c3.83,4.03,1.36,10.95-5.7,10.66-12.8-.52-2.35-19.11,5.7-10.66Z"/>
      <rect class="cls-10" x="165.67" y="26.37" width="4.65" height="11.4" transform="translate(-2.79 22.93) rotate(-7.74)"/>
      <path class="cls-10" d="M115.1,73.49c-2.97,2.94-8.12-8.19-6.53-9.8,3.09-3.12,7.46,8.88,6.53,9.8Z"/>
      <path class="cls-10" d="M110.75,42.97l-1.05,6.04c-4.67,3.4-9.11-8.56,1.05-6.04Z"/>
      <path class="cls-10" d="M170.72,48.42c-3.6.61-6.12-5.57-2.7-6.53,4.34-1.22,4.08,3.81,2.7,6.53Z"/>
      <path class="cls-10" d="M119.46,76.78c2.2,2.21-3.8,7.07-5.44,2.71-1.52-4.05,5.15-3,5.44-2.71Z"/>
    </g>
  </g>
</svg>