<?xml version="1.0" encoding="UTF-8"?>
<svg id="Layer_1" xmlns="http://www.w3.org/2000/svg" version="1.1" viewBox="0 0 941.46 939.34">
  <!-- Generator: Adobe Illustrator 29.3.1, SVG Export Plug-In . SVG Version: 2.1.0 Build 151)  -->
  <defs>
    <style>
      .st0 {
        fill: #af9ac4;
      }

      .st1 {
        fill: #a33634;
      }

      .st2 {
        fill: #b6a0cd;
      }

      .st3 {
        fill: #bfaadb;
      }

      .st4 {
        fill: #66363c;
      }

      .st5 {
        fill: #bda0cc;
      }

      .st6 {
        fill: #391f1f;
      }

      .st7 {
        fill: #bda5d4;
      }

      .st8 {
        fill: #a63e3c;
      }

      .st9 {
        fill: #786091;
      }

      .st10 {
        fill: #412828;
      }

      .st11 {
        fill: #765f91;
      }

      .st12 {
        fill: #a23634;
      }

      .st13 {
        fill: #baa1cd;
      }

      .st14 {
        fill: #b5a0cc;
      }

      .st15 {
        fill: #745c8f;
      }

      .st16 {
        fill: #bda1cd;
      }

      .st17 {
        fill: #b29ac4;
      }

      .st18 {
        fill: #b09ac4;
      }

      .st19 {
        fill: #bea2cf;
      }

      .st20 {
        fill: #3f2626;
      }
    </style>
  </defs>
  <g>
    <path class="st1" d="M756.07,643.64c9.1-13.69,24.14-32.58,34.92-45.25,9.83-11.55,17.38-20.92,34.16-20.15,4.39.2,16.87,5.28,19.74,8.71,12.19,14.6,21.17,43.97,28.41,62.12,13.8,34.59,27.47,69.68,37.07,105.83,9.86,37.16,11.86,75.15,20.67,112.41,1.77,7.48,11.31,32.45,10.36,37.53-.28,1.49-1.59,2.53-1.85,3.64-1.23,5.23.42,8.27-6.06,11.39-8.25,3.97-16.11.9-24.17.81-40.35-.48-81.8,2.83-122.21.09-7.63-.52-17.43-3.86-25.08-3.41-5.37.32-9.63,6.16-14.81,8.16-12.16,4.7-42.71-.35-57.07-.46-12.84-.1-28.03,2.5-40.25,1.19-.74-.08-.57-2.01-1.42-2.22-8.14-2.04-33.74-2.05-43.41-2.18-18.61-.26-43.1,2.4-60.93.94-8.94-.73-19.3-1.99-18.13-12.95,1.85-17.29,22.62-35.27,30.97-51.37,6.82-13.15,11.96-29.55,19.38-42.79,8.35-14.9,22.88-26.42,29.79-41.1,5.82-12.35,7.49-21.96,16.44-33.73,5.47-7.19,30.17-29.8,38.32-31.48,24.27-5,27.31,18.02,35.1,33.11.44.84.32,3.36,2.26,1.55.41-.39,3.11-8.56,4.18-10.56,4.39-8.21,10.89-15.42,14.97-23.2,3.2-6.11,5.13-13.74,8.33-20.03,6.31-12.38,16.04-24.39,23.79-35.65,2.62-3.8,4.25-7.46,6.54-10.91Z"/>
    <g>
      <path class="st1" d="M211.97,592.36c1.51,3.51,2.66,8.04,4.36,12,37.01,86.25,77.51,171.21,117.47,256.11,5.8,12.31,10.17,27.71,17.26,39.46,2.07,3.43,7.42,6.12,5.93,12.07-1.88,7.51-31.57,12.85-38.71,13.08-7.63.24-15.41-1.92-22.7-1.75-23.69.57-48.78,5.84-72.34,7.9-33.38,2.92-69.57,1.03-103.39,1.52-34.68.5-63.57,13.01-98.2,2.22-13.79-4.29-25.04-12.08-20.69-28.46.99-3.75,5.08-6.5,6.29-10.07,8.94-26.57,20.87-52.17,32.3-77.87,11.23-25.25,18.83-50.46,28.78-75.93,10.95-28.02,24.63-56.26,34.36-84.53,7.37-21.42,12.58-43.76,19.85-65.24,4.95-14.63,23.48-69.29,32.71-77.46,1.15-1.02,6.18-4.29,7.39-4.6,21.75-5.52,24.2,25.22,29.2,38.98,5.4,14.87,13.94,28.18,20.15,42.57ZM251.95,737.63c-1.45.5-1.91,1.79-2.38,3.07-2.62,7.19-3.67,16.46-6.9,23.69-.21,3.18,7.15,5.39,9.09,1.41.9-1.85.42-4.48,1.04-6.59,1.18-4.03,5.85-15.15,6.05-18.04.29-4.05-3.67-4.66-6.91-3.55ZM179.4,846.39c.24.38,2.77,1.06,3.51.97,4.39-.54,25.14-22.27,30.1-26.5,1.84-1.57,8.92-3.48,7.2-7.02-1.72-3.54-6.35-4.34-9.28-1.6-9.06,8.68-18.16,17.65-27.85,25.63-1.1.91-3.33.84-3.66,1.2-.4.45-.44,6.64-.02,7.33ZM150.64,861.01c-1.38-1.6-5.26-1.52-7.14-.65-2,.92-.79,2.7-2.01,3.71-2.36,1.97-11.76,7.73-14.69,9.08-3.2,1.47-14.07,3.7-15.18,4.45-2.45,1.67-.74,8.51,3.57,8.05,9.97-1.06,23.14-10.03,31.2-15.83,2.47-1.78,8.82-3.5,4.25-8.81ZM76.49,895.38c3.45-3.45.08-9.74-4.64-9.67-8.36,1.9-19.09,7.39-27.44,7.66-4.77.16-11.51-4.1-12.36.64-1.2,6.69.97,6.61,7.1,7.07,10.79.82,15.01-2.3,24.23-4.09,3.51-.68,10.85.64,13.1-1.61Z"/>
      <path class="st19" d="M179.4,846.39c-.42-.68-.38-6.88.02-7.33.32-.36,2.55-.29,3.66-1.2,9.69-7.98,18.79-16.94,27.85-25.63,2.93-2.74,7.56-1.95,9.28,1.6,1.72,3.55-5.36,5.46-7.2,7.02-4.96,4.23-25.71,25.96-30.1,26.5-.73.09-3.27-.59-3.51-.97Z"/>
      <path class="st16" d="M76.49,895.38c-2.25,2.25-9.59.93-13.1,1.61-9.22,1.79-13.44,4.91-24.23,4.09-6.13-.46-8.29-.38-7.1-7.07.85-4.74,7.59-.49,12.36-.64,8.34-.27,19.07-5.76,27.44-7.66,4.72-.06,8.09,6.23,4.64,9.67Z"/>
      <path class="st16" d="M150.64,861.01c4.57,5.31-1.77,7.03-4.25,8.81-8.06,5.8-21.23,14.78-31.2,15.83-4.31.46-6.02-6.38-3.57-8.05,1.1-.75,11.98-2.98,15.18-4.45,2.93-1.35,12.33-7.11,14.69-9.08,1.22-1.01.01-2.79,2.01-3.71,1.88-.87,5.76-.95,7.14.65Z"/>
      <path class="st5" d="M251.95,737.63c3.24-1.11,7.2-.5,6.91,3.55-.21,2.9-4.87,14.01-6.05,18.04-.62,2.11-.14,4.74-1.04,6.59-1.94,3.98-9.3,1.77-9.09-1.41,3.22-7.23,4.28-16.5,6.9-23.69.47-1.29.93-2.58,2.38-3.07Z"/>
    </g>
  </g>
  <g>
    <path class="st6" d="M422.41,338.18c.5,8.34,5.12,14.16,10.9,19.64-1.89,23.14,16.66,39.45,35.98,21.82,10.57,7.41,27.72,12.8,40.32,15.28l1.12-6.55c-12.69-1.08-24-7.03-34.9-13.09,3.06-3.02,4.46-7.8,7.2-10.8,1.98-2.17,5.55-3.6,7.51-5.58s5.91-9.18,7.86-9.68c4.02-1.03,12.98,7.05,16.81,9.03,6.11,3.16,23.95,9.06,30.15,6.48,5.32-7.84,11.65-14.68,13.34-24.36l24.41,31.76c11.92,20.2,23.03,39.8,35.56,59.88-.33,1.24.83,1.72,1.09,2.18,34.51,60.35,70.62,121.06,106.65,181.84,6.69,11.29,14.94,21.69,21.41,33.14,1,1.78,1.94,3.19,1.7,5.38-7.76,11.26-17.49,23.27-23.79,35.65-3.2,6.29-5.13,13.92-8.33,20.03-4.08,7.79-10.58,14.99-14.97,23.2-1.07,2-3.76,10.17-4.18,10.56-1.94,1.81-1.82-.7-2.26-1.55-7.78-15.09-10.83-38.11-35.1-33.11-8.15,1.68-32.85,24.28-38.32,31.48-8.95,11.77-10.63,21.38-16.44,33.73-6.91,14.69-21.44,26.2-29.79,41.1-7.42,13.25-12.56,29.65-19.38,42.79-8.35,16.11-29.13,34.08-30.97,51.37-15.89.61-31.53,4.68-47.39,5.5-28.72,1.49-57.65-.71-86.2-2.22-11.75-.62-23.68,0-35.43-1.1,1.49-5.95-3.86-8.64-5.93-12.07-7.08-11.75-11.46-27.15-17.26-39.46-39.97-84.9-80.46-169.86-117.47-256.11,4.41-5.05,8.21-11.41,11.79-17.12,40.83-65.17,81.26-130.6,122.33-195.61,9.89,1.68,15.5-2.72,22.81-8.27,17.83-13.54,29.44-34.09,49.16-45.18ZM597.81,425.3c2.96-4.67-7.19-16.06-10.74-18.95-9.32-7.6-32.53-17.99-43.59-10.81.5,7.36,5.33,3.42,9.18,3.69,9.82.69,28.55,8.75,34.98,16.37,2.54,3,4.11,9.95,4.81,10.5,1.09.85,4.98-.18,5.36-.79ZM597.96,508.36c9.99,1.27,14.54-16.83,15.25-24.56.27-2.95.41-20.09-.46-21.32-1.09-1.55-4.23-.97-6.07-1.03.06,12.34,1.74,25.33-4.14,36.78-1.84,3.58-6.04,4.74-4.59,10.14ZM572.5,549.44c1.63-1.7,12.16-13.44,12.37-14.37.52-2.26-5.47-4.2-6.37-3.69-.59.34-6.78,9.18-8.32,10.82-3.09,3.28-7,7.5-10.36,10.36-3.09,2.63-17.24,11.24-18.05,12.52-1.43,2.25.83,5.48,3.11,5.29,4.35-.38,23.67-16.82,27.63-20.92ZM485.49,597.98c-.47-.75-3.31-1.01-4.43-.97-10.07.31-23.8,5.11-34.23,6.16-3.7.9-2.56,4.7-2.62,7.75l39.62-5.64c2.25-.38,2.44-6.05,1.66-7.29ZM386.43,615.28c-.4-.4-9.68-1.09-11.29-.99-4.32.25-12.06,2.77-16.02,4.76-6.04,3.04-17.08,9.22-13.03,16.95,1.92,1.74,22.68-11.5,27.23-12.56,3.61-.83,11.59.4,12.91-3.44.3-.88.4-4.51.19-4.72ZM285.82,651.46c-5.97,1.28-24.63,21.41-23.43,27.5.4,2.02,3.35,4.67,5.79,2.94,2.77-1.96,7.19-10.37,10.28-13.74,2.74-2.99,13.07-10.06,13.7-11.44,1.83-4.03-2.41-6.09-6.33-5.25Z"/>
    <path class="st20" d="M561.98,328.36c12.57,17.08,25.82,32.74,36.72,51.07,17.45,29.35,34.19,60.76,51.96,91,21.88,37.23,45.96,73.46,68.35,110.47,12.55,20.75,22.78,42.98,37.06,62.74-2.29,3.45-3.92,7.11-6.54,10.91.24-2.19-.69-3.61-1.7-5.38-6.47-11.45-14.71-21.85-21.41-33.14-36.03-60.78-72.14-121.5-106.65-181.84,0-.93-.65-1.48-1.09-2.18-12.53-20.08-23.64-39.68-35.56-59.88l-24.41-31.76c.17-.98-.1-2.22,0-3.27s0-2.2,0-3.27v-4.36c1.08-.43,2.08-.99,3.27-1.09Z"/>
    <path class="st10" d="M350.45,391.64c-41.07,65.01-81.5,130.44-122.33,195.61-3.58,5.71-7.38,12.07-11.79,17.12-1.7-3.96-2.85-8.49-4.36-12,1.65-.76,2.38-2.36,3.3-3.79,44.43-69.12,88.43-139.55,131.91-208.94-.32,5.03-.54,8.38,3.27,12Z"/>
    <path class="st0" d="M597.81,425.3c-.39.61-4.27,1.64-5.36.79-.7-.55-2.27-7.49-4.81-10.5-6.43-7.62-25.16-15.68-34.98-16.37-3.85-.27-8.68,3.67-9.18-3.69,11.06-7.18,34.27,3.21,43.59,10.81,3.55,2.89,13.7,14.29,10.74,18.95Z"/>
    <path class="st2" d="M386.43,615.28c.21.21.12,3.84-.19,4.72-1.33,3.84-9.31,2.61-12.91,3.44-4.55,1.05-25.31,14.29-27.23,12.56-4.05-7.73,6.99-13.91,13.03-16.95,3.96-1.99,11.69-4.52,16.02-4.76,1.61-.09,10.88.6,11.29.99Z"/>
    <path class="st18" d="M572.5,549.44c-3.96,4.11-23.27,20.55-27.63,20.92-2.29.2-4.54-3.04-3.11-5.29.81-1.27,14.96-9.88,18.05-12.52,3.36-2.86,7.27-7.08,10.36-10.36,1.54-1.64,7.73-10.48,8.32-10.82.9-.51,6.89,1.43,6.37,3.69-.21.92-10.73,12.67-12.37,14.37Z"/>
    <path class="st14" d="M485.49,597.98c.78,1.24.59,6.91-1.66,7.29l-39.62,5.64c.06-3.05-1.08-6.85,2.62-7.75,10.44-1.05,24.16-5.84,34.23-6.16,1.12-.03,3.96.22,4.43.97Z"/>
    <path class="st14" d="M285.82,651.46c3.92-.84,8.16,1.22,6.33,5.25-.63,1.38-10.95,8.46-13.7,11.44-3.1,3.37-7.51,11.78-10.28,13.74-2.44,1.73-5.39-.92-5.79-2.94-1.19-6.09,17.46-26.21,23.43-27.5Z"/>
    <path class="st17" d="M475.84,375.27c10.89,6.07,22.21,12.01,34.9,13.09l-1.12,6.55c-12.6-2.48-29.75-7.87-40.32-15.28-2.25-1.58-4.44-3.01-4.47-6-.06-7.05,6.99-.6,11.01,1.63Z"/>
    <path class="st0" d="M597.96,508.36c-1.46-5.4,2.75-6.55,4.59-10.14,5.87-11.44,4.2-24.44,4.14-36.78,1.83.06,4.97-.53,6.07,1.03.87,1.23.73,18.37.46,21.32-.71,7.73-5.26,25.83-15.25,24.56Z"/>
    <path class="st10" d="M619.77,434.18c-.26-.46-1.42-.94-1.09-2.18.44.7,1.08,1.25,1.09,2.18Z"/>
    <g>
      <path class="st12" d="M461.66,220.36c-11.89-.4-19.89,22.82-10.24,28.24,11.22,6.31,32.07,0,34.23-14.06,6.12.31,8.88,10.62,10.92,15.26,1.8-.17,1.14-2.7,2.61-4.46,1.29-1.55,2.99-2.28,5.01-2.08,1.47,2.46,2.43,5.14,3.27,6.55-.83,3.88-8.11,2-7.65,4.92.11.73,7.11,12.05,7.67,12.52,3.9,3.27-.22-5.97,2.76-6.47,1.18-.2,4.13,1.64,5.94,1.03,2.9,4.7,6.73,8.93,8.72,14.18.41,1.08,2.28,7.56,2.22,8.14-.45,4.65-6.95,1.81-3.15,8.62s22.86,34.02,28.12,38.41c5.58,4.65,3.81-.5,4.61-1.51.51-.65,1.61-.04,2.01-.2v4.36c-5.09-.88-4.12,2.78,0,3.27-.1,1.06.17,2.29,0,3.27-1.69,9.68-8.02,16.52-13.34,24.36-6.2,2.58-24.04-3.33-30.15-6.48-3.83-1.98-12.79-10.06-16.81-9.03-1.95.5-5.86,7.67-7.86,9.68s-5.53,3.41-7.51,5.58c-2.74,3-4.13,7.78-7.2,10.8-4.02-2.24-11.06-8.68-11.01-1.63.02,2.99,2.22,4.42,4.47,6-19.32,17.63-37.87,1.32-35.98-21.82,3.86,3.66,14.62,13.59,14.15,1.55-.07-1.67-11.5-9.71-14.15-14.64l-2.18-10.91c.05-3.31,2.03-6.18-.04-9.79-8.57-.37-9.1,7.19-8.68,14.15-19.72,11.1-31.33,31.64-49.16,45.18-7.31,5.55-12.92,9.95-22.81,8.27-3.82-3.62-3.59-6.97-3.27-12,1.57-2.51,3.1-6.7,5-9.73,33.3-53.15,68.81-106.06,98.58-160.79l9.82-10.58c.03,6.69,1.02,14.64,1.09,21.82ZM459.49,261.82c-14.08-2.13-28.22,16.1-26.18,29.46,9.28,1.02,6.14-1.5,8.17-6.56,1.89-4.72,5.69-10.08,9.81-13.09s9.68-1.78,8.2-9.8ZM518.36,280.36c.85-5.94-.49-8.19-6.53-8.72-.94.93,4.98,10.51,6.53,8.72Z"/>
      <path class="st8" d="M504.19,243.27c-2.03-.21-3.72.53-5.01,2.08-1.46,1.76-.8,4.29-2.61,4.46-2.03-4.65-4.8-14.96-10.92-15.26.25-1.6.3-5.58,0-7.09-.65-3.36-12.33-9.66-16.36-8.18.25-7.63.96-15.32,1.09-22.91,2.51-.45,3.58.23,5.51,1.57,8.61,5.98,22.38,35.44,28.29,45.34Z"/>
      <path class="st8" d="M561.98,328.36c-1.19.1-2.2.66-3.27,1.09-.4.16-1.5-.45-2.01.2-.8,1.01.97,6.16-4.61,1.51-5.26-4.39-24.28-31.54-28.12-38.41s2.7-3.97,3.15-8.62c.06-.57-1.81-7.06-2.22-8.14,6.38,6.85,10.21,15.62,15.47,23.25,6.81,9.89,14.59,19.57,21.61,29.11Z"/>
      <path class="st8" d="M516.18,261.82c-1.81.61-4.76-1.23-5.94-1.03-2.98.51,1.14,9.74-2.76,6.47-.56-.47-7.56-11.8-7.67-12.52-.46-2.93,6.83-1.05,7.65-4.92,1.89,3.15,6.28,8.03,8.72,12Z"/>
      <path class="st13" d="M422.41,338.18c-.42-6.96.11-14.52,8.68-14.15,2.08,3.61.09,6.48.04,9.79-.04,2.86-.58,6.3.21,9.11.38,1.35,1.85,1.57,1.97,1.8,2.65,4.93,14.08,12.98,14.15,14.64.47,12.03-10.29,2.1-14.15-1.55-5.78-5.47-10.4-11.3-10.9-19.64Z"/>
      <path class="st7" d="M485.65,234.55c-2.16,14.05-23.01,20.37-34.23,14.06-9.65-5.43-1.65-28.64,10.24-28.24.03,3.42-.8,17.89,1.01,19.16,2.05,1.44,6.02.99,6.62-2.25.86-4.68-.17-12.71,0-18,4.04-1.48,15.72,4.82,16.36,8.18.29,1.51.24,5.49,0,7.09Z"/>
      <path class="st16" d="M459.49,261.82c1.48,8.02-4.19,6.87-8.2,9.8s-7.92,8.38-9.81,13.09c-2.03,5.06,1.1,7.58-8.17,6.56-2.05-13.36,12.1-31.59,26.18-29.46Z"/>
      <path class="st8" d="M518.36,280.36c-1.55,1.79-7.47-7.79-6.53-8.72,6.04.53,7.38,2.77,6.53,8.72Z"/>
      <path class="st4" d="M433.31,344.73c-.12-.23-1.58-.45-1.97-1.8-.8-2.81-.25-6.25-.21-9.11l2.18,10.91Z"/>
      <path class="st8" d="M558.71,333.82c0,1.07.11,2.21,0,3.27-4.12-.5-5.09-4.15,0-3.27Z"/>
    </g>
    <g>
      <path class="st9" d="M460.57,198.55c-.12-30.85.37-62.19-.04-93.23-.47-34.58-1.31-68.97-1.09-103.61l7.68-1.71v21.82c14.12-.09,27.76-4.03,41.89-4.16s27.65,2.48,41.52,1.97c34.77-1.28,71.55-1.83,106.83-.29,5.5.24,11.06-.75,17.23.55,11.75,2.49,1.87,9.18-1.35,13.42-6.36,8.36-12.02,18.09-18.59,26.13-1.68,2.06-17.82,17.16-16.33,19.1,1.54.15,3.1.72,4.31,1.69,7.65,6.14,29.11,26.26,36.07,29.38,1.76.79,4.19.28,5.45,1.09.52.34,5.2,10.42,5.21,11.15.06,3.16-3.98,3.65-6.27,4.21-24.04,5.85-48.44-.85-72.57-.39-10.18.19-19.68,2.63-30.58,2.01-29.42-1.68-57.37-3.95-87.23-2.27-7.64.43-15.6,2.84-23.4,2.22,1.07,22.84,1.49,45.81,1.1,68.73-.13,7.59-.84,15.28-1.09,22.91-.17,5.29.86,13.32,0,18-.6,3.25-4.57,3.69-6.62,2.25-1.81-1.27-.98-15.74-1.01-19.16-.07-7.18-1.06-15.13-1.09-21.82ZM665.56,27.28c-7.8-.2-15.67.24-23.48.04-37.73-.96-75.53.26-113.41,0-3.11-.02-5.77-1.15-8.63-1.19-18.32-.23-34.89,1.64-52.91,4.43l2.16,89.43c9.04-.52,18.93-2.89,27.85-3.32,17.55-.84,41.12-.88,58.87,0,9.1.45,19.52,3.03,28.26,3.36,19.37.72,41.39-5.53,61.12-.05l28.88-1.08-44.55-37.82c.94-3.55-.97-7.04,1.65-9.9,10.72-11.37,25.23-25.59,32.95-39.15.88-1.54,1.5-2.92,1.23-4.76Z"/>
      <path class="st3" d="M665.56,27.28c.27,1.84-.35,3.21-1.23,4.76-7.72,13.56-22.23,27.78-32.95,39.15-2.62,2.86-.71,6.35-1.65,9.9l44.55,37.82-28.88,1.08c-19.73-5.48-41.74.78-61.12.05-8.74-.33-19.15-2.91-28.26-3.36-17.75-.87-41.33-.83-58.87,0-8.92.43-18.81,2.8-27.85,3.32l-2.16-89.43c18.01-2.79,34.59-4.67,52.91-4.43,2.85.04,5.51,1.17,8.63,1.19,37.87.26,75.67-.97,113.41,0,7.81.2,15.68-.24,23.48-.04ZM591.13,47.05c-9.81,1.41-4.17,28.05,1.89,28.19,2.17.05,5.01-2.2,5.57-4.29.21-.77-.4-14.1-.61-15.89-.38-3.32-2.96-8.58-6.86-8.01ZM530.1,51.54c-2.12-2.51-8.66-2.1-9.52,2.49-1.13,5.96-1.19,29.46,9.79,23.98,3.96-1.98,2.1-23.68-.27-26.47ZM557.81,90.34c-2-1.17-5.59-11.89-10.04-9.12-7.3,4.55,7.68,23.99,18.55,16.4,3.42-2.39,9.17-12.79,7.12-16.89-.87-1.74-4.81-3.08-5.95-2.12-.79.66-3.21,15.51-9.68,11.73Z"/>
      <path class="st11" d="M557.81,90.34c6.47,3.78,8.89-11.07,9.68-11.73,1.15-.96,5.09.39,5.95,2.12,2.05,4.1-3.7,14.5-7.12,16.89-10.87,7.59-25.84-11.85-18.55-16.4,4.45-2.78,8.03,7.95,10.04,9.12Z"/>
      <path class="st15" d="M530.1,51.54c2.36,2.79,4.23,24.49.27,26.47-10.98,5.48-10.92-18.03-9.79-23.98.87-4.59,7.4-5,9.52-2.49Z"/>
      <path class="st15" d="M591.13,47.05c3.9-.56,6.47,4.7,6.86,8.01.21,1.79.81,15.12.61,15.89-.56,2.09-3.4,4.34-5.57,4.29-6.06-.14-11.7-26.78-1.89-28.19Z"/>
    </g>
  </g>
</svg>