<?xml version="1.0" encoding="UTF-8"?>
<svg id="Layer_1" xmlns="http://www.w3.org/2000/svg" version="1.1" viewBox="0 0 871.33 722.7">
  <!-- Generator: Adobe Illustrator 29.3.1, SVG Export Plug-In . SVG Version: 2.1.0 Build 151)  -->
  <defs>
    <style>
      .st0 {
        fill: #c54143;
      }

      .st1 {
        fill: #765f92;
      }

      .st2 {
        fill: #792e2f;
      }

      .st3 {
        fill: #422121;
      }

      .st4 {
        fill: #715a8d;
      }

      .st5 {
        fill: #442121;
      }

      .st6 {
        fill: #3f2020;
      }

      .st7 {
        fill: #725c8d;
      }

      .st8 {
        fill: #493030;
      }

      .st9 {
        fill: #715b8c;
      }

      .st10 {
        fill: #3e2525;
      }

      .st11 {
        fill: #df9798;
      }

      .st12 {
        fill: #745f8f;
      }

      .st13 {
        fill: #745d90;
      }

      .st14 {
        fill: #725a8d;
      }

      .st15 {
        fill: #472c2c;
      }

      .st16 {
        fill: #c74749;
      }

      .st17 {
        fill: #432525;
      }

      .st18 {
        fill: #725b8e;
      }

      .st19 {
        fill: #442a2a;
      }

      .st20 {
        fill: #bfaada;
      }

      .st21 {
        fill: #432121;
      }
    </style>
  </defs>
  <path class="st16" d="M419.26,95.26l8.33-7.56c1.71-.32,2.76,2.48,4.41,2.98,5.02,1.5,8.23-2.7,7.86,7.19-.13,3.35-1.97,7.22-2.12,10.99-.61,14.97,5.01,28.7-3.43,43.45-9.43,16.47-30.34,16.06-44.42,5.6-10.1-7.5-5.93-12.46-7.93-21.52-1.07-4.84-8.3-9.6-9.32-13.59-3.35-13.12,4.96-18.68,17.19-16.64-.65-10.12,1.17-23.91,11.67-28.13,12.31-4.94,17.66,6.65,17.77,17.22ZM412.45,102.07c-2.47-2.52-6.76-1.31-7.38,2.52-.91,5.66,5.58,18.69,4.36,25.57-4.06.68-3.41-7.91-6.06-8.7-1.38.37-9.19,4.43-9.28,4.95-.48,2.91,4.44,12.05,6.62,14.12,2.55,2.42,5.2,3.32,8.7,6.56,6.98,6.43,6.99-3.96,7.67-4.93.25-.35,6.66,2.65,8.61.98.89-.76,2.52-12.59,2.38-14.73-.05-.75-3.44-7.9-3.79-8.19-2.19-1.84-5.75-.32-7.06-1.11-.97-.59-2.18-14.41-4.77-17.04Z"/>
  <g>
    <path class="st20" d="M95.41,439.98c-24.59-6.27-51.84-20.65-66.96-41.55-14.79-20.44-24.22-46.42-26.67-71.5-4.99-51.09-1.45-104.87,36.36-143.34,27.77-28.25,49.28-42.29,89.58-46.74,51.58-5.69,90.93-3.73,133.71,27.4,19.62,14.28,26.33,21.07,36.64,44.07,14.01,31.27,13.32,48.38,15.43,81.65.75,11.77,3.67,23.68,2.17,35.47-6.28-.53-16.75-3.05-23.13-4.67-7.31-1.85-29.4-11.48-34.66-8.96-2.22,1.07-4.5,7.5-3.1,9.12.18.21,4.31,1.7,5.1,1.96,15.83,5.19,36.1,11.48,52.52,12.37-3.9,15.57-4.11,33.79-12.64,47.9-10.31,17.07-37.18,37.01-55.26,45.14-1.62.73-3.57.15-2.98,2.96-18.66-6.63-47.91-20.08-63.74-31.68-8.22-6.02-23.96-23.42-32.2-25.67-4.79-1.31-10.17,2.1-7.1,7.17.58.95,9.36,6.34,11.46,8.17,22.51,19.69,31.38,27.01,59.22,40.03,3.48,1.63,10.33,3,13.05,5.19,1.92,1.55,1.44,3.5,1.86,5.52-27.63,3.5-53.8,16.78-82.19,14.05-11.66-1.12-24.29-5.54-35.57-8.59-.35-3.62-5.41-30.49-6.62-31.55-1.68-1.46-9.61.82-8.6,4.92,1.67,7.29,3.35,13.67,4.32,21.17ZM258.71,213.9c1.63-1.65,1.77-6.31.79-8.44-2.26-4.93-18.79-16.45-24.19-18.34-3.7-1.3-17.73-3.27-19.86-.13-1.01,1.49,1.74,8.34,3.18,9.25,1.68,1.05,4.55-.72,6.93-.56,7.05.45,17.86,8.31,22.51,13.58,1.14,1.3,1.01,3.52,2.81,4.82,2.01,1.45,6.1,1.57,7.83-.18ZM108.36,189.21c-4-2.59-22.63,6.5-26.56,9.71-7.43,6.07-18.1,23.14-19.96,32.43-1.36,6.75,6.11,7.59,9.63,5.23.89-.6,6.78-16.17,8.87-19.48,3.98-6.3,9.17-11.66,16.19-14.35,2.38-.91,13.34-2.97,14.05-3.95.76-1.06-1.68-9.23-2.21-9.58ZM222.67,216.58c-1.65.49-7.74,7.78-8.17,9.28-1.93,6.72.11,29.45,4.72,35.18,4.22,5.24,12.93,6.43,15.51-.76s2.99-41.01-5.96-43.69c-1.78-.53-4.31-.53-6.09,0ZM110.37,225.3c-3.93.88-5.81,4.16-6.25,7.92-.68,5.81,1.42,26,3.57,31.39,2.86,7.18,15,19.21,20.89,9.46,3.76-6.22.22-8.03-.22-12.7-.6-6.3,1.35-9.39-.78-17.74s-6.3-20.77-17.2-18.33ZM148.01,270.06c-6.09,6.09,5.01,33.1,10.75,38.36s16.04,6.65,23.59,4.18c7.15-2.34,17.62-18.43,17.85-25.88.09-2.82-1.07-5.16-1.18-7.65-.14-2.91.83-12.93-1.03-14.24l-49.97,5.23Z"/>
    <path class="st9" d="M315.67,325.44c13.54,1.15,26.55-3.1,39.27-7.07,2.81-1.99-2.95-15.97-1.11-20.2,1.83.29,10.53-.4,10.91,0,.57.6,1.16,13.96,2.18,16.37,8.47.61,16.02-13.57,24.37-10.77,2.68.9,2.25,7.65,1.25,9.69-1.44,2.93-18.76,13.23-19.04,14.84-.76,4.37,13.6,6.75,10.39,17.98-.69,2.4-5.79,5.98-8.24,4.85-.5-.23-4.74-4.49-4.94-4.98-.63-1.49.83-2.73-.41-4.89-.83-1.44-12.52-11.33-13.78-11.46-3.16-.32-17,4.96-22.88,5.46-6.21.52-14.95.36-21.25.02-16.42-.89-36.69-7.18-52.52-12.37-.79-.26-4.92-1.75-5.1-1.96-1.4-1.62.88-8.06,3.1-9.12,5.26-2.52,27.36,7.11,34.66,8.96,6.38,1.62,16.85,4.14,23.13,4.67Z"/>
    <path class="st14" d="M148.01,270.06l49.97-5.23c1.86,1.3.89,11.32,1.03,14.24.12,2.5,1.27,4.83,1.18,7.65-.23,7.45-10.7,23.54-17.85,25.88-7.55,2.47-17.66,1.25-23.59-4.18s-16.84-32.27-10.75-38.36Z"/>
    <path class="st18" d="M110.37,225.3c10.9-2.45,14.99,9.72,17.2,18.33s.19,11.44.78,17.74c.44,4.67,3.98,6.48.22,12.7-5.89,9.75-18.03-2.28-20.89-9.46-2.14-5.39-4.25-25.58-3.57-31.39.44-3.76,2.33-7.04,6.25-7.92Z"/>
    <path class="st4" d="M222.67,216.58c1.78-.53,4.31-.53,6.09,0,8.95,2.68,8.54,36.48,5.96,43.69s-11.29,6.01-15.51.76c-4.61-5.73-6.65-28.46-4.72-35.18.43-1.49,6.52-8.78,8.17-9.28Z"/>
    <path class="st1" d="M108.36,189.21c.53.34,2.97,8.52,2.21,9.58-.71.98-11.67,3.04-14.05,3.95-7.02,2.69-12.21,8.05-16.19,14.35-2.09,3.32-7.98,18.89-8.87,19.48-3.52,2.36-10.99,1.53-9.63-5.23,1.87-9.28,12.53-26.35,19.96-32.43,3.93-3.21,22.55-12.3,26.56-9.71Z"/>
    <path class="st13" d="M258.71,213.9c-1.74,1.75-5.83,1.63-7.83.18-1.8-1.3-1.67-3.53-2.81-4.82-4.65-5.27-15.46-13.13-22.51-13.58-2.38-.15-5.26,1.62-6.93.56-1.44-.91-4.19-7.76-3.18-9.25,2.13-3.14,16.16-1.17,19.86.13,5.4,1.9,21.93,13.41,24.19,18.34.98,2.14.84,6.8-.79,8.44Z"/>
    <g>
      <path class="st7" d="M241.52,431.26c16.06,5.71,33.43,6.13,50.16,8.73.07-3.86-.24-28.05,1.09-29.46.37-.4,9.08.3,10.91,0v15.82c0,1,1.36,2.86,0,4.9,5.36,1.39,17.73-7.4,21.55-5.16.22.13,3.49,3.52,3.56,3.78,2.24,8.59-13.6,9.89-14.28,13.05-1.25,5.9,11.46,14.08,6.47,23.67-2.07,3.98-5.53,7.08-9.6,4.43-8.75-5.69-.67-6.47-1.29-10.59-.15-.96-5.17-9.12-5.95-9.44-3.3-1.34-2.55,2.42-4.41,3.08-3.73,1.31-8.11-2.37-11.79-3.22-17.7-4.12-36.84-2.97-54.03-10.84,2,11.35.51,22.9,1.09,34.35,1.21,23.64,5.02,47.34,6.52,70.93,2.12,33.5,1.67,66.87,5.47,100.35.26,2.32,1.68,15.19,2.29,15.71.84.71,5.76-.43,7.89.29.63.21,4.91,5.6,4.98,5.99.77,4.16-14.75,5.37-17.33,4.19-3.6-1.65-5.8-9.52-6.44-13.19-3.98-22.69-3-49.74-4.49-72.97-2.4-37.4-6.36-74.93-8.7-112.38-.69-11.02,1.2-22.4-1.1-33.26-.43-2.02.06-3.97-1.86-5.52-2.72-2.2-9.58-3.57-13.05-5.19-27.84-13.01-36.7-20.33-59.22-40.03-2.09-1.83-10.88-7.21-11.46-8.17-3.07-5.07,2.31-8.48,7.1-7.17,8.24,2.25,23.98,19.65,32.2,25.67,15.84,11.6,45.08,25.05,63.74,31.68Z"/>
      <path class="st12" d="M95.41,439.98c-.97-7.51-2.65-13.89-4.32-21.17-1.01-4.1,6.91-6.38,8.6-4.92,1.22,1.06,6.27,27.92,6.62,31.55,3.31,33.91,2.85,73.04,3.32,107.4.61,43.95-1.29,88.01.99,131.87.61,2.61,8.81,1.08,10.95,2.36.55.33,4.42,5.8,4.32,6.43-1,6.22-24.35,3.35-24.8-4.48-3.18-68.55-.07-137.45-2.37-205.99-.45-13.55-1.58-29.62-3.32-43.05Z"/>
    </g>
  </g>
  <path class="st10" d="M436.43,284.79c-4.88,4.71-10.58-1.82-12.29-6.24-2-5.18-1.62-13.13-3-18.81-5.32-21.76-16.09-52.11-17.75-73.88-.16-2.09.53-11.69,1.17-13.13.78-1.75,6.87-5.13,8.8-5.43,1.71-.27,14.16.87,16,1.32,1.09.27,3.88,2.16,4.54,3.09,4.94,6.91-1.42,31.58.58,40.87,1.76,17.14,1.78,34.05,3.41,51.13.49,5.11,3.53,8.46,1.83,15.1-.1.39-3.03,5.75-3.28,5.98Z"/>
  <g>
    <path class="st0" d="M788.89,409.44l-4.41-25.05c-2.99-.08-8.22.38-8.74,3.79-.41,2.71,2.93,18.29,3.33,23.44-11.48,2.37-23.34,4.44-34.69,7.29-18.43,4.63-36.56,12.27-55.81,12.35-1.59-10.58-4.58-21.22-7.13-31.61-.4-1.63,1.18-3.95-.43-4.98-1.96-1.25-6.34-.2-8.8-.51.74,12.48,4.77,24.59,6.55,37.09-21.6.48-42.05,2.62-63.51-1.37-6.63-1.23-20-3.66-22.82-9.98-2.44-5.46-5.25-21-6.26-27.47-.41-2.63.05-5.44-.09-8.09,48.11-16.4,99.78-42.82,132.99-82.4,3.38-4.02,7.3-11.76,10.31-14.78,3.22-3.23,9.74-3.52,8.26-10.25-1.21-5.5-11.66-3.15-14.76-.62-2.44,1.99-8.08,13.55-10.95,17.41-28.89,38.75-83.52,63.79-128.03,78.63l-6.54-69.82c17.55-5.2,40.06-21.28,46.98-38.58-1.24-.92-6.56-4.65-7.62-3.89-.21.15-.62,2.32-1.65,3.25-12.43,11.24-20.71,22.18-37.71,27.22-.25-16.9.31-33.86.04-50.77-.05-2.86-1.15-5.52-1.19-8.63-.52-38.99,3.53-85.58.1-123.37-.87-9.51-6.73-19.4-6.67-30.5.02-3.28,1.74-6.1,1.88-8.88.47-9.48-6.21-18.38,3.07-27.71,22.71-22.81,92.02-18.4,123.14-24.08,5.15-.94,8.94-3.46,14.3-4.23,34.06-4.9,66.65-.46,100.66-10.56,9.26-2.75,24.17-2.79,32.19,3.08,5.54,4.06,10.76,14.36,11.6,21.13,3.2,26.06,10.84,41.82,9.88,69.85-1.52,43.97-2.72,86.79-1.12,130.85,1.63,45.05,8.16,96.75,5.45,140.74-.5,8.07-1.2,18.95-6.53,25.11-3.65,4.22-13.67,9-19.21,9.15-17.3.5-32.72,1.38-49.94,5.66-2.13.53-3.96,1.68-6.11,2.07ZM752.57,117.42c-1.19-1.07-7.38-3.8-9.23-4.4-13.08-4.26-33.11-8.29-46.56-5.73-6.49,1.23-1.24,10.27.1,10.75,4.4,1.55,11.92-1.23,17.01-.71,4.66.48,22.37,4.5,26.56,6.21s6.09,7.7,12.19,4.74c4.1-1.98,2.8-8.28-.07-10.86ZM586.08,135.62c-.23.63-1.16.93-1.17,2.64-.05,6.82,2.12,4.27,5.53,3.91.11-.01.76.95,1.46.82,3.65-.67,3.92-3.89,6.12-5.77,5.76-4.93,17.56-11.23,24.85-13.32,6.76-1.94,14.45.9,14.39-10.02-8.96-4.63-17.24-.53-25.75,3.01-7.56,3.15-22.59,10.98-25.43,18.74ZM709.01,137.97c-12.23,2.26-15.86,53.39,7.35,48.9,10.8-2.09,10.15-23.93,9.18-32.04-.9-7.51-7.89-18.45-16.52-16.86ZM644.91,192.3c.8-.78,1.34-19.73,1.13-22.3-.42-5.02-3.5-24-8.39-25.43-5.36-1.56-12.1-1.02-14.56,4.62-4.58,10.51-4.76,29.26,1.31,39.18,5.61,9.16,8.95,7.96,17.1,4.27,1.01-.46,3.14-.08,3.41-.35ZM694.85,205.71c-3.02-2.98-4.73-.16-5.64.37-.85.49-2.17.43-2.47.72-1.43,1.36-4.08,9.39-7.55,12.7-12.34,11.77-19.75-2.84-29.26-1.04-.37.07-2.72,6.63-2.67,7,1.17,7.69,24.27,9.45,30.44,7.82,5.33-1.4,20.03-16.44,19.4-21.58-.05-.43-2.02-5.77-2.25-6Z"/>
    <g>
      <path class="st8" d="M779.08,411.62c-.4-5.14-3.75-20.73-3.33-23.44.52-3.42,5.75-3.87,8.74-3.79l4.41,25.05c6.45,87.74,6.98,175.84,11.95,263.5.47,8.28,2.05,17.89,2.27,26.09.11,4.25,1.14,22.37-3,23.51-3.35.92-19.98-2.29-19.97-7.11,0-5.53,9.05-6.72,13.11-4.91-.03-12.14-1.54-24.38-2.22-36.5-2.27-40.26-3.93-80.77-5.45-121.09-1.78-47.16-2.83-94.28-6.5-141.32Z"/>
      <path class="st15" d="M688.58,431.26c2.98,19.87,4.76,44.7,5.5,64.86,1.06,29.04,2.41,64.1,1.1,92.82-1.28,28.15-4.93,54.05-4.46,82.9.08,5.06,4.26,25.66-2.64,26.76-5.56.89-11.76-1.41-17.35-1.31-.37-1.63-3.99-4.55-4-4.86-.08-7.02,10.94-5.02,15.31-3.74.96-5.35-.96-10.79-1.13-15.77-1.36-40.38,4.76-80.36,4.45-121.18-.3-39.53-1.02-81.26-6.59-120.5-1.77-12.51-5.81-24.61-6.55-37.09,2.46.31,6.83-.75,8.8.51,1.61,1.03.03,3.35.43,4.98,2.55,10.39,5.55,21.03,7.13,31.61Z"/>
    </g>
    <path class="st17" d="M583.9,372.35c44.52-14.85,99.14-39.88,128.03-78.63,2.87-3.86,8.51-15.41,10.95-17.41,3.1-2.53,13.56-4.88,14.76.62,1.48,6.73-5.04,7.02-8.26,10.25-3.01,3.02-6.94,10.76-10.31,14.78-33.21,39.58-84.89,65.99-132.99,82.4-3.92,1.34-28.26,6.69-29.25,7.84l-7.25,20.55c-1.57,2.12-7.71.69-10.39,1.07-2.34-4.43,3.75-14.36,3.15-16.7-.91-3.55-9.22-3.21-7.5-12.17.96-5,6.95-4.12,8.21-5.99,2.31-3.4-2.81-13.55,5.44-15.28,10.19-2.15,9.74,9.11,9.24,16.33,1.81,1.77,22.6-6.45,26.17-7.64Z"/>
    <path class="st19" d="M577.36,290.53c17-5.04,25.28-15.98,37.71-27.22,1.02-.93,1.43-3.1,1.65-3.25,1.06-.76,6.38,2.97,7.62,3.89-6.92,17.3-29.43,33.38-46.98,38.58-9.25,2.74-25.61,5.01-35.59,6.39-9.46,1.31-19.08,1.25-28.52,2.56-.63,1.82-2.44,3.53-2.98,5.19-.83,2.55-4.54,16.39-4.65,18.34-.17,2.91,1.96,4.05,1.55,6.83-1.3,8.7-13.79,8.98-14.6.25-.34-3.66,5.14-16.39,4.11-17.74-10.31,9-26.53.09-14.22-11.51,2.48-2.34,13.62-7.6,14.06-8.3,2.5-4.01-4.14-20.62,5.34-22.55,7.57-1.54,7.88,3.11,7.99,9.09.07,3.77-2.68,8.73,1.58,9.27,9.34-1,18.89-1.07,28.2-2.33,11.21-1.52,27.04-4.32,37.76-7.5Z"/>
    <path class="st6" d="M644.91,192.3c-.27.27-2.4-.11-3.41.35-8.14,3.69-11.49,4.89-17.1-4.27-6.07-9.92-5.89-28.67-1.31-39.18,2.45-5.63,9.2-6.17,14.56-4.62,4.89,1.42,7.97,20.41,8.39,25.43.21,2.57-.33,21.52-1.13,22.3Z"/>
    <path class="st6" d="M709.01,137.97c8.63-1.6,15.62,9.35,16.52,16.86.97,8.11,1.63,29.95-9.18,32.04-23.2,4.49-19.58-46.63-7.35-48.9Z"/>
    <path class="st5" d="M752.57,117.42c2.87,2.58,4.17,8.88.07,10.86-6.1,2.95-7.89-2.98-12.19-4.74s-21.9-5.73-26.56-6.21c-5.09-.52-12.6,2.26-17.01.71-1.34-.47-6.6-9.51-.1-10.75,13.45-2.56,33.48,1.47,46.56,5.73,1.85.6,8.05,3.34,9.23,4.4Z"/>
    <path class="st3" d="M694.85,205.71c.23.22,2.2,5.57,2.25,6,.63,5.13-14.07,20.18-19.4,21.58-6.18,1.62-29.27-.14-30.44-7.82-.06-.37,2.3-6.94,2.67-7,9.51-1.8,16.92,12.81,29.26,1.04,3.47-3.31,6.12-11.34,7.55-12.7.3-.28,1.61-.22,2.47-.72.91-.53,2.62-3.35,5.64-.37Z"/>
    <path class="st21" d="M586.08,135.62c2.85-7.76,17.88-15.59,25.43-18.74,8.51-3.55,16.79-7.64,25.75-3.01.06,10.91-7.63,8.08-14.39,10.02-7.29,2.09-19.09,8.39-24.85,13.32-2.2,1.88-2.48,5.1-6.12,5.77-.71.13-1.35-.83-1.46-.82l-4.36-6.55Z"/>
    <path class="st2" d="M590.44,142.17c-3.42.36-5.58,2.92-5.53-3.91.01-1.71.94-2.01,1.17-2.64l4.36,6.55Z"/>
  </g>
  <path class="st11" d="M412.45,102.07c2.59,2.63,3.8,16.45,4.77,17.04,1.31.79,4.87-.73,7.06,1.11.35.29,3.73,7.43,3.79,8.19.14,2.14-1.49,13.97-2.38,14.73-1.95,1.67-8.36-1.34-8.61-.98-.68.97-.69,11.36-7.67,4.93-3.51-3.23-6.15-4.14-8.7-6.56-2.18-2.07-7.1-11.21-6.62-14.12.09-.52,7.89-4.59,9.28-4.95,2.65.79,2,9.38,6.06,8.7,1.21-6.88-5.28-19.91-4.36-25.57.62-3.83,4.91-5.04,7.38-2.52ZM410.52,133.43c.78-1.53-.69-2.91-1.07-2.17-.78,1.53.69,2.91,1.07,2.17Z"/>
  <path class="st16" d="M410.52,133.43c-.38.74-1.85-.64-1.07-2.17.38-.74,1.85.64,1.07,2.17Z"/>
</svg>