<?xml version="1.0" encoding="UTF-8"?>
<svg id="Layer_1" xmlns="http://www.w3.org/2000/svg" version="1.1" viewBox="0 0 835.55 853.15">
  <!-- Generator: Adobe Illustrator 29.3.1, SVG Export Plug-In . SVG Version: 2.1.0 Build 151)  -->
  <defs>
    <style>
      .st0 {
        fill: #6e4e4e;
      }

      .st1 {
        fill: #b8aec6;
      }

      .st2 {
        fill: #3f2323;
      }

      .st3 {
        fill: #f6f4f8;
      }

      .st4 {
        fill: #beb4cb;
      }

      .st5 {
        fill: #6e578a;
      }

      .st6 {
        fill: #412828;
      }

      .st7 {
        fill: #b68181;
      }

      .st8 {
        fill: #c54042;
      }

      .st9 {
        fill: #ceb4b5;
      }

      .st10 {
        fill: #4e2e30;
      }

      .st11 {
        fill: #8c7ba2;
      }

      .st12 {
        fill: #442424;
      }

      .st13 {
        fill: #6e5585;
      }

      .st14 {
        fill: #4a2424;
      }

      .st15 {
        fill: #6e578b;
      }

      .st16 {
        fill: #bfaada;
      }

      .st17 {
        fill: #6f588b;
      }
    </style>
  </defs>
  <g>
    <path class="st8" d="M503.85,26.05c3.29,1.36,6.45,3.01,9.81,4.36,3.71,1.49,7.63,1.96,10.9,3.27,72.84,29.15,145.63,58.9,218.89,87,3.7,1.42,21.2,6.38,21.82,8.59.14.5.38,8.59.35,9.7-1.17,43.53-1.46,87.25-1.23,130.95.89,167.83,2.68,335.98,2.23,503.96l-1.24,4.75-302.26,28.54c-1.13-.31-.55-1.6-.72-2.21-3.19-11.92-2.01-50.97-2.23-65.96-.48-32.91.45-65.88.04-98.77,4,1.03,15.4,3.48,18.96,3.24,15.02-1.04,34.37-23.61,41.91-35.61,1.55-2.46,5.33-12.07,6.72-12.91,1.95-1.18,6.27-.27,9.03-.79,11.92-2.24,10.07-13.32,9.52-22.65l-9.81-1.1c1.1-2.38,5.26-16.48,4.36-17.44-.14-.15-2.79-.11-4.04-.84-2.12-1.24-4.34-4.55-6.29-4.6-5.63-.15-6.46,7.51-8.86,10.98-4.73.79-14.25-12.8-21.64-1.11-3.77,5.96,1.93,12.4,5.89,16.89,1.74,1.98,5.01,2.08,5.53,5.46.4,2.62-.97,4.55-1.03,6.61-.21,7.78,1.37,5.29-3.34,13-9.17,15.01-20.35,29.11-39.72,25.51-3.61-.67-5.29-2.57-7.19-3.17-.24-9.26.31-18.6.04-27.86-.87-30.67-.88-61.35-1.14-92.14-1.16-139.98-2.4-280.02-3.27-420-.1-16.22,1.77-34.94-2.18-50.18-1.43-5.51-3.62-13.35-3.39-19.11.15-3.66,2.04-4.91,3.39-8.16,11.28-1.35,19.86,8.59,28.71,13.28,6.09,3.22,14.81,5.8,21.45,8.54ZM696.61,419.09c-9.66,1.22-18.2,7.53-19.42,17.66-1.15,9.6-.83,18.88,5.03,26.66,10.71,14.21,33.69,14.26,42.49-2.03,7.48-13.86,4.21-30.38-8.96-39.15-6.15-4.09-11.96-4.06-19.14-3.15Z"/>
    <path class="st6" d="M453.7,4.23c.19-.46-.22-1.49,0-2.16,4.96,1.14,7.5-2.66,12.25-2,3.43.48,9.53,3.76,13.68,4.94,105.66,29.82,212.08,57.06,317.77,86.8,4.57,1.29,34.23,9.03,35.23,10.57.29.45,2.8,9.4,2.82,10.36.49,28.24-.95,57.74-1.16,86.26-1.1,143.39-1.66,287.4-2.28,430.81-.3,69.66.73,139.47-.42,209.03-1.55,2.22-12.62.48-15.89,1.03l2.04-727.5-293.17-79.78c-2.73-2.82-6.99-2.39-9.81-3.27-3.31-1.04-6.88-3.52-10.9-3.27-6.64-2.74-15.36-5.32-21.45-8.54-8.85-4.68-17.43-14.63-28.71-13.28Z"/>
    <path class="st14" d="M459.15,501.69h-4.36c-.07-4.71.05-9.47,0-14.18,2.38-122.85-3.68-245.91-1.09-368.73.21-9.93.96-20.71,1.07-31.11.02-1.85-.7-4.85,1.11-5.98.87,139.98,2.11,280.02,3.27,420Z"/>
    <path class="st12" d="M460.24,640.23c.41,32.9-.53,65.87-.04,98.77.22,14.98-.96,54.04,2.23,65.96h-6.55s-1.08-165.82-1.08-165.82c.98.34,3.7.64,5.45,1.09Z"/>
    <path class="st0" d="M455.88,81.69c-1.81,1.13-1.09,4.14-1.11,5.98-.11,10.4-.86,21.18-1.07,31.11V31.51c3.95,15.24,2.08,33.96,2.18,50.18Z"/>
    <path class="st9" d="M524.57,32.6v1.09c-3.27-1.31-7.2-1.78-10.9-3.27l1.09-1.09c2.82.88,7.08.45,9.81,3.27Z"/>
    <path class="st2" d="M696.61,419.09c7.18-.91,12.99-.95,19.14,3.15,13.17,8.77,16.44,25.28,8.96,39.15-8.79,16.29-31.78,16.24-42.49,2.03-5.86-7.78-6.18-17.06-5.03-26.66,1.22-10.13,9.76-16.44,19.42-17.66Z"/>
    <path class="st10" d="M459.15,501.69c.26,30.79.26,61.47,1.14,92.14.26,9.27-.29,18.6-.04,27.86-2.71-.85-3.29-1.26-5.45-2.18.25-22.52-.33-45.12,0-67.64.09-5.86,2.24-13.44,2.28-19.1.06-10.03-2.12-21.18-2.28-31.09h4.36Z"/>
    <path class="st7" d="M514.76,29.32l-1.09,1.09c-3.37-1.35-6.53-3-9.81-4.36,4.03-.25,7.59,2.24,10.9,3.27Z"/>
  </g>
  <g>
    <path class="st16" d="M45.89,635.87c-2.3-.77-1.99-3.46-3.24-4.95-1.16-1.39-3.12-1.42-4.16-3.47-1.81-3.57-2.57-12.28-4.07-16.65-15.49-44.89-19.83-76.35-8.72-123.31,2.82-11.94,6.16-24.22,11.01-35.89,2.19-5.26,4.33-10.73,6.53-16.37,9.37-23.96,35.97-60.96,55.1-77.96,2.1-1.87,5.68-5.93,6.05-6.21,1.25-.95,4.67-.98,6.29-2.18,1.8-1.34,1.49-3.49,2.87-4.76,1.22-1.12,25.9-14.37,28.97-15.74,13.62-6.07,30.97-9.69,43.78-15.03,1.6-.67,1.54-2.92,3.13-3.45,28.55-9.6,63.52-4.54,92.79-2.63,19.56,1.28,33.07,2.67,51.55,9.49,23.65,8.74,51,30.36,65.84,50.85,2.21,3.06,9.71,18.8,10.66,19.37,1,.6,3.14-.29,3.96.35.67.52,4.37,12.59,6.74,15.63,4.23,5.43,6.61,6.12,10.27,13.72,2.93,6.08,2.69,4.52,5.47,8.71.74,1.11,8.23,22.57,8.82,25,1.56,6.41,2.67,14,3.73,20.27.81,4.8.35,9.27,1.91,14.5.82,2.75.21,2.71,3.6,2.36.05,4.71-.07,9.47,0,14.18.15,9.9,2.33,21.06,2.28,31.09-.03,5.66-2.19,13.23-2.28,19.1l-3.22,12.7c.99,16.45-6.79,33-6.59,49.49-2.06-.09-3.03-1.46-4.38-2.69-8.92-8.14-16.4-16.18-22.35-26.74-3.14-5.58-11.92-27.84-15.03-30.23-1.35-1.04-6.63-2.69-8.45-2.08-3.9,3.74-7.22,6.76-4.6,12.43.76,1.64,2.74,1.94,3.5,3.32,4.8,8.75,7.65,20.9,12.35,29.9,5.3,10.15,23.67,27.48,33.52,33.56-3.53-.74-1.59,2.48-2.73,4.33-.71,1.16-2.88,1.51-3.86,2.72-1.61,1.98-2.67,6.58-4.7,9.52-6.32,9.16-19.12,18.6-23.26,27.97-3.35,7.58-1.36,2.96-5.53,7.01-1.44,1.4-4.59,9.01-5.99,10.36-1.11,1.07-5.13,1.62-7.32,3.05-3.77,2.45-12.63,13.3-16.4,15.18-2.08,1.04-4.42.21-6.53,1.14-3.57,1.58-5.33,6.54-6.56,7.59-1.3,1.1-4.24.91-5.49,2.19-1.44,1.48-.58,4.14-2.14,5.5-1.18,1.03-9.14,4.66-11.95,6.59-4.32,2.98-11.03,8.94-16.07,11.16-1.9.84-5.71.83-7.97,2.43,1.31-18.84,3.84-41.93,2.16-60.53-.39-4.35-2.55-12.06-7.1-13.64-2.26-.78-1.81,2.87-3.79,3.88-2.51,1.27-5.73-2.67-6.54,2.1-.54,3.18-.95,10.52-1.13,14.14-1,20.06-.07,40.72-1.05,60.59-1.12-2.16-3.62-.7-5.21-.31-4.36,1.05-6.42,1.75-11.12,1.99-1.67.08-3.83-2.28-3.3,1.6-.71-.07-1.47.08-2.18,0-.1-.01.09-.95-1.63-1.08-2.81-.22-6.32-.46-8.18,2.17-.72.03-1.45,0-2.18,0,.71-4.1-2.76-1.38-5.45-1.09-.66.07-1.52.07-2.18,0,.26-2.32.14-2.44-2.18-2.18-.17-.15-2.46.01-3.27,0-1.43-.02-3.62-.51-4.36,1.09-.69-.09-1.47,0-2.18,0,.67-3.24-2.79-3.42-2.18,0-4.03-.06-11.58,1.84-14.5,1.92-3.07.08-7.02-3.09-10.3-3.84-6.14-1.39-14.2-1.38-20.19-2.71-10.82-2.4-21.74-12-33.52-12.83,2.1-14.97,4.36-30.25,4.45-45.35.01-2.04-2.24-1.41-2.33-2.24-.39-3.37,2.96-8.64-1.17-13.36-4.87-.33-8.69,3.33-14.04,2.03-1.39,1.35,1.24,21.8,1.17,25.65-.11,6.54-2.52,15.53-3.35,22.35-3.23-2.38-7.12-3.71-10.47-5.83-2.16-1.37-.35-1.51-4.8-2.89-.33-.1-.76.1-1.09,0,.51-2.92-.69-2.23-3.27-2.18-.78-.46-2.92-2.18-3.27-2.18l-2.18-1.09c-.29-.3-3.96-2.14-4.36-2.18l-2.18-1.09c-1.21-2.22-9.63-5.56-12.52-7.65-15.52-11.19-29.24-29.07-39.45-44.53l-5.82-5.64c3.36-11.48,6.76-22.59,11.8-33.46,8.27-17.82,26.63-41.23,29.4-60.08,1.15-7.82-2.27-4.66-6.66-5.75-.88-.22-.7-2.11-1.43-2.21-1.13-.16-6.81,1.3-7.5,2.21-.85,1.13-3.65,12.46-5.05,15.68-10.44,24.08-22.71,39.98-31.47,66.16ZM301.32,470.34c-6.37,5.98-.23,34.69,2.97,42.83,6,15.26,21.37,18.41,20.8,1.06-.25-7.47-6.65-34.79-10.52-40.8-2.73-4.25-9.37-6.73-13.25-3.09ZM183.61,485.64c-.43.54-3.62,12.2-3.68,13.33-.26,5.41,3.37,19.81,4.99,25.63,1.51,5.43,4.11,17.01,10.05,18.33,9.88,2.19,10.57-8.29,10.15-15.64-.35-6.04-6.75-37.98-9.82-41.44s-8.94-3.68-11.7-.2ZM303.2,535.53c-3.37.93-6.88-3.23-9.78-1.72-.95.49-8.68,14.81-11.45,18.07-3.79,4.46-11.82,12.09-17.76,12.87-8.7,1.14-18.57-3.73-23.62-10.77-1.87-2.61-3.98-9.98-6.82-10.71-2.66-.68-9.1,4.38-8.88,6.75.48,5.35,9.38,15.61,13.86,18.89,16.69,12.24,33.14,10.28,47.59-3.95,3.63-3.57,20.84-25.38,16.86-29.44Z"/>
    <path class="st5" d="M45.89,635.87c8.76-26.17,21.02-42.07,31.47-66.16,1.39-3.22,4.2-14.55,5.05-15.68.69-.91,6.37-2.37,7.5-2.21.73.1.56,1.99,1.43,2.21,4.38,1.09,7.8-2.07,6.66,5.75-2.77,18.85-21.13,42.26-29.4,60.08-5.04,10.87-8.44,21.98-11.8,33.46-8.19,27.99-11.9,55.98-17.3,84.6.23,6.56,11.95,8.08,14.61,14.72,1.44,3.6-3.02,5.89-4.19,7.86-.62,1.04-.45,3.62-.86,3.98-1.46,1.28-7.93-.63-9.7-2.07.07,5.41.54,10.82-2.36,15.65-4.24,7.08-4.76,2.36-8.29.99-4.3-1.67-7.92.28-7.95-6.31-.01-2.8,1.4-5.33,1.13-8.15-.87-.93-12.53,7.95-17.95,2.14-.28-.3-3.85-6.71-3.9-7.11-.85-6.04,10.45-12.96,15.03-15.5,2.38-1.32,6.75-.99,7.71-4.28,4.6-35.63,11.73-69.97,23.11-103.97Z"/>
    <path class="st13" d="M460.24,621.69c1.9.6,3.58,2.5,7.19,3.17,19.38,3.59,30.56-10.51,39.72-25.51,4.71-7.71,3.13-5.22,3.34-13,.05-2.06,1.43-3.99,1.03-6.61-.52-3.38-3.79-3.49-5.53-5.46-3.96-4.49-9.66-10.93-5.89-16.89,7.39-11.69,16.9,1.91,21.64,1.11,2.4-3.47,3.23-11.13,8.86-10.98,1.95.05,4.17,3.36,6.29,4.6,1.25.73,3.9.69,4.04.84.9.96-3.27,15.06-4.36,17.44l9.81,1.1c.55,9.33,2.4,20.41-9.52,22.65-2.75.52-7.08-.39-9.03.79-1.39.84-5.17,10.45-6.72,12.91-7.54,12.01-26.9,34.57-41.91,35.61-3.56.25-14.95-2.21-18.96-3.24-1.75-.45-4.47-.76-5.45-1.09-1.88-.64-13.57-6.59-15.27-7.64-9.85-6.07-28.22-23.4-33.52-33.56-4.7-9-7.54-21.15-12.35-29.9-.76-1.38-2.74-1.67-3.5-3.32-2.62-5.67.7-8.69,4.6-12.43,1.82-.6,7.1,1.05,8.45,2.08,3.11,2.39,11.89,24.65,15.03,30.23,5.95,10.56,13.43,18.6,22.35,26.74,1.35,1.23,2.32,2.6,4.38,2.69.06,4.77,7.6,4.51,9.81,5.45s2.75,1.33,5.45,2.18Z"/>
    <path class="st4" d="M295.59,754.78c-.02.36.02.73,0,1.09-5.25-.48-9.73,2.9-14.87,3.16-1.88.09-3.26-.83-4.76-.97-.53-3.87,1.63-1.51,3.3-1.6,4.7-.24,6.76-.94,11.12-1.99,1.59-.38,4.09-1.85,5.21.31Z"/>
    <path class="st4" d="M273.78,758.05c-2.83,2.28-7.39,1-9.81,1.09,1.86-2.63,5.37-2.38,8.18-2.17,1.72.13,1.53,1.07,1.63,1.08Z"/>
    <path class="st1" d="M130.94,719.87c4.45,1.39,2.64,1.53,4.8,2.89,3.35,2.12,7.24,3.46,10.47,5.83-.02.13.19.71,0,2.18-3.67-2.97-8.29-5.22-12.39-7.84-1.38-.88-3.5-.35-2.87-3.07Z"/>
    <path class="st4" d="M256.34,758.05c2.69-.29,6.16-3.01,5.45,1.09-3.07.04-6.19,2.84-5.45-1.09Z"/>
    <path class="st4" d="M248.7,755.87c.53,4.53-2.78,1.29-4.36,1.09.74-1.6,2.93-1.11,4.36-1.09Z"/>
    <path class="st1" d="M126.58,717.69c2.58-.05,3.78-.73,3.27,2.18-2.88-.89-2.39-1.66-3.27-2.18Z"/>
    <g>
      <path class="st17" d="M146.21,728.6c.82-6.82,3.24-15.81,3.35-22.35.06-3.85-2.56-24.31-1.17-25.65,5.35,1.3,9.17-2.36,14.04-2.03,4.13,4.72.79,9.99,1.17,13.36.09.82,2.34.19,2.33,2.24-.1,15.1-2.35,30.38-4.45,45.35-2.71,19.28-4.4,37.91-6.55,57.27-1.4,12.61-3.98,25.06-5.45,37.65,4.42.14,9.83-.9,13.56,2.25,4.91,4.14.85,5.59.71,8.05-.09,1.56,1.4,3.55,1.08,5.32-.92,5.18-17.9,1.96-21.34,1.84-1.78-.07-6.02,1.9-7,1-.64-.58-1.1-6.81-6.47-6.6,5.07-38.4,11.32-76.95,16.2-115.49.19-1.47-.02-2.05,0-2.18Z"/>
      <g>
        <path class="st5" d="M313.04,748.23c-1.16,16.69-3.33,32.24-5.34,48.66-1.47,12-.53,24.82-4.47,36.43-.07.2-1.69.2-1.08,2.18,2.73-.54,8.52,1.77,7.63-2.18.72-.07,1.46.05,2.18,0,.75,1.99,4.54.46,5.34,1.27.38.38-.24,2.31.32,2.88.62.64,2.89-.31,3.14.81.36,1.6-.12,7.22-1.07,8.52s-4.92.41-4.46,3.97c-2.67.52-5.96.79-8.72,1.09-1.88-2.08-5.28-1.83-4.36,1.09-2.38.17-6.5.33-8.72,0,.51-2.92-.69-2.23-3.27-2.18-.09-.31.06-.72,0-1.09-.51-2.9,1.56-5.13-2.72-4.35l-.55,1.08c-.12-.14-1.75.56-2.54-1.3-.85-2-.91-4.67-.75-6.85,1.15-15.73,7.33-33.52,9.7-49.26,1.67-11.09,1.72-22.04,2.31-33.14.02-.36-.02-.73,0-1.09.97-19.88.05-40.53,1.05-60.59.18-3.62.6-10.96,1.13-14.14.81-4.77,4.03-.83,6.54-2.1,1.98-1.01,1.53-4.66,3.79-3.88,4.55,1.58,6.7,9.29,7.1,13.64,1.68,18.6-.85,41.68-2.16,60.53Z"/>
        <path class="st11" d="M311.95,833.32c.71-.05,2.03-1.35,4.83-1.15,1.07.07,7.99,1.94,8.23,2.29.56.81-.86,2.95-.79,3.99.19,2.58,3.39,3.93,1.36,7.97-1.95,3.89-7.28,3.75-10.37,4.35-.46-3.56,3.5-2.65,4.46-3.97s1.42-6.93,1.07-8.52c-.25-1.12-2.51-.17-3.14-.81-.56-.58.06-2.5-.32-2.88-.81-.8-4.59.72-5.34-1.27Z"/>
        <path class="st11" d="M309.77,833.32c.89,3.95-4.9,1.63-7.63,2.18-.61-1.98,1.02-1.97,1.08-2.18,2.16-.14,4.39.2,6.54,0Z"/>
        <path class="st11" d="M286.87,846.41l.55-1.08c4.28-.78,2.21,1.45,2.72,4.35-2.91.8-2.28-2.11-3.27-3.27Z"/>
        <path class="st11" d="M306.49,851.87c-.75.08-2.11.93-4.36,1.09-.91-2.92,2.48-3.18,4.36-1.09Z"/>
        <path class="st11" d="M290.14,850.78c2.58-.05,3.78-.73,3.27,2.18-1.7-.25-2.71-.32-3.27-2.18Z"/>
      </g>
    </g>
    <path class="st1" d="M123.31,715.51c-.06,0,.19.95-.56,1.08-2.81.5-1.17-1.7-1.62-2.17l2.18,1.09Z"/>
    <path class="st4" d="M239.98,756.96c-.6-3.42,2.85-3.24,2.18,0-.73,0-1.45.01-2.18,0Z"/>
    <path class="st4" d="M251.98,755.87c2.32-.26,2.44-.14,2.18,2.18-4.03-.4-1.47-1.55-2.18-2.18Z"/>
    <path class="st1" d="M116.77,712.23c-.12-.01-1.53,1.77-2.17,1.1-.27-.28.23-1.75,0-2.19l2.18,1.09Z"/>
    <path class="st17" d="M303.2,535.53c3.98,4.06-13.23,25.87-16.86,29.44-14.45,14.23-30.89,16.18-47.59,3.95-4.48-3.28-13.38-13.54-13.86-18.89-.21-2.38,6.22-7.43,8.88-6.75,2.85.73,4.95,8.09,6.82,10.71,5.05,7.04,14.92,11.91,23.62,10.77,5.93-.78,13.97-8.41,17.76-12.87,2.77-3.26,10.5-17.58,11.45-18.07,2.89-1.51,6.41,2.65,9.78,1.72Z"/>
    <path class="st5" d="M301.32,470.34c3.88-3.64,10.52-1.16,13.25,3.09,3.86,6,10.27,33.33,10.52,40.8.58,17.35-14.8,14.2-20.8-1.06-3.2-8.14-9.34-36.85-2.97-42.83Z"/>
    <path class="st15" d="M183.61,485.64c2.76-3.48,8.72-3.16,11.7.2s9.47,35.4,9.82,41.44c.42,7.35-.27,17.83-10.15,15.64-5.95-1.32-8.54-12.89-10.05-18.33-1.62-5.82-5.25-20.22-4.99-25.63.05-1.13,3.25-12.79,3.68-13.33Z"/>
  </g>
  <path class="st3" d="M454.79,619.51c-2.22-.94-9.76-.68-9.81-5.45-.2-16.48,7.59-33.04,6.59-49.49l3.22-12.7c-.33,22.52.25,45.12,0,67.64Z"/>
</svg>