<?xml version="1.0" encoding="UTF-8"?>
<svg id="Layer_1" data-name="Layer 1" xmlns="http://www.w3.org/2000/svg" viewBox="0 0 310.91 257.68">
  <defs>
    <style>
      .cls-1 {
        fill: #553a3a;
      }

      .cls-2 {
        fill: #653e3f;
      }

      .cls-3 {
        fill: #7d6798;
      }

      .cls-4 {
        fill: #766192;
      }

      .cls-5 {
        fill: #613b3c;
      }

      .cls-6 {
        fill: #ccbce3;
      }

      .cls-7 {
        fill: #c54244;
      }

      .cls-8 {
        fill: #4f2425;
      }
    </style>
  </defs>
  <g>
    <path class="cls-7" d="M170.91,83.73c5.85-1.31,10.87.82,16.08.91,34.41.54,72.66-2.73,106.96-.08,7.6.59,12.39,2.15,15.24,9.84,3.99,10.8-.2,37.08-.6,49.57-.91,28.23-.54,55.88.03,84.01.34,16.92,3.19,27.35-16.85,28.92-28.07,2.21-57.32-.83-85.05-2.24-14.97-.76-43.08,5.05-46.33-16.95-5.52-37.36-5.31-76.76-3.3-114.37.61-11.47-1.6-36.15,13.82-39.61ZM194.75,112.99c-7.87,1.71,8.22,9.72,9.71,10.88,2.58,2.01,6.86,5.85,9.29,8.16,2.08,1.98,8.3,13.42,11.52,7.08.8-1.58.26-1.6-.54-2.76-2.89-4.19-25.75-24.27-29.98-23.36ZM254.97,141.04c.53-.29,5.79-7.26,7.85-9.04,2.83-2.44,15.65-11.17,16.21-13.25.39-1.46-.27-3.39-1.49-3.63-1.98-.39-23.91,18.23-25.66,21.21-2.3,3.93-.91,6.91,3.09,4.72ZM265.16,166.21c8.17,4.91,5.56-17.15,2.88-21.94-3.38-6.02-7.24-.58-7.45,4.12-.1,2.37,3.25,17.03,4.57,17.82ZM206.32,144.78c-5.03,2.83-.94,25.68,4.58,24.79,4.15-.67,2.92-11.26,2.56-14.35-.44-3.7-1.79-13.45-7.14-10.44ZM222.58,201.16c1,1.18,28.44,2.9,30.83,2.12,5.96-1.95-1.12-25.63-14.6-23.4-8.99,1.49-17.21,12.15-16.24,21.29Z"/>
    <path class="cls-8" d="M222.58,201.16c-.97-9.13,7.24-19.8,16.24-21.29,13.47-2.23,20.56,21.46,14.6,23.4-2.4.78-29.83-.94-30.83-2.12Z"/>
    <path class="cls-8" d="M194.75,112.99c4.22-.92,27.09,19.17,29.98,23.36.8,1.16,1.34,1.18.54,2.76-3.22,6.34-9.44-5.1-11.52-7.08-2.43-2.31-6.71-6.15-9.29-8.16-1.49-1.16-17.58-9.17-9.71-10.88Z"/>
    <path class="cls-8" d="M206.32,144.78c5.35-3.01,6.7,6.74,7.14,10.44.37,3.09,1.59,13.68-2.56,14.35-5.52.89-9.61-21.96-4.58-24.79Z"/>
    <path class="cls-8" d="M265.16,166.21c-1.31-.79-4.67-15.44-4.57-17.82.2-4.69,4.07-10.14,7.45-4.12,2.68,4.79,5.29,26.85-2.88,21.94Z"/>
    <path class="cls-8" d="M254.97,141.04c-4,2.19-5.4-.78-3.09-4.72,1.75-2.98,23.68-21.6,25.66-21.21,1.23.24,1.88,2.18,1.49,3.63-.55,2.09-13.37,10.81-16.21,13.25-2.05,1.77-7.32,8.75-7.85,9.04Z"/>
  </g>
  <g>
    <g>
      <path class="cls-6" d="M52.07,142.64c24.39-3.46,47.23,7.54,57.95,29.86,11.66,24.27,7.8,48.73-13.52,65.8-28.98,23.2-79.36,18.81-92.67-19.61-9.19-26.53-2.26-57.88,25.37-69.48,5.26-2.21,17.38-5.79,22.87-6.57ZM95.63,170.89c-1.38.13-4.58,2.37-7,2.85-1.89.37-7.94,1.22-9.59,1.17-3.35-.1-9.02-4.98-10.32.71,3.9,6.36,24.23,3.97,28.36.03,2.05-1.95,1.08-5-1.45-4.76ZM18.55,171.82c-.89,10.55,27.3,8.93,27.3,2.74,0-5.27-7.93.31-11.59.42-3.09.09-14.76-4.06-15.71-3.16ZM76.25,204.42c2.29-1.54,2.15-20.57-5.34-18.43-2.37,3.9-2.12,23.45,5.34,18.43ZM19.21,187.17c-2.83.93-3.69,19.16,3.13,17.34,2.78-.74,4.56-19.87-3.13-17.34ZM58.83,210.05c-1.32-1.9-16.26.75-18.82,2.3-3.13,1.9-2.69,6.82,1.07,5.45,3.14-1.14,6.16-3.18,9.8-3.41,2.88-.18,6.75,2.54,7.89-.75.27-.78.42-3.08.06-3.59Z"/>
      <path class="cls-4" d="M95.63,170.89c2.54-.24,3.5,2.81,1.45,4.76-4.13,3.94-24.47,6.33-28.36-.03,1.3-5.69,6.96-.8,10.32-.71,1.65.05,7.71-.8,9.59-1.17,2.42-.48,5.62-2.72,7-2.85Z"/>
      <path class="cls-3" d="M18.55,171.82c.94-.9,12.61,3.25,15.71,3.16,3.66-.11,11.59-5.69,11.59-.42,0,6.19-28.19,7.81-27.3-2.74Z"/>
      <path class="cls-4" d="M76.25,204.42c-7.46,5.02-7.71-14.53-5.34-18.43,7.49-2.14,7.63,16.89,5.34,18.43Z"/>
      <path class="cls-4" d="M19.21,187.17c7.68-2.53,5.91,16.6,3.13,17.34-6.81,1.82-5.96-16.41-3.13-17.34Z"/>
      <path class="cls-4" d="M58.83,210.05c.36.52.21,2.82-.06,3.59-1.14,3.28-5.01.57-7.89.75-3.64.23-6.66,2.27-9.8,3.41-3.75,1.36-4.19-3.56-1.07-5.45,2.55-1.55,17.5-4.2,18.82-2.3Z"/>
    </g>
    <g>
      <path class="cls-1" d="M113.16,98.51c-5.13,5.41-13.76-11.4-17.73-11.38-.96,0-13.39,7.56-17.12,8.69-13.95,4.22-23.89.57-31.59-11.59C23.07,46.87,49.99,10.21,89.38,2.22c15.77-3.2,29.49-4.38,42.5,6.69,11.65,9.91,9.21,38.19-.45,49.53-3.01,3.53-18.41,14.52-18.92,15.97-1.98,5.76,3.81,20.76.64,24.1ZM106.99,70.51c.14-.16,2.47-.31,3.69-1.17,5.63-4,19.19-15.05,21.53-21.04,3.42-8.8,4.17-27.64-2.91-34.64-15.32-15.13-49-6.85-65.31,3.5-21.27,13.49-28.26,50.71-9.48,69.09,14.46,14.16,28.8,1.03,43.05-6.1.92,2.08,9.9,12.31,11.51,10.96-.39-2.57-2.78-19.84-2.08-20.61Z"/>
      <path class="cls-1" d="M97.07,33.34l.02,5.46c2.46-1.5,3.68-2.21,6.53-1.08l-3.27,6.52c4.66-1.59,5.9,6.75,1.83,6.39-1.41-.12-5.72-3.45-6.18-3.11-1.04,1.49-.85,7.34-1.12,7.62-.81.83-7.52.67-5.44-3.26-3.29-.09-5.64,4.47-6.58-.56-.83-4.42,4.02-2.26,5.49-5.97-10.73-1.08-4.73-7.78,3.27-4.38-.3-4.97-.69-8.51,5.45-7.63Z"/>
      <path class="cls-1" d="M73.09,52.97c3.17-4.04,10.74-5.09,7.07,1.08-.8,1.34-4.07,1.45-3.82,3.81.04.96,5.61.22,4.36,4.36-1.01,3.37-6.58-.15-7.59.57-1.87,1.33,1.6,8.95-6.58,6.53v-5.46s-4.35,1.08-4.35,1.08c-.7-1.57,1.48-6.02,1.09-6.52-.72-.94-6.24.43-4.38-5.46,2.17-1.25,8.42,1.42,8.72,1.09.19-.21.2-3.47,1-4.74,2.24-3.54,5.5-.47,4.47,3.64Z"/>
      <path class="cls-2" d="M109.08,31.16c-.31-.23-2.15-5.04-3.48-6.9-1.42-1.99-7.7-6.98-4.16-9.45,2.48-1.73,10.94,9.45,11.55,11.99s-2.65,5.3-3.91,4.36Z"/>
      <path class="cls-5" d="M118.72,34.59c2.1,1.27.63,9.45-4.21,6.97-4.2-2.16-.98-10.12,4.21-6.97Z"/>
    </g>
  </g>
</svg>