<?xml version="1.0" encoding="UTF-8"?>
<svg id="Layer_1" xmlns="http://www.w3.org/2000/svg" version="1.1" viewBox="0 0 2460 1105">
  <!-- Generator: Adobe Illustrator 29.3.1, SVG Export Plug-In . SVG Version: 2.1.0 Build 151)  -->
  <defs>
    <style>
      .st0 {
        fill: #bea9d9;
      }

      .st1 {
        fill: #6d568a;
      }

      .st2 {
        fill: #391f1f;
      }

      .st3 {
        fill: #c23f41;
      }

      .st4 {
        fill: #695286;
      }

      .st5 {
        fill: #c44042;
      }
    </style>
  </defs>
  <path class="st5" d="M485.6,601.4c-4.9-8.3-7.9-22.7-12.1-32.4s-10.1-18.6-14.4-27.6-9-17.8-9.9-22.1.9-11.1,6.5-12.1,6.9.7,7.8,1.8-.2,3,.3,4.5c5.9,16.5,15.9,31.6,22.8,47.3s4.8,14.5,7.8,21.2,8.2,10.7,7.3,17.2-3.4,3.5-7.2,3.8c-6.2.5-4.2,6.5-9-1.6Z"/>
  <path class="st5" d="M2058.3,480.7c.9.6,2.6.5,3.2,1.3.2,10.6,0,21.8-.5,32.6-.2,4.5-2,10.8-2.1,15.1s2.2.9,2.2,2.9-2,12.2-2.2,12.9c-.7,2.3-13.1,2.2-15.2,1.5s-1.8-4.4-1.7-6.4c.4-8.4,3.6-19,4-28s-1.5-29.4,1.3-31.3,2,0,2.5-.4-.3-2.6.8-2.9c5.5-1.2,5.3.9,7.8,2.7Z"/>
  <path class="st5" d="M629.3,399.3c-3.8,4.7,3.2,9.2-7.7,7.6s-7.3-2.8-11.4-3.6c-9.5-2-32.6-3.3-39.7-6.3s-2.2-2.3-3.6-3.5-2.9-.1-3-1.1c-.3-2.5,1.9-9,4.3-10.2s5.4-.4,7.2-.2c13.9,1.1,32.9,8,46.2,7.9s3.3-1.7,3.9-1.7c1,0,6,6.2,6.3,7.5.7,3-1.7,2.5-2.5,3.6Z"/>
  <path class="st5" d="M1927.2,332.8c.7,1,3.7.5,3.9,1.8s-2.3,8.1-4.1,8.9c-8.9,1.7-18.1,1.8-26.8,4.2s-15.5,6.6-17,5.2-4-9.2-6.9-10.3c-.2-4.4,17.1-8.8,20.9-9.9s26.1-6.2,28.9-4.2.5,3.4,1.1,4.4Z"/>
  <path class="st5" d="M392.3,492.7c.7.7,3.3.3,3.5,1.7l-6.8,39.5c-3.9-.3-15.1.9-14.9-4.3s4.6-32.7,6.2-37,8.1-5.2,10.9-3.2.6,2.6,1.2,3.3Z"/>
  <g>
    <path class="st5" d="M792.2,584.5"/>
    <path class="st5" d="M838.7,609.8c22.8,13.9,46.4,26.5,69.3,40.2,2.5,3.4-1.6,16.5-2,21.5-8.3,94.9,37.1,202.2,121.3,250.7s101.3,53.3,159.1,55.9c24.6,1.1,50.2,0,74.1-3,8.9-1.1,26.8-1.9,33.6-4.5s3.9-1.2,6.3-1.6c3.4-.7,7.1-4.9,10.4-6s5.8,1,11.9-.7c11-3,26.1-9,37.1-11.5s23.2-8.8,34.7-15.6,15.9-7.6,24.3-18.2c1.5-1.9,3.7-3.7,5.1-5.4s6.1-5.5,7.2-7.2,1.7-2.4,2.7-3.9c1.8-2.6,11-9.9,12.7-12.9s3-3.3,4.3-5.1c3.2-4.4,11.9-10.6,15.7-14.8,5.4-6,9.9-13.2,15.4-19.1s2.9-6,4.8-8.9,4-2.4,4.6-4.6c1.3-4.5,9-13.1,11-18.1,3.5-8.5,7.5-15.3,10.8-23.2,5.3-12.8,7.9-27.1,9.8-40.2,3-21.8,4.9-39.1,6.1-60.9.3-6.5-1.9-15.8-2-21.5s2.5-3.3,2-5.6c-1.3-6.7-1.1-16.4-2-23.5,1.9.2,3.4-.6,5-1.5,22-10.9,41.3-24.6,62.3-36.7,18-10.4,45.1-20.4,58.6-34.3s38.9-17.7,49.4-22.6,26.6-16.7,39.7-23.3,11-3.6,16.8-7.2,13.2-10.8,19.7-15.3c28.6-19.5,56-34.6,83.2-56.8,13.6-11.1,28.1-20.8,42.2-31.8s16.2-11.3,24.9-21.1,7.9-14.9,16.5-12,16,22.1,18.9,26.6c12.1,18.6,20.5,28.2,34,45s9.3,12.8,9.5,13.6c.6,2.4.9,4.1.9,5.9s-.9,3.3-.9,3.9c0,1.1-13.1,15-14.9,16.9-13,12.9-27.3,23.6-40.8,37.2-43.2,43.1-86.3,86.6-129.4,129.1s-28.7,29-43.6,42.9c-17.1,15.9-36.2,27-47.9,47s-32.9,27.2-41.6,34.5c-47.6,40.1-91.1,85.8-133.8,131.3,1.3,5.4-2.8,3.8-4.5,5.9s.4,1.7,0,2.5c-4.7,8.1-12.6,12.3-17.2,20.3,1.1.9,23.1,3.3,27.1,4.5s9.6,3.4,11.7,4.3,7.5,4.9,7.8,5.2c1.1,1.2.9,3,1.6,4.2s1.7.8,1.9,1.5c1.7,7.3-1.2,20.7-7,25.8s-27,10.6-36.6,12.4c-108,19.5-208.7,9.9-316.8,7.1-17.1-.5-34-1.4-51-2-30.5-1-62.3,3.7-93.1,3.1-18.5-.4-37.4-3.1-56-4-38.7-1.9-77.5-.3-116-2-15.7-.7-30.3,0-45.2-5.8-11.7-4.6-28.1-17.4-29.3-30.8-1.7-19.1,20.7-19.8,34-24.4,1-1.3-17.3-23.6-19.5-26-28.1-32.3-56.8-64.1-84.5-96.5-64.9-75.7-128.9-152.2-192-229s-38.7-48.4-61.3-69.2c-4.5-4.1-22.1-16-23.1-20.2s.7-4.4,0-6.3c8.7-11.1,14.5-24.5,23.1-35.7s18.7-19.9,26.4-30.6c12.5-7.4,20.8-1.7,30.7,5.9s11.4,5.9,18.3,10.2c10.5,6.6,18.3,16.6,27.6,24.4,25,21,55.1,34.3,82.4,51.6"/>
    <path class="st5" d="M2122.8,456.2c.2,0,2.9,3.2,3,3.4.5,1.6,0,3.7.7,5.4,3.3,8,7.7,15.8,11,24s11.5,35.9,16.5,43.3,3.8,2.6,5.5,4.8c2.4,3.1,5.6,10.2,5.1,14.1-1.2,8.7-6.9,4.6-7.4,5-1.1.8.6,3.4-4.2,2.5s-5.1-3.4-6.8-6.3c-10.6-18.4-18.1-47.5-27-68-1.8-4.2-10.3-18.6-9.9-21.7s11.9-7.2,13.5-6.4Z"/>
    <g>
      <path class="st0" d="M908.7,649.8c1.5-7.4,3.6-14.5,5.5-21.8,3.8-16.3,5.7-32,12-47.3,5.6-14,11.1-29.1,18.8-41.6,6.4-10,14-19.2,20-29.4,63.6-108.6,183.3-163.3,310.3-130.9,18.6,4.9,36.3,12.4,53.9,20,11.9,5.4,23.9,9.8,35.5,15.5,12.3,6.1,22.8,16,33.2,24.4,15.8,12.8,34.2,25.5,48.1,40.2,12.8,13.6,19.9,31.3,31,46.2,16.6,23.6,31.1,48.4,40.3,76.2,2.6,8.2,5.4,16.5,7.5,24.7,2.4,8.6,3.2,18.2,4.2,27.3,1.2,9.1,2.4,18,2.1,27.2-1,15.5-2.6,31.5-4.1,47-2.6,22.2-5,45-13.3,65.9-3.7,9.6-8.4,18.8-13.4,27.9-4.5,9-9.6,17.8-15.6,25.5-5.9,7.4-12.7,14.9-19.2,22-9.6,10.3-18.2,20.5-28,30.5-8.8,8.5-15.9,18.8-25.8,26.1-6.2,4.7-12.9,8.1-19.6,12-8,4.6-15.8,9.5-24.4,13-11.2,4.7-23.8,6.6-35.5,10.1-5.5,1.7-10.7,3.7-16.2,5.4-17.5,6.9-35.3,8.3-53.9,9.4-32.8,3-66,5.2-98.8.5-52.8-8-101.7-32.2-146.8-60.1-5.4-3.6-10.7-7.4-15.7-11.4-73.1-59.2-108.9-162.5-92-254.2v-.2ZM1321.5,611.1c-27.7,9.4-9.2,55.3,6.1,70.4,6.1,6.4,14.7,13.6,20.2,5.3,4.4-6.9,2.8-16.2,2.8-24.3,0-15.4-3.9-56-25.3-51.7l-3.8.3ZM1102.7,633.4c-9.4.6-13.2,11.7-14.5,19.8-2.7,16.9,2.8,34.2,11.1,49.1,15.1,27.2,32.7,26,31.3-7.7,0-15.6-7.5-61-27.6-61.2h-.2ZM1194.2,731.3c-4.9,7.7,4.9,11,11.1,15.2,7.6,5.3,13.1,7.7,21.8,5.2,9.5-2.4,14.8-7.9,20.2-16.2,3.2-5,11.2-10.8,8.3-16-7-8.8-14.7,9.1-20.2,13.1-1.3,1.1-3.9,8.4-5.3,9.1-5.6,3.1-15.4.4-20.6-3.1-5.8-3.3-9.3-13.8-15.2-7.3h0Z"/>
      <path class="st1" d="M1321.7,604.2c12.2-2.8,18.5,10.9,22.5,20.1,6.2,14.2,8.9,31.8,7.9,47.2-.8,11.9-4.8,25.5-19.7,18.6-18.6-8.5-32.2-59-21.3-75.7,1.4-2.2,8.4-9.7,10.7-10.3Z"/>
      <path class="st1" d="M1102.8,633.2c6.2-.3,12.1,6.4,15,11.4,5.9,10.1,11.5,30.2,12.2,41.8s1.1,25.2-2.6,30.5-11,5.5-15.4,3.5-11.1-11.6-12.5-13.5c-13.4-17.7-15.5-42.1-9-63,1.9-6,5.8-10.4,12.3-10.8Z"/>
      <path class="st1" d="M1190.4,727.8c-1-6.5,9.8-9.6,13.5-2.7.4.7,1.7,5.8,1.7,5.8,0,0,10.1,8,12.4,8.6,9.6,2.5,17.2-5.6,21.9-13.2s.9-4.1,2.6-6.4c5.9-8,14.6-4.1,14.3,5.8s-9.1,16.2-12.2,19.3c-8.3,8.2-18.3,7.3-30.3,9.3-13-.8-22.2-16.8-22.2-16.8l-1.6-9.6Z"/>
    </g>
    <g>
      <path class="st4" d="M1323.4,199.4c-5.8,6.1-15.8,15.1-17.1,23.4-2.9,18.5,6.5,57.3-3.8,71.2s-19.1,11-29.7,6.8-27.6-15-41.1-20.9-13.2-5.8-23.5-3.1c-15.9,4.2-35.6,15.2-51.2,17.8s-29.1-10-27.9-26.9,10.4-47.4,7.2-60.4c-2.7-11.2-28.9-37.5-36.1-49.9s-5.3-23.8,4.9-31.7c9.6-7.5,46.1-9.8,60.1-12.9s10.8-2.8,15.2-7.8c11.1-12.4,24.2-41.4,36.5-50.5s23.7-5.3,31.5,3.6,18.2,36.2,26.4,49.6,7.1,9.4,14.6,12.4c15.5,6,34.9,8.7,50.1,14.9,13.6,5.6,20.1,19.7,13.3,33.3-4,8.1-22.4,23.5-29.5,31Z"/>
      <path class="st5" d="M586,316c-.3.3,2.9,3.6-2.3,6.3s-7.8,2.5-11.6,4.3c-5.8,2.8-19.8,12.4-24.6,12.5s-6.2-.9-6.4-1.2c-.5-.5-.4-13.4.5-14s4.5-.7,6.3-1.5c7.1-3.1,33.5-20.8,39.6-14.4s2.6,5.8,2.4,6.5c-.4,1.8-3.8,1.4-4,1.6Z"/>
      <g>
        <path class="st2" d="M388.7,19.3c1.9,2.2,6.2,7.6,8,10,4.7,6.2,2.1,11.2,1.7,17.3s0,13.6-2.8,21.4c-5.5,15.7-27.1,20.3-42,21-5.2.2-9.5-1.1-14-1.1s-10.4,2.5-15.5,1.1c-.8.8,2.1,19.1,2.1,22.5s-1.1,6.1-1.1,9c0,20,1.9,39.9.2,59.8,8.3,6.7,16.8,13.4,25.5,19.5s21.9,12.8,30.8,20.2,21.2,18.9,32,28,35.9,24.8,41.9,44.1,4.4,22.4.3,35.2c-12.2,37.9-47.1,107.9-94.2,105.8-19.8-.9-25.7-11.5-39.6-22.4-39.4-30.9-79.3-61.2-118.8-92.2s-41.2-34.4-59.1-55.9c-9.9-11.9-12.6-15.1-12.6-31.6,0-37.9,28.3-72.9,59.3-91.8s30-15.4,47.9-9.4c13,11.1,29.2,17.5,44.4,25.2,0-7.8,0-15.7,0-23.5s1-16.8,1.1-25-1.7-11.9-1.5-17.6c-1.5-2.2-31.7-.6-36.9-1.1-17.8-1.7-19.4-7.1-24.3-22.7-4-12.4-7.5-21.6-1.7-34.1s22.5-14.7,35.1-15.9,20.3.1,30.9-.1,18.7-.9,27.9-1c18.9-.1,47.4-2.4,65.1,0s8.6,3.6,10.1,5.4ZM440.3,298.7c-1-.8-1.1-3.5-3.3-5.2-33.7-25.7-59.8,29-73,51s-26,36.3-24,48.9,5.5,11.4,9.4,13.6c14.4,8.2,29.8-.7,41-10.1,19.4-16.2,37.5-42.5,47-66s9.3-22.3,6.4-30.4-2.7-1.2-3.6-1.9Z"/>
        <path class="st3" d="M440.3,298.7c.9.7,3,0,3.6,1.9,2.9,8-3.3,22.7-6.4,30.4-9.5,23.5-27.5,49.8-47,66s-26.6,18.3-41,10.1-8.7-9.3-9.4-13.6c-2-12.6,17.4-37.9,24-48.9,13.2-22,39.2-76.7,73-51,2.2,1.7,2.3,4.4,3.3,5.2Z"/>
      </g>
    </g>
    <g>
      <path class="st5" d="M1951.6,299.4c-9.2-8.4-18.4-21.9-27.1-31.5-6.1-6.8-13.1-12.9-19.4-19.6-3.4-6.3,1.1-5.4,3.9-8.8s.8-3.2,1.1-3.4c.4-.3,6.3,0,6.9.5,1.4,1,3.8,5.6,5.5,7.4,11.2,12.2,25.9,32,37,42,1.1,1,2.4,0,3.4.5,2.1,1,4.7,5.8,5,8.1,1,7.3-2.8,4.5-7,5.9s-2.9,4.9-9.4-1Z"/>
      <g>
        <path class="st2" d="M2233.6,14.4c3.4,2,6.7,5.4,8.4,9,6.2,12.7,2.7,22.1-1.3,34.8s-5.2,16.8-10.6,19.3c-14.8,6.8-34.4,1.4-50.1,3.9l-.8,1.2v65.4c-.1,0,31.6-15.8,31.6-15.8,19.8-18.2,39.5-12.8,60.6,0,37.1,22.5,65.3,62.8,58.1,107.9-17.8,26-40.8,47.9-65.5,67.4-43,33.8-86.5,66.8-129.4,100.6-7.1,5.6-12.1,12.9-21.3,15.7-48.2,14.7-84.6-45.6-99.7-82.7-8.6-21.1-15.2-40.5-4.4-62.4s32.6-33,45.4-43.6c18.9-15.6,36.1-27.8,56.2-41.8,8.8-6.1,17-13.1,25.8-19.2-.4-9.8-.8-19.7-.6-29.5s1.1-4.6,1.1-6.9c.1-18.7-1.7-37,1-55.5-5.1,1.4-10.7-1.1-15.5-1.1s-8.8,1.3-14,1.1c-15.1-.7-36.4-5.2-42-21-2.8-7.8-3.7-18.5-4-26.5-.1-3.9.3-8.9,2.8-12.1s2.5-1.3,3.7-2.8c4-5.4,6.4-11.5,14.5-12.5,17.7-2.3,46.2,0,65.1,0s52.2-1.5,73.7,3.3,8.3,2.4,11.4,4.1ZM2021.7,291.7c-.9.7-3,0-3.6,1.9-2.9,8,3.3,22.7,6.4,30.4,9.5,23.5,27.5,49.8,47,66s26.6,18.3,41,10.1,8.7-9.3,9.4-13.6c2-12.6-17.4-37.9-24-48.9-13.2-22-39.2-76.7-73-51-2.2,1.7-2.3,4.4-3.3,5.2Z"/>
        <path class="st3" d="M2021.7,291.7c1-.8,1.1-3.5,3.3-5.2,33.7-25.7,59.8,29,73,51,6.6,11,26,36.3,24,48.9s-5.5,11.4-9.4,13.6c-14.4,8.2-29.8-.7-41-10.1-19.4-16.2-37.5-42.5-47-66s-9.3-22.3-6.4-30.4c.6-1.8,2.7-1.2,3.6-1.9Z"/>
      </g>
    </g>
  </g>
</svg>