<?xml version="1.0" encoding="UTF-8"?>
<svg xmlns="http://www.w3.org/2000/svg" version="1.1" viewBox="0 0 2460 1105">
  <!-- Generator: Adobe Illustrator 29.3.1, SVG Export Plug-In . SVG Version: 2.1.0 Build 151)  -->
  <defs>
    <style>
      .st0 {
        fill: #ded1e9;
      }

      .st1 {
        fill: #bfb5cb;
      }

      .st2 {
        fill: #f4f3f6;
      }

      .st3 {
        fill: #705b8c;
      }

      .st4 {
        fill: #c64647;
      }

      .st5 {
        fill: #e3a6a6;
      }

      .st6 {
        fill: #c64648;
      }

      .st7 {
        fill: #d7c8e6;
      }

      .st8 {
        fill: #c7494b;
      }

      .st9 {
        fill: #d7c9e6;
      }

      .st10 {
        fill: #715b8c;
      }

      .st11 {
        fill: #705a8b;
      }

      .st12 {
        fill: #d6c8e5;
      }

      .st13 {
        fill: #c84b4d;
      }

      .st14 {
        fill: #c74b4d;
      }

      .st15 {
        fill: #e6afb0;
      }

      .st16 {
        fill: #6d5789;
      }

      .st17 {
        fill: #695286;
      }

      .st18 {
        fill: #beaad9;
      }

      .st19 {
        fill: #fcf6f6;
      }

      .st20 {
        fill: #c74a4b;
      }

      .st21 {
        fill: #705a8c;
      }

      .st22 {
        fill: #6e588a;
      }

      .st23 {
        fill: #e1d6eb;
      }

      .st24 {
        fill: #f9f4f7;
      }

      .st25 {
        fill: #c74a4c;
      }
    </style>
  </defs>
  <g id="Layer_1">
    <path d="M678.8,155.5c1.9,0,1.9-3,0-3s-1.9,3,0,3h0Z"/>
    <g>
      <path class="st24" d="M2460,0v1105H0V0h2460ZM1710,232c-18.3,0-35.6.8-53.4,3.1-32.5,4.1-65.3,5.2-96.7,15.3-23.9,4.5-45.4,12-69.3,16.7-49,9.6-99.8,16.4-148.8,27.2-6.4,1.4-14.3,6.4-20.7,8.3-9.5,2.9-21,3.2-30.3,5.7-8.3,2.2-16.6,5.7-25.8,8.2-44.5,12-104.5,33-150,32.5-1.6,0-5.6-2.9-8,1-4.3.4-8.7,1.4-13,2s-.2-.3-2,0c-5.9.8-5.8,1.5-11,3-1.9-1.6-3.5-1.7-3,1-.6,0-1.4,0-2,0s-1.3-1.7-2-1,.2,1.7,0,2-1.6,0-2,0c-1.2-.2-3.4-3-3,1-.7,0-1.4.1-2,0s-.8-1.4-2-1c-.1.6.2,1.9,0,2-.6.5-13.5.8-16.3,1.2-35.6,5-73.9,14.2-110,21s-71.6,12.1-102.7,12.8c.8-3.2-3.9-3-3,0-2.3,0-4.7,0-7,0s-2.2-1-7,0-3.3.7-5,1c-2-1.4-9-3.9-8,0-11.9,0-32.8,1.5-43.5,0s-5.2-2.6-8.2-2.8-7.4,1.8-10.8,1.9-1.4-1.3-3.4-2.1-2.3-1-5-1c-4.9,0-6.2,1.6-10,2,.7-2.7-1.5-2.2-4-2s-1.3,0-2,0c-.5-1.3-1.9-1-3-1s-2,0-3,0c-.5-1.3-1.9-.9-3-1-27.8-1.6-55-5.2-82.5-9s-7.1-.8-14.1-.9-28.7-8.8-38.7-12.4-5-2-7.2-2.9-5.4.7-7.9,0-4.1-4-6.5-4.6-6.1,0-9.3-.7-4.8-2.7-7.4-3.6c-43.2-15.9-89.3-27.3-131.7-45.3-6.7-2.8-14.4-8.3-20.8-10.2s-8.4-2.5-13.7-5.3c-18.3-9.5-38.1-16.8-57.8-23.3-14.5-4.7-41.8-9.8-57-7.9s-16.7,6.3-18.5,7.5c-5.7,4.3,3.1,13.1,5.2,17.8,3.5,7.9,8.1,12.6,12,21,10.5,23.2,18.9,50.5,28.3,74.7,18.3,47,37.6,94.4,58.7,140.3,6.9,15,16.9,31.9,22.9,47.1s-1.7,7-5.6,10.6c-26.7,24.8-57.8,46.1-86.4,68.6-17.7,13.8-36.9,26.1-54.2,38.8-8.5,6.1-15.6,14.3-24.1,18.9s-10.5,3.7-11.3,4.8.8,4.3.6,6.5-2.5,4-1.9,5.9,4.7,2.5,6.2,3.6,1.8,2.9,3.2,4.1c8.9,7.1,18.4,7.6,28,12.1s12.7,7.7,21.6,11.4c14.3,5.9,28.9,13,42.1,18.9s29.7,12.2,45.1,18.9c6.6,2.8,18.2,10.4,24,12.1s4.5-.5,5.8,0,2.4,3,4.3,3.8c6.7,2.8,13.8,4.6,21,8s18.2,11.1,20.4,11.5,6.2-1.2,10.6.5c5.1,2,6.9,3.4,13.4,5.6,9.4,3.1,24.8,10.1,33,12s6.6-.3,9.7.3,7.3,4.1,10.3,4.7c4.6.9,9.3,0,14.5,1.5s7.1,4.5,9.7,5.3c9.1,2.7,20,3.9,29.4,5.6,31.4,5.4,62.7,12.3,94.1,14.9,64.3,5.2,121,11.4,185.5,6s-.2.9,2.2.8,3.7-.8,4.8-1.8c.7,0,1.3,0,2,0,1.1,0,1.8,0,3,0s3.5.2,5,0c2.1-.3,4.4-.2,6-2,2.7,0,5.3,0,8,0s.5.7,1.3.7c3.2-.1,8.2-.7,10.7-2.7,24-1.4,52.7-8.3,76.8-12.7,28.5-5.2,57.3-11.5,84.8-16.3,1.6-.3,3.8-.2,5.4,0s1.3,1.7,2,1-.2-1.7,0-2c.4-.5,3.8-1.6,4.7-1.8,39.3-7.1,78.7-22.3,116.7-34.3,9.9-3.1,20.6-7.1,30.1-9.9,17.7-5.2,36.1-8.4,53.2-14,25-8.2,53.4-7,78.8-12,11.1-2.2,20.6-3.6,31.6-6.4s15.3-2.4,23-4c22.6-4.6,50.4-13,72.6-15.4,12.7-1.4,34.8-2.4,46.5-5.3,1.4-.3-.3-.8,5-1.4,11.1-1.1,21.7-5,32.6-7.2,76.6-14.9,158.4-14.7,235.4-12.4,40.1,10.1,86.5,11.7,125.9,22.2,4.1,1.1,9.2,4.8,12.5,5.5,14,2.8,27.8,6.2,41.3,10.7,4.3,1.4,12.9,6.5,16.7,7.3s5.3-.3,7.6.4,2.6,3.1,4.4,3.6,4.8-.1,7.4.6,4,3.2,6,4c16.6,6.8,32.8,12.8,49.2,19.8,36,15.3,71,26.4,105,46.8,1.2.7.8,2.5,1.6,3.6,2.3,2.9,7.9,2,11.1,2.9,6.6,1.9,10.9,9.4,19.5,8.6,12.5-1.1,3.5-31.9.4-39.3-.3-.8-1.8-1-2.5-2.6-23.9-55.2-52.7-108.1-72.4-164.6l-44-97c.3-3.4,5.7-5.3,7.6-7.5s1.4-3.4,2.4-4.6c13.6-15.5,27.8-26.7,40.6-43.4,22.6-29.7,74.5-78.6,109.1-91.9,9.2-3.5,10.2.4,14.7-.2s9.4-4.4,9.9-4.9c1.8-2.1,2.2-9.9.7-12.4-12.2-8.2-27.4-14.7-39.4-22.9-3.9-2.7-8.3-9.3-8.9-9.6-1.2-.7-4.2,0-6.6-1s-8-7.1-10.9-9.1c-13.1-9.1-31.2-16-46.1-22.9-12-5.6-29.6-10.9-40.2-16.8-24.4-13.6-42.4-20.9-68.9-30.1-11.6-4-35.4-13.9-46-16-6.1-1.2-13-.6-19.5-2.5-11.2-3.2-14.4-3.9-26.2-5.8-26.6-4.4-49.5-10.6-76.9-12.1s-11.2-3.4-16.2-3.6c-18.7-.7-36.5-3.7-55-6.3-5.1-.7-24.1,1.8-27.6-1s1.7-.8-2-2c-5.3-1.8-13-.9-19-1,0-2.8-10.5-2.4-11-2s0,1.4,0,2Z"/>
      <path class="st9" d="M1721,232c-3.3,0-7.3,0-11,0,0-.6-.2-1.9,0-2,.5-.4,11-.8,11,2Z"/>
      <path class="st7" d="M814,395c-4.3.7-4.4,0-8,0-1-3.9,6-1.4,8,0Z"/>
      <path class="st0" d="M1115,349c-1.9,2.3-6.4.9-8,1,2.4-3.9,6.4-1,8-1Z"/>
      <path class="st7" d="M826,394c-1.3,1.7-5.7,1.7-7,0,4.8-1,4.1,0,7,0Z"/>
      <path class="st12" d="M740,392c-1.7,1.7-6,1.9-5-1,2.7,0,2.7.1,5,1Z"/>
      <path class="st12" d="M721,391c2.5-.2,4.7-.7,4,2-2.4.3-4.7.7-4-2Z"/>
      <path class="st0" d="M1081,355c-.5.2-.8,1-3,1-.5-2.7,1.1-2.6,3-1Z"/>
      <path class="st0" d="M1072,357c-.5,1.2-1.9,1.1-3,1-.4-4,1.8-1.2,3-1Z"/>
      <path class="st12" d="M713,390c-.8,0-3.5,3.1-3-1,1.1,0,2.5-.3,3,1Z"/>
      <path class="st12" d="M719,391c-.9,0-3.5,3.1-3-1,1.1,0,2.5-.3,3,1Z"/>
      <path class="st7" d="M833,394c-.9-3,3.8-3.2,3,0-1,0-2,0-3,0Z"/>
      <path class="st9" d="M1740,233c3.7,1.2,1.3,1.4,2,2-2.1.2-2.2.1-2-2Z"/>
      <path class="st0" d="M1094,352l-1.4,1-.6-1c1.8-.3,1.9,0,2,0Z"/>
      <path class="st0" d="M1076,356l-2,1c.2-.3-.2-1.8,0-2,.7-.7,1.9,1,2,1Z"/>
      <path class="st0" d="M1067,358l-2,1c.2-.1-.1-1.4,0-2,1.1-.4,1.9,1,2,1Z"/>
      <g>
        <path class="st18" d="M1710,232c3.7,0,7.7,0,11,0,6,0,13.7-.8,19,1-.2,2.1-.1,2.2,2,2,3.4,2.7,22.5.2,27.6,1,18.5,2.6,36.2,5.5,55,6.3s11.7,3.3,16.2,3.6c27.3,1.5,50.3,7.7,76.9,12.1,11.8,1.9,14.9,2.6,26.2,5.8s13.4,1.3,19.5,2.5c10.5,2.1,34.4,12,46,16,26.5,9.2,44.4,16.6,68.9,30.1,10.6,5.9,28.2,11.2,40.2,16.8,14.8,6.9,32.9,13.8,46.1,22.9,2.9,2,8.6,8.1,10.9,9.1s5.4.3,6.6,1,5,6.9,8.9,9.6c12,8.2,27.2,14.7,39.4,22.9,1.5,2.5,1.1,10.3-.7,12.4s-9,4.8-9.9,4.9c-4.4.6-5.4-3.3-14.7.2-34.7,13.3-86.5,62.1-109.1,91.9-12.8,16.7-27,28-40.6,43.4-1,1.1-1.2,3.2-2.4,4.6-1.9,2.2-7.3,4.1-7.6,7.5l44,97c19.7,56.5,48.5,109.4,72.4,164.6.7,1.7,2.2,1.9,2.5,2.6,3.1,7.4,12,38.2-.4,39.3-8.6.7-12.9-6.7-19.5-8.6-3.2-.9-8.8,0-11.1-2.9-.8-1-.5-2.9-1.6-3.6-33.9-20.4-69-31.5-105-46.8-16.5-7-32.6-13-49.2-19.8-2-.8-4-3.4-6-4s-5.1,0-7.4-.6-2.6-3.1-4.4-3.6-5.1.2-7.6-.4c-3.8-.8-12.3-5.9-16.7-7.3-13.6-4.5-27.3-7.9-41.3-10.7s-8.4-4.4-12.5-5.5c-39.4-10.5-85.8-12-125.9-22.2-77-2.3-158.8-2.6-235.4,12.4-10.9,2.1-21.5,6.1-32.6,7.2-5.3.5-3.6,1-5,1.4-11.8,2.9-33.9,3.9-46.5,5.3-22.2,2.5-50,10.8-72.6,15.4-7.7,1.6-15.2,2-23,4s-20.6,4.2-31.6,6.4c-25.4,5-53.8,3.9-78.8,12-17.1,5.6-35.5,8.8-53.2,14-9.6,2.8-20.3,6.8-30.1,9.9-38,12-77.4,27.2-116.7,34.3-.9.2-4.3,1.3-4.7,1.8l-2,1c-1.6-.1-3.8-.2-5.4,0-27.5,4.8-56.3,11-84.8,16.3-24.1,4.4-52.8,11.3-76.8,12.7s-.7-.9-1.5-.9c-2.9.1-8.6.7-10.5,2.9-2.7,0-5.3,0-8,0s-6.8-1.6-6,2c-1.5.2-3.4,0-5,0-.1-1.5-2.9-1.5-3,0-.7,0-1.3,0-2,0-2.1-.2-4.2-1.5-7,1-64.5,5.4-121.2-.8-185.5-6-31.4-2.6-62.7-9.5-94.1-14.9-9.5-1.6-20.3-2.9-29.4-5.6-2.6-.8-6-4.2-9.7-5.3s-9.9-.6-14.5-1.5-7.4-4.2-10.3-4.7-6.6.4-9.7-.3c-8.3-1.9-23.6-8.9-33-12-6.5-2.1-8.3-3.5-13.4-5.6-4.4-1.7-8.1,0-10.6-.5s-16.4-9.6-20.4-11.5c-7.2-3.5-14.3-5.3-21-8s-3.1-3.3-4.3-3.8-3.4.6-5.8,0c-5.8-1.7-17.5-9.3-24-12.1-15.5-6.7-30.1-12.2-45.1-18.9s-27.8-13-42.1-18.9c-8.9-3.7-14-7.9-21.6-11.4s-19.1-5-28-12.1-1.9-3.1-3.2-4.1-5.6-1.6-6.2-3.6,1.7-3.9,1.9-5.9-1.6-5-.6-6.5,9.3-3.7,11.3-4.8c8.5-4.5,15.7-12.7,24.1-18.9,17.4-12.6,36.6-24.9,54.2-38.8,28.7-22.4,59.7-43.8,86.4-68.6s8.6-2.9,5.6-10.6c-6-15.1-16.1-32-22.9-47.1-21-46-40.3-93.3-58.7-140.3-9.4-24.2-17.8-51.5-28.3-74.7s-8.4-13.1-12-21-10.9-13.5-5.2-17.8,16.2-7.3,18.5-7.5c15.3-1.9,42.5,3.2,57,7.9,19.7,6.4,39.5,13.8,57.8,23.3,5.3,2.7,9.2,3.9,13.7,5.3,6.4,1.9,14.1,7.4,20.8,10.2,42.4,18,88.5,29.4,131.7,45.3,2.6,1,4.8,3.1,7.4,3.6s6.4,0,9.3.7,4.7,4.1,6.5,4.6c2.5.7,4.8-1.1,7.9,0s4.6,1.9,7.2,2.9c10,3.6,29,12.4,38.7,12.4s7.4,0,14.1.9c27.4,3.8,54.6,7.4,82.5,9-.5,4.1,2.2,1.1,3,1s2,0,3,0c-.5,4.1,2.1,1.1,3,1s1.3,0,2,0c-.7,2.7,1.6,2.3,4,2,3.8-.4,5.1-2,10-2-1,2.9,3.3,2.7,5,1,2,.7,2.4,2.1,3.4,2.1,3.4,0,7-2.2,10.8-1.9s5.4,2.5,8.2,2.8c10.7,1.5,31.7,0,43.5,0s3.7.7,8,0,3.3-.6,5-1c1.3,1.7,5.7,1.7,7,0,2.3,0,4.7,0,7,0s2,0,3,0c31.1-.7,72.4-7,102.7-12.8s74.4-16,110-21c2.8-.4,15.6-.7,16.3-1.2l2-1c.6.1,1.3,0,2,0,1.1,0,2.5.2,3-1,.4,0,1.9,0,2,0l2-1c.6,0,1.4,0,2,0,2.2,0,2.5-.8,3-1,5.2-1.5,5.1-2.2,11-3l.6,1,1.4-1c4.3-.6,8.7-1.6,13-2s6.1,1.3,8-1c45.5.4,105.5-20.5,150-32.5,9.2-2.5,17.5-6,25.8-8.2,9.3-2.5,20.9-2.8,30.3-5.7s14.3-6.9,20.7-8.3c48.9-10.9,99.8-17.7,148.8-27.2,24-4.7,45.4-12.2,69.3-16.7,31.4-10.1,64.2-11.2,96.7-15.3,17.8-2.3,35.1-3,53.4-3.1Z"/>
        <path class="st9" d="M856,881c-2.5,2-7.6,2.5-10.7,2.7s-1.2-.7-1.3-.7c1.9-2.1,7.6-2.7,10.5-2.9s1.3.9,1.5.9Z"/>
        <path class="st9" d="M820,885c-1.1,1-3.4,1.7-4.8,1.8-2.4.1-2.1-.8-2.2-.8,2.8-2.5,4.9-1.2,7-1Z"/>
        <path class="st9" d="M836,883c-1.6,1.8-3.9,1.7-6,2-.8-3.6,4.2-2,6-2Z"/>
        <path class="st9" d="M825,885c-1.2,0-1.9,0-3,0,.1-1.5,2.9-1.5,3,0Z"/>
        <path class="st23" d="M1025,851c-.2.3.3,1.7,0,2-.7.7-1.9-1-2-1l2-1Z"/>
      </g>
    </g>
    <path class="st18" d="M844,1254.8"/>
    <g>
      <path class="st17" d="M703.5,717.5l-7.4,61.2-31-3.7,6.8-56.4c2.1-17.3-4.9-26.2-18.6-27.8-14.9-1.8-26.7,6-29.1,25.7l-6.4,52.8-31-3.7,12.9-106.8,29.6,3.6-1.5,12.5c9.4-8.1,22.6-11.6,37-9.8,25.2,3,42.5,20,38.6,52.6Z"/>
      <path class="st17" d="M843.8,724.1l-81.2,6.1c4,13.1,16,20.5,32.3,19.2,11.4-.9,19.3-4.9,26.1-12.4l17.9,16.7c-9.1,12.1-23.6,19.2-43,20.7-37.1,2.8-63-18.7-65.4-50.6-2.4-32.1,20.4-57.1,53.1-59.6,31.5-2.4,57.4,16.9,60,51.4.2,2.4,0,5.8,0,8.4ZM760.9,712.1l52.8-4c-3.2-13.4-14.1-21.4-28-20.3-14.2,1.1-23.7,10.4-24.8,24.3Z"/>
      <path class="st17" d="M1026.9,631.4l-20.6,112.6-29.6,5-34.9-61.9-13.6,70-29.6,5-56.1-99.7,29-4.9,37.1,67.6,14-76.2,26-4.4,37.3,67.6,13.8-76.1,27.2-4.6Z"/>
      <path class="st17" d="M1038.5,682.5c-6.8-31.7,12.8-59.4,47-66.8,22.1-4.7,41.6,1.1,52.9,16.7l-20.9,17.8c-7.8-8.8-17.2-11.5-26.8-9.4-15.4,3.3-25.3,16.7-21.3,35.1,3.9,18.4,18.4,26.5,33.8,23.2,9.6-2.1,17.1-8.2,20.6-19.5l26.4,7.8c-4,18.5-19.3,32-41.4,36.7-34.2,7.3-63.5-9.9-70.3-41.6Z"/>
      <path class="st17" d="M1152,657.9c-7-31.6,12.4-59.5,45.7-66.9,33.4-7.4,62.6,9.6,69.6,41.2,7,31.6-12.2,59.5-45.5,66.9-33.4,7.4-62.8-9.6-69.8-41.2ZM1236.5,639.1c-4-18.2-18-26.5-33.2-23.1-15.2,3.4-24.5,16.9-20.5,35.1s18.2,26.5,33.4,23.1c15.2-3.4,24.3-16.9,20.3-35Z"/>
      <path class="st17" d="M1464.9,584.2l11.9,60.4-30.6,6-11-55.7c-3.4-17.1-12.6-23.4-24.9-21-13.7,2.7-21.6,13.4-17.9,32.3l10.4,53-30.6,6-11-55.7c-3.4-17.1-12.2-23.5-24.9-21-13.5,2.7-21.4,13.4-17.7,32.2l10.4,53-30.6,6-20.8-105.6,29.2-5.7,2.4,12.2c6.1-10.6,16.9-17.6,30.5-20.3,14.7-2.9,28.4.3,38.1,10.4,6.3-12.5,18.8-21.6,34.7-24.8,25.1-4.9,46,6,52.4,38.2Z"/>
      <path class="st17" d="M1601.5,581.9l-80.6,11.2c4.8,12.9,17.2,19.4,33.5,17.1,11.3-1.6,18.9-6.1,25.3-14l18.9,15.5c-8.3,12.7-22.4,20.7-41.6,23.4-36.8,5.1-64-14.7-68.5-46.4-4.4-31.9,16.7-58.3,49.2-62.8,31.3-4.4,58.4,13.3,63.2,47.5.3,2.4.4,5.8.6,8.4ZM1517.9,575.2l52.5-7.3c-4.1-13.2-15.4-20.5-29.2-18.5-14.1,2-23,11.9-23.3,25.9Z"/>
      <path class="st17" d="M1683.8,509.8l2.7,28.7c-2.6,0-4.6,0-7,.3-17.1,1.6-27.6,12-25.7,32.5l4.7,50.6-31.1,2.9-10-107.1,29.7-2.8,1.3,14.1c6.6-11.1,18.8-17.6,35.4-19.2Z"/>
      <path class="st17" d="M1697.1,610.6l12.6-21.2c8.9,7.1,23,12.8,36.2,14.1,14.3,1.5,20.1-1.8,20.7-7.7,1.8-17.5-64.7-6.2-60.4-49,2.1-20.3,21.8-32.8,53.1-29.6,14.7,1.5,30.7,6.5,40.2,13.5l-12.6,21c-9.9-7-20.3-10.1-30-11.1-13.9-1.4-20.3,2.4-20.9,7.9-1.9,18.3,64.6,7.2,60.3,49.4-2,19.9-22,32.1-54,28.9-18.1-1.8-35.9-8.7-45.2-16.3Z"/>
    </g>
  </g>
  <g id="Layer_2">
    <g>
      <path class="st17" d="M879.1,475.4l-29.5,110.6-29.9,2.6-29.9-64.4-19.1,68.7-29.9,2.6-48-103.8,29.3-2.6,31.6,70.3,20-74.8,26.3-2.3,31.8,70.3,19.8-74.8,27.5-2.4Z"/>
      <path class="st17" d="M1002.5,515.3l-80.2,14c5.3,12.7,17.9,18.8,34.1,16,11.2-2,18.7-6.7,24.8-14.9l19.5,14.9c-7.9,13-21.6,21.4-40.7,24.8-36.6,6.4-64.5-12.5-70-44-5.5-31.7,14.7-58.8,47-64.5,31.1-5.4,58.8,11.2,64.8,45.3.4,2.4.6,5.8.9,8.4ZM918.7,511.4l52.2-9.1c-4.5-13-16.1-19.9-29.9-17.5-14,2.4-22.6,12.7-22.3,26.6Z"/>
      <path class="st17" d="M1002.6,409.3l30.6-6.3,29.9,145.4-30.6,6.3-29.9-145.4Z"/>
      <path class="st17" d="M1071.6,491.7c-7-31.6,12.5-59.5,46.6-67,22.1-4.9,41.6.9,53,16.4l-20.8,17.9c-7.9-8.7-17.3-11.3-26.8-9.2-15.4,3.4-25.2,16.8-21.1,35.2s18.5,26.4,34,23c9.6-2.1,17-8.3,20.4-19.7l26.5,7.7c-3.9,18.5-19.1,32.1-41.2,37-34.2,7.5-63.5-9.5-70.5-41.2Z"/>
      <path class="st17" d="M1185.5,466.3c-6.9-31.6,12.5-59.5,45.9-66.8,33.4-7.3,62.6,9.8,69.5,41.5s-12.3,59.4-45.7,66.8c-33.4,7.3-62.8-9.8-69.7-41.4ZM1270.1,447.7c-4-18.2-17.9-26.6-33.2-23.2-15.2,3.3-24.6,16.9-20.6,35s18.1,26.5,33.3,23.2c15.2-3.3,24.4-16.8,20.4-35Z"/>
      <path class="st17" d="M1499.3,395.3l11.1,60.6-30.7,5.6-10.2-55.9c-3.1-17.1-12.2-23.6-24.6-21.3-13.8,2.5-21.8,13.1-18.3,32l9.7,53.1-30.7,5.6-10.2-55.9c-3.1-17.1-11.9-23.7-24.6-21.3-13.6,2.5-21.6,13.1-18.1,32l9.7,53.1-30.7,5.6-19.4-105.8,29.3-5.4,2.2,12.2c6.2-10.5,17.2-17.4,30.7-19.9,14.8-2.7,28.4.7,38,10.9,6.5-12.4,19.1-21.4,35-24.3,25.2-4.6,45.9,6.6,51.8,38.9Z"/>
      <path class="st17" d="M1636,395.7l-80.8,9.7c4.6,12.9,16.9,19.7,33.1,17.8,11.3-1.4,19.1-5.7,25.6-13.5l18.6,15.9c-8.6,12.5-22.8,20.2-42,22.5-36.9,4.4-63.7-16-67.5-47.7-3.8-32,17.9-57.9,50.4-61.8,31.4-3.7,58.1,14.4,62.2,48.8.3,2.4.3,5.8.4,8.4ZM1552.7,387.4l52.6-6.3c-3.8-13.2-15-20.8-28.9-19.1-14.1,1.7-23.2,11.4-23.8,25.4Z"/>
    </g>
  </g>
  <g id="Layer_3">
    <g>
      <path class="st6" d="M1305.7,876.3c4.6,3.8,10.1,23.5,11.3,24.2,5,3.3,21-7.5,30.6-.6,3.4,2.5,1.4,3.4,1.8,4.8s1.5.2,1.7.9c1.1,5-1.3,13.6-3.8,18s-14.7,18.1-14.9,19.9c-.2,1.4,4.1,14.3,5,16.6,3.2,8.2,10,18.5,12.8,27.2,2.6,7.9-2.4,3.3-3.9,5.7-.6,1,.4,3.5-.6,4.9s-4.6,2.9-4.8,2.8c-5.9-1.4-14.6-10.2-21.2-11.9-3.4-3.6-5.9-9.3-11.5-10-.6,3.9-3.7,7.1-4.8,10.8-.8,2.7-1.7,15.6-2.3,16.2s-4.6-.4-5,0-.3,10.1-1,12c-2.5.7-17.7-1.1-18.1-2.6,1.1-8.2,1.9-16.2,5.1-23.9l-.2-43.8c-3.7-5.6-8.4-10.4-13.9-14.1-1.4-.9-4-1-4.7-1.8-.8-1-.8-4.4-1.3-6s-2.1-.4-2-2.1c1-13.1,16.4-12.1,26.1-15.2,1.9-3,0-5.9.2-8.6.2-2.7,2.9-21.1,3.9-21.6s5.1.2,7.2-.3c3-.7,4.4-4.7,8.4-1.5Z"/>
      <path class="st4" d="M119.6,375.4c8.5,6.4,15.8,14.3,19.4,24.6,5.1-2.8,10.6-5.1,15.7-7.8s1.9-2.6,3-3.2c6.5-3.5,14.7-2.3,18.3,4.5-1.5,5.8-1.1,13.3-2.3,18.8s-8.9,17.7-8.7,21.2,6.9,12,8.4,13.6c2.5,2.4,4.1,1,5.9,5,5.2,11.5-4.6,18.5-15.6,12.9s-1.1-2.3-2.5-2.8-16.7-2.8-17.3-2.2c.3,4.1-2.4,7.7-2.9,11.5-.8,6.1.5,15.8-2.1,21.6s-2.1,1.2-2.8,2.4-1,5.2-1.2,5.3c-.7.6-16.4-2.6-19-3-.5-.7,2.7-14,2.8-16.6.8-11.3-4.7-21.3-7.1-32.1l-26.1-11.4c-5.1-3.9-6.3-9.1-4.4-15.2s15.7-9.3,20.6-10.8c1.8-2.8-2.7-19.7-2.9-24.3s.4-11.1,1.5-12.6,4.1-.6,5.8-1,.8-1.6,1.5-1.9c5.4-2.2,7.7.3,11.8,3.3Z"/>
      <path class="st11" d="M579.9,281.1c-.8-.8-3.2,1.8-2.9-2.5s5-9.4,10.5-9.6,7.3,1.8,11,2.1c20.2,1.5,44.3-30.2,49.5-47.5s0-1.7-1.5-1.5c-2.6.3-4.7,1.7-8,2-28.4,2.5-57.9-27.1-40-55s43.4-10.4,56.9,6,5,9.3,7.1,11.9,1.3,1.3,2.8.9,13.9-14.2,15.6-16.4c10-12.7,19.4-28.3,22.2-44.3,1-.7,15,.6,15.9,1.3s1,2.8,1,4.1c.3,18.6-24.4,51.4-37.5,64.5s-10.9,7.9-12.6,10.4-2.9,15.3-4.5,20.5c-8.5,29-39,62.2-71,63.1-2.3,0-13.8-2-14.4-3.7s.3-5.7-.2-6.3ZM613.3,179.3c-3.4,4.5-2.3,12.4,1.2,16.7,8.7,10.7,23.5,13.4,34.5,4.4-3.1-8.8-8.6-16.6-16.6-21.3-6-3.4-13.9-6.5-19.1.1Z"/>
      <path class="st8" d="M2029.1,956.1c1.4-.9,17.5.6,18.4,1.8s.4,4.6.2,6.3c-1.5,11.2-27.3,35.1-36.8,42.2-14,10.4-32.3,16.9-47.4,4.6s-12.5-30.2-16.2-41.8c-2.9-9-7-17.8-10-27-2.9-9-2.2-18.1-13.7-22.3-18.9-6.8-42.5,6.5-52.4,22.8-4.8,8-2.8,11.8-5.7,19.3s-.2,3.5-.6,3.9-5.5,1.1-6.3,1.1c-3.1-.2-7.5-4.2-11.6-3,1.4-9.7,1.6-17.8,5.8-26.7,10.1-21.5,38.9-38.6,62.7-37.3,18.2,1,32.3,10.6,37.8,28.2,6,19.1,10.7,39.4,17.7,58.3s3.7,14.4,15.3,12.2c9.6-1.8,37.5-25.8,41.2-34.8s.7-7.2,1.7-7.8Z"/>
      <path class="st16" d="M761.5,939.4c6.2,6.1,10.2,13.3,16.1,19.5,2.3-2.2,9.5-5.5,11.1-7.2s.6-2.6,1.5-3.5c4-3.7,15.8-1.9,16.7,3.2s-.4,8.2,0,8.5,3.6-.4,4,0,0,7.5-.5,9c-1.7,6.8-8.8,16.2-10.6,23.5-.2,5.4,12.1,19.1,11,22.8s-5.4,3.4-6.9,5.1-2,5-3.6,5.4c-2.5.7-11.2-5.8-13.4-4.5-4.2,3.2-7.1,26.8-9.6,27.4-.7.2-13.2-1.7-14.7-2.1-5.2-1.5-7.4-9.7-8.5-14.5-2.2-10-2.9-21.9-4.4-32.1-6-1.9-11.5-4.5-17.9-5.1,3.3-3.6-1.1-13.7-.9-14.4,1.2-4.3,14.1-4.2,15-9.1s-2.2-10.7-2.9-15.1-1.7-8.5-1.9-11.1c-.7-7.5,9.3-7.3,14.3-11.3,1.6,0,4.4,3.9,6,5.4Z"/>
      <path class="st11" d="M1584,131c5.7-7.6,9.4-17.6,15.5-25,11.2-13.9,24.3-18.5,42-14.9s14.6,32,17.6,43.9c1.2.9,21.3-16.5,23-18.5s2.4-6.1,5.3-7.8c3.7-2.2,12.6-3.7,15.3.3.9,1.3-.8,3.1-.7,4.4s2,.5,2.1,1.2-.5,7.4-.9,8c-8.5,6.7-16,14.8-24.6,21.4-8.1,6.2-11,10.1-22,9-17.2-1.7-16.6-19.4-18.7-32.3-1.4-9.3-1.1-14.5-13.1-11.4s-14.2,13.2-17.6,18.4c-1.6,2.4-1.9,5.5-3.3,7.7-7.3,11.5-11.4,20.2-27.1,15.4-12.8-3.9-12.1-35.1-13.7-46.3-.2-1.1-.2-3.2-1.5-3.5-2.4-.5-15.5,12.8-17.3,15.7-4.5,7.1.2,9.6-11.6,8.2s-6.2-2.1-9.6-1.9c-.7-.8.9-7.4,1.5-9,3.9-10.4,21.1-27.4,31.8-31.2,31.8-11.3,24.3,29.3,27.7,48.2Z"/>
      <path class="st21" d="M73.4,943.4c-.6.4-.1,2.4-2.7,1.4s-4.7-4.1-5.5-5.6c-7.5-14.2-10.6-35.9-7-51.5s6.5-17.2,15.4-22.6,16.5-5.8,25.7-5,39.2,8.1,42.6,6.4,13.3-36.7,11.1-43.4c3,.1,14.2-5.7,15.9-4.7s2.9,6.9,3,9.1c.6,10.1-8.2,42.6-14.6,50.5s-10.2,7.3-16,8.1c-14.9-1.1-41.8-11-55.5-6.6s-11.2,42.6-2,53.9c-3.3,3.5-6.6,7.3-10.5,10.1Z"/>
      <path class="st25" d="M296,186c3.4-4.3,7.3,1.1,8.7,4.8s3.5,15.7.3,19.8-5.3,4.3-5.7,4.4c-1.9.4-3.4-3.5-5-3.8s-4.1,3.4-5.8.9c-14.8-28.9-28.2-60.3-45.1-87.9-1.9-3.1-5.3-5.7-6.5-8.5-3-6.9,1.6-5.7,5.5-9.7s2.5-4.5,2.8-4.7c1.8-1.1,7.8,1.1,8.7,3.5,14.2,27,29.2,53.7,42.2,81.4Z"/>
      <path class="st20" d="M904.9,979.1c.6.8-.5,3.6.2,4.8s2.9.6,3.9,1.6.8,3.5,1.9,5.1c4.8,6.7,18,16.3,24.6,23.4,8.6,9.3,17.4,24.2,25.9,32.1,2.3,2.2,4.8,2.1,7,5,1.8,2.3,3.5,7.6,3.6,10.5s-1.2,8.7-2.1,9.3c-1.6,1-5.2-1-7.2-.7s-3.7,4.4-7.3,1.9-6.2-11.9-9-16c-10.2-14.8-25.4-31.1-38.4-43.6-8-7.7-27.2-17.8-16-31,2.3-2.8,11-4.8,12.9-2.4Z"/>
      <path class="st3" d="M1640,900c.4.4-.5,3.1.1,3.9s2.7,0,3.4,1.1,0,4.1,1.4,6.6c1.7,3,13.5,12.8,17.5,17.5,5.6,6.7,19.2,30.6,22.9,33.6s3.3.9,4.7,1.8c5.2,3.4,6.7,13.3,6.7,19.1,0,8.6-3,4.2-9.1,5.4s-4.7,4.6-8.1,2-9.8-19.3-12-23c-9.7-16.7-22.9-33.9-37.9-46.1-5.2-4.2-11.8-4.4-11.2-14.4.2-3.6,6.1-9,9.3-9.4s12,1.3,12.4,1.7Z"/>
      <path class="st21" d="M123.3,652.7c1.6.9,5.5,1.1,5.7,1.4.3.3-.8,7.3-1.2,8.3-.7,1.5-3.6,2.7-5.3,5.7-6.7,11.5-17.9,39.4-22.5,52.5-.5,1.5-3.1,8.4-2.9,9,.4,1.7,3.7,1.1,4,2.2,1.5,5.6-5.3,14-10.8,15.2s-11.2-.6-12.3-1.8,1.4-4.6,1-5c-1-.2-3.7.3-4,0-2.1-2,10-31.2,11.8-35.7,7.4-18.1,16.2-35.8,24.1-53.7.8-1,8.1-.9,9.6-.6,2.3.4,2.1,2.3,2.8,2.7Z"/>
      <path class="st8" d="M1767,805c.5.4,0,7.5-.5,9-1.7,6.6-9.6,19.1-12.7,26.3-4.1,9.3-17.6,39-17.8,47.3s4.6,4.7,0,9.8c-8.3,9.1-7.2,1.2-11.9-.9s-7.3.4-7.9-2.1,1.9-10.3,2.4-12.4c4.1-16.5,12.5-35,19.3-50.7,4-9.2,10.5-17.8,11.2-28.3,2.3-.2,17.3,1.3,17.9,2Z"/>
      <path class="st21" d="M147.8,92.2c.2.4,1.3,7.3,1.3,8.3-.1,3.1-2.3,6.9-2.8,10.3-1.7,12.4-.9,24.4-1.2,36.8s-2.6,14.9-.6,17.5,3,.6,3.4,1.1c.9.9-1.7,19.8-2.7,21.3s-3.3.6-4.6.6c-2.4-.2-14.1-2.2-14.5-3.6l.7-13.9c-2.3-8.9,0-18.4.2-27,.1-5.6,0-52.8,2.5-53.6,3.6.8,16.5-.4,18.2,2.3Z"/>
      <path class="st21" d="M2384.9,250.1l-13,92.9-19-1.9,14.9-92.4c1.7-2.4,14,1.6,17.1,1.5Z"/>
      <path class="st10" d="M507.2,1003.8c.5,1,15.6,12.1,17.9,13.6,11.4,7.7,24.8,12.2,34.4,21.6,5.2,5.1,1.1,7.6-.5,11.4s-.8,5.3-1,5.5c-.3.3-8.2.9-8.9.6-2.6-1.1-6.3-7.5-8.7-9.4-13.7-10.8-33.5-16.9-46.9-31.1-3.5-3.7-8.3-14-5.4-18.4s2.7-1.3,2.9-2.3-.3-4,0-4.3c.4-.5,9.8-.1,11.6.9,4.8,2.9,3.4,9.7,4.6,11.9Z"/>
      <path class="st3" d="M1074,982c1.7.6,6.1-1.6,7-1s1.9,6.7,2,7.6c.3,6.4-6.7,20.8-14.3,19.5-1-.2-.9-2.7-2.2-3-1-.2-2.6,1.3-4.4.4-5.3-2.7-5.7-24.2-7.3-30.8-2.2-9.3-7-13.3-3.5-24,1.6-5,4.9-7.6,10.3-7.8,15.2-.5,7.5,8.8,8.5,18.6.6,6.3,4.6,13.6,4,20.5Z"/>
      <path class="st25" d="M820.8,242.2c2.7,2.4-.7,10.9-.9,14.3-.2,6.7,1.8,21.9,3.8,28.3s5.4,8,4.2,16.6-4.8,4.5-10.4,4.6-8.7,4.6-10.5-5.5c-2.3-13.1-6.3-36-4.9-48.8s5.8-5.5,6.9-6.6-.9-3.4,2.5-4,8.7.7,9.3,1.2Z"/>
      <path class="st10" d="M1482.1,1046.9c-1.3-7.6,2.5-14.6,4-21.2,1.7-7.5,4.1-26.4,8-32,1.2-1.7,3.3-2.4,3.6-2.9.8-1.3-.2-4,1.9-4.7s14.8,1.9,15.4,2.4c5.4,3.8-4.1,14.6-5.5,17.6-3,6.8-6,21.8-7.5,29.5-.7,3.7,1,14.6-4.3,14.2-2-.2-15.2-2.2-15.7-2.9Z"/>
      <path class="st14" d="M1510.9,797c.9.9-.7,11.8-1.9,13.3s-2.9.7-4.6,2.7-3.3,6.9-5.3,9.7c-4.4,6.4-9.8,12.5-14.1,18.9-1.3,1.9-1.2,4.4-2.7,6.3-4.1,5.2-5.6,1.2-8.9,1s-5.6,1.6-6.4,1-2.9-6.9-2.9-7.7c-.4-4.7,16.6-24.5,20.3-30.3s6.8-12.2,9.5-18.5l17,3.6Z"/>
      <g>
        <path class="st8" d="M2123,241c4.3,2,7.6,5.4,12,7.5,9.4,4.6,23.1,6.7,33.6,5.5,11.8-1.4,27.1-27.1,25.5-39-6.8,0-15,.4-21.6-1.9-5.7-2.1-19.4-13.5-20.4-19.6-2.2-14.1.8-27.7,12.4-36.4,9.2-6.9,22.8-4.3,31.5,2.5,9.4,7.3,14,17,16.5,28.5,5.2-4.3,11.1-9.3,15.5-14.5,12.8-15,18.3-31.5,23.9-50.1.8-2.5,2.7-13.4,3.3-14.2s2.7-.8,3.7-1.8c1.9-1.7,4.9-6,7.4-5.4s6.2,5.6,6.5,6.6c.6,1.9.5,6.7.1,8.7-2.7,16.8-14,44.3-23.7,58.3-9.2,13.3-22.7,24.8-35.7,34.3-1.5,14-3.6,26.4-11.7,38.3-14.3,21.1-24.5,25.7-50.3,23.7s-29.6-9.5-42.5-17.8c-4.3-7.2-2.9-10.2,1-16.2,4.4.8,9,1.1,13,3ZM2195,197c.2-12.1-6.8-25.1-20-26-.5,4.4-3.9,3.9-4.8,8.7-2,10.7,5.3,16.3,15.3,17.2,3.1.3,6.4-.1,9.5,0Z"/>
        <path class="st11" d="M1937.7,56.3c1.5,2,1.9,10.1.4,12.1s-3.7.1-4.1.6.5,3.2-.1,3.9-2-.3-3,.7c-1.2,1.4-7.4,12-9.1,14.7-5.9,9.6-25.5,41.3-28.1,50-1.2,3.9-.9,4.1-2.5,8.4-1,2.6-.7,7.1-3.7,7.3s-14.9-2-15.6-2.5c-4.1-2.8,3.1-16.7,4.9-20.3,11-22.2,25.2-43,37.6-64.4,3.9-6.7,3.7-15.3,15.1-15s7.5,3.4,8.2,4.3Z"/>
        <path class="st14" d="M2022.8,129.2c.7,1,.9,6.1,1.5,8,4,12.1,6,16.8,13.2,26.8,2.1,2.8,2.7,6.9,2.4,10.4-.8,10.4-5.6,5.8-12.4,5.6s-5.6,2.4-7.1,0l-18.3-46.7c-.8-1.7,1.4-1.2,2.2-2.4,1.9-2.6,1-4.6,6.3-4.9s11.8,2.7,12.1,3.2Z"/>
      </g>
      <path class="st13" d="M137.9,992.1c.8.5.5,3.8,1.4,4.6s3.4-.3,3.8,2.8-2.6,7.3-3.4,10.6c-1.3,5.3-2.6,14.9-1.4,20.1,1.4,6.3,8,5-.7,12.7-4.8,4.2-8.8,7.1-13.5,1.3s-5.3-17.5-4.9-23.6,3.8-24.2,7.1-27.4,10.5-1.9,11.6-1.1Z"/>
      <path class="st13" d="M2389.7,401.3l9.8,20.7c-.8,3.3,4.3,9.9,4.5,10.7,2,8.1,0,10.4-6.1,14.4-.8.5-1,1.9-1.4,1.9s-6.8-2.1-7.4-2.6c-1.3-1-1.3-2.6-2.1-3.7s-1.6-.7-1.7-1c-1.2-2.8-2-9.2-3.5-13-1.7-4.4-10.5-19.1-9.7-22.2.4-1.6,3.4-1.3,3.8-1.7,1.2-1.3-2.9-8,6.4-6.7s4.9,3,7.4,3.1Z"/>
      <path class="st10" d="M401,181c3.8,8.3,9.4,16.2,16.9,20.5s5.2,7.8,5.7,10.4c.7,3.9-4,4-6.2,6-3.4,3.2-1.9,8.8-9.4,4.4s-19.5-24.2-21.9-28.1c-3.6-5.8-3.7-8.3,2.8-10.3s8-2.9,12-3Z"/>
      <path class="st15" d="M2231,660c-.1,4.6-7.7,6.8-8.6,8s.4,3.7.6,5c-4.3.5-3.5-8.4-2.5-10s3.4-1.4,4.7-2.1.8-1.8,1.5-1.9c2.5-.6,3.3.8,4.3,1Z"/>
      <g>
        <path class="st8" d="M1059.7,35.2c17-2.7,18.2,19.3,6.2,23.3-2.7.9-3.9-.5-5.3-.3-3.7.6-36.5,54.3-42.1,60.8-.6,1.7.9,2.8-.4,5.5-1.2,2.7-15.5,19.7-17.5,19.4-5.1-3.5-9.2-8.1-12.6-13.3,19.9-25.1,35.1-54,54.5-79.5,4.2-5.5,10-14.7,17.2-15.9Z"/>
        <g>
          <path class="st8" d="M1065,255c1.5,4.7.9,7,5,11-.9,2.7-1.7,7.2-3.6,8.9-2.7,2.4-11,2.6-13.7.1-1.1-1.1-9-26.3-9.6-29.6-3.2-16-2.1-33.6,1.2-49.7,2-10,11.1-19,20.8-22.2,16-5.4,30.6.4,43.9,9.1,6.6,4.3,32,25,38.4,23.3,1.1-.3,4.3-3.8,5.2-4.9,11.2-15.6,10.2-49.9,27.6-60.4,7.2-4.3,18.1-5.1,25.9-2.1,8.6,3.4,17.5,14.5,26,18,1.5.6,3.8,1,5.3.6s10.3-17.3,11.4-19.8c1.6-3.6,3.7-8.4,5-12s-1.3-8.7,6.7-8.3,11.2,1.7,12.1,3c-.6,3.5-.2,7.7-1.1,11.1-1.9,7.3-15.8,33.6-21,39-3.7,3.8-7.6,6.1-13,6.1-18-.3-23.9-13.1-37.8-19.3-4.2-1.9-5.2-2.6-9.2.2-7.8,5.5-10.8,26.8-14,36-4.4,12.4-13.6,32.9-28.8,31.9-26-1.6-46.9-35-70.1-35s-13.1,3.5-15,9-3.2,16.5-3.4,20.6c-.6,9.9,3,25.8,6,35.5Z"/>
          <path class="st5" d="M1070,266c-4.1-4-3.5-6.3-5-11,7-1.2,8.2,2.1,7,8.5s-1.9,2.3-2,2.5Z"/>
        </g>
      </g>
      <path class="st1" d="M401,181c-4,.1-8,1.8-12,3-.3-2.4,0-6.2,2.7-6.8s7.8,1,8.4,1.3c1.1.6.7,1.9.9,2.5Z"/>
      <path class="st5" d="M2110,238c.6-.9-1-2,2.7-2.7s9.9-.6,10.3-.3-.2,4.8,0,6c-4-1.9-8.6-2.2-13-3Z"/>
      <g>
        <path class="st8" d="M346,1051c1.3,1.8-12.5,18.3-19.3,15.9-1.8-.6-1.4-3.3-2.6-4.4s-6.7-1.3-7-1.5c-.6-.6,1.7-8.4,2.5-10,3.9-8.8,14.1-20,19.4-28.6,4.4-7.1,8.6-15.7,12.2-23.3-20.8-3-41.9,2-39.1-26.6,2.2-22.5,39.7-32.6,55.5-20.4,9.5,7.3,6.2,13.5,7.5,23.5s-.2,2.2,1.5,1.5,8.1-5.5,10-7c7.6-6.4,20.1-24.6,22.8-34.2s0-28.5,14.1-27.9c6.3.3,9.2,5.5,8.1,11.3-6.1,32.9-21.2,62.2-52.9,76.9-2.2,1-4.8.2-6.8,2.2-3.6,3.5-14.6,28.4-18.7,35.3-1.7,2.9-11.5,13.8-9.7,16.4s2.3.8,2.5,1ZM357,966c-8.4-2.5-28.5-.2-27.1,11.5s2.8,2.1,4.7,2.3c6.9.9,15.3.3,22.4,1.1v-15Z"/>
        <path class="st19" d="M357,966v15c-7.1-.8-15.5-.3-22.4-1.1s-4.4-.2-4.7-2.3c-1.4-11.8,18.7-14,27.1-11.5Z"/>
      </g>
      <g>
        <g>
          <path class="st22" d="M2313.9,524.1c.4.5-.4,3.4.5,5,1.6,2.7,5.5-.2,4,5-2.3,7.8-9,9.5-13.5,15.5-6.5,8.5-2.8,6.8-.2,14.2,2,5.8,6.6,17,7.8,22.2,3.1,13.5-4.3,8.8-5.6,10.1s3.3,5.7-6.3,3.8c-6.8-1.3-11.6-8.3-17.1-11.7-1.4.2-4.2,5.5-5,7.1-2,3.6-8.6,19.4-10.3,20.9-4.3,3.8-13.9-1.3-19.3-1.1.6-6.4.2-14.2,1-20.4.6-5.2,2.7-8.7,3.7-13.3,1.3-5.7-.3-10.2,1.1-15.6-6.7-7.8-20.6-14.6-21.9-25.1,0-1.5.5-6.4,1.4-7.2s2-.3,2.6-.9c1.1-1,1.4-2.5,2.8-3.2,4-2.1,15.2-1.6,17.3-3.7,2.7-2.7.1-21.9,3.4-26.6,1.2-1.7,4.9-.6,6.8-1.2s2.3-2.7,4.2-2.8c7-.2,8.4,9.3,10.3,13.7,1.1,2.4,6.1,14.3,7.2,14.8,3.3,1.7,12.7-.8,17.6-.5s7.1.8,7.4,1.1Z"/>
          <path class="st13" d="M2231,660c1.9.3,5.7,0,7.1,1.7,4.2,5.1,4.4,20.7,6.1,23.1.7,1,4.8.6,4.9,1.8.2,1.5-2.4,13.8-3.2,14.3s-4.2-.4-4.8.2.2,2.5,0,2.8c-.9.9-7.9-1.3-9.8-1.1-.4-.3-.2-2.1-.1-2.8s1.5,0,1-2h-4c-.1-.6,0-1.3,0-2s0-1.7-1-2c.4-3.2-.7-5.3-1-8l.9-.6-.9-1.4c-.2-1-.8-5.8-1-6l-1-2c0-1.3-.9-2.3-1-3-.2-1.4-1.2-4.2-.6-5,.9-1.2,8.5-3.4,8.6-8Z"/>
          <path class="st15" d="M2228,698h4c.5,2.1-1,1.9-1,2-3.4.3-2.6.2-3-2Z"/>
          <path class="st15" d="M2225,678c-.2-.2-1.4.1-2,0-.4-.9,1-1.8,1-2l1,2Z"/>
          <path class="st15" d="M2226,686c-.2-1.8,0-1.9,0-2l.9,1.4-.9.6Z"/>
        </g>
        <path class="st15" d="M2228,696c-3.9.4-1.1-1.4-1-2,1,.3.9,1.1,1,2Z"/>
        <g>
          <path class="st8" d="M2360.7,686.7c-9.1,12.4-17.9,25.6-26.9,38.6-13.8,20.1-35.5,45-46.7,65.3-3.9,7.2-2,13.5-12.8,14.3-6.1.4-3.4-3-5.3-6.3s-2.1-.9-2.8-2.4c-3.1-6.2,1-6.9,3-11.6s1.5-7.7,2.3-8.7c1.3-1.7,4-.4,5.3-1.2s6.9-11.1,8.4-13.1c18.4-25.2,49.6-63.5,62.2-90.8,1.6-3.4,2.4-9.3,3.6-11.2s6.9-4.7,7.4-4.6c1.3.2,2.4,2.8,3.7,3.4,5.1,2.3,9.2-1.5,6.8,9.8-.4,1.8-7,17-8.1,18.4Z"/>
          <g>
            <path class="st11" d="M2350.7,954.8c-.2.3-1.7.2-1.7.8,0,1.2,1.6,2.5.6,4.4s-5.7,4.3-7.3,4.8c-14.4,4.5-43.8-4.1-56.6-12-6.8-4.2-10.6-10.5-17.2-14.8-8.5,4.3-20.6,13.4-30.2,13.9s-25.1-4-31.4-9.4c-10.6-9-22.4-31.6-24.9-45.1-.8-4.4,0-7.7,4.4-9.5,6.2-2.6,4.8,2,6.2,2.2,2.2.3,5.2-2.8,8.7.9s1.1,4.2,1.8,6.3c1,2.9,1.1,3.6,2,7.2,4.1,16.1,15.4,32.2,34.4,28.6,1.9-.4,18.4-9.6,18.6-10.6.6-2.9-3.8-10.4-4.1-14.9-.6-11.2,6.3-31,17-36,12.7-5.9,32.8-.2,32.1,16-.4,9.4-3.5,17.4-9,25-2.1,2.9-9.3,9.2-10.5,11.5s-.5,1,0,2,9.3,9.5,10.6,10.4c11.7,8.3,33.3,13.4,46.9,9.1s3.1-2.7,4.4-2.4c2.1.4,7,8.9,5.3,11.7ZM2285,888c-.2-.2-3.2-.9-4-.6-3,.8-6.9,7.5-7.7,10.4s-3.2,13.8,1.8,9.5,7.8-9.6,8.7-12.1c.3-.8,1.5-6.9,1.3-7.2Z"/>
            <path class="st2" d="M2285,888c.2.3-1,6.4-1.3,7.2-.9,2.5-6.7,10.3-8.7,12.1-4.9,4.3-2.6-6.7-1.8-9.5s4.7-9.5,7.7-10.4,3.9.4,4,.6Z"/>
          </g>
        </g>
      </g>
    </g>
  </g>
</svg>