<?xml version="1.0" encoding="UTF-8"?>
<svg id="Layer_1" data-name="Layer 1" xmlns="http://www.w3.org/2000/svg" viewBox="0 0 311.22 268.66">
  <defs>
    <style>
      .cls-1 {
        fill: #ccbce2;
      }

      .cls-2 {
        fill: #553a3a;
      }

      .cls-3 {
        fill: #ccbde3;
      }

      .cls-4 {
        fill: #d1c3e6;
      }

      .cls-5 {
        fill: #7d6798;
      }

      .cls-6 {
        fill: #cc5658;
      }

      .cls-7 {
        fill: #766192;
      }

      .cls-8 {
        fill: #cb5e5f;
      }

      .cls-9 {
        fill: #c74a4c;
      }
    </style>
  </defs>
  <path class="cls-1" d="M164.96,267.38c-.3,1.81-4.39,1.6-4.36,0h4.36Z"/>
  <g>
    <path class="cls-9" d="M279.18,49.58c3.9-.65,16.73-.92,20.43-.23,6.09,1.14,3.75,15.7,3.86,21.22.06,3.2,3.01,10.66-1.09,13.15-2.29,1.39-4.7-.66-6.98-.5-4.9.34-16.47,4.09-19.68-.16-.9-1.19-5.29-25.72-4.99-27.68.52-3.37,5.47-5.29,8.46-5.79Z"/>
    <path class="cls-3" d="M29.4,189.19c2.87,3.56,1.99,13.37,2.49,13.87.42.43,9.3-1.28,10.74,2.9,2.55,7.41-5.7,8.65-6.23,10.83-.8,3.29,8.07,11.62-.68,12.52-8.27.85-9.59-6.81-14.44-7.55-3.1-.48-15.76,8.53-16.76-1.78-.76-7.85,5.18-8.36,5.54-9.9.53-2.25-14.62-17.56,8.73-12.47-1.38-6.1,5.27-15.03,10.59-8.42Z"/>
    <path class="cls-3" d="M19.9,80.93c.7-5.7-2.81-17.1,5.15-18.33,11.75-1.82,14,18.72,14.47,26.52.44,7.34.94,9.54-7.07,10.35-8.17.83-30.02,1.51-32.14-9.29-2.51-12.75,10.99-11.25,19.6-9.25Z"/>
    <path class="cls-4" d="M90.8,27.5c6.43,1.83,12.91,2.64,19.62,2.2-.12,10.05-17.59,1.12-22.11,2.34-1.96.53-6.11,6.25-8.49,7.95-6.96,4.96-16.55,7.07-25.02,7.15.18-1.07-.29-4.01.02-4.32.39-.4,9.05-.86,11.14-1.42,4.19-1.11,18.69-8.19,17.14-13.2-.57-1.85-8.11-5.41-8.71-12.13-1.8-19.95,23.93-23.12,20.48.81-.55,3.85-2.26,7.28-4.07,10.63ZM83.95,4.78c-8.44,2.32-4.45,19.5,1.95,19.52,5.49.02,7.9-22.23-1.95-19.52Z"/>
    <path class="cls-9" d="M281.65,158.89c.29-.92,1.75-1.54,2.75-1.69,2.68-.4,20.41,6.43,23.47,8.18,5.25,3,3.64,4.24-.15,7.59-2.55,2.26-21.18,13.76-23.41,13.73-1.02-.01-2.67-1.05-2.67-1.64,0-5.25-1.06-22.74,0-26.17Z"/>
    <path class="cls-6" d="M246.74,12.25c.43.37,1.97,9.21,3.3,10.9,1.77,1.34,8.54-9.36,10.88-7.62.22.16,1.44,4.45.96,5.27-.39.68-7.31,3.35-6.4,6.71,14.8-2.04,14.41,7.57,0,5.47l3.27,10.88c-6.69,2.73-7.12-4.72-7.65-9.8-5.34,6.84-13.52,11.59-7.63-1.09-17.36-.09-9.77-7.65,3.27-5.46,1.2-1.08-5.68-10.17-5.27-12.38.33-1.79,4.14-3.84,5.27-2.88Z"/>
    <path class="cls-4" d="M30.82,139.82c2.1,2.02,8.18-6.99,10.89-4.36,4.13,4.01-11.06,9.56-11.7,10.09-1.1.91-2.76,6.79-4.64,9-10.82,12.67-25.46-7.98-22.91-10.37,4.32-4.05,8.13,12.11,16.66,9.62,2.19-.64,5.74-5.56,5.06-7.82-.56-1.84-7.08-3.7-7.61-11.09-1.1-15.34,16.16-6.72,14.25,4.93ZM26.45,140.9c1.03-1.19-1.59-10.84-5.44-9.8-.44,3.82.71,9.38,5.44,9.8Z"/>
    <path class="cls-6" d="M284.93,123.47l6.78.2c10.21,1.89,2.5,8.32.28,13.98-1.61,4.09,1.5,5.05-5.98,4.34-1.54-2.67,5.08-12.43,4.36-13.07-4.59.64-17.36.48-11.37-6.47,3.25-3.77,18.73-11.04,3.74-9.89-1.81-7.28,14.34-4.45,15.23-1.55,1.02,3.3-10.05,11.07-13.05,12.47Z"/>
    <path class="cls-6" d="M284.37,223.77c-3.95-1.23.83-15-.56-18.53-3.38,1.79-7.06,2.55-10.9,2.17.14-1.22-.21-2.66-.04-3.79.12-.79,13.81-4.49,15.38-3.37,3.07,2.18-1.39,15.16-.08,19.16,5.36.93,13.92-3.12,12,4.36-4.13-.78-12.35,1.08-15.81,0Z"/>
    <path class="cls-8" d="M188.95,7.88c7.32-.92,4.65,3.39,5.73,7.9.66,2.76,5.47,15.23,1.34,16.09-4.41.92-7.81-20.43-7.07-23.98Z"/>
    <rect class="cls-8" x="196.58" y="38.41" width="5.47" height="5.46"/>
    <g>
      <path class="cls-1" d="M164.96,233.58c-.43-21.68-1.01-43.58-1.09-65.42,7.39-2.65,16.06-6.16,23.68-2.41,10.47,5.15,8.5,20.48,10.25,21.9,3.25,2.64,4.33-.68,4.28-3.69-.37-22.77-19.05-29.69-38.21-21.25-.12-34.51.1-69.07,0-103.58,15.8-.89,31.6-1.58,47.43-2.19,14.43-.56,34.31-4.38,44.65,8.81,8.75,11.16,9.91,36.35,10.49,50.57,1.04,25.81,2.76,72.59-1.4,96.83-1.39,8.1-10.02,14.81-17.8,16-17.97,2.75-40.21,1.05-58.87,2.2-7.73.48-15.68,1.55-23.4,2.23ZM188.63,110.53c-5.73,1.6-2.45,24.54,3.99,22.67,4.48-1.3,5.09-25.21-3.99-22.67Z"/>
      <path class="cls-1" d="M158.41,59.13c-.1,36,.76,71.96,1.09,107.94-7.73,2.01-14.68,1.55-21.26-3.28-3.26-2.39-7.03-9.35-9.81-9.82-3.12-.53-1.38,3.96-.82,5.19,5.11,11,20.57,16.26,31.89,13.37.19,20.33-.31,40.73,0,61.06-8.18.06-16.39-.07-24.58-.05-9.22.02-25.62,2.03-33.67,1.04-7.04-.87-25.13-7.36-29.47-13.06-12.98-17.07-9.53-60.91-10.38-82.29-.69-17.31-5.23-47.1-1.97-62.94,1.9-9.24,5.77-13.03,14.77-15.76,13.86-4.21,37.15-2.61,52-2.53,10.78.06,21.56-.41,32.22,1.14ZM121.47,136.39c9.02,5.52,8.61-24.97,1.5-24.96-7.74,0-4.43,23.17-1.5,24.96Z"/>
      <path class="cls-2" d="M158.41,59.13c.05-15.6-.56-31.35.63-46.9h4.83c.02,15.63-.05,31.29,0,46.9.1,34.51-.12,69.07,0,103.58,0,1.82,0,3.63,0,5.45.08,21.84.66,43.74,1.09,65.42.22,11.24-.16,22.56,0,33.8h-4.36c-.88-11.26-.92-22.5-1.09-33.8-.31-20.32.19-40.73,0-61.06-.02-1.82.02-3.63,0-5.45-.33-35.98-1.2-71.94-1.09-107.94Z"/>
      <path class="cls-5" d="M163.86,162.71c19.16-8.44,37.84-1.51,38.21,21.25.05,3.01-1.03,6.33-4.28,3.69-1.75-1.42.22-16.76-10.25-21.9-7.62-3.74-16.29-.24-23.68,2.41,0-1.82,0-3.63,0-5.45Z"/>
      <path class="cls-7" d="M188.63,110.53c9.08-2.53,8.47,21.37,3.99,22.67-6.44,1.87-9.72-21.07-3.99-22.67Z"/>
      <path class="cls-7" d="M121.47,136.39c-2.94-1.8-6.24-24.96,1.5-24.96,7.11,0,7.52,30.49-1.5,24.96Z"/>
      <path class="cls-5" d="M159.5,167.07c.02,1.82-.02,3.63,0,5.45-11.32,2.89-26.78-2.36-31.89-13.37-.57-1.22-2.3-5.71.82-5.19,2.78.47,6.55,7.43,9.81,9.82,6.58,4.83,13.53,5.29,21.26,3.28Z"/>
    </g>
  </g>
</svg>