<?xml version="1.0" encoding="UTF-8"?>
<svg id="Layer_1" xmlns="http://www.w3.org/2000/svg" version="1.1" viewBox="0 0 1690.19 826.26">
  <!-- Generator: Adobe Illustrator 29.3.1, SVG Export Plug-In . SVG Version: 2.1.0 Build 151)  -->
  <defs>
    <style>
      .st0 {
        fill: #5b3c3d;
      }

      .st1 {
        fill: #ccbce2;
      }

      .st2 {
        fill: #653c3d;
      }

      .st3 {
        fill: #cebfe4;
      }

      .st4 {
        fill: #c64647;
      }

      .st5 {
        fill: #543a39;
      }

      .st6 {
        fill: #ccbde3;
      }

      .st7 {
        fill: #7d6999;
      }

      .st8 {
        fill: #5a2728;
      }

      .st9 {
        fill: #c44244;
      }

      .st10 {
        fill: #766293;
      }

      .st11 {
        fill: #5d2b2c;
      }

      .st12 {
        fill: #cbbbe1;
      }

      .st13 {
        fill: #d1c3e6;
      }

      .st14 {
        fill: #5e2e2f;
      }

      .st15 {
        fill: #cb5c5d;
      }

      .st16 {
        fill: #c44345;
      }

      .st17 {
        fill: #ccbce3;
      }

      .st18 {
        fill: #c54244;
      }

      .st19 {
        fill: #84709c;
      }

      .st20 {
        fill: #4f2425;
      }

      .st21 {
        fill: #c74748;
      }

      .st22 {
        fill: #613c3d;
      }

      .st23 {
        fill: #c74a4c;
      }
    </style>
  </defs>
  <path class="st13" d="M970.99,609.3c3.68.49,5.59-4.97,8.14-5.48,3.41-.68,3.69,1.44,2.22,4.4s-9.47,5.1-11.43,7.11c-3.4,3.49-2.94,11.68-11.58,12.51-5.07.49-15.66-7.93-15.73-12.56-.04-2.37,3.14-3.55,4.35-2.66.47.34,2.44,6.7,6.68,9.14,5.98,3.44,11.68-2.29,10.9-7.39-.13-.84-7.46-3.04-7.82-11.04-.72-16.05,16.44-4.67,14.28,5.98ZM966.62,609.3c.89-.85-1.8-8.55-4.35-8.72.02,4.05-1.42,9.54,4.35,8.72Z"/>
  <path class="st15" d="M1133.51,500.26c-1.05-.71-5.63-21.66-4.38-22.89,1.57.02,3.97-.45,4.96,1.03.64.95,4.08,19.62,3.24,20.81-.77,1.09-3.03,1.59-3.83,1.05Z"/>
  <circle class="st15" cx="1139.47" cy="510.07" r="3.16"/>
  <g>
    <path class="st4" d="M597.79,676.48c-1.14-8.86-5.9-34.38-1.16-40.96s30.17-9.93,38.67-10.35c.74.2,4.07,13.04,9.38,10.96,1.23-4.5-2.26-6.72-3.49-10.13-12.02-33.55,28.24-50.37,55.18-49.72,18.09.43,26.51,20.26,28.89,35.46.49,3.11-1.22,9.71,3.44,6.45,4.69-3.28-1.64-21.17-3.81-25.71-4.16-8.71-11.48-16.24-20.54-19.81-1.96-.77-6.01-.69-6.85-1.88-1.06-1.51-2.94-20.14,2.74-20.31,10.15-.08,22.48-3.79,32.24-3.84,5.55-.03,14.9.73,20.7,1.2,10.16.83,10.84,1.82,13.59,11.49,6.06,21.33-4.74,41.56-3.15,63.04-5.23,3.13-20.54,9.28-22.48,14.8-1.32,3.75-.2,6.31,3.64,4.17.51-.28.9-2.33,1.78-3.06,8.09-6.63,20.97-14.2,31.71-13.05,11.52,1.24,29.93,16.65,33,28.06,1.24,4.61,2.38,18.22,2.44,23.18.12,9.6-15.41,25.48-24.48,28.41-2.9.94-13.19,1.64-13.68,2.13-.85.86,2.03,9.25-5.47,12.52-1.98.86-6.01,1.73-8.18,1.73-10.34,0-22.4-2.82-32.67-3.4-16.06-.91-32.88,2.53-49.14,1.12-3.37.67-2.93,6.72-8.1,8.26-3.95,1.17-17.61,2.46-22.36,2.72-9.94.54-22.98-.17-32.54-2.46-2.16-.52-7.61-4.46-9.01-6.26-6.44-8.25-8.86-33.57-10.3-44.76ZM724.28,555.46c-6.21-3.93-4.18,13.3-3.24,14.17.62.58,4.84.11,5.36-1.77.17-.61-1.59-12.06-2.12-12.4ZM712.3,569.63c-.74-2.91-.94-14.46-5.98-13.07-2.21.61.1,12.56.59,13.02s4.12-.17,5.4.05ZM678.58,605.52c1.84.49,5.49.3,5.21-2.43-.22-2.21-4.55-12.6-8.01-11.64-4.32,1.19,3.43,10.83,2.8,14.08ZM665.4,595.8c-4.63.51-4.91,1.36-4.09,5.71.98,5.22,1.51,8.85,7.37,7.37l-3.28-13.08ZM631.59,655.75c-.45-2.5-2.6-14.86-5.95-14.14-5.87,1.26.34,11.66.52,15.25l5.44-1.12ZM718.85,642.69c-.91-.96-20.23,1.97-23.46,2.16-13.87.84-42.93-1.03-53.91,7.16-5.18,3.87-4.7,8.2-4.47,14.17.12,3.14,3.37,26.87,4.57,27.58.98.58,2.93,0,4.19.16.98-8.55-8.02-32.44-1.52-38.05,8.37-7.24,55.97-6.42,69.58-7.87,4.31-.46,5.83-.66,5.03-5.32ZM773.36,642.69c-8.62-.33.04,19.47,4.37,15.26,1.46-1.42-4.5-12.65-4.37-15.26ZM608.72,644.88c-2.17,2.83.25,15.64,4.88,14.15,3.61-1.15,1.18-16.26-4.88-14.15ZM761.36,644.86c-.3-.22-4.16.99-4.29,1.18-.44.61,2.96,12.07,3.75,13.01,1,1.2,4.44,1.54,4.91,1.07,1.45-1.42-4.5-12.65-4.37-15.26ZM694.34,664.49c-3.66.72.26,18.05,4.2,17.38,5.4-.93,1.2-18.44-4.2-17.38ZM678.34,682.86c1.13-1.77-1.21-12.36-3.08-13.5-9.25-5.64-3.38,13.96-.44,14.61.57.13,3.35-.84,3.53-1.12Z"/>
    <path class="st14" d="M597.79,676.48c-1.94.04-4.3.63-5.25-1.84-1.05-2.74-3.47-22.4-3.52-26.02-.06-4.29,1.25-13.55,3.94-16.76,7.42-8.86,30.81-10.98,41.91-12.07-5.54-32.62,29.77-46.95,56.71-47.98-1.79-11.31-4.11-24.99,10.48-27.13,15.8-2.32,37.35-3.7,53.18-2.16,11.28,1.1,13.21,3.5,16.26,14.27,6,21.17-3.24,41.75-2.49,63,19.19-1.66,38.52,10.08,45.65,27.96,2.06,5.18,4.33,20.3,2.71,25.29-.65,2.02-1.08,3.57-3.64,3.44-.06-4.96-1.2-18.57-2.44-23.18-3.06-11.41-21.48-26.82-33-28.06-10.75-1.15-23.62,6.42-31.71,13.05-.89.73-1.28,2.78-1.78,3.06-3.84,2.14-4.96-.42-3.64-4.17,1.94-5.52,17.25-11.66,22.48-14.8-1.59-21.48,9.2-41.71,3.15-63.04-2.75-9.67-3.43-10.66-13.59-11.49-5.8-.48-15.15-1.23-20.7-1.2-9.76.05-22.1,3.77-32.24,3.84-5.67.17-3.8,18.81-2.74,20.31.83,1.18,4.89,1.1,6.85,1.88,9.06,3.57,16.38,11.09,20.54,19.81,2.17,4.54,8.5,22.43,3.81,25.71-4.66,3.26-2.95-3.35-3.44-6.45-2.38-15.19-10.8-35.02-28.89-35.46-26.93-.64-67.2,16.17-55.18,49.72,1.22,3.42,4.72,5.63,3.49,10.13-5.31,2.08-8.65-10.76-9.38-10.96-8.49.42-33.73,3.51-38.67,10.35s.02,32.09,1.16,40.96Z"/>
    <path class="st8" d="M718.85,642.69c.8,4.66-.72,4.86-5.03,5.32-13.6,1.44-61.21.63-69.58,7.87-6.5,5.62,2.51,29.5,1.52,38.05-1.27-.17-3.21.42-4.19-.16-1.2-.71-4.45-24.45-4.57-27.58-.23-5.97-.71-10.3,4.47-14.17,10.97-8.19,40.04-6.32,53.91-7.16,3.23-.2,22.55-3.13,23.46-2.16Z"/>
    <path class="st8" d="M694.34,664.49c5.4-1.07,9.6,16.45,4.2,17.38-3.94.68-7.86-16.65-4.2-17.38Z"/>
    <path class="st8" d="M678.34,682.86c-.18.27-2.96,1.24-3.53,1.12-2.94-.65-8.81-20.25.44-14.61,1.87,1.14,4.22,11.73,3.08,13.5Z"/>
    <path class="st8" d="M631.59,655.75l-5.44,1.12c-.18-3.59-6.39-13.99-.52-15.25,3.36-.72,5.51,11.64,5.95,14.14Z"/>
    <path class="st8" d="M608.72,644.88c6.06-2.1,8.49,13,4.88,14.15-4.63,1.48-7.04-11.32-4.88-14.15Z"/>
    <path class="st11" d="M678.58,605.52c.63-3.24-7.12-12.88-2.8-14.08,3.46-.95,7.78,9.43,8.01,11.64.28,2.73-3.37,2.92-5.21,2.43Z"/>
    <path class="st8" d="M761.36,644.86c-.13,2.61,5.82,13.85,4.37,15.26-.48.46-3.91.13-4.91-1.07-.78-.94-4.19-12.41-3.75-13.01.13-.19,3.99-1.4,4.29-1.18Z"/>
    <path class="st8" d="M773.36,642.69c-.13,2.61,5.82,13.84,4.37,15.26-4.33,4.21-12.99-15.59-4.37-15.26Z"/>
    <path class="st11" d="M724.28,555.46c.53.34,2.28,11.79,2.12,12.4-.52,1.89-4.74,2.35-5.36,1.77-.93-.87-2.97-18.1,3.24-14.17Z"/>
    <path class="st11" d="M712.3,569.63c-1.28-.22-4.89.43-5.4-.05s-2.8-12.41-.59-13.02c5.04-1.39,5.24,10.15,5.98,13.07Z"/>
    <path class="st11" d="M665.4,595.8l3.28,13.08c-5.86,1.48-6.4-2.15-7.37-7.37-.81-4.35-.54-5.2,4.09-5.71Z"/>
  </g>
  <g>
    <path class="st1" d="M1105.13,701.98c-.43-21.67-1.01-43.55-1.09-65.42,12.93-5.1,29.08-6.2,32.46,10.61,1.01,5.04-2.16,11.19,5.7,10.11,1.49-24.35-16.23-34.8-38.17-26.17-.12-34.14.1-68.34,0-102.49l61.62-4.46c9.67.74,23.3,1.49,29.8,9.55,9.74,12.08,10.54,36.81,11.14,52.1,1.03,26.15,2.71,72.15-1.4,96.83-1.46,8.77-11.72,14.84-20.01,15.97-14.26,1.96-32.22.49-46.84,1.14l-33.22,2.23ZM1129.26,601.52c10.67,6.54,7.31-31.81-2.34-21.12-2.47,2.74.22,19.82,2.34,21.12Z"/>
    <path class="st1" d="M1098.58,527.53c-.11,36,.76,71.96,1.09,107.94-8.21,3.79-16.79,1.37-23.42-4.39-2.66-2.31-4.88-7.16-7.65-7.62-3.88-.65-.56,5.54.53,7.1,6.59,9.4,19.54,13.99,30.54,10.36.19,20.33-.31,40.73,0,61.06-4.52.17-9.1-.25-13.62.01-20.05,1.16-61.99,5.72-75.19-13.16-11.52-16.48-8.47-60.8-9.29-81.2-.71-17.51-5.17-45.63-1.95-61.82,2.01-10.07,6.01-14.07,16.05-16.67,12.81-3.31,42.87-2.75,57.27-2.78,8.12-.01,17.16,2.31,25.65,1.18ZM1065.58,581.23c-8.61-8.4-10.06,24.87-1.34,24.86,5.65,0,4.86-21.42,1.34-24.86Z"/>
    <path class="st5" d="M1098.58,527.53c.05-15.61-.03-31.28,0-46.89h5.46c.02,15.98-.05,32,0,47.98.1,34.14-.12,68.34,0,102.49,0,1.82,0,3.63,0,5.45.08,21.86.66,43.75,1.09,65.42.07,3.3,1.18,34.65-.55,34.9-1.2.17-2.58-.12-3.81,0-.78-11.63-.92-23.23-1.1-34.89-.31-20.32.19-40.73,0-61.06-.02-1.82.02-3.63,0-5.45-.33-35.98-1.2-71.94-1.09-107.94Z"/>
    <path class="st21" d="M1223.77,518.01c2.75-.24,18.61.7,19.39,1.82.97,6.31.36,12.77.49,19.14.06,3.17,3.02,10.69-1.09,13.11-1.53.9-25.71,2.11-26.78.58-.83-1.19-5.07-27.29-4.68-28.69,1.1-3.96,9.09-5.64,12.67-5.96Z"/>
    <path class="st3" d="M972.13,671.4c.38.42,10.39.87,10.9,2.95,1.88,7.59-6.54,9.89-6.69,10.89-.46,2.98,8.23,13.53-1.52,13.56-6.64.03-10.89-8.18-13.27-8.63-2.1-.4-15.85,9.07-16.83-1.8-.63-7,5-7.49,5.43-9.98.38-2.21-7.51-7.51-3.18-11.86s9.43.59,10.39.55c2.55-.13.64-12.06,8.65-10.91,7.34,1.05,5.01,14.02,6.12,15.24Z"/>
    <path class="st3" d="M979.6,566.68c-9.5,3.41-36.95,5.28-39.09-8.14-2-12.54,10.84-10.58,19.56-9.2-.24-7.68-1.95-20.76,9.88-16.96,9.81,3.15,9.65,25.8,9.65,34.29Z"/>
    <path class="st13" d="M1032.05,497l18.54,1.1c.77,10.81-15.86,3.52-22.26,2.13-7.05,11.25-20.77,15.31-33.35,16.4v-5.46c11.38.44,22.14-3.69,29.42-12.56l-6.99-7.13c-7.12-7.61.19-27.39,11.36-22.25,10.56,4.86,5.71,19.46,3.29,27.77ZM1027.68,493.73c1.69-5.88,5.52-11.77,1.71-17.5-5.17-7.78-11.21,2.24-10.43,8.15.29,2.22,6.83,10.76,8.71,9.35Z"/>
    <path class="st23" d="M1221.82,655.1v-28.35c6.28-1.48,16.78,3.21,22.89,6.01,2.12.97,6.65,2.7,6.63,5.45-.01,1.64-11.26,9.2-13.49,10.56-1.11.68-16.03,9.33-16.03,6.33Z"/>
    <path class="st15" d="M1186.86,481.8c.4.33,2.36,8.24,3.35,9.75,2.15,1.58,7.82-8.74,10.88-6.54,4.29,3.09-6.08,10.08-5.44,10.89,5.85,2.08,10.9-3.24,9.82,6.55l-9.81-1.08c-.36,3.2,6.03,10.34,1.5,11.85-5.01,1.67-5.2-5.55-5.87-9.68-2.88.53-4.31,6.48-6.87,6.37-7.11-.31.79-8.22.34-8.54-2.42-.31-10.03,1.08-10.9-1.66-2.03-6.44,10.38-2.14,13.07-3.82.39-.5-5.43-9.78-5.47-11.47-.07-2.73,4.35-3.51,5.41-2.63Z"/>
    <path class="st15" d="M1238.09,578.86c3.02,4.33-9.82,10.68-11.9,13.55,1.86,1.1,10.5-.11,10.99,2.32.22,1.09-5.39,14.87-6.07,15.68-1,1.21-4.47,1.52-4.92,1.07-1.84-1.84,3.17-10.81,4.36-13.07-21.44,1.05-11.46-9.15,0-15.29-.67-2.54-5.43.22-7.15-2.13-.72-.99.32-3.93.79-4.23,1.58-1,13.25,1.15,13.91,2.1Z"/>
    <path class="st15" d="M1228.36,687.81c5.46.48,13.28-2.59,12,5.44-19.82,1.5-18.1-.79-16.37-18.53l-10.9,2.18c-.79-7.84.58-4.41,5.51-5.93,2.7-.83,7.44-4.06,9.83-2.33,3.16,2.3-1.21,15.23-.08,19.17Z"/>
    <path class="st10" d="M1104.04,631.11c21.94-8.63,39.65,1.82,38.17,26.17-7.86,1.08-4.69-5.07-5.7-10.11-3.38-16.81-19.53-15.72-32.46-10.61,0-1.82,0-3.63,0-5.45Z"/>
    <path class="st10" d="M1129.26,601.52c-2.12-1.3-4.81-18.39-2.34-21.12,9.65-10.69,13.01,27.66,2.34,21.12Z"/>
    <path class="st10" d="M1065.58,581.23c3.53,3.44,4.31,24.85-1.34,24.86-8.73.01-7.27-33.26,1.34-24.86Z"/>
    <path class="st10" d="M1099.67,635.47c.02,1.82-.02,3.63,0,5.45-11,3.63-23.95-.96-30.54-10.36-1.09-1.56-4.42-7.76-.53-7.1,2.76.47,4.98,5.31,7.65,7.62,6.63,5.76,15.21,8.18,23.42,4.39Z"/>
  </g>
  <g>
    <path class="st22" d="M758.21,487.74c.18.26,2.25.53,3.21,1.67,2.27,2.72,1.63,19.39-.03,20.81-3.81,3.25-22.72.91-28.68,4.03-4.69,2.46-10.58,16.75-15.54,17.25-3.67.37-13.08-7.74-16.34-7.66-3.53.09-12.69,12.35-16.36,13.06-7.22,1.39-18.19-6.24-21.7-5.32-3.29.86-2.88,17.25-4.09,20.95-.85,2.6-3.97,2.44-5.81.75-2.91-2.66-8.21-17.13-12.44-18.05-1.48-.32-14.38,7.01-16.82,8.41-2.07,1.19-3.19,3.86-5.69,4.23-5.53.81-9.17-8.08-16.28-7.75-6.32.29-16.57,10.45-21.79,9.93-.75-.08-10.54-7.01-12.5-8.29-1.07-.7-1.22-2.76-3.03-3.51-1.16-.48-8.04-2.07-9.67-2.32-8.4-1.29-12.92,3.54-11.27-9.26,1.14-8.79,6.24-8.81,1.8-19.43-1.2-2.86-7.06-9.64-7.18-10.25-1.21-6.17,16.89-10.79,20.23-13.79,3.09-2.77,5.81-17.36,12.02-19.13s17.32,6.32,20.29,6.15c5.98-.35,20.84-13.67,23.14-14,5.23-.74,13.49,7.01,17.35,6.61,2.4-.25,11.69-10.66,15.54-11.79,8.25-2.42,18.86,5.37,24.74,5.18,6.47-.21,14.1-8.53,18.66-8.79,5.76-.33,9.69,7.86,14.16,10.82,4.15-1.83,13.52-9.86,17.38-9.62,4.75.3,11.68,10.75,16.72,12.8,5.59,2.27,23.47-.17,25.15,5.42,1.52,5.07-6.12,19.56-5.15,20.92ZM758.11,468.24c-6.09-.43-16.25.16-21.88-1.58-3.41-1.05-12.65-12.02-14.82-12.44-3.02-.58-12.45,9.74-19.42,8.58-3.87-.64-6.69-9.98-12.06-9.79-2.58.09-16.75,9.86-20.74,9.75-1.52-.04-4.3-3.12-6.74-4.12s-11.45-3.37-13.55-2.93c-5.16,1.09-12.46,11.92-16.86,12.52-5.16.71-12.92-6.95-17.18-6.27-3.74.6-17.04,13.41-24.36,13.62-4.1.12-13.61-7.63-19.22-6.32-2.75.64-7,16.47-9.97,18.65s-13.14,4.77-16.96,7.58c-.42.56,6.01,9.97,6.79,12.28,3.61,10.79-2.13,12.53-2.43,22.6,4.61.61,14.69.99,18.52,2.75,2.05.94,2.84,4.06,4.46,5.35,13.46,10.7,14.65.64,25.29-2.9,11-3.66,17.07,7.06,19.69,6.65,5.3-2.58,19.99-13.51,25.27-12.96,4.19.44,9,12.68,12.55,15.28l2.19-18.54c7.94-2.24,18.94,6.56,25.58,5.47,4.09-.67,14.72-14.1,17.47-14.16,3.88-.09,11.61,8.12,16.35,7.64,4.09-.41,9.68-13.79,13.72-15.8,5.49-2.72,26.55-1.12,28.3-2.78-.47-3.65.83-8.99-.19-12.33-.75-2.46-3.92-2.69-4.76-4.03-2.32-3.69,6.76-19.99,4.97-21.79Z"/>
    <path class="st23" d="M628.03,479.28c3.75-.56,10.58,9.54,13.93,11.84.74,0,6.79-8.73,10.07-9.63,2.72-.74,10.6,2.06,7.96,5.86-2.48,3.56-8.24,7.02-9.77,11.81.45,2.63,11.32,9.73,12.51,11.58,2.22,3.48-4.76,8.52-8.52,7.48-3.06-.85-10.13-9.79-12.04-9.5-5.16,1.49-12.23,15.27-17.22,9.2-4.25-5.17,9.94-13.02,9.96-17.52.02-3.9-11.88-9.41-12.97-13.32-.95-3.37,3.17-7.37,6.1-7.8Z"/>
  </g>
  <g>
    <g>
      <path class="st18" d="M1114.32,82.79c6.53-.78,15.83,1.96,22.55,1.99,27.32.13,54.39-1.16,81.79-.02,12.26.51,25.58-4.46,30.57,9.78,4.09,11.65-.15,35.35-.58,48.46-.95,28.58-.56,56.61.03,85.1.39,18.87,2.65,27.05-19.09,28.87-23.74,1.98-52.13-1.12-76.28-2.21-17.2-.77-49.32,5.59-52.84-18.04-5.58-37.39-5.38-76.76-3.32-114.34.75-13.63-1.97-37.31,17.17-39.59ZM1164.72,140.32c.72-.75-.33-3.76-1.03-4.96-2.19-3.73-21.06-20.19-25.2-21.69-1.85-.67-3.45-.82-5.38-.6-.6,5.04,6.11,6.18,9.26,8.72,5.83,4.71,12.43,12.91,17.95,16.95,1.02.74,3.41,2.62,4.41,1.58ZM1219.1,119.47c1.43-2.5-1.71-5.6-4.21-3.68-2.4,2.54-28.17,20.53-23.99,24.53,3,2.86,12.83-9.37,15.25-11.46,2-1.72,12.55-8.69,12.95-9.39ZM1203.56,141.51c-5.8,1.97-1.35,26.97,5.3,24.97,3.43-1.03,1.65-20.7-1.05-23.98-1.07-1.3-2.77-1.49-4.25-.99ZM1148,143.75c-6.72,1.83-3.57,19.15-.63,23.18,1.76,2.4,5.38,2.72,6.27-.06,1.1-3.39-.52-19.3-2.57-22.17-.94-1.31-1.58-1.35-3.08-.95ZM1162.54,201.38c7.4-1.91,26.82,5.12,32.28,1.17,4.29-3.11-3.75-20.71-9.31-22.48-12.41-3.95-23.82,9.4-22.97,21.31Z"/>
      <path class="st20" d="M1162.54,201.38c-.85-11.91,10.56-25.26,22.97-21.31,5.56,1.77,13.6,19.37,9.31,22.48-5.46,3.95-24.88-3.08-32.28-1.17Z"/>
      <path class="st20" d="M1148,143.75c1.49-.41,2.14-.36,3.08.95,2.05,2.87,3.67,18.78,2.57,22.17-.9,2.78-4.52,2.46-6.27.06-2.94-4.03-6.1-21.35.63-23.18Z"/>
      <path class="st20" d="M1203.56,141.51c1.48-.5,3.18-.32,4.25.99,2.7,3.28,4.48,22.95,1.05,23.98-6.64,2-11.1-23-5.3-24.97Z"/>
      <path class="st20" d="M1164.72,140.32c-1,1.04-3.39-.84-4.41-1.58-5.52-4.04-12.11-12.24-17.95-16.95-3.15-2.54-9.86-3.68-9.26-8.72,1.94-.22,3.54-.06,5.38.6,4.15,1.5,23.01,17.95,25.2,21.69.7,1.2,1.76,4.2,1.03,4.96Z"/>
      <path class="st20" d="M1219.1,119.47c-.4.69-10.94,7.67-12.95,9.39-2.42,2.09-12.25,14.32-15.25,11.46-4.18-3.99,21.59-21.99,23.99-24.53,2.49-1.92,5.63,1.19,4.21,3.68Z"/>
    </g>
    <g>
      <g>
        <path class="st17" d="M998.73,141.74c28.2-1.42,49.2,17.1,56.13,43.54,12.11,46.2-37.88,75.31-78.61,64.41-15.86-4.24-27.71-17.48-32.61-32.82-13.61-42.57,11.87-72.97,55.09-75.14ZM985.86,176.28c.65-.94-.15-3.85-1.76-4.27s-7.18,2.23-10.77,2.19c-3.2-.03-14.2-3.9-14.72-3.35-.35.37-.03,3.42.53,4.36,2.83,4.77,24.76,3.89,26.72,1.06ZM1038.21,175.19c.64-.92-.2-3.91-1.73-4.3-.97-.25-9.84,3.01-13,3.21-3.59.23-13.44-2.51-14.71-1.05-3.53,4.03,10.25,6.53,12.6,6.56,2.09.03,16.35-3.69,16.85-4.41ZM963.91,203.4c1.74-2.83,1.52-18.06-3.55-17.22-4.14.68-3.8,15.64-1,17.49,1.04.69,4.05.54,4.55-.27ZM1011.6,186.2c-4.2,1.45-3.27,18.52,2.08,18.51,5.79,0,5.41-21.1-2.08-18.51ZM998.96,214.46c3.35-10.63-21.19-3.29-21.81-.52-1.46,6.48,9.49.92,11.54.62,3.32-.48,6.91.12,10.27-.1Z"/>
        <path class="st10" d="M1038.21,175.19c-.49.72-14.75,4.44-16.85,4.41-2.34-.03-16.12-2.53-12.6-6.56,1.27-1.45,11.12,1.28,14.71,1.05,3.16-.2,12.03-3.46,13-3.21,1.53.4,2.37,3.38,1.73,4.3Z"/>
        <path class="st7" d="M985.86,176.28c-1.96,2.82-23.89,3.7-26.72-1.06-.56-.94-.88-3.99-.53-4.36.52-.55,11.52,3.31,14.72,3.35,3.59.04,9.23-2.6,10.77-2.19s2.41,3.33,1.76,4.27Z"/>
        <path class="st10" d="M1011.6,186.2c7.49-2.58,7.87,18.51,2.08,18.51-5.35,0-6.28-17.07-2.08-18.51Z"/>
        <path class="st10" d="M998.96,214.46c-3.36.22-6.95-.38-10.27.1-2.05.3-13,5.87-11.54-.62.62-2.77,25.17-10.11,21.81.52Z"/>
        <path class="st10" d="M963.91,203.4c-.5.81-3.51.96-4.55.27-2.8-1.85-3.13-16.81,1-17.49,5.07-.84,5.28,14.4,3.55,17.22Z"/>
      </g>
      <g>
        <path class="st0" d="M1073.82,9.87c8.25,8.95,7.2,35.67-.14,45.44-3.69,4.92-19.63,16.1-20.73,18.52-2.9,6.38,3.94,20.93.06,24.08-5.63,4.57-13.44-11.05-17.51-11.03-16.17,8.68-30.12,17.6-45.32,1.7-21.62-22.63-11.62-63.7,14.57-78.2,17.63-9.76,53.71-17.17,69.07-.51ZM1048.03,90.17v-15.81c0-.59-1.85-2.2-.98-3.67,7.22-5.03,20.38-13.19,24.32-20.97,4.53-8.93,5.34-30.82-2.69-37.44-17.77-14.65-57.83-4.64-72.47,11.37-10.43,11.41-16.66,33.06-10.54,47.63,6.61,15.76,16.85,26.21,34.62,17.88,2.75-1.1,14.73-8.81,16.3-8.82,2.83-.02,8.32,8.65,11.43,9.83Z"/>
        <path class="st0" d="M1037.02,33.6c.63,1.07-.16,3.85.12,5.33,1.31-1.01,5.26-3.36,6.53-2.17,1.93,1.81-4.5,6.36-3.27,7.62,4.08-.22,4.85,1.64,4.36,5.46-2.62,1.21-6.75-2.45-8.15-2.18-1.26.25-3.57,15.66-7.13,3.27l-6.52,2.18c-1.64-4.92,3.36-5.22,4.35-7.09,1.29-2.44-3.78-1.13-4.28-3.37-.23-1.04,1.21-2.46,1.03-3.71,11.24,3.31,5.58-.36,8.65-5,1.1-1.66,3.9-1.01,4.31-.32Z"/>
        <path class="st0" d="M1013.13,47.64v4.37c1.17,1.37,6.42-6.33,7.64-1.61.83,3.21-3.39,5.14-5.46,6.52.05,1.35,7.23.13,5.45,4.35-1.49,3.54-7,.1-7.61.55-1.15.83.68,7.8-4.96,7.44-2.43-.15.33-7.62-5.97-5.26,2.21-6.87-1.19-5.21-2.72-7.63-4.82-7.67,7.7-2.8,8.17-3.26,1.06-1.02-.98-7.44,5.46-5.47Z"/>
        <path class="st22" d="M1041.5,13.85c2.77-1.99,11.12,10.66,11.56,13.03.69,3.72-2.52,4.67-4.89,1.54-1.02-1.34-7.03-9.69-7.26-10.27-.42-1.06.35-4.13.58-4.3Z"/>
        <circle class="st22" cx="1056.3" cy="37.61" r="3.85"/>
      </g>
    </g>
  </g>
  <g>
    <g>
      <path class="st21" d="M268.31,598.46c5.86,6.06,3.86,15,4.74,21.97,2.13,16.74,2.32,24.7,2.13,41.4-.19,16.19,1.78,36.93.05,52.38-1.89,16.91-20.27,10.99-33.31,11.4-22.71.71-45.55,1.27-68.65-1.06-12.14-1.22-17-2.55-18.87-16.05-2.42-17.47.45-40.17-.18-58.67-.38-11.23-3.04-22.19-2.27-33.8.42-6.35.43-14.62,7.6-16.39,12.86-3.17,27.78-3.68,40.96-4.84,11.5-1.02,16.8-1.14,28.32-1.03,10.06.09,32.51-2.52,39.48,4.69ZM222.87,634.06c8.58,1.23,18.64-7.36,24.38-13.23,3.01-3.08,1.69-6.08-1.84-5.13-1.77.48-10.4,9.9-13.43,11.67-4.87,2.84-10.66.36-9.11,6.7ZM198.88,631.91c-.23-.23-3.32.17-4.63-.27-2.07-.69-5.65-2.3-7.59-3.34-2.27-1.22-11.67-9.33-12.85-8.4-4.47,3.5,7.84,11.24,10.66,12.76,2.49,1.34,12.59,5.47,14.41,3.58.15-.16.14-4.18-.01-4.33ZM232.29,639.59c-5.6,1.6-2.18,20.53,4.07,19.39,5.87-1.08,2.83-21.36-4.07-19.39ZM185.45,642.9c-5.88,1.51-4.99,21.31,4.02,18.3,3.65-1.22,2.49-19.98-4.02-18.3ZM225.55,686.91c1.05-.87,2.72-1.36,2.58-2.94-1.93-3.48.7-17.31-3.65-18.28-.81-.18-10.79,7.52-13.96,8.91-2.12.93-4.86,2.19-7,2.84-3,.91-6.27-1.39-6.63,3.24-.12,1.57-.29,1.75.87,3.01,3.49,3.76,20.55,5.62,25.7,4.98,1.89-.23,1.4-1.19,2.07-1.75Z"/>
      <path class="st20" d="M225.55,686.91c-.68.56-.18,1.52-2.07,1.75-5.16.64-22.22-1.22-25.7-4.98-1.16-1.26-.99-1.44-.87-3.01.36-4.63,3.62-2.33,6.63-3.24,2.13-.64,4.88-1.91,7-2.84,3.17-1.39,13.15-9.09,13.96-8.91,4.35.97,1.72,14.8,3.65,18.28.14,1.58-1.53,2.07-2.58,2.94Z"/>
      <path class="st20" d="M232.29,639.59c6.89-1.97,9.94,18.31,4.07,19.39-6.24,1.15-9.67-17.79-4.07-19.39Z"/>
      <path class="st20" d="M185.45,642.9c6.51-1.67,7.68,17.08,4.02,18.3-9.01,3.01-9.9-16.79-4.02-18.3Z"/>
      <path class="st8" d="M222.87,634.06c-1.55-6.34,4.24-3.86,9.11-6.7,3.03-1.76,11.66-11.19,13.43-11.67,3.53-.95,4.85,2.05,1.84,5.13-5.74,5.87-15.81,14.47-24.38,13.23Z"/>
      <path class="st8" d="M198.88,631.91c.15.15.16,4.17.01,4.33-1.82,1.89-11.92-2.23-14.41-3.58-2.83-1.52-15.13-9.27-10.66-12.76,1.18-.92,10.57,7.18,12.85,8.4,1.94,1.04,5.52,2.65,7.59,3.34,1.31.43,4.4.04,4.63.27Z"/>
    </g>
    <g>
      <g>
        <path class="st17" d="M56.8,621.14c1.37-.38,2.32-.28,3.59.36,2.39,1.2,8.33,16.44,10.33,20.23,12.15,22.98,25.65,44.81,38.53,67.24,2.47,4.3,9.43,12.59,1.9,13.47-13.5,1.58-35.68.84-50.17,1.08-7.43.12-57.1,1.18-59.54-.52-4.32-3.02,2.38-8.75,4.02-11.37,14.24-22.75,25.51-47.06,38.79-70.25,2.4-4.2,8.26-19.03,12.56-20.23ZM69.92,684.51c-6.89-7.12-6.18,13.36-3.44,13.95,6.97,1.52,5.67-11.64,3.44-13.95ZM40.3,685.4c-4.38,1.34-4.1,17.42,3.07,15.09,3.41-1.13,2.05-16.66-3.07-15.09ZM64.46,705.23c-3.8-3.5-12.4.68-17.17-.29v5.46s18.54-1.1,18.54-1.1c.52-.48-.78-3.52-1.37-4.07Z"/>
        <path class="st7" d="M40.3,685.4c5.12-1.57,6.48,13.96,3.07,15.09-7.17,2.33-7.45-13.75-3.07-15.09Z"/>
        <path class="st7" d="M64.46,705.23c.59.54,1.89,3.58,1.37,4.07l-18.53,1.1v-5.46c4.76.98,13.36-3.21,17.16.29Z"/>
        <path class="st7" d="M69.92,684.51c2.24,2.31,3.54,15.48-3.44,13.95-2.74-.6-3.45-21.08,3.44-13.95Z"/>
      </g>
      <g>
        <path class="st22" d="M142.9,565.02c-1.96,1.95-9.48,4.96-10.03,5.77-2.39,3.53,1.98,11.76-.06,13.22-5.02,3.6-9.76-4.47-13.01-4.48-1.29,0-10.9,8.51-13.96,10.02-32.59,16.15-54.18,1.05-57.32-33.58s31.89-58,63.85-58.87c37.2-1.02,55.58,43.05,30.53,67.91ZM127.99,577.37c-4.96-13.12,4.63-9.9,11.34-16.46,15.12-14.78,11.19-41.37-5.53-53.12-18.6-13.07-51.12-1.17-66.79,12.44s-15.91,36.63-9.02,54.62c7.67,20.05,31.08,18.24,46.99,9.5,3.96-2.17,12.59-11.99,16.5-10.91,2.52.7,3.66,4.14,6.51,3.92Z"/>
        <path class="st3" d="M81.9,536.2c14.37-2.66,26.86,9.48,20.48,23.73-7.58,16.93-37.56,10.71-34.29-10.3.89-5.73,8.34-12.42,13.81-13.43Z"/>
        <path class="st2" d="M120.17,535.02c1.01,1.73-1.63,5.27-2.54,5.27-.54,0-6.28-6.22-6.66-7.59-1.15-4.17,4.35-16.14-6.44-4.38-10.06-3.75,6.02-13.98,10.85-7.57,3.21,4.25.06,8.93,1.36,11.65.94,1.96,3.22,2.29,3.42,2.63Z"/>
        <path class="st2" d="M122.56,542.49c9.77,3.16-1.03,9.74-1.07,3.9,0-1.22,1.16-2.57,1.07-3.9Z"/>
      </g>
    </g>
  </g>
  <g>
    <g>
      <path class="st17" d="M529.95,640.83c8.27-.05,18.52-1.45,20.46,8.34,4.9,24.71.82,49.85,1.63,74.81-.39,4.53-6.39,8.37-10.49,9.14-15.68,2.96-30.34.89-45.65,2.33-2.76.26-5.23,1.86-8.76,2.14-5,.39-24.96-1.57-30.32-2.48-8.72-1.48-14.23-8.51-15.82-16.9-2.99-15.77-4.17-46.69-3.12-62.8.14-2.19.41-6.97.91-8.68,2.67-9.17,31.84-3.89,39.6-3.96,16.95-.13,34.57-1.85,51.56-1.94ZM468.86,673.48c-6.38-3.54-5.3,6.53,2.11,8.22,6.84,1.56,13.05-.74,12.31-8.48-3.91-1.09-5,4.05-8.21,4.38-4.68.49-5.13-3.52-6.21-4.12ZM539.98,674.31c-3.47-2.42-4.19,6.97-10.88,3.8-.44-.21-8.43-7.95-7.66-2.17.64,4.77,6.93,8.57,11.47,8.29,4.01-.25,10.53-7.5,7.07-9.92ZM483.41,690.78c-5.77,26.78,36.19,20.4,30.27,2.75-1.06-3.14-12.04-1.51-15.66-1.81-5.03-.42-9.5-3.2-14.61-.94Z"/>
      <path class="st19" d="M483.41,690.78c5.11-2.25,9.59.53,14.61.94,3.62.3,14.6-1.33,15.66,1.81,5.92,17.64-36.04,24.03-30.27-2.75ZM509.45,696.11h-16.9c-1.96,0-6.64-3.65-3.24,4.33,4.66,10.96,23.57-1.31,20.15-4.33Z"/>
      <path class="st19" d="M539.98,674.31c3.46,2.41-3.06,9.67-7.07,9.92-4.54.28-10.83-3.52-11.47-8.29-.78-5.78,7.22,1.96,7.66,2.17,6.69,3.17,7.41-6.22,10.88-3.8Z"/>
      <path class="st19" d="M468.86,673.48c1.08.6,1.53,4.61,6.21,4.12,3.21-.34,4.3-5.47,8.21-4.38.74,7.74-5.47,10.05-12.31,8.48-7.41-1.69-8.48-11.76-2.11-8.22Z"/>
      <path class="st12" d="M509.45,696.11c3.42,3.02-15.49,15.3-20.15,4.33-3.4-7.99,1.29-4.33,3.24-4.33h16.9Z"/>
    </g>
    <g>
      <path class="st19" d="M492.18,615.61c-1.79,1.14-3.61,11.64-7.22,11.79-4.99.2-6.03-8.83-11.47-10.44-3.84-1.14-13,1.76-18.88.42s-19.14-13.39-22.08-19.36c-4.89-9.9-5.39-28.73,2.17-37.17,12.59-14.05,40.2-24.16,58.67-20.39,21.02,4.29,44.93,26.73,36.25,49.86-3.07,8.2-17.96,22.69-26.42,24.83-3.02.76-9.59-.46-11.01.44ZM511.28,605.24c1.2-.84,6.29-5.89,7.46-7.24,22.23-25.92-10.09-54.35-37.14-53.49-15.41.49-45.89,13.71-47.44,31.08-1.45,16.31,4.89,28.83,19.78,35.91,7.24,3.44,15.89-1.12,23.12.64.6.15,4.89,6.9,6.77,7.63,1.5-.02,3.55-8.09,6.01-9.29s5.63.82,8.97.39c2.42-.31,10.33-4.11,12.48-5.62Z"/>
      <path class="st13" d="M511.63,596.89c-5.36.65-6.11-5.89-9.3-8.72-1.63-.4-9.38,9.99-18.02,7.15-2.29-.75-3.8-3.8-5.9-3.86-4.07-.13-5.19,6.58-13.72,3.86-1.61-.51-3.21-2.93-4.69-2.67s-3.35,4.18-6.7,4.17c-2.57,0-11.39-6.53-11.43-8.1-.15-4.84,8.92,2.57,10.1,2.98,8.25,2.82,1.56-9.9,1.05-13.05-1.39-8.51,3.06-23.27,11.79-12.88,6.39,7.61-3.44,18.12-2.13,22.78,1.62,5.78,12.71,1.79,13.9-3.31.94-4.06-6.6-23.24,3.96-23.31,7.81-.05,6.75,8.78,5.76,14.53-.75,4.35-8.38,12.58-.03,14.82,2.81.75,11.62-3.74,12.84-6.4,1.34-2.92-3.53-23.54,6.37-22.63,11.06,1.01.35,17.58.61,22.11.29,5.05,6.58,7.13,5.55,12.54ZM482.18,566.37c-6.31.73-1.93,9.14-2.16,13.07,3.69-2.59,1.7-9.21,2.16-13.07ZM460.37,582.72c.7-.74,3.24-13.25,1.16-14.78-5.44-4-4.89,9.4-3.45,13.27.41,1.11.64,3.24,2.29,1.51ZM506.18,567.46c-4.44-.39-3.05,7.16-3.25,9.8,2.83-1.79,3.49-6.78,3.25-9.8Z"/>
    </g>
  </g>
  <g>
    <g>
      <path class="st17" d="M66.71,125.23c7.1-.51,21.32-1.18,26.43,4.54,6.95,7.79,3.81,42.72,4.34,54.54.61,13.73,4.38,31.22,4.44,44.72.1,19.68-9.17,19.65-25.73,21.25-10.67,1.03-21.07.29-31.57-.03-6.04-.19-23.39,1.86-26.19-4.35-3.17-7.03-1.14-22.83-1.62-31.09-3.13-26.9-2.31-54.17-2.83-81.25,1.32-4.09,11.35-5.94,15.45-6.36,11.48-1.2,25.16-1.1,37.29-1.97ZM77.83,142.35c-4.8.32-8.02,5.3-12.78,6.29-5.15,1.08-9.2-2.27-7.94,4.6,2.06,2.15,23.63-3.56,20.72-10.89ZM39.66,153.24c1.75-1.97-1.19-5.66-4.05-6.29-4.52-1-16.61-.41-14.48,6.29,4.34-.54,6.66-2.58,11.49-2.27,2.27.14,6.76,2.58,7.03,2.27ZM68.15,175.98c7.34,4.42,7.05-15.13,1.51-15.16-6.12-.03-3.72,13.83-1.51,15.16ZM34.87,162.04c-5.08,1.51-2.77,16.95,3.12,15.18,3.05-.91,2.79-16.94-3.12-15.18ZM41.85,189.22c1.18,1.31,7.39-3.68,9.51-4.11,2.52-.51,12,.97,11.2-2.96-.84-4.12-18.72-.27-20.47,2.94-.42.77-.42,3.92-.24,4.13Z"/>
      <path class="st10" d="M68.15,175.98c-2.21-1.33-4.61-15.19,1.51-15.16,5.54.03,5.83,19.58-1.51,15.16Z"/>
      <path class="st10" d="M34.87,162.04c5.91-1.76,6.18,14.27,3.12,15.18-5.9,1.77-8.2-13.67-3.12-15.18Z"/>
      <path class="st7" d="M77.83,142.35c2.91,7.33-18.66,13.04-20.72,10.89-1.26-6.87,2.79-3.52,7.94-4.6,4.76-.99,7.98-5.97,12.78-6.29Z"/>
      <path class="st7" d="M41.85,189.22c-.18-.21-.19-3.36.24-4.13,1.76-3.21,19.64-7.06,20.47-2.94s-8.68,2.45-11.2,2.96c-2.13.43-8.33,5.42-9.51,4.11Z"/>
      <path class="st19" d="M39.66,153.24c-.28.31-4.76-2.12-7.03-2.27-4.84-.31-7.15,1.73-11.49,2.27-2.13-6.7,9.95-7.29,14.48-6.29,2.86.63,5.8,4.32,4.05,6.29Z"/>
    </g>
    <g>
      <g>
        <path class="st16" d="M143.27,219.75c.2-.24,2,.22,2.18,0,.49-.63-2.4-12.19-2.23-15.83,1.01-21.03,20.05-41.93,39.81-47.43,2.23-.01,1.05,13.64,2.2,15.32,1.33,1.93,4.44,1.18,4.8-.66.44-2.28-1.97-12.68-2.09-16.22-.31-8.82-2.24-39.37,8.45-41.79l60.29,1.41c9.25,10.03,8.83,27.78,8.74,40.89-9.35-.16-24.16,5.95-28.41,14.66-.85,1.74-3.78,9.7-.48,10.4,3.04.65,3.87-8.74,5.95-11.47,7.37-9.68,36.63-12.14,46.61-7.29,6.79,3.3,13.2,17.13,14.49,24.22.43,2.38,1.27,13.4,1.03,15.69-.5,4.76-5.41,11.02-5.33,15.25.15,7.43,7.67,14.99,6.25,23.84-.86,5.35-13.57,18.03-19.12,19.15-1.4.28-9.91.27-11.42,0-3.96-.69-10.92-4.91-14.68-5.01-2.17-.06-5.41,3.83-7.94,4.71-10.04,3.49-22.88,1.63-32.44-2.53-1.92-.83-3.07-3.33-5.17-3.45-2.64-.15-11.86,4.89-17.52,5.38-19.44,1.68-32.8-3.24-45.21-18-2.71-3.22-11.45-18-8.76-21.23ZM238.14,135.8c-7.5-2.44-8.2,14.37,0,12v-12ZM207.45,137.05c-.99-.58-2.92.01-4.2-.17-1.31,27.34,10.21,3.71,4.2.17ZM217.1,153.47c-6.44,1.93-6.76,11.66.95,12.8,13.69,2.02,11.12-16.42-.95-12.8ZM257.77,177.23c-7.16-1.07-5.69,13.55,1.09,10.91l-1.09-10.91ZM274.69,177.26c-3.07,1.57-4.13,2.29-3.92,5.97.51,8.89,9.66-.65,3.92-5.97ZM190.14,178.33c-5.13-3.24-7.64,13.57,1.1,10.9.5-.48-.25-10.36-1.1-10.9ZM166.73,179.42c-3.84.91-3.01,13.54,2.16,11.98,2.67-.8.91-12.71-2.16-11.98ZM271.96,189.22c-4.95.87-16.16-.95-16.24,5.98-.17,14.85,20.89,8.23,16.24-5.98ZM182.21,194.92c-.55,0-10.06,1.93-10.87,2.2-8.52,2.84-.36,15.21,8.24,12.6,6.51-1.98,9.06-14.81,2.63-14.8Z"/>
        <path class="st14" d="M143.27,219.75c-3.72-.54-4.35-10.67-4.42-13.59-.59-23.69,21.85-49.6,44.67-54.11.88-9.5-2.03-32.28,4.52-39.64s20.21-2.55,27.76-2.69c11.18-.21,32.41-4.07,42.59-.14,3.95,1.53,6.37,3.51,7.63,7.63,1.55,5.04,4.28,22.7,4.56,28.16.16,3.13-1.51,6.67-.8,10.06,18.16-3.45,35.52,7.66,36.04,26.71.06,2.06.93,4.45-2.23,3.81-1.29-7.09-7.7-20.92-14.49-24.22-9.98-4.85-39.24-2.39-46.61,7.29-2.08,2.73-2.92,12.12-5.95,11.47-3.3-.7-.38-8.66.48-10.4,4.25-8.71,19.07-14.82,28.41-14.66.09-13.11.51-30.86-8.74-40.89l-60.29-1.41c-10.69,2.42-8.77,32.97-8.45,41.79.12,3.53,2.54,13.94,2.09,16.22-.36,1.84-3.47,2.6-4.8.66-1.15-1.67.03-15.33-2.2-15.32-19.77,5.49-38.8,26.4-39.81,47.43-.18,3.64,2.72,15.2,2.23,15.83-.18.23-1.98-.23-2.18,0Z"/>
        <path class="st20" d="M182.21,194.92c6.43,0,3.87,12.82-2.63,14.8-8.6,2.62-16.76-9.76-8.24-12.6.81-.27,10.32-2.2,10.87-2.2Z"/>
        <path class="st20" d="M271.96,189.22c4.65,14.21-16.41,20.84-16.24,5.98.08-6.93,11.29-5.11,16.24-5.98Z"/>
        <path class="st20" d="M217.1,153.47c12.08-3.62,14.65,14.82.95,12.8-7.72-1.14-7.39-10.86-.95-12.8Z"/>
        <path class="st20" d="M207.45,137.05c6.01,3.55-5.5,27.17-4.2-.17,1.27.18,3.21-.42,4.2.17Z"/>
        <path class="st8" d="M238.14,135.8v12c-8.2,2.37-7.5-14.45,0-12Z"/>
        <path class="st8" d="M166.73,179.42c3.07-.73,4.82,11.17,2.16,11.98-5.17,1.56-5.99-11.07-2.16-11.98Z"/>
        <path class="st8" d="M190.14,178.33c.86.54,1.6,10.42,1.1,10.9-8.74,2.67-6.23-14.15-1.1-10.9Z"/>
        <path class="st8" d="M257.77,177.23l1.09,10.91c-6.78,2.64-8.25-11.98-1.09-10.91Z"/>
        <path class="st20" d="M274.69,177.26c5.74,5.32-3.42,14.86-3.92,5.97-.21-3.68.85-4.4,3.92-5.97Z"/>
      </g>
      <g>
        <path class="st0" d="M154.98,12.86c11.73-1.82,32.84,1.1,42.75,7.98,2.87,2,6.06,12.77,6.52,16.38,1.6,12.57-5.16,38.44-16.32,45.65-4.04,2.61-12.74,3.06-14.68,4.95-3.16,3.06-1.48,17.68-4.38,18.54-4.97.04-7.54-7.82-12.19-8.51-6.58-.98-16.7,6.03-26.91,5.1-17.19-1.56-28.25-22.26-26.54-38.26,2.54-23.81,28.63-48.23,51.75-51.83ZM155.26,18.05c-25.42,2.09-54.58,34.97-46.62,61.34.9,2.98,2.31,2.94,3,4.08,1.54,2.52,1.82,2.52,3.27,4.36,1.93,2.46,3,5.92,6.58,8.14,16.49,10.16,31.39-12.05,45.75,3.86.15-4.85-.88-10.56,2.18-14.74s12.98-2.67,18.04-7.05c8.21-7.11,13.58-29.29,12.52-39.83-1.35-13.38-6.49-15.78-18.54-19.07-.4-.11-.99-.91-2.18-1.09-1.63-.25-3.7.09-5.45,0-5.14-1.84-13.48-1.83-18.54,0Z"/>
        <path class="st23" d="M139.86,36.73c.47.27,1.97,4.9,2.46,5.23.73.51,5.3-2.73,6.34.74.72,2.41-2.99,6.72-1.03,10.24-6.69-2.3-7.64.95-13.08,2.18,2.3-3.69-3.55-9.37-3.28-10.35.24-.88,2.48-1.22,2.94-1.96,1.1-1.79,1.66-8.38,5.66-6.08Z"/>
        <path class="st23" d="M134.7,78.94c-.39-.62-.4-9.75-.21-11.34,1.16-9.7,16.45,1.25,16.46,4.41s-13.8,10.78-16.25,6.92Z"/>
        <path class="st15" d="M165.35,25.47c.68.62,2.69-.01,2.94.25.77.77-.96,4.3-.71,5.78.23,1.38,2.61,2.89,1.85,5.08-2.15.24-4.99-.52-6.96.16s-1.07,4.27-4.47,3.11c-2.86-1.79-.36-4.24-.5-7.03-.07-1.48-1.87-6.35-1.1-7.1.7-.69,4.54,1.99,3.23-4.4,5.9-1.43,4.51,3.05,5.72,4.16Z"/>
        <circle class="st23" cx="160.69" cy="57.22" r="6.68"/>
        <path class="st15" d="M183.45,40.02c4.83,2.85-2.6,22.62-4.2-.16,1.27.17,3.21-.42,4.2.16Z"/>
        <path class="st15" d="M125.8,75.84c.4.31,2.9,7.88,4.4,9.24-7.11,6.77-9.23-13.01-4.4-9.24Z"/>
        <path class="st15" d="M120.36,61.66c-5.92-4.01,3.02-10.01,4.36-3.78.98,4.56-.59,3.16-2.18,3.78h-2.18Z"/>
        <circle class="st15" cx="130.72" cy="91.63" r="2.82"/>
        <circle class="st15" cx="183.13" cy="57.89" r="2.79"/>
      </g>
    </g>
  </g>
  <path class="st0" d="M1544.99,57.36c-1.45-.02-2.91.01-4.36,0,.03-.72-.03-1.46,0-2.17,2.03-.24,3.69.01,4.36,2.17Z"/>
  <g>
    <path class="st2" d="M1687.81,449.88c-.23,4.92,1.83,9.96,2.17,14.73,1.26,17.57-3.67,35.71-4.4,53.36-2.45,59.44,1.82,119.33,3.37,178.82.08,3.12.48,17.86-1.29,18.97-19.91-1.06-39.51,2.28-59.29,3.41-66.11,3.78-131.55,7.12-197.39,4.38-5.28-.22-26.78,1.26-29-1.54l1.2-265.6c12.18,2.13,24.35-2.46,36.54-3.26,18.3-1.2,33.08-2.43,51.26-4.35,56.07-5.95,113.58-7.41,170.1-2.19,8.97.83,17.71,3.57,26.72,3.27ZM1682.22,454.38c-6.04.86-11.22-1.69-16.77-2.31-57.64-6.46-118.06-3.43-175.56,2.18-15.42,1.51-29.33,2.22-44.71,3.28-11.94.82-24.39,5.13-36.55,4.34l-2.18,256.23c8.13.34,16.41-.48,24.53,0,78.76,4.75,155.87-3.25,234.44-7.69,5.97-.34,12.08.33,18.04.05-.2-7.08.24-14.22.04-21.31-1.77-61.96-6.22-123.38-2.27-185.35,1.03-16.12,7.12-33.24.99-49.43Z"/>
    <g>
      <path class="st2" d="M1624.56,615.6c3.62-.12,7.28.08,10.9,0,1.02,3.06-1.62,3.49-2.18,4.36l-51.26,4.37c1.99,5.85,1.21,47.19,3.2,48.58,5.38,3.74,44.81-2.87,53.58-3.27,2.81-15.07-1.37-30.89-.07-46.41.53-6.37,2-4.26,3.27-6.54l2.82,56.75c-1.17,1.58-17.37,1.77-20.8,2.14-3.64.4-7.37,1.91-10.94,2.15-6.73.45-24.62,1.11-30.52.02-1.24-.23-2.21-.37-2.57-1.79-1.09-13.04-.79-26.04-1.26-39.08-.12-3.38-2.23-9.11-2.03-12.06.03-.41,1.99-5.56,2.22-5.76.81-.71,13.86.03,16.73-.19,9.66-.74,19.19-2.93,28.91-3.26Z"/>
      <path class="st15" d="M1624.56,615.6c3.43-2.8,8.99.52,12.62-2.11,1.66-1.2,6.8-10.87,8.29-13.52,2.55-4.5,4.08-13.25,9.62-11.63,1.9,1.81-11.13,24.83-13.08,28.34-1.27,2.28-2.74.17-3.27,6.54-2.47-.14-2.83,1.62-3.95,3.14-4.58,6.2-8.27,13.13-11.5,20.12-1.45,3.13-2.98,11.5-5.83,11.72-5.2.39-17.66-16.68-22.93-19.66l-1.59-3.85,3.29-1.13,19.07,17.99c5.08-11.21,11.4-21.29,17.99-31.6.56-.87,3.19-1.3,2.18-4.36-3.62.08-7.29-.13-10.9,0Z"/>
    </g>
    <g>
      <g>
        <path class="st23" d="M1483.65,601.75c41.52-3.58,71.71,41.55,49.76,78.09-18.93,31.51-64.97,34.07-87.51,4.81-25.62-33.24-2.71-79.41,37.75-82.9ZM1499.24,647.13c7.79,5.35,7.95-16.84,2.46-18.33-8.73-2.37-3.45,17.66-2.46,18.33ZM1475.05,630.98c-.98-.82-5.6-.38-6.29,1.67-.78,2.34.55,14.86,2.68,15.57,7.98,2.68,4.44-16.55,3.61-17.24ZM1496.96,651.59c-4.06-1.94-7.26,3.32-9.26,3.32-.76,0-8.81-6.81-8.19-1.69,1.12,9.24,17.5,7.56,17.46-1.63Z"/>
        <path class="st8" d="M1499.24,647.13c-.99-.68-6.27-20.7,2.46-18.33,5.49,1.49,5.33,23.69-2.46,18.33Z"/>
        <path class="st8" d="M1475.05,630.98c.83.7,4.37,19.92-3.61,17.24-2.13-.71-3.46-13.24-2.68-15.57.69-2.05,5.31-2.49,6.29-1.67Z"/>
        <path class="st11" d="M1496.96,651.59c.04,9.18-16.34,10.87-17.46,1.63-.62-5.11,7.43,1.69,8.19,1.69,2.01,0,5.2-5.26,9.26-3.32Z"/>
      </g>
      <g>
        <path class="st17" d="M1482.55,477.44c56.18-6.68,82.82,73.18,31.17,96.58-18.25,8.27-48.38,6.36-61.92-9.74-24.87-29.56-10.4-81.94,30.76-86.84ZM1505.59,500.14c-.84-.56-3.28-.16-4.28.43-3.51,2.07-3.09,17.91,1.84,17.78,5.93-.15,3.66-17.38,2.43-18.21ZM1476.25,520.75c.47-.7,0-14.29,0-16.9,0-1.42-4.58-2.73-6.05-.6-.86,1.25-.83,13.73-.27,15.63.91,3.09,5.43,3.2,6.32,1.86ZM1499.14,527.29c-2.55-2.37-7.31,2.78-8.99,3.53-7.75,3.47-9.19-5.07-12.13-4.55-7.45,1.31,2.46,11.08,9.58,10.77,3.23-.14,14.53-6.97,11.54-9.75Z"/>
        <path class="st7" d="M1499.14,527.29c2.99,2.78-8.31,9.6-11.54,9.75-7.11.31-17.03-9.46-9.58-10.77,2.94-.52,4.38,8.02,12.13,4.55,1.68-.75,6.44-5.9,8.99-3.53Z"/>
        <path class="st7" d="M1505.59,500.14c1.23.82,3.5,18.05-2.43,18.21-4.94.13-5.35-15.71-1.84-17.78,1-.59,3.44-.99,4.28-.43Z"/>
        <path class="st7" d="M1476.25,520.75c-.9,1.33-5.41,1.22-6.32-1.86-.56-1.91-.59-14.39.27-15.63,1.47-2.13,6.05-.82,6.05.6,0,2.61.47,16.2,0,16.9Z"/>
      </g>
    </g>
    <g>
      <path class="st2" d="M1645.16,555.52l-64.29,5.1-3.07-58.27c4.02-2.47,7.8-.73,11.25-1.18,10.57-1.37,20.93-2.4,31.56-3.44,5.11-.5,16.9-4.18,21.41-1.52,3.74,2.21,1.89,24.24,2.12,29.5.45,9.99,3.48,19.83,1.01,29.82ZM1628.93,501.12c-8.46,1.33-17.11,2.4-25.63,3.27-5.91.6-13.35.29-19.08,1.1-7,.98-1.3,4.84-1.09,5.45,1.55,4.45.48,31.96,1.22,39.66.19,2,1.25,4.01.97,6.13,4.42.87,2.77-1.59,3.26-2.19.09-.11.71.05,1.09,0,1.05,3.04,2.02,1.09,2.18,1.09,10.89-.13,27.79-.92,38.17-3.27,3.13-.39,7.56,1.15,9.82-1.09,2.98-2.95.06-10.83-.04-14.67-.19-6.73,1.31-31.86-1.07-35.78-.71-1.17-2.01-.66-2.16-.79-.15-.14.32-1.58-.16-1.99-1.5-1.28-6.08,1.93-7.47,3.08Z"/>
      <path class="st15" d="M1628.93,501.12c1.39-1.14,5.97-4.36,7.47-3.08.48.41.01,1.84.16,1.99-6.94,8.5-16.45,14.46-21.73,24.38.26,1.56,20.07,17.62,22.88,21.9,1.15,1.76,2.16,3.92-.42,3.9l2.55,1.06c-2.26,2.24-6.69.7-9.82,1.09,1.58-.36,3.57-1.56,5.45-1.63l-23.44-22.31c-7.94,7.88-16.18,16.03-21.27,26.12-.24-.08-.82-.04-1.09,0-.39.05-1-.11-1.09,0-3.13.52-2.51-1.3-1.7-3.33,1.51-3.81,9.55-13.14,12.63-16.81,1.38-1.64,8.75-7.74,7.6-9.28-8.44-3.41-15.58-10.28-23.99-14.19-.21-.62-5.91-4.47,1.09-5.45,3.58,2.81,23.93,16.87,26.57,16.44,5.04-6.82,11.62-15.45,18.15-20.8Z"/>
    </g>
  </g>
  <g>
    <g>
      <path class="st6" d="M1406.65,258.91c-.34-2.47-.45-5.34.09-7.78,1.53-6.94,8.97-23.88,12.01-31.6,13.61-34.54,30.81-67.45,50.54-98.84,6.94-5.34,12.61-1.14,16.59,5.04,15.87,24.57,25.69,55.32,36.77,82.08,4.42,10.68,14.86,28.17,17.46,38.14,3.39,13.03-6.29,10.38-16.43,9.9-35.4-1.7-66.03-.88-101.39,2.13-5.18.44-9.96,4.35-15.65.94ZM1497.01,182.75c-3.83,2.45-16.54-6.38-17.45-5.45-3.89,4.02,18.81,16.03,17.45,5.45ZM1456.65,178.39c-.5-.48-4.05.14-4.98,1.01l-13.55,8.24c3,6.19,21.98-5.91,18.52-9.25ZM1490.46,192.55c-7.62-3.57-5.69,15.5-4.34,16.36,6.07,3.86,4.2-13.44,4.34-16.36ZM1450.28,209.83c.16.25,3.08,1.32,3.56,1.21,2.7-.65,2.61-16.58.09-17.37-5.56-1.75-4.32,15.12-3.65,16.17ZM1478.46,220.9c-1.23-13.13-16.57-15.85-17.48-.56-.16,2.67,3.64,2.04,4.27,1.52.86-.72-.15-6.95,4.98-6.46s1.93,7.48,8.23,5.5Z"/>
      <path class="st7" d="M1478.46,220.9c-6.3,1.98-3.32-5.02-8.23-5.5s-4.12,5.74-4.98,6.46c-.63.53-4.43,1.15-4.27-1.52.92-15.29,16.25-12.58,17.48.56Z"/>
      <path class="st7" d="M1450.28,209.83c-.67-1.05-1.91-17.92,3.65-16.17,2.52.79,2.61,16.72-.09,17.37-.47.11-3.4-.96-3.56-1.21Z"/>
      <path class="st19" d="M1456.65,178.39c3.46,3.34-15.52,15.44-18.52,9.25l13.55-8.24c.93-.87,4.48-1.49,4.98-1.01Z"/>
      <path class="st10" d="M1490.46,192.55c-.14,2.92,1.72,20.21-4.34,16.36-1.35-.86-3.28-19.93,4.34-16.36Z"/>
      <path class="st19" d="M1497.01,182.75c1.36,10.58-21.33-1.43-17.45-5.45.9-.93,13.62,7.9,17.45,5.45Z"/>
    </g>
    <g>
      <path class="st5" d="M1544.99,57.36c.36,0,.74-.05,1.09,0,2.53,2.32,6.58,3.37,9.82,4.36.33.1.76-.1,1.09,0,1.38,3.05,5.88,2.58,8.72,3.27.34.08.75-.09,1.09,0,1.95,3.22,6.54,3.43,9.82,4.36.34.1.75-.09,1.09,0,4.5,4.5,12.71,4.91,18.54,6.54.34.09.75-.09,1.09,0,.58,2.01,2.43,2.36,4.36,2.18.34.1.77-.11,1.09,0,1.3,3.13,5.1,2.55,7.63,3.27.34.1.75-.09,1.09,0l4.36,2.18c.34.09.76-.1,1.09,0,1.96,2.4,5.78,2.5,8.72,3.27.34.09.75-.09,1.09,0,8.09,4.17,17.47,7.13,26.17,9.81.33.1.76-.1,1.09,0,1.52,2.98,5.72,3.22,8.72,3.27,2.23,21.81.7,44.03,1.05,66.01.45,28.88,3.76,62.6,2.23,91-2.52,1.05-2.07-4.08-4.36-2.18l-3.4-151.43-111.71-40.42,1.68,166.78c.32,1.68,2.79,1.11,4.36,1.09.36,0,.73,0,1.09,0,8.14,3.45,17.46,5.24,26.17,6.54.36.05.73-.05,1.09,0,2.46,2.13,5.8,1.76,8.72,2.18.36.05.74-.06,1.09,0,6.56,2.82,13.8,3.92,20.72,5.45.35.08.74-.08,1.09,0,9.59,4.37,20.35,5.57,30.54,7.63.35.07.74-.07,1.09,0,1.85,2.08,9.34,2.22,10.64,3.54.18.18,2.81,5.28-.82,4.09-.65-.15-1.53.14-2.18,0l-4.36-1.09c-.34-.08-.75.08-1.09,0-7.03-4.07-15.22-4.91-22.9-6.54-.35-.07-.74.07-1.09,0l-3.27-1.09c-.66-.14-1.52.14-2.18,0l-3.27-1.09c-.35-.07-.74.08-1.09,0l-4.36-1.09c-.35-.08-.74.08-1.09,0l-4.36-1.09c-.35-.08-.74.08-1.09,0l-2.18-1.09c-.35-.08-.74.08-1.09,0l-4.36-1.09c-.34-.08-.75.08-1.09,0l-3.27-1.09c-.34-.08-.75.08-1.09,0l-3.27-1.09c-.34-.08-.75.09-1.09,0l-3.27-1.09c-.34-.09-.75.09-1.09,0l-2.18-1.09c-.34-.08-.75.08-1.09,0-1.97-1.69-5.14-1.93-7.63-2.18-.36-.04-.73.05-1.09,0-1.55-2.07-5.25-.83-7.63-1.09-1.25-.27-2.2-.77-3.27-1.09l-2.18-1.09c-.33-.11-.78.12-1.09,0l-4.36-2.18c-.29-.15-.83.16-1.09,0l-2.18-1.09c-1.97-2.05-2.01-4.41-2.22-7.05-2.07-25.67-.39-54.68-1-80.76-.68-28.9-3.46-58.73-2.23-87.72,1.45.01,2.91-.02,4.36,0Z"/>
      <path class="st0" d="M1644.24,252.53c3.15.64,15.97,4.52,16.84,4.43.96-.1.5-2.15.61-2.24,2.3-1.89,1.84,3.23,4.36,2.18-.62,11.53-5.06,4.82-12,3.27,3.63,1.19,1-3.91.82-4.09-1.3-1.33-8.79-1.46-10.64-3.54Z"/>
      <path class="st0" d="M1596.25,75.9c-5.83-1.63-14.04-2.05-18.54-6.54,6.27,1.76,12.92,3.16,18.54,6.54Z"/>
      <path class="st0" d="M1646.42,259.07c-7.56-1.83-15.65-3.78-22.9-6.54,7.68,1.63,15.87,2.47,22.9,6.54Z"/>
      <path class="st0" d="M1610.43,81.35c-2.53-.72-6.33-.14-7.63-3.27,2.37.8,6.38.07,7.63,3.27Z"/>
      <path class="st0" d="M1625.7,86.8c-2.94-.77-6.77-.87-8.72-3.27,2.61.78,6.53-.04,8.72,3.27Z"/>
      <path class="st0" d="M1576.62,69.35c-3.28-.93-7.86-1.14-9.82-4.36,3.12.84,8.12,1.75,9.82,4.36Z"/>
      <path class="st0" d="M1565.71,64.99c-2.84-.7-7.34-.22-8.72-3.27,2.87.84,6.29.93,8.72,3.27Z"/>
      <path class="st0" d="M1567.9,239.44c-3.05-.4-4.51-.41-7.63-1.09,2.39.26,6.09-.98,7.63,1.09Z"/>
      <path class="st0" d="M1555.9,61.72c-3.23-.99-7.28-2.04-9.82-4.36,4.09.54,6.66,1.3,9.82,4.36Z"/>
      <path class="st0" d="M1662.78,99.88c-3.01-.05-7.2-.29-8.72-3.27,1.76.52,8.21,1.99,8.72,3.27Z"/>
      <path class="st0" d="M1601.7,78.08c-1.94.18-3.78-.17-4.36-2.18,3.16.86,4.11,2.11,4.36,2.18Z"/>
      <path class="st0" d="M1576.62,241.62c-2.3-.57-5.7.28-7.63-2.18,2.49.25,5.66.49,7.63,2.18Z"/>
      <path class="st0" d="M1598.43,247.07c-1.52-.34-2.92-.75-4.36-1.09l4.36,1.09Z"/>
      <path class="st0" d="M1607.16,249.25c-1.49-.33-2.99-.79-4.36-1.09l4.36,1.09Z"/>
      <path class="st0" d="M1651.87,260.16c-1.55-.34-2.91-.74-4.36-1.09l4.36,1.09Z"/>
      <path class="st0" d="M1612.61,250.34c-1.51-.33-2.98-.79-4.36-1.09l4.36,1.09Z"/>
      <path class="st0" d="M1652.96,96.61c-8.71-2.69-18.08-5.64-26.17-9.81,8.93,2.45,17.94,5.59,26.17,9.81Z"/>
      <path class="st0" d="M1616.97,251.44c-1.55-.33-2.93-1.02-3.27-1.09l3.27,1.09Z"/>
      <path class="st0" d="M1588.62,244.89c-1.43-.35-2.69-.95-3.27-1.09l3.27,1.09Z"/>
      <path class="st0" d="M1584.25,243.8c-1.45-.36-2.65-.93-3.27-1.09l3.27,1.09Z"/>
      <path class="st0" d="M1592.98,245.98c-1.47-.36-2.69-.95-3.27-1.09l3.27,1.09Z"/>
      <path class="st0" d="M1622.42,252.53c-1.56-.33-2.94-1.02-3.27-1.09l3.27,1.09Z"/>
      <path class="st0" d="M1553.72,236.17c-2.13-.85-2.71-1.34-4.36-2.18l4.36,2.18Z"/>
      <path class="st0" d="M1548.27,233.99c-.51-.31-1.05.08-2.18-1.09l2.18,1.09Z"/>
      <path class="st0" d="M1615.88,83.53l-4.36-2.18c2.27.61,3.99,2.08,4.36,2.18Z"/>
      <path class="st0" d="M1579.89,242.71c-1.55-.39-2.06-1.06-2.18-1.09l2.18,1.09Z"/>
      <path class="st0" d="M1601.7,248.16c-1.65-.36-2.06-1.06-2.18-1.09l2.18,1.09Z"/>
      <path class="st0" d="M1556.99,237.26c-1.22-.36-1.83-.97-2.18-1.09l2.18,1.09Z"/>
      <path class="st0" d="M1579.89,237.26c-8.71-1.31-18.03-3.09-26.17-6.54,1.74-.03,2.54-.83,5.22-.41,6.25.97,14.94,4.59,20.96,6.95Z"/>
      <path class="st0" d="M1643.14,252.53c-10.19-2.06-20.95-3.26-30.54-7.63,10.16,2.26,20.76,4.28,30.54,7.63Z"/>
      <path class="st0" d="M1611.52,244.89c-6.92-1.53-14.16-2.63-20.72-5.45,6.83,1.12,14.56,2.27,20.72,5.45Z"/>
      <path class="st0" d="M1589.71,239.44c-2.92-.42-6.26-.05-8.72-2.18,2.92.43,6.27.05,8.72,2.18Z"/>
      <path class="st0" d="M1552.63,230.72c-1.58.02-4.04.59-4.36-1.09l4.36,1.09Z"/>
      <g>
        <path class="st6" d="M1599.16,106.84c.5.18.06,1.93,1.87,1.8,6.58-.49,6.9-4.66,15.21,1.23,3.87,2.74,2.42,3.12,1.82,7.45,2.53.5,3.01-2.39,5.06-2.94.41-.11,8.04-.52,8.45-.42.63.15,1.69,4.66,3.21,6.26s7.12,3.48,7.33,4.36c.79,3.28-1.84,5.73-1.93,8.34-.17,5.35,4.18,3.61,4.92,5.75.11.32-.31,5.95-.52,6.73-1.75,6.44-7.74,9.18-11.27,14.43,1.87.06,4.38.92,5.76,2.12.27.24,4.1,5.58,4.22,5.92,3.07,8.34-2.72,12.46-2.41,16.43.27,3.46,4.34,3.95,5.2,5.27,3.92,6.01-3.81,13.58-2.93,16.5.56,1.88,3.76,1.39,4.18,1.87.69.78-.2,4.02.17,5.67.21.95,2.34-.02,2.29,3.41-.08,5.34-4.94,12.49-10.12,14.06-5.46,1.66-16.4.03-21.89-1.76-4.39-1.43-3.54-3.58-4.16-4.05s-7.41,5.1-14.45,3.02c-.46-.13-7.68-4.81-7.94-5.21-1.22-1.89.97-4.46.62-6.54-5.2-.14-8.28,5.84-13.05,7.11-10.56,2.82-20.65-5.65-19.42-16.12.21-1.76,2.46-3.46,1.85-5.54-.54-1.82-4.66-2.4-5.23-4.73-.79-3.25,3.96-5.77-2.34-6.36-.72-5.41,5.35-11.03,5.5-14.26.1-2.31-3.34-7.7-3.3-11.92.05-4.88,4.38-8.99,2.89-15.09-1-4.09-1.2-4.48-1.92-8.77-.9-5.43-2.85-7.67-1.53-13.76.62-2.89,4.48-8.07,4.71-9.45.31-1.78-2.13-3.45-1.84-5.11.16-.88,7.5-6.07,8.65-6.62.77-.37,10.88-3.81,11.48-3.87,4.42-.44,8.49,2.77,12.45,3.8,2.45.64,4.85-.32,8.35.97ZM1604.91,162.08c-10.7,2.42,10.74,14.46,13.14,11.94.15-.16.11-4.12-.06-4.29-.54-.58-13.27-2.22-13.09-7.65ZM1587.52,163.13c-1.48-1.31-17.34,4.87-14.17,9.8,3.18,1.7,16.32-7.9,14.17-9.8ZM1586.43,188.2c-.59-2.96,2.27-17.17-3.8-15.26-2.47.78-4.07,18.65,3.8,15.26ZM1605.53,172.94c-2.29.72-4.33,18.39,2.16,16.34,2.28-.72,3.75-18.2-2.16-16.34ZM1603.88,200.19c2.01-15.03-18.96-13.59-18.55-.67.01.33,4.22,4.13,5.46,2.85.39-.4.76-8.56,5.88-8.68,4.7,2.69.28,8.02,7.21,6.49Z"/>
        <path class="st7" d="M1603.88,200.19c-6.92,1.53-2.51-3.8-7.21-6.49-5.12.12-5.49,8.28-5.88,8.68-1.24,1.27-5.45-2.53-5.46-2.85-.41-12.92,20.56-14.37,18.55.67Z"/>
        <path class="st7" d="M1605.53,172.94c5.91-1.87,4.44,15.61,2.16,16.34-6.49,2.05-4.45-15.61-2.16-16.34Z"/>
        <path class="st19" d="M1586.43,188.2c-7.87,3.39-6.27-14.48-3.8-15.26,6.07-1.91,3.22,12.3,3.8,15.26Z"/>
        <path class="st19" d="M1604.91,162.08c-.18,5.43,12.54,7.07,13.09,7.65.16.17.2,4.13.06,4.29-2.4,2.51-23.84-9.52-13.14-11.94Z"/>
        <path class="st19" d="M1587.52,163.13c2.15,1.91-10.98,11.51-14.17,9.8-3.17-4.93,12.68-11.11,14.17-9.8Z"/>
      </g>
    </g>
  </g>
  <g>
    <path class="st10" d="M61.69,309.4v9.24h-4.68v-8.52c0-2.61-1.2-3.81-3.27-3.81-2.25,0-3.87,1.38-3.87,4.35v7.98h-4.68v-16.14h4.47v1.89c1.26-1.38,3.15-2.13,5.34-2.13,3.81,0,6.69,2.22,6.69,7.14Z"/>
    <path class="st10" d="M64.9,310.57c0-4.86,3.75-8.31,8.88-8.31s8.85,3.45,8.85,8.31-3.72,8.31-8.85,8.31-8.88-3.45-8.88-8.31ZM77.89,310.57c0-2.79-1.77-4.47-4.11-4.47s-4.14,1.68-4.14,4.47,1.8,4.47,4.14,4.47,4.11-1.68,4.11-4.47Z"/>
    <path class="st10" d="M102.25,309.4v9.24h-4.68v-8.52c0-2.61-1.2-3.81-3.27-3.81-2.25,0-3.87,1.38-3.87,4.35v7.98h-4.68v-16.14h4.47v1.89c1.26-1.38,3.15-2.13,5.34-2.13,3.81,0,6.69,2.22,6.69,7.14Z"/>
    <path class="st10" d="M105.88,308.32h8.49v3.75h-8.49v-3.75Z"/>
    <path class="st10" d="M117.49,297.64c0-1.47,1.17-2.61,2.91-2.61s2.91,1.08,2.91,2.52c0,1.56-1.17,2.7-2.91,2.7s-2.91-1.14-2.91-2.61ZM118.06,302.5h4.68v16.14h-4.68v-16.14Z"/>
    <path class="st10" d="M143.59,309.4v9.24h-4.68v-8.52c0-2.61-1.2-3.81-3.27-3.81-2.25,0-3.87,1.38-3.87,4.35v7.98h-4.68v-16.14h4.47v1.89c1.26-1.38,3.15-2.13,5.34-2.13,3.81,0,6.69,2.22,6.69,7.14Z"/>
    <path class="st10" d="M146.8,310.57c0-4.86,3.75-8.31,9-8.31,3.39,0,6.06,1.47,7.23,4.11l-3.63,1.95c-.87-1.53-2.16-2.22-3.63-2.22-2.37,0-4.23,1.65-4.23,4.47s1.86,4.47,4.23,4.47c1.47,0,2.76-.66,3.63-2.22l3.63,1.98c-1.17,2.58-3.84,4.08-7.23,4.08-5.25,0-9-3.45-9-8.31Z"/>
    <path class="st10" d="M165.61,296.38h4.68v22.26h-4.68v-22.26Z"/>
    <path class="st10" d="M190.9,302.5v16.14h-4.44v-1.92c-1.23,1.41-3.03,2.16-5.01,2.16-4.05,0-6.9-2.28-6.9-7.26v-9.12h4.68v8.43c0,2.7,1.2,3.9,3.27,3.9s3.72-1.38,3.72-4.35v-7.98h4.68Z"/>
    <path class="st10" d="M193.69,317.13l1.56-3.36c1.44.93,3.63,1.56,5.61,1.56,2.16,0,2.97-.57,2.97-1.47,0-2.64-9.75.06-9.75-6.39,0-3.06,2.76-5.22,7.47-5.22,2.22,0,4.68.51,6.21,1.41l-1.56,3.33c-1.59-.9-3.18-1.2-4.65-1.2-2.1,0-3,.66-3,1.5,0,2.76,9.75.09,9.75,6.45,0,3-2.79,5.13-7.62,5.13-2.73,0-5.49-.75-6.99-1.74Z"/>
    <path class="st10" d="M210.61,297.64c0-1.47,1.17-2.61,2.91-2.61s2.91,1.08,2.91,2.52c0,1.56-1.17,2.7-2.91,2.7s-2.91-1.14-2.91-2.61ZM211.18,302.5h4.68v16.14h-4.68v-16.14Z"/>
    <path class="st10" d="M236.23,302.5l-6.81,16.14h-4.83l-6.78-16.14h4.83l4.47,10.98,4.62-10.98h4.5Z"/>
    <path class="st10" d="M253.42,311.88h-12.21c.45,2.01,2.16,3.24,4.62,3.24,1.71,0,2.94-.51,4.05-1.56l2.49,2.7c-1.5,1.71-3.75,2.61-6.66,2.61-5.58,0-9.21-3.51-9.21-8.31s3.69-8.31,8.61-8.31,8.4,3.18,8.4,8.37c0,.36-.06.87-.09,1.26ZM241.15,309.16h7.95c-.33-2.04-1.86-3.36-3.96-3.36s-3.66,1.29-3.99,3.36Z"/>
    <path class="st10" d="M25.12,346.57c0-4.86,3.75-8.31,9-8.31,3.39,0,6.06,1.47,7.23,4.11l-3.63,1.95c-.87-1.53-2.16-2.22-3.63-2.22-2.37,0-4.23,1.65-4.23,4.47s1.86,4.47,4.23,4.47c1.47,0,2.76-.66,3.63-2.22l3.63,1.98c-1.17,2.58-3.84,4.08-7.23,4.08-5.25,0-9-3.45-9-8.31Z"/>
    <path class="st10" d="M42.64,346.57c0-4.86,3.75-8.31,8.88-8.31s8.85,3.45,8.85,8.31-3.72,8.31-8.85,8.31-8.88-3.45-8.88-8.31ZM55.63,346.57c0-2.79-1.77-4.47-4.11-4.47s-4.14,1.68-4.14,4.47,1.8,4.47,4.14,4.47,4.11-1.68,4.11-4.47Z"/>
    <path class="st10" d="M90.76,345.4v9.24h-4.68v-8.52c0-2.61-1.17-3.81-3.06-3.81-2.1,0-3.57,1.35-3.57,4.23v8.1h-4.68v-8.52c0-2.61-1.11-3.81-3.06-3.81-2.07,0-3.54,1.35-3.54,4.23v8.1h-4.68v-16.14h4.47v1.86c1.2-1.38,3-2.1,5.07-2.1,2.25,0,4.17.87,5.31,2.64,1.29-1.65,3.39-2.64,5.82-2.64,3.84,0,6.6,2.22,6.6,7.14Z"/>
    <path class="st10" d="M122.23,345.4v9.24h-4.68v-8.52c0-2.61-1.17-3.81-3.06-3.81-2.1,0-3.57,1.35-3.57,4.23v8.1h-4.68v-8.52c0-2.61-1.11-3.81-3.06-3.81-2.07,0-3.54,1.35-3.54,4.23v8.1h-4.68v-16.14h4.47v1.86c1.2-1.38,3-2.1,5.07-2.1,2.25,0,4.17.87,5.31,2.64,1.29-1.65,3.39-2.64,5.82-2.64,3.84,0,6.6,2.22,6.6,7.14Z"/>
    <path class="st10" d="M142.69,338.5v16.14h-4.44v-1.92c-1.23,1.41-3.03,2.16-5.01,2.16-4.05,0-6.9-2.28-6.9-7.26v-9.12h4.68v8.43c0,2.7,1.2,3.9,3.27,3.9s3.72-1.38,3.72-4.35v-7.98h4.68Z"/>
    <path class="st10" d="M163.54,345.4v9.24h-4.68v-8.52c0-2.61-1.2-3.81-3.27-3.81-2.25,0-3.87,1.38-3.87,4.35v7.98h-4.68v-16.14h4.47v1.89c1.26-1.38,3.15-2.13,5.34-2.13,3.81,0,6.69,2.22,6.69,7.14Z"/>
    <path class="st10" d="M167.2,333.64c0-1.47,1.17-2.61,2.91-2.61s2.91,1.08,2.91,2.52c0,1.56-1.17,2.7-2.91,2.7s-2.91-1.14-2.91-2.61ZM167.77,338.5h4.68v16.14h-4.68v-16.14Z"/>
    <path class="st10" d="M175.6,346.57c0-4.86,3.75-8.31,9-8.31,3.39,0,6.06,1.47,7.23,4.11l-3.63,1.95c-.87-1.53-2.16-2.22-3.63-2.22-2.37,0-4.23,1.65-4.23,4.47s1.86,4.47,4.23,4.47c1.47,0,2.76-.66,3.63-2.22l3.63,1.98c-1.17,2.58-3.84,4.08-7.23,4.08-5.25,0-9-3.45-9-8.31Z"/>
    <path class="st10" d="M208.81,345.43v9.21h-4.38v-2.01c-.87,1.47-2.55,2.25-4.92,2.25-3.78,0-6.03-2.1-6.03-4.89s2.01-4.83,6.93-4.83h3.72c0-2.01-1.2-3.18-3.72-3.18-1.71,0-3.48.57-4.65,1.5l-1.68-3.27c1.77-1.26,4.38-1.95,6.96-1.95,4.92,0,7.77,2.28,7.77,7.17ZM204.13,349.54v-1.65h-3.21c-2.19,0-2.88.81-2.88,1.89,0,1.17.99,1.95,2.64,1.95,1.56,0,2.91-.72,3.45-2.19Z"/>
    <path class="st10" d="M223.45,353.85c-.96.69-2.37,1.02-3.81,1.02-3.81,0-6.03-1.95-6.03-5.79v-6.63h-2.49v-3.6h2.49v-3.93h4.68v3.93h4.02v3.6h-4.02v6.57c0,1.38.75,2.13,2.01,2.13.69,0,1.38-.21,1.89-.6l1.26,3.3Z"/>
    <path class="st10" d="M225.52,333.64c0-1.47,1.17-2.61,2.91-2.61s2.91,1.08,2.91,2.52c0,1.56-1.17,2.7-2.91,2.7s-2.91-1.14-2.91-2.61ZM226.09,338.5h4.68v16.14h-4.68v-16.14Z"/>
    <path class="st10" d="M233.92,346.57c0-4.86,3.75-8.31,8.88-8.31s8.85,3.45,8.85,8.31-3.72,8.31-8.85,8.31-8.88-3.45-8.88-8.31ZM246.91,346.57c0-2.79-1.77-4.47-4.11-4.47s-4.14,1.68-4.14,4.47,1.8,4.47,4.14,4.47,4.11-1.68,4.11-4.47Z"/>
    <path class="st10" d="M271.27,345.4v9.24h-4.68v-8.52c0-2.61-1.2-3.81-3.27-3.81-2.25,0-3.87,1.38-3.87,4.35v7.98h-4.68v-16.14h4.47v1.89c1.26-1.38,3.15-2.13,5.34-2.13,3.81,0,6.69,2.22,6.69,7.14Z"/>
  </g>
  <g>
    <path class="st9" d="M524.63,111.07c.16-.16,1.74.55,2.16-.78,1.52-4.84,1.61-11.01,4.54-15.97,7.93-13.42,28.6-24.17,44.06-23.65,14.64.49,30.08,4.14,34.86,19.7,10.13-2.35-4.65-7.84,4.13-13.33,8.08-5.05,22.97-5.05,29.71,2.36,6.31,6.95-1.86,6.68-7.06,10.48-1.99,1.46-10,8.31-4.97,10.27,2.56,1,4.78-4.08,7.16-5.91,9.55-7.31,28.47-10.97,38.14-2.31,2.07,1.86,8.59,12.29,9.35,12.45.66.14,3.75-.86,3.72-1.57l-3.31-8.1c17.67-3.54,38.61,5.56,37.08,26.17,1.06-.18,4.08.26,4.35,0,.35-.34.18-8.32,0-9.82.95.19,2.55-.27,3.27,0,.5.19.69,2.05,2.73,2.28,4.98.56,9.84-2,16.1-.92,12.69,2.17,19.25,11.96,22.31,23.48,1.45,5.48-1.13,11.87,6.85,10.06.29,1.21-.29,2.49.56,4.3,1.3,2.75,6.19,5.42,7.07,8.79-7.34-6.79-23.12-13.26-33.05-9.6-2.52.93-2.4,5.15-1.29,5.25,13.66-3.8,31.09,3.35,37.06,16.34,4.11,8.94,1.39,24.45-2.51,33.46-2.49,5.75-9.72,11.8-7.84,17.78-5.47,5.32-17.09,18.2-23.56,20.61-9.97,3.72-16.46-2.91-20.39-1.91-1.78.45-6.77,6.8-8.97,8.54-11.32,8.94-15.42,6.2-28.34,5.49-7.02-.39-13.43.87-20.16-2.19.09-.05-.17-1.5.31-1.83,4.91-3.43,8.73-7.06,11.91-12.66,7.81-13.76,7.63-41.83.92-55.89-23.19-48.61-85.97-49.5-110.07-.9-6.88,13.87-11.57,37.12-4.95,51.56.9,1.96,12.2,17.39,13.54,18.63-16.58,2.72-34.98,8.25-51.86,6.6-8.38-.82-15.54-9.31-19.64-9.91-3.01-.44-5.48,1.87-8.63,2.25-29.14,3.58-44.34-19.82-49.65-44.74,9.87-2.91,1.63-17.78,1.09-23.99-1.36-15.65,12.86-44.14,25.07-53.98,18.83-15.19,42.62-9.63,56.14,9.32,2.36,3.32.91,7.69,7.12,6.49-2.82-16.82-20.3-23.63-33.8-30.52,2.46-.24,5.95.55,8,.02,1.22-.32.58-2.06.72-2.2ZM574.8,89.25c-1.06-1.91-4.86-15.12-7.62-13.06-2.08,2.23,1.06,13.24,2.27,14.09,1.07.76,3.92-1.02,5.35-1.03ZM560.5,81.75c-.65-.53-3.07.07-4.24-.12-1.52,3.47,3.64,15.85,7.62,11.99.44-.43-2.91-11.47-3.38-11.87ZM606.58,105.52c-.34-.26-.63-2.19-1.75-3.17-11.11-9.71-26.99-10.26-37.7.51-1.41,1.41-5.69,8.41-5.42,9.83.25,1.26,3.33,2.29,4.32,1.62.41-.28,2.51-6.55,4.94-8.7,8.35-7.39,24.22-8.09,31.07,1.68.69,1.8-2.42,2.15-3.74,3.82-1.19,1.51-7.2,9.84-3.31,10.86s5.53-7.4,8.84-9.67c7.77-5.33,18.13-4.69,23.77,3.23.65.91,3.06,9.55,6.08,6.45,3.22-3.31-5.15-13.09-8.36-15.08-7.39-4.57-17.97-.8-18.74-1.37ZM647.87,100.16c-.57.55-1.29,14.91,4.86,13.08,2.86-.85,2.15-11-.5-12.54-.95-.55-4.01-.88-4.37-.54ZM667.39,100.25c-1.21-.86-5.85,1.12-6.33,2.81-.43,1.52,2.94,10.05,3.82,10.25,7.85,1.79,4.37-11.73,2.5-13.06ZM587.77,105.74c-.65-.54-3.06.08-4.24-.13l1.1,10.91c7.85,3.39,4.06-10.03,3.14-10.78ZM581.34,106.7c-.14-.14-2.92-.11-3.67.14-5.38,1.79,2.52,18.44,4.68,10.07.13-.5-.64-9.86-1-10.22ZM720.93,129.6c-.89-25.12-26.52-28.55-44.61-16.8-2.04,1.33-10.53,7.38-7.72,10.26,1.11,1.14,13.62-8.55,16.87-9.83,9.01-3.55,23.67-3.54,28.39,6.55,2.16,4.61.58,11.47,7.07,9.82ZM606.48,129.54c.92.76,4.68.14,5.29-1.74.54-1.68-1.03-10.93-2.63-11.28-5.07-1.1-4,11.93-2.65,13.02ZM739.48,130.69c6.36,2.56,11.24-13.15,5.86-14.12-4.4-.07-7.14,12.87-5.86,14.12ZM620.59,117.61c-.53-.51-4.73-.25-5.35,1.79-1,3.27,1.58,11.27,6.45,9.11.39-.38-.7-10.52-1.1-10.9ZM698.19,130.51c.16.25,3.08,1.32,3.56,1.21,2.68-.65,2.59-13.32.09-14.1-5.21-1.64-4.47,11.6-3.65,12.9ZM694.76,131.78c-1.99-5.33,1.64-14.54-6.53-13.08-.55.54.67,12.58,1.14,13.03.5.48,4.12-.17,5.39.05ZM750.47,134.94c4.05,5.42,11.62-10.58,8.67-12.46-1.01-.65-4.43-.95-5.36-.36-.56.36-4.1,11.78-3.32,12.82ZM518.08,151.41c-.28-4.52,2.09-22.17-5.88-19.54-3.46,1.14-3.25,22.59,5.88,19.54ZM498.31,135.2c-9.18-5.8-7.67,18.31-1.33,19.38,6.24,1.06,3.08-18.28,1.33-19.38ZM712.15,142.74c-5.19-4.23-9.77,11.45-3.57,13.95,7.12,2.88,4.52-13.18,3.57-13.95ZM725.24,142.74c-6.15-5.03-7.41,13.73-3.62,15.08,7.45,2.66,4.48-14.38,3.62-15.08ZM579.16,167.76c-7.62-24.17-46.22-13.74-58.88.55-2.13,2.4-9.07,13.87-1.7,11.39,1.14-.38,2.98-5.66,4.52-7.48,8.59-10.1,33.33-19.18,45.1-11.5,4.54,2.96,4.57,8.78,10.95,7.03ZM760.95,167.93c-3.98,1.14-3.82,14.24-2.45,16.23,5.99,8.7,12.26-19.04,2.45-16.23ZM560.52,185.1c2.5-3.44.46-17.75-4.69-16.17-4.58,1.4-2.67,19.2,4.69,16.17ZM772.35,172.28c-.76,1.21-1.39,15.55,3.53,15.04,4.03-.7,4.79-11.4,3.78-14.49-.95-2.91-6.64-1.61-7.31-.55ZM544.16,187.28c2.4-1.63.49-13.65-2.81-15-8.31-3.39-4.05,19.64,2.81,15Z"/>
    <path class="st14" d="M524.63,111.07c-2.62-.16-3.21-.58-2.85-3.29,3.22-24.28,29.92-43.12,53.62-42.55,7.56.18,17.43,2.04,24.37,5.06,2.21.96,5.27,4.37,7.36,4.57,1.94.19,10.77-5.35,15.39-6.03,8.2-1.2,18.76.08,24.81,6.25,1.82,1.86,3.16,6.33,4.83,7.08.8.36,13.33-.92,17.58-.04s11.86,4.97,13.13,9.26c15.66-7.7,43.51.32,45.7,19.69.17,1.5.35,9.48,0,9.82-.28.27-3.3-.18-4.35,0,1.53-20.6-19.41-29.7-37.08-26.17l3.31,8.1c.03.71-3.07,1.71-3.72,1.57-.76-.16-7.27-10.59-9.35-12.45-9.67-8.66-28.59-5-38.14,2.31-2.38,1.82-4.6,6.9-7.16,5.91-5.03-1.96,2.98-8.82,4.97-10.27,5.2-3.8,13.37-3.53,7.06-10.48-6.73-7.41-21.63-7.41-29.71-2.36-8.78,5.49,6,10.98-4.13,13.33-4.77-15.56-20.22-19.21-34.86-19.7-15.46-.52-36.14,10.23-44.06,23.65-2.93,4.96-3.02,11.13-4.54,15.97-.42,1.33-2,.61-2.16.78Z"/>
    <path class="st11" d="M515.91,113.25c13.5,6.9,30.98,13.7,33.8,30.52-6.21,1.19-4.76-3.18-7.12-6.49-13.52-18.96-37.3-24.51-56.14-9.32-12.21,9.85-26.43,38.33-25.07,53.98h-2.18c-1.2-1.84-2.73.57-2.16-7.08,1.18-15.86,12.62-39.06,24.55-49.59,11.49-10.14,19.72-10.61,34.32-12.03Z"/>
    <path class="st14" d="M787.46,159.04c17.09,15.8,10.97,45.65-3.77,61.13-1.52,1.6-3.55,1.81-3.86,2.11-1.87-5.98,5.36-12.03,7.84-17.78,3.9-9.01,6.62-24.52,2.51-33.46-5.97-12.99-23.4-20.14-37.06-16.34-1.11-.11-1.23-4.33,1.29-5.25,9.93-3.66,25.71,2.81,33.05,9.6Z"/>
    <path class="st14" d="M779.83,145.96c-7.97,1.82-5.39-4.58-6.85-10.06-3.06-11.52-9.62-21.3-22.31-23.48-6.26-1.07-11.12,1.48-16.1.92-2.04-.23-2.23-2.09-2.73-2.28,1.38-.39,2.04-3.04,2.96-3.24,11.55-2.52,23.67-.49,32.93,7.15s9.47,20.11,12.09,30.98Z"/>
    <path class="st15" d="M461.38,181.93c.54,6.2,8.78,21.07-1.09,23.99-1.24-5.83-.43-22.97-1.09-23.99h2.18Z"/>
    <path class="st8" d="M606.58,105.52c.77.58,11.35-3.2,18.74,1.37,3.2,1.98,11.58,11.76,8.36,15.08-3.02,3.1-5.43-5.53-6.08-6.45-5.64-7.92-16-8.55-23.77-3.23-3.32,2.28-4.79,10.73-8.84,9.67s2.12-9.34,3.31-10.86c1.32-1.67,4.43-2.02,3.74-3.82-6.86-9.77-22.73-9.07-31.07-1.68-2.43,2.15-4.53,8.42-4.94,8.7-.99.67-4.07-.36-4.32-1.62-.28-1.42,4.01-8.42,5.42-9.83,10.72-10.76,26.59-10.22,37.7-.51,1.12.98,1.41,2.92,1.75,3.17Z"/>
    <path class="st8" d="M579.16,167.76c-6.38,1.75-6.41-4.07-10.95-7.03-11.78-7.68-36.51,1.4-45.1,11.5-1.54,1.81-3.38,7.09-4.52,7.48-7.38,2.48-.43-8.99,1.7-11.39,12.66-14.29,51.26-24.73,58.88-.55Z"/>
    <path class="st8" d="M720.93,129.6c-6.49,1.65-4.91-5.21-7.07-9.82-4.73-10.1-19.38-10.1-28.39-6.55-3.25,1.28-15.76,10.97-16.87,9.83-2.81-2.87,5.68-8.93,7.72-10.26,18.1-11.75,43.72-8.32,44.61,16.8Z"/>
    <path class="st8" d="M498.31,135.2c1.75,1.1,4.91,20.44-1.33,19.38-6.34-1.07-7.85-25.18,1.33-19.38Z"/>
    <path class="st8" d="M518.08,151.41c-9.13,3.05-9.34-18.4-5.88-19.54,7.97-2.63,5.61,15.02,5.88,19.54Z"/>
    <path class="st8" d="M760.95,167.93c9.81-2.8,3.54,24.93-2.45,16.23-1.37-1.99-1.53-15.1,2.45-16.23Z"/>
    <path class="st8" d="M772.35,172.28c.67-1.06,6.36-2.36,7.31.55,1.01,3.09.25,13.79-3.78,14.49-4.92.52-4.29-13.83-3.53-15.04Z"/>
    <path class="st8" d="M560.52,185.1c-7.36,3.03-9.27-14.77-4.69-16.17,5.15-1.57,7.2,12.73,4.69,16.17Z"/>
    <path class="st8" d="M544.16,187.28c-6.86,4.65-11.11-18.39-2.81-15,3.3,1.35,5.21,13.37,2.81,15Z"/>
    <path class="st8" d="M712.15,142.74c.94.77,3.55,16.83-3.57,13.95-6.19-2.5-1.61-18.18,3.57-13.95Z"/>
    <path class="st8" d="M725.24,142.74c.85.7,3.83,17.74-3.62,15.08-3.79-1.35-2.53-20.11,3.62-15.08Z"/>
    <path class="st8" d="M750.47,134.94c-.78-1.04,2.75-12.46,3.32-12.82.93-.59,4.35-.29,5.36.36,2.94,1.89-4.63,17.89-8.67,12.46Z"/>
    <path class="st8" d="M667.39,100.25c1.87,1.33,5.35,14.85-2.5,13.06-.89-.2-4.25-8.73-3.82-10.25.48-1.69,5.12-3.67,6.33-2.81Z"/>
    <path class="st8" d="M739.48,130.69c-1.28-1.24,1.46-14.18,5.86-14.12,5.38.97.5,16.67-5.86,14.12Z"/>
    <path class="st11" d="M647.87,100.16c.36-.34,3.42,0,4.37.54,2.65,1.53,3.35,11.68.5,12.54-6.16,1.84-5.44-12.53-4.86-13.08Z"/>
    <path class="st11" d="M698.19,130.51c-.83-1.3-1.56-14.54,3.65-12.9,2.5.79,2.59,13.46-.09,14.1-.47.11-3.4-.96-3.56-1.21Z"/>
    <path class="st8" d="M606.48,129.54c-1.34-1.1-2.42-14.13,2.65-13.02,1.6.35,3.18,9.6,2.63,11.28-.61,1.88-4.36,2.5-5.29,1.74Z"/>
    <path class="st11" d="M694.76,131.78c-1.28-.22-4.89.43-5.39-.05-.47-.45-1.69-12.49-1.14-13.03,8.18-1.46,4.54,7.75,6.53,13.08Z"/>
    <path class="st8" d="M574.8,89.25c-1.43.01-4.28,1.79-5.35,1.03-1.21-.86-4.35-11.86-2.27-14.09,2.77-2.05,6.56,11.16,7.62,13.06Z"/>
    <path class="st8" d="M560.5,81.75c.48.39,3.83,11.44,3.38,11.87-3.99,3.86-9.14-8.52-7.62-11.99,1.17.2,3.59-.41,4.24.12Z"/>
    <path class="st11" d="M581.34,106.7c.36.36,1.13,9.72,1,10.22-2.16,8.36-10.06-8.29-4.68-10.07.75-.25,3.53-.28,3.67-.14Z"/>
    <path class="st8" d="M620.59,117.61c.39.38,1.49,10.52,1.1,10.9-4.87,2.15-7.45-5.84-6.45-9.11.62-2.04,4.83-2.3,5.35-1.79Z"/>
    <path class="st8" d="M587.77,105.74c.92.75,4.71,14.17-3.14,10.78l-1.1-10.91c1.18.2,3.58-.41,4.24.13Z"/>
    <g>
      <path class="st12" d="M590.07,251.71c-1.34-1.24-12.64-16.67-13.54-18.63-6.63-14.44-1.93-37.69,4.95-51.56,24.1-48.6,86.88-47.71,110.07.9,6.7,14.06,6.89,42.13-.92,55.89-3.18,5.6-7,9.23-11.91,12.66-.48.33-.22,1.78-.31,1.83-1.63.96-18.25,9.35-19.31,9.59-8.99,2-37.2,1.53-46.41-.04-1.99-.34-21.37-9.48-22.62-10.64ZM658.38,183.11c-6.31,1.07-5.39,23.94.93,23.94,7.91,0,5.11-24.97-.93-23.94ZM613.72,184.22c-6.03,1.55-6.12,24.69,1.93,23.93s5.58-25.86-1.93-23.93ZM650.04,213.56c-3.82,1.61-21.48.23-22.73,2.34-.58.99.01,2.92-.17,4.19.76.82,20.86-1.36,22.2-2.14,1.52-.88.45-3.07.7-4.4Z"/>
      <path class="st10" d="M613.72,184.22c7.5-1.94,10.12,23.16,1.93,23.93s-7.96-22.37-1.93-23.93Z"/>
      <path class="st10" d="M658.38,183.11c6.05-1.03,8.85,23.94.93,23.94-6.32,0-7.24-22.86-.93-23.94Z"/>
      <path class="st7" d="M650.04,213.56c-.25,1.33.82,3.52-.7,4.4-1.35.78-21.44,2.95-22.2,2.14.18-1.27-.42-3.21.17-4.19,1.25-2.11,18.91-.73,22.73-2.34Z"/>
    </g>
  </g>
  <g>
    <path class="st10" d="M581.31,296.38h4.68v22.26h-4.68v-22.26Z"/>
    <path class="st10" d="M604.62,309.43v9.21h-4.38v-2.01c-.87,1.47-2.55,2.25-4.92,2.25-3.78,0-6.03-2.1-6.03-4.89s2.01-4.83,6.93-4.83h3.72c0-2.01-1.2-3.18-3.72-3.18-1.71,0-3.48.57-4.65,1.5l-1.68-3.27c1.77-1.26,4.38-1.95,6.96-1.95,4.92,0,7.77,2.28,7.77,7.17ZM599.94,313.54v-1.65h-3.21c-2.19,0-2.88.81-2.88,1.89,0,1.17.99,1.95,2.64,1.95,1.56,0,2.91-.72,3.45-2.19Z"/>
    <path class="st10" d="M607.83,310.57c0-4.86,3.75-8.31,9-8.31,3.39,0,6.06,1.47,7.23,4.11l-3.63,1.95c-.87-1.53-2.16-2.22-3.63-2.22-2.37,0-4.23,1.65-4.23,4.47s1.86,4.47,4.23,4.47c1.47,0,2.76-.66,3.63-2.22l3.63,1.98c-1.17,2.58-3.84,4.08-7.23,4.08-5.25,0-9-3.45-9-8.31Z"/>
    <path class="st10" d="M633.57,312.31l-2.25,2.22v4.11h-4.68v-22.26h4.68v12.6l6.84-6.48h5.58l-6.72,6.84,7.32,9.3h-5.67l-5.1-6.33Z"/>
    <path class="st10" d="M653.73,310.57c0-4.86,3.75-8.31,8.88-8.31s8.85,3.45,8.85,8.31-3.72,8.31-8.85,8.31-8.88-3.45-8.88-8.31ZM666.72,310.57c0-2.79-1.77-4.47-4.11-4.47s-4.14,1.68-4.14,4.47,1.8,4.47,4.14,4.47,4.11-1.68,4.11-4.47Z"/>
    <path class="st10" d="M679.71,302.86h4.14v3.6h-4.02v12.18h-4.68v-12.18h-2.49v-3.6h2.49v-.72c0-3.63,2.22-6,6.24-6,1.32,0,2.7.27,3.57.87l-1.23,3.39c-.51-.36-1.17-.57-1.89-.57-1.38,0-2.13.75-2.13,2.34v.69Z"/>
    <path class="st10" d="M565.61,346.57c0,5.07-3.51,8.31-8.04,8.31-2.01,0-3.66-.63-4.86-1.95v7.53h-4.68v-21.96h4.47v1.86c1.17-1.41,2.91-2.1,5.07-2.1,4.53,0,8.04,3.24,8.04,8.31ZM560.87,346.57c0-2.79-1.77-4.47-4.11-4.47s-4.11,1.68-4.11,4.47,1.77,4.47,4.11,4.47,4.11-1.68,4.11-4.47Z"/>
    <path class="st10" d="M584.45,347.89h-12.21c.45,2.01,2.16,3.24,4.62,3.24,1.71,0,2.94-.51,4.05-1.56l2.49,2.7c-1.5,1.71-3.75,2.61-6.66,2.61-5.58,0-9.21-3.51-9.21-8.31s3.69-8.31,8.61-8.31,8.4,3.18,8.4,8.37c0,.36-.06.87-.09,1.26ZM572.18,345.16h7.95c-.33-2.04-1.86-3.36-3.96-3.36s-3.66,1.29-3.99,3.36Z"/>
    <path class="st10" d="M603.38,347.89h-12.21c.45,2.01,2.16,3.24,4.62,3.24,1.71,0,2.94-.51,4.05-1.56l2.49,2.7c-1.5,1.71-3.75,2.61-6.66,2.61-5.58,0-9.21-3.51-9.21-8.31s3.69-8.31,8.61-8.31,8.4,3.18,8.4,8.37c0,.36-.06.87-.09,1.26ZM591.11,345.16h7.95c-.33-2.04-1.86-3.36-3.96-3.36s-3.66,1.29-3.99,3.36Z"/>
    <path class="st10" d="M616.61,338.26v4.32c-.39-.03-.69-.06-1.05-.06-2.58,0-4.29,1.41-4.29,4.5v7.62h-4.68v-16.14h4.47v2.13c1.14-1.56,3.06-2.37,5.55-2.37Z"/>
    <path class="st10" d="M645.59,346.57c0,5.07-3.51,8.31-8.04,8.31-2.01,0-3.66-.63-4.86-1.95v7.53h-4.68v-21.96h4.47v1.86c1.17-1.41,2.91-2.1,5.07-2.1,4.53,0,8.04,3.24,8.04,8.31ZM640.85,346.57c0-2.79-1.77-4.47-4.11-4.47s-4.11,1.68-4.11,4.47,1.77,4.47,4.11,4.47,4.11-1.68,4.11-4.47Z"/>
    <path class="st10" d="M662.72,345.43v9.21h-4.38v-2.01c-.87,1.47-2.55,2.25-4.92,2.25-3.78,0-6.03-2.1-6.03-4.89s2.01-4.83,6.93-4.83h3.72c0-2.01-1.2-3.18-3.72-3.18-1.71,0-3.48.57-4.65,1.5l-1.68-3.27c1.77-1.26,4.38-1.95,6.96-1.95,4.92,0,7.77,2.28,7.77,7.17ZM658.04,349.54v-1.65h-3.21c-2.19,0-2.88.81-2.88,1.89,0,1.17.99,1.95,2.64,1.95,1.56,0,2.91-.72,3.45-2.19Z"/>
    <path class="st10" d="M676.97,338.26v4.32c-.39-.03-.69-.06-1.05-.06-2.58,0-4.29,1.41-4.29,4.5v7.62h-4.68v-16.14h4.47v2.13c1.14-1.56,3.06-2.37,5.55-2.37Z"/>
    <path class="st10" d="M679.19,333.64c0-1.47,1.17-2.61,2.91-2.61s2.91,1.08,2.91,2.52c0,1.56-1.17,2.7-2.91,2.7s-2.91-1.14-2.91-2.61ZM679.76,338.5h4.68v16.14h-4.68v-16.14Z"/>
    <path class="st10" d="M699.2,353.86c-.96.69-2.37,1.02-3.81,1.02-3.81,0-6.03-1.95-6.03-5.79v-6.63h-2.49v-3.6h2.49v-3.93h4.68v3.93h4.02v3.6h-4.02v6.57c0,1.38.75,2.13,2.01,2.13.69,0,1.38-.21,1.89-.6l1.26,3.3Z"/>
    <path class="st10" d="M717.56,338.5l-7.29,17.13c-1.56,3.9-3.78,5.07-6.69,5.07-1.65,0-3.45-.54-4.5-1.47l1.71-3.33c.72.63,1.71,1.02,2.64,1.02,1.29,0,2.01-.57,2.64-2.01l.06-.15-6.99-16.26h4.83l4.53,10.95,4.56-10.95h4.5Z"/>
  </g>
  <g>
    <path class="st10" d="M1003.76,317.86c-.96.69-2.37,1.02-3.81,1.02-3.81,0-6.03-1.95-6.03-5.79v-6.63h-2.49v-3.6h2.49v-3.93h4.68v3.93h4.02v3.6h-4.02v6.57c0,1.38.75,2.13,2.01,2.13.69,0,1.38-.21,1.89-.6l1.26,3.3Z"/>
    <path class="st10" d="M1004.69,310.57c0-4.86,3.75-8.31,8.88-8.31s8.85,3.45,8.85,8.31-3.72,8.31-8.85,8.31-8.88-3.45-8.88-8.31ZM1017.68,310.57c0-2.79-1.77-4.47-4.11-4.47s-4.14,1.68-4.14,4.47,1.8,4.47,4.14,4.47,4.11-1.68,4.11-4.47Z"/>
    <path class="st10" d="M1035.29,318.63l-3.54-4.95-3.66,4.95h-5.1l6.21-8.13-6-8.01h5.25l3.42,4.71,3.51-4.71h4.98l-6,7.89,6.24,8.25h-5.31Z"/>
    <path class="st10" d="M1042.31,297.64c0-1.47,1.17-2.61,2.91-2.61s2.91,1.08,2.91,2.52c0,1.56-1.17,2.7-2.91,2.7s-2.91-1.14-2.91-2.61ZM1042.88,302.5h4.68v16.14h-4.68v-16.14Z"/>
    <path class="st10" d="M1050.71,310.57c0-4.86,3.75-8.31,9-8.31,3.39,0,6.06,1.47,7.23,4.11l-3.63,1.95c-.87-1.53-2.16-2.22-3.63-2.22-2.37,0-4.23,1.65-4.23,4.47s1.86,4.47,4.23,4.47c1.47,0,2.76-.66,3.63-2.22l3.63,1.98c-1.17,2.58-3.84,4.08-7.23,4.08-5.25,0-9-3.45-9-8.31Z"/>
    <path class="st10" d="M1076.93,310.57c0-4.86,3.75-8.31,9-8.31,3.39,0,6.06,1.47,7.23,4.11l-3.63,1.95c-.87-1.53-2.16-2.22-3.63-2.22-2.37,0-4.23,1.65-4.23,4.47s1.86,4.47,4.23,4.47c1.47,0,2.76-.66,3.63-2.22l3.63,1.98c-1.17,2.58-3.84,4.08-7.23,4.08-5.25,0-9-3.45-9-8.31Z"/>
    <path class="st10" d="M1112.12,302.5v16.14h-4.44v-1.92c-1.23,1.41-3.03,2.16-5.01,2.16-4.05,0-6.9-2.28-6.9-7.26v-9.12h4.68v8.43c0,2.7,1.2,3.9,3.27,3.9s3.72-1.38,3.72-4.35v-7.98h4.68Z"/>
    <path class="st10" d="M1116.47,296.38h4.68v22.26h-4.68v-22.26Z"/>
    <path class="st10" d="M1137.08,317.86c-.96.69-2.37,1.02-3.81,1.02-3.81,0-6.03-1.95-6.03-5.79v-6.63h-2.49v-3.6h2.49v-3.93h4.68v3.93h4.02v3.6h-4.02v6.57c0,1.38.75,2.13,2.01,2.13.69,0,1.38-.21,1.89-.6l1.26,3.3Z"/>
    <path class="st10" d="M1155.98,302.5v16.14h-4.44v-1.92c-1.23,1.41-3.03,2.16-5.01,2.16-4.05,0-6.9-2.28-6.9-7.26v-9.12h4.68v8.43c0,2.7,1.2,3.9,3.27,3.9s3.72-1.38,3.72-4.35v-7.98h4.68Z"/>
    <path class="st10" d="M1170.35,302.26v4.32c-.39-.03-.69-.06-1.05-.06-2.58,0-4.29,1.41-4.29,4.5v7.62h-4.68v-16.14h4.47v2.13c1.14-1.56,3.06-2.37,5.55-2.37Z"/>
    <path class="st10" d="M1188.71,311.89h-12.21c.45,2.01,2.16,3.24,4.62,3.24,1.71,0,2.94-.51,4.05-1.56l2.49,2.7c-1.5,1.71-3.75,2.61-6.66,2.61-5.58,0-9.21-3.51-9.21-8.31s3.69-8.31,8.61-8.31,8.4,3.18,8.4,8.37c0,.36-.06.87-.09,1.26ZM1176.44,309.16h7.95c-.33-2.04-1.86-3.36-3.96-3.36s-3.66,1.29-3.99,3.36Z"/>
  </g>
  <g>
    <path class="st10" d="M1483.63,297.88c0-1.47,1.17-2.61,2.91-2.61s2.91,1.08,2.91,2.52c0,1.56-1.17,2.7-2.91,2.7s-2.91-1.14-2.91-2.61ZM1484.2,302.74h4.68v16.14h-4.68v-16.14Z"/>
    <path class="st10" d="M1520.5,309.64v9.24h-4.68v-8.52c0-2.61-1.17-3.81-3.06-3.81-2.1,0-3.57,1.35-3.57,4.23v8.1h-4.68v-8.52c0-2.61-1.11-3.81-3.06-3.81-2.07,0-3.54,1.35-3.54,4.23v8.1h-4.68v-16.14h4.47v1.86c1.2-1.38,3-2.1,5.07-2.1,2.25,0,4.17.87,5.31,2.64,1.29-1.65,3.39-2.64,5.82-2.64,3.84,0,6.6,2.22,6.6,7.14Z"/>
    <path class="st10" d="M1542.28,310.81c0,5.07-3.51,8.31-8.04,8.31-2.01,0-3.66-.63-4.86-1.95v7.53h-4.68v-21.96h4.47v1.86c1.17-1.41,2.91-2.1,5.07-2.1,4.53,0,8.04,3.24,8.04,8.31ZM1537.54,310.81c0-2.79-1.77-4.47-4.11-4.47s-4.11,1.68-4.11,4.47,1.77,4.47,4.11,4.47,4.11-1.68,4.11-4.47Z"/>
    <path class="st10" d="M1544.2,310.81c0-4.86,3.75-8.31,8.88-8.31s8.85,3.45,8.85,8.31-3.72,8.31-8.85,8.31-8.88-3.45-8.88-8.31ZM1557.19,310.81c0-2.79-1.77-4.47-4.11-4.47s-4.14,1.68-4.14,4.47,1.8,4.47,4.14,4.47,4.11-1.68,4.11-4.47Z"/>
    <path class="st10" d="M1563.49,317.38l1.56-3.36c1.44.93,3.63,1.56,5.61,1.56,2.16,0,2.97-.57,2.97-1.47,0-2.64-9.75.06-9.75-6.39,0-3.06,2.76-5.22,7.47-5.22,2.22,0,4.68.51,6.21,1.41l-1.56,3.33c-1.59-.9-3.18-1.2-4.65-1.2-2.1,0-3,.66-3,1.5,0,2.76,9.75.09,9.75,6.45,0,3-2.79,5.13-7.62,5.13-2.73,0-5.49-.75-6.99-1.74Z"/>
    <path class="st10" d="M1591.39,318.1c-.96.69-2.37,1.02-3.81,1.02-3.81,0-6.03-1.95-6.03-5.79v-6.63h-2.49v-3.6h2.49v-3.93h4.68v3.93h4.02v3.6h-4.02v6.57c0,1.38.75,2.13,2.01,2.13.69,0,1.38-.21,1.89-.6l1.26,3.3Z"/>
    <path class="st10" d="M1609.24,312.13h-12.21c.45,2.01,2.16,3.24,4.62,3.24,1.71,0,2.94-.51,4.05-1.56l2.49,2.7c-1.5,1.71-3.75,2.61-6.66,2.61-5.58,0-9.21-3.51-9.21-8.31s3.69-8.31,8.61-8.31,8.4,3.18,8.4,8.37c0,.36-.06.87-.09,1.26ZM1596.97,309.4h7.95c-.33-2.04-1.86-3.36-3.96-3.36s-3.66,1.29-3.99,3.36Z"/>
    <path class="st10" d="M1622.47,302.5v4.32c-.39-.03-.69-.06-1.05-.06-2.58,0-4.29,1.41-4.29,4.5v7.62h-4.68v-16.14h4.47v2.13c1.14-1.56,3.06-2.37,5.55-2.37Z"/>
    <path class="st10" d="M1474.16,353.38l1.56-3.36c1.44.93,3.63,1.56,5.61,1.56,2.16,0,2.97-.57,2.97-1.47,0-2.64-9.75.06-9.75-6.39,0-3.06,2.76-5.22,7.47-5.22,2.22,0,4.68.51,6.21,1.41l-1.56,3.33c-1.59-.9-3.18-1.2-4.65-1.2-2.1,0-3,.66-3,1.5,0,2.76,9.75.09,9.75,6.45,0,3-2.79,5.13-7.62,5.13-2.73,0-5.49-.75-6.99-1.74Z"/>
    <path class="st10" d="M1507.37,338.74l-7.29,17.13c-1.56,3.9-3.78,5.07-6.69,5.07-1.65,0-3.45-.54-4.5-1.47l1.71-3.33c.72.63,1.71,1.02,2.64,1.02,1.29,0,2.01-.57,2.64-2.01l.06-.15-6.99-16.26h4.83l4.53,10.95,4.56-10.95h4.5Z"/>
    <path class="st10" d="M1525.79,345.64v9.24h-4.68v-8.52c0-2.61-1.2-3.81-3.27-3.81-2.25,0-3.87,1.38-3.87,4.35v7.98h-4.68v-16.14h4.47v1.89c1.26-1.38,3.15-2.13,5.34-2.13,3.81,0,6.69,2.22,6.69,7.14Z"/>
    <path class="st10" d="M1546.64,332.62v22.26h-4.47v-1.86c-1.17,1.41-2.88,2.1-5.04,2.1-4.56,0-8.07-3.24-8.07-8.31s3.51-8.31,8.07-8.31c1.98,0,3.66.63,4.83,1.95v-7.83h4.68ZM1542.05,346.81c0-2.79-1.8-4.47-4.11-4.47s-4.14,1.68-4.14,4.47,1.8,4.47,4.14,4.47,4.11-1.68,4.11-4.47Z"/>
    <path class="st10" d="M1560.98,338.5v4.32c-.39-.03-.69-.06-1.05-.06-2.58,0-4.29,1.41-4.29,4.5v7.62h-4.68v-16.14h4.47v2.13c1.14-1.56,3.06-2.37,5.55-2.37Z"/>
    <path class="st10" d="M1562.42,346.81c0-4.86,3.75-8.31,8.88-8.31s8.85,3.45,8.85,8.31-3.72,8.31-8.85,8.31-8.88-3.45-8.88-8.31ZM1575.41,346.81c0-2.79-1.77-4.47-4.11-4.47s-4.14,1.68-4.14,4.47,1.8,4.47,4.14,4.47,4.11-1.68,4.11-4.47Z"/>
    <path class="st10" d="M1610.54,345.64v9.24h-4.68v-8.52c0-2.61-1.17-3.81-3.06-3.81-2.1,0-3.57,1.35-3.57,4.23v8.1h-4.68v-8.52c0-2.61-1.11-3.81-3.06-3.81-2.07,0-3.54,1.35-3.54,4.23v8.1h-4.68v-16.14h4.47v1.86c1.2-1.38,3-2.1,5.07-2.1,2.25,0,4.17.87,5.31,2.64,1.29-1.65,3.39-2.64,5.82-2.64,3.84,0,6.6,2.22,6.6,7.14Z"/>
    <path class="st10" d="M1630.64,348.13h-12.21c.45,2.01,2.16,3.24,4.62,3.24,1.71,0,2.94-.51,4.05-1.56l2.49,2.7c-1.5,1.71-3.75,2.61-6.66,2.61-5.58,0-9.21-3.51-9.21-8.31s3.69-8.31,8.61-8.31,8.4,3.18,8.4,8.37c0,.36-.06.87-.09,1.26ZM1618.37,345.4h7.95c-.33-2.04-1.86-3.36-3.96-3.36s-3.66,1.29-3.99,3.36Z"/>
  </g>
  <g>
    <path class="st10" d="M42.63,782.46l1.56-3.36c1.44.93,3.63,1.56,5.61,1.56,2.16,0,2.97-.57,2.97-1.47,0-2.64-9.75.06-9.75-6.39,0-3.06,2.76-5.22,7.47-5.22,2.22,0,4.68.51,6.21,1.41l-1.56,3.33c-1.59-.9-3.18-1.2-4.65-1.2-2.1,0-3,.66-3,1.5,0,2.76,9.75.09,9.75,6.45,0,3-2.79,5.13-7.62,5.13-2.73,0-5.49-.75-6.99-1.74Z"/>
    <path class="st10" d="M70.53,783.18c-.96.69-2.37,1.02-3.81,1.02-3.81,0-6.03-1.95-6.03-5.79v-6.63h-2.49v-3.6h2.49v-3.93h4.68v3.93h4.02v3.6h-4.02v6.57c0,1.38.75,2.13,2.01,2.13.69,0,1.38-.21,1.89-.6l1.26,3.3Z"/>
    <path class="st10" d="M88.38,777.21h-12.21c.45,2.01,2.16,3.24,4.62,3.24,1.71,0,2.94-.51,4.05-1.56l2.49,2.7c-1.5,1.71-3.75,2.61-6.66,2.61-5.58,0-9.21-3.51-9.21-8.31s3.69-8.31,8.61-8.31,8.4,3.18,8.4,8.37c0,.36-.06.87-.09,1.26ZM76.11,774.48h7.95c-.33-2.04-1.86-3.36-3.96-3.36s-3.66,1.29-3.99,3.36Z"/>
    <path class="st10" d="M101.61,767.58v4.32c-.39-.03-.69-.06-1.05-.06-2.58,0-4.29,1.41-4.29,4.5v7.62h-4.68v-16.14h4.47v2.13c1.14-1.56,3.06-2.37,5.55-2.37Z"/>
    <path class="st10" d="M103.05,775.89c0-4.86,3.75-8.31,8.88-8.31s8.85,3.45,8.85,8.31-3.72,8.31-8.85,8.31-8.88-3.45-8.88-8.31ZM116.04,775.89c0-2.79-1.77-4.47-4.11-4.47s-4.14,1.68-4.14,4.47,1.8,4.47,4.14,4.47,4.11-1.68,4.11-4.47Z"/>
    <path class="st10" d="M134.31,783.18c-.96.69-2.37,1.02-3.81,1.02-3.81,0-6.03-1.95-6.03-5.79v-6.63h-2.49v-3.6h2.49v-3.93h4.68v3.93h4.02v3.6h-4.02v6.57c0,1.38.75,2.13,2.01,2.13.69,0,1.38-.21,1.89-.6l1.26,3.3Z"/>
    <path class="st10" d="M152.67,767.82l-7.29,17.13c-1.56,3.9-3.78,5.07-6.69,5.07-1.65,0-3.45-.54-4.5-1.47l1.71-3.33c.72.63,1.71,1.02,2.64,1.02,1.29,0,2.01-.57,2.64-2.01l.06-.15-6.99-16.26h4.83l4.53,10.95,4.56-10.95h4.5Z"/>
    <path class="st10" d="M172.17,775.89c0,5.07-3.51,8.31-8.04,8.31-2.01,0-3.66-.63-4.86-1.95v7.53h-4.68v-21.96h4.47v1.86c1.17-1.41,2.91-2.1,5.07-2.1,4.53,0,8.04,3.24,8.04,8.31ZM167.43,775.89c0-2.79-1.77-4.47-4.11-4.47s-4.11,1.68-4.11,4.47,1.77,4.47,4.11,4.47,4.11-1.68,4.11-4.47Z"/>
    <path class="st10" d="M174.72,762.96c0-1.47,1.17-2.61,2.91-2.61s2.91,1.08,2.91,2.52c0,1.56-1.17,2.7-2.91,2.7s-2.91-1.14-2.91-2.61ZM175.29,767.82h4.68v16.14h-4.68v-16.14Z"/>
    <path class="st10" d="M200.82,774.72v9.24h-4.68v-8.52c0-2.61-1.2-3.81-3.27-3.81-2.25,0-3.87,1.38-3.87,4.35v7.98h-4.68v-16.14h4.47v1.89c1.26-1.38,3.15-2.13,5.34-2.13,3.81,0,6.69,2.22,6.69,7.14Z"/>
    <path class="st10" d="M221.88,767.82v13.44c0,6-3.24,8.76-9.06,8.76-3.06,0-6.03-.75-7.92-2.22l1.86-3.36c1.38,1.11,3.63,1.83,5.7,1.83,3.3,0,4.74-1.5,4.74-4.41v-.69c-1.23,1.35-3,2.01-5.1,2.01-4.47,0-8.07-3.09-8.07-7.8s3.6-7.8,8.07-7.8c2.25,0,4.11.75,5.34,2.31v-2.07h4.44ZM217.26,775.38c0-2.37-1.77-3.96-4.23-3.96s-4.26,1.59-4.26,3.96,1.8,3.96,4.26,3.96,4.23-1.59,4.23-3.96Z"/>
  </g>
  <g>
    <path class="st10" d="M462.12,775.89c0-4.86,3.75-8.31,9-8.31,3.39,0,6.06,1.47,7.23,4.11l-3.63,1.95c-.87-1.53-2.16-2.22-3.63-2.22-2.37,0-4.23,1.65-4.23,4.47s1.86,4.47,4.23,4.47c1.47,0,2.76-.66,3.63-2.22l3.63,1.98c-1.17,2.58-3.84,4.08-7.23,4.08-5.25,0-9-3.45-9-8.31Z"/>
    <path class="st10" d="M479.64,775.89c0-4.86,3.75-8.31,8.88-8.31s8.85,3.45,8.85,8.31-3.72,8.31-8.85,8.31-8.88-3.45-8.88-8.31ZM492.63,775.89c0-2.79-1.77-4.47-4.11-4.47s-4.14,1.68-4.14,4.47,1.8,4.47,4.14,4.47,4.11-1.68,4.11-4.47Z"/>
    <path class="st10" d="M527.76,774.72v9.24h-4.68v-8.52c0-2.61-1.17-3.81-3.06-3.81-2.1,0-3.57,1.35-3.57,4.23v8.1h-4.68v-8.52c0-2.61-1.11-3.81-3.06-3.81-2.07,0-3.54,1.35-3.54,4.23v8.1h-4.68v-16.14h4.47v1.86c1.2-1.38,3-2.1,5.07-2.1,2.25,0,4.17.87,5.31,2.64,1.29-1.65,3.39-2.64,5.82-2.64,3.84,0,6.6,2.22,6.6,7.14Z"/>
    <path class="st10" d="M559.23,774.72v9.24h-4.68v-8.52c0-2.61-1.17-3.81-3.06-3.81-2.1,0-3.57,1.35-3.57,4.23v8.1h-4.68v-8.52c0-2.61-1.11-3.81-3.06-3.81-2.07,0-3.54,1.35-3.54,4.23v8.1h-4.68v-16.14h4.47v1.86c1.2-1.38,3-2.1,5.07-2.1,2.25,0,4.17.87,5.31,2.64,1.29-1.65,3.39-2.64,5.82-2.64,3.84,0,6.6,2.22,6.6,7.14Z"/>
    <path class="st10" d="M579.69,767.82v16.14h-4.44v-1.92c-1.23,1.41-3.03,2.16-5.01,2.16-4.05,0-6.9-2.28-6.9-7.26v-9.12h4.68v8.43c0,2.7,1.2,3.9,3.27,3.9s3.72-1.38,3.72-4.35v-7.98h4.68Z"/>
    <path class="st10" d="M600.54,774.72v9.24h-4.68v-8.52c0-2.61-1.2-3.81-3.27-3.81-2.25,0-3.87,1.38-3.87,4.35v7.98h-4.68v-16.14h4.47v1.89c1.26-1.38,3.15-2.13,5.34-2.13,3.81,0,6.69,2.22,6.69,7.14Z"/>
    <path class="st10" d="M604.2,762.96c0-1.47,1.17-2.61,2.91-2.61s2.91,1.08,2.91,2.52c0,1.56-1.17,2.7-2.91,2.7s-2.91-1.14-2.91-2.61ZM604.77,767.82h4.68v16.14h-4.68v-16.14Z"/>
    <path class="st10" d="M624.21,783.18c-.96.69-2.37,1.02-3.81,1.02-3.81,0-6.03-1.95-6.03-5.79v-6.63h-2.49v-3.6h2.49v-3.93h4.68v3.93h4.02v3.6h-4.02v6.57c0,1.38.75,2.13,2.01,2.13.69,0,1.38-.21,1.89-.6l1.26,3.3Z"/>
    <path class="st10" d="M642.57,767.82l-7.29,17.13c-1.56,3.9-3.78,5.07-6.69,5.07-1.65,0-3.45-.54-4.5-1.47l1.71-3.33c.72.63,1.71,1.02,2.64,1.02,1.29,0,2.01-.57,2.64-2.01l.06-.15-6.99-16.26h4.83l4.53,10.95,4.56-10.95h4.5Z"/>
    <path class="st10" d="M663,767.58v4.32c-.39-.03-.69-.06-1.05-.06-2.58,0-4.29,1.41-4.29,4.5v7.62h-4.68v-16.14h4.47v2.13c1.14-1.56,3.06-2.37,5.55-2.37Z"/>
    <path class="st10" d="M681.36,777.21h-12.21c.45,2.01,2.16,3.24,4.62,3.24,1.71,0,2.94-.51,4.05-1.56l2.49,2.7c-1.5,1.71-3.75,2.61-6.66,2.61-5.58,0-9.21-3.51-9.21-8.31s3.69-8.31,8.61-8.31,8.4,3.18,8.4,8.37c0,.36-.06.87-.09,1.26ZM669.09,774.48h7.95c-.33-2.04-1.86-3.36-3.96-3.36s-3.66,1.29-3.99,3.36Z"/>
    <path class="st10" d="M683.37,775.89c0-4.86,3.75-8.31,9-8.31,3.39,0,6.06,1.47,7.23,4.11l-3.63,1.95c-.87-1.53-2.16-2.22-3.63-2.22-2.37,0-4.23,1.65-4.23,4.47s1.86,4.47,4.23,4.47c1.47,0,2.76-.66,3.63-2.22l3.63,1.98c-1.17,2.58-3.84,4.08-7.23,4.08-5.25,0-9-3.45-9-8.31Z"/>
    <path class="st10" d="M717.81,777.21h-12.21c.45,2.01,2.16,3.24,4.62,3.24,1.71,0,2.94-.51,4.05-1.56l2.49,2.7c-1.5,1.71-3.75,2.61-6.66,2.61-5.58,0-9.21-3.51-9.21-8.31s3.69-8.31,8.61-8.31,8.4,3.18,8.4,8.37c0,.36-.06.87-.09,1.26ZM705.54,774.48h7.95c-.33-2.04-1.86-3.36-3.96-3.36s-3.66,1.29-3.99,3.36Z"/>
    <path class="st10" d="M738.6,775.89c0,5.07-3.51,8.31-8.04,8.31-2.01,0-3.66-.63-4.86-1.95v7.53h-4.68v-21.96h4.47v1.86c1.17-1.41,2.91-2.1,5.07-2.1,4.53,0,8.04,3.24,8.04,8.31ZM733.86,775.89c0-2.79-1.77-4.47-4.11-4.47s-4.11,1.68-4.11,4.47,1.77,4.47,4.11,4.47,4.11-1.68,4.11-4.47Z"/>
    <path class="st10" d="M752.13,783.18c-.96.69-2.37,1.02-3.81,1.02-3.81,0-6.03-1.95-6.03-5.79v-6.63h-2.49v-3.6h2.49v-3.93h4.68v3.93h4.02v3.6h-4.02v6.57c0,1.38.75,2.13,2.01,2.13.69,0,1.38-.21,1.89-.6l1.26,3.3Z"/>
    <path class="st10" d="M754.2,762.96c0-1.47,1.17-2.61,2.91-2.61s2.91,1.08,2.91,2.52c0,1.56-1.17,2.7-2.91,2.7s-2.91-1.14-2.91-2.61ZM754.77,767.82h4.68v16.14h-4.68v-16.14Z"/>
    <path class="st10" d="M762.6,775.89c0-4.86,3.75-8.31,8.88-8.31s8.85,3.45,8.85,8.31-3.72,8.31-8.85,8.31-8.88-3.45-8.88-8.31ZM775.59,775.89c0-2.79-1.77-4.47-4.11-4.47s-4.14,1.68-4.14,4.47,1.8,4.47,4.14,4.47,4.11-1.68,4.11-4.47Z"/>
    <path class="st10" d="M799.95,774.72v9.24h-4.68v-8.52c0-2.61-1.2-3.81-3.27-3.81-2.25,0-3.87,1.38-3.87,4.35v7.98h-4.68v-16.14h4.47v1.89c1.26-1.38,3.15-2.13,5.34-2.13,3.81,0,6.69,2.22,6.69,7.14Z"/>
    <path class="st10" d="M585,798.96c0-1.47,1.17-2.61,2.91-2.61s2.91,1.08,2.91,2.52c0,1.56-1.17,2.7-2.91,2.7s-2.91-1.14-2.91-2.61ZM585.57,803.82h4.68v16.14h-4.68v-16.14Z"/>
    <path class="st10" d="M593.04,818.46l1.56-3.36c1.44.93,3.63,1.56,5.61,1.56,2.16,0,2.97-.57,2.97-1.47,0-2.64-9.75.06-9.75-6.39,0-3.06,2.76-5.22,7.47-5.22,2.22,0,4.68.51,6.21,1.41l-1.56,3.33c-1.59-.9-3.18-1.2-4.65-1.2-2.1,0-3,.66-3,1.5,0,2.76,9.75.09,9.75,6.45,0,3-2.79,5.13-7.62,5.13-2.73,0-5.49-.75-6.99-1.74Z"/>
    <path class="st10" d="M608.97,818.46l1.56-3.36c1.44.93,3.63,1.56,5.61,1.56,2.16,0,2.97-.57,2.97-1.47,0-2.64-9.75.06-9.75-6.39,0-3.06,2.76-5.22,7.47-5.22,2.22,0,4.68.51,6.21,1.41l-1.56,3.33c-1.59-.9-3.18-1.2-4.65-1.2-2.1,0-3,.66-3,1.5,0,2.76,9.75.09,9.75,6.45,0,3-2.79,5.13-7.62,5.13-2.73,0-5.49-.75-6.99-1.74Z"/>
    <path class="st10" d="M642.72,803.82v16.14h-4.44v-1.92c-1.23,1.41-3.03,2.16-5.01,2.16-4.05,0-6.9-2.28-6.9-7.26v-9.12h4.68v8.43c0,2.7,1.2,3.9,3.27,3.9s3.72-1.38,3.72-4.35v-7.98h4.68Z"/>
    <path class="st10" d="M662.79,813.21h-12.21c.45,2.01,2.16,3.24,4.62,3.24,1.71,0,2.94-.51,4.05-1.56l2.49,2.7c-1.5,1.71-3.75,2.61-6.66,2.61-5.58,0-9.21-3.51-9.21-8.31s3.69-8.31,8.61-8.31,8.4,3.18,8.4,8.37c0,.36-.06.87-.09,1.26ZM650.52,810.48h7.95c-.33-2.04-1.86-3.36-3.96-3.36s-3.66,1.29-3.99,3.36Z"/>
    <path class="st10" d="M664.44,818.46l1.56-3.36c1.44.93,3.63,1.56,5.61,1.56,2.16,0,2.97-.57,2.97-1.47,0-2.64-9.75.06-9.75-6.39,0-3.06,2.76-5.22,7.47-5.22,2.22,0,4.68.51,6.21,1.41l-1.56,3.33c-1.59-.9-3.18-1.2-4.65-1.2-2.1,0-3,.66-3,1.5,0,2.76,9.75.09,9.75,6.45,0,3-2.79,5.13-7.62,5.13-2.73,0-5.49-.75-6.99-1.74Z"/>
  </g>
  <g>
    <path class="st10" d="M994.42,773.88l-5.85,16.14h-4.5l-3.63-10.02-3.75,10.02h-4.5l-5.82-16.14h4.41l3.81,10.92,3.96-10.92h3.96l3.84,10.92,3.93-10.92h4.14Z"/>
    <path class="st10" d="M994.96,781.95c0-4.86,3.75-8.31,8.88-8.31s8.85,3.45,8.85,8.31-3.72,8.31-8.85,8.31-8.88-3.45-8.88-8.31ZM1007.95,781.95c0-2.79-1.77-4.47-4.11-4.47s-4.14,1.68-4.14,4.47,1.8,4.47,4.14,4.47,4.11-1.68,4.11-4.47Z"/>
    <path class="st10" d="M1025.83,773.64v4.32c-.39-.03-.69-.06-1.05-.06-2.58,0-4.29,1.41-4.29,4.5v7.62h-4.68v-16.14h4.47v2.13c1.14-1.56,3.06-2.37,5.55-2.37Z"/>
    <path class="st10" d="M1035.55,783.69l-2.25,2.22v4.11h-4.68v-22.26h4.68v12.6l6.84-6.48h5.58l-6.72,6.84,7.32,9.3h-5.67l-5.1-6.33Z"/>
    <path class="st10" d="M1047.04,779.7h8.49v3.75h-8.49v-3.75Z"/>
    <path class="st10" d="M1059.22,767.76h4.68v22.26h-4.68v-22.26Z"/>
    <path class="st10" d="M1067.68,769.02c0-1.47,1.17-2.61,2.91-2.61s2.91,1.08,2.91,2.52c0,1.56-1.17,2.7-2.91,2.7s-2.91-1.14-2.91-2.61ZM1068.25,773.88h4.68v16.14h-4.68v-16.14Z"/>
    <path class="st10" d="M1082.41,774.24h4.14v3.6h-4.02v12.18h-4.68v-12.18h-2.49v-3.6h2.49v-.72c0-3.63,2.22-6,6.24-6,1.32,0,2.7.27,3.57.87l-1.23,3.39c-.51-.36-1.17-.57-1.89-.57-1.38,0-2.13.75-2.13,2.34v.69Z"/>
    <path class="st10" d="M1104.4,783.27h-12.21c.45,2.01,2.16,3.24,4.62,3.24,1.71,0,2.94-.51,4.05-1.56l2.49,2.7c-1.5,1.71-3.75,2.61-6.66,2.61-5.58,0-9.21-3.51-9.21-8.31s3.69-8.31,8.61-8.31,8.4,3.18,8.4,8.37c0,.36-.06.87-.09,1.26ZM1092.13,780.54h7.95c-.33-2.04-1.86-3.36-3.96-3.36s-3.66,1.29-3.99,3.36Z"/>
    <path class="st10" d="M1133.68,781.95c0,5.07-3.51,8.31-8.04,8.31-2.16,0-3.9-.69-5.07-2.1v1.86h-4.47v-22.26h4.68v7.83c1.2-1.32,2.85-1.95,4.86-1.95,4.53,0,8.04,3.24,8.04,8.31ZM1128.94,781.95c0-2.79-1.77-4.47-4.11-4.47s-4.11,1.68-4.11,4.47,1.77,4.47,4.11,4.47,4.11-1.68,4.11-4.47Z"/>
    <path class="st10" d="M1150.81,780.81v9.21h-4.38v-2.01c-.87,1.47-2.55,2.25-4.92,2.25-3.78,0-6.03-2.1-6.03-4.89s2.01-4.83,6.93-4.83h3.72c0-2.01-1.2-3.18-3.72-3.18-1.71,0-3.48.57-4.65,1.5l-1.68-3.27c1.77-1.26,4.38-1.95,6.96-1.95,4.92,0,7.77,2.28,7.77,7.17ZM1146.13,784.92v-1.65h-3.21c-2.19,0-2.88.81-2.88,1.89,0,1.17.99,1.95,2.64,1.95,1.56,0,2.91-.72,3.45-2.19Z"/>
    <path class="st10" d="M1155.04,767.76h4.68v22.26h-4.68v-22.26Z"/>
    <path class="st10" d="M1178.35,780.81v9.21h-4.38v-2.01c-.87,1.47-2.55,2.25-4.92,2.25-3.78,0-6.03-2.1-6.03-4.89s2.01-4.83,6.93-4.83h3.72c0-2.01-1.2-3.18-3.72-3.18-1.71,0-3.48.57-4.65,1.5l-1.68-3.27c1.77-1.26,4.38-1.95,6.96-1.95,4.92,0,7.77,2.28,7.77,7.17ZM1173.67,784.92v-1.65h-3.21c-2.19,0-2.88.81-2.88,1.89,0,1.17.99,1.95,2.64,1.95,1.56,0,2.91-.72,3.45-2.19Z"/>
    <path class="st10" d="M1199.08,780.78v9.24h-4.68v-8.52c0-2.61-1.2-3.81-3.27-3.81-2.25,0-3.87,1.38-3.87,4.35v7.98h-4.68v-16.14h4.47v1.89c1.26-1.38,3.15-2.13,5.34-2.13,3.81,0,6.69,2.22,6.69,7.14Z"/>
    <path class="st10" d="M1202.29,781.95c0-4.86,3.75-8.31,9-8.31,3.39,0,6.06,1.47,7.23,4.11l-3.63,1.95c-.87-1.53-2.16-2.22-3.63-2.22-2.37,0-4.23,1.65-4.23,4.47s1.86,4.47,4.23,4.47c1.47,0,2.76-.66,3.63-2.22l3.63,1.98c-1.17,2.58-3.84,4.08-7.23,4.08-5.25,0-9-3.45-9-8.31Z"/>
    <path class="st10" d="M1236.72,783.27h-12.21c.45,2.01,2.16,3.24,4.62,3.24,1.71,0,2.94-.51,4.05-1.56l2.49,2.7c-1.5,1.71-3.75,2.61-6.66,2.61-5.58,0-9.21-3.51-9.21-8.31s3.69-8.31,8.61-8.31,8.4,3.18,8.4,8.37c0,.36-.06.87-.09,1.26ZM1224.46,780.54h7.95c-.33-2.04-1.86-3.36-3.96-3.36s-3.66,1.29-3.99,3.36Z"/>
    <path class="st10" d="M1055.47,805.02c0-1.47,1.17-2.61,2.91-2.61s2.91,1.08,2.91,2.52c0,1.56-1.17,2.7-2.91,2.7s-2.91-1.14-2.91-2.61ZM1056.04,809.88h4.68v16.14h-4.68v-16.14Z"/>
    <path class="st10" d="M1063.51,824.52l1.56-3.36c1.44.93,3.63,1.56,5.61,1.56,2.16,0,2.97-.57,2.97-1.47,0-2.64-9.75.06-9.75-6.39,0-3.06,2.76-5.22,7.47-5.22,2.22,0,4.68.51,6.21,1.41l-1.56,3.33c-1.59-.9-3.18-1.2-4.65-1.2-2.1,0-3,.66-3,1.5,0,2.76,9.75.09,9.75,6.45,0,3-2.79,5.13-7.62,5.13-2.73,0-5.49-.75-6.99-1.74Z"/>
    <path class="st10" d="M1079.44,824.52l1.56-3.36c1.44.93,3.63,1.56,5.61,1.56,2.16,0,2.97-.57,2.97-1.47,0-2.64-9.75.06-9.75-6.39,0-3.06,2.76-5.22,7.47-5.22,2.22,0,4.68.51,6.21,1.41l-1.56,3.33c-1.59-.9-3.18-1.2-4.65-1.2-2.1,0-3,.66-3,1.5,0,2.76,9.75.09,9.75,6.45,0,3-2.79,5.13-7.62,5.13-2.73,0-5.49-.75-6.99-1.74Z"/>
    <path class="st10" d="M1113.19,809.88v16.14h-4.44v-1.92c-1.23,1.41-3.03,2.16-5.01,2.16-4.05,0-6.9-2.28-6.9-7.26v-9.12h4.68v8.43c0,2.7,1.2,3.9,3.27,3.9s3.72-1.38,3.72-4.35v-7.98h4.68Z"/>
    <path class="st10" d="M1133.26,819.27h-12.21c.45,2.01,2.16,3.24,4.62,3.24,1.71,0,2.94-.51,4.05-1.56l2.49,2.7c-1.5,1.71-3.75,2.61-6.66,2.61-5.58,0-9.21-3.51-9.21-8.31s3.69-8.31,8.61-8.31,8.4,3.18,8.4,8.37c0,.36-.06.87-.09,1.26ZM1120.99,816.54h7.95c-.33-2.04-1.86-3.36-3.96-3.36s-3.66,1.29-3.99,3.36Z"/>
    <path class="st10" d="M1134.91,824.52l1.56-3.36c1.44.93,3.63,1.56,5.61,1.56,2.16,0,2.97-.57,2.97-1.47,0-2.64-9.75.06-9.75-6.39,0-3.06,2.76-5.22,7.47-5.22,2.22,0,4.68.51,6.21,1.41l-1.56,3.33c-1.59-.9-3.18-1.2-4.65-1.2-2.1,0-3,.66-3,1.5,0,2.76,9.75.09,9.75,6.45,0,3-2.79,5.13-7.62,5.13-2.73,0-5.49-.75-6.99-1.74Z"/>
  </g>
  <g>
    <path class="st10" d="M1424.98,768.06v13.44c0,6-3.24,8.76-9.06,8.76-3.06,0-6.03-.75-7.92-2.22l1.86-3.36c1.38,1.11,3.63,1.83,5.7,1.83,3.3,0,4.74-1.5,4.74-4.41v-.69c-1.23,1.35-3,2.01-5.1,2.01-4.47,0-8.07-3.09-8.07-7.8s3.6-7.8,8.07-7.8c2.25,0,4.11.75,5.34,2.31v-2.07h4.44ZM1420.36,775.62c0-2.37-1.77-3.96-4.23-3.96s-4.26,1.59-4.26,3.96,1.8,3.96,4.26,3.96,4.23-1.59,4.23-3.96Z"/>
    <path class="st10" d="M1445.05,777.45h-12.21c.45,2.01,2.16,3.24,4.62,3.24,1.71,0,2.94-.51,4.05-1.56l2.49,2.7c-1.5,1.71-3.75,2.61-6.66,2.61-5.58,0-9.21-3.51-9.21-8.31s3.69-8.31,8.61-8.31,8.4,3.18,8.4,8.37c0,.36-.06.87-.09,1.26ZM1432.78,774.72h7.95c-.33-2.04-1.86-3.36-3.96-3.36s-3.66,1.29-3.99,3.36Z"/>
    <path class="st10" d="M1464.76,774.96v9.24h-4.68v-8.52c0-2.61-1.2-3.81-3.27-3.81-2.25,0-3.87,1.38-3.87,4.35v7.98h-4.68v-16.14h4.47v1.89c1.26-1.38,3.15-2.13,5.34-2.13,3.81,0,6.69,2.22,6.69,7.14Z"/>
    <path class="st10" d="M1485.61,761.94v22.26h-4.47v-1.86c-1.17,1.41-2.88,2.1-5.04,2.1-4.56,0-8.07-3.24-8.07-8.31s3.51-8.31,8.07-8.31c1.98,0,3.66.63,4.83,1.95v-7.83h4.68ZM1481.02,776.13c0-2.79-1.8-4.47-4.11-4.47s-4.14,1.68-4.14,4.47,1.8,4.47,4.14,4.47,4.11-1.68,4.11-4.47Z"/>
    <path class="st10" d="M1505.64,777.45h-12.21c.45,2.01,2.16,3.24,4.62,3.24,1.71,0,2.94-.51,4.05-1.56l2.49,2.7c-1.5,1.71-3.75,2.61-6.66,2.61-5.58,0-9.21-3.51-9.21-8.31s3.69-8.31,8.61-8.31,8.4,3.18,8.4,8.37c0,.36-.06.87-.09,1.26ZM1493.38,774.72h7.95c-.33-2.04-1.86-3.36-3.96-3.36s-3.66,1.29-3.99,3.36Z"/>
    <path class="st10" d="M1518.88,767.82v4.32c-.39-.03-.69-.06-1.05-.06-2.58,0-4.29,1.41-4.29,4.5v7.62h-4.68v-16.14h4.47v2.13c1.14-1.56,3.06-2.37,5.55-2.37Z"/>
    <path class="st10" d="M1520.92,773.88h8.49v3.75h-8.49v-3.75Z"/>
    <path class="st10" d="M1532.53,763.2c0-1.47,1.17-2.61,2.91-2.61s2.91,1.08,2.91,2.52c0,1.56-1.17,2.7-2.91,2.7s-2.91-1.14-2.91-2.61ZM1533.1,768.06h4.68v16.14h-4.68v-16.14Z"/>
    <path class="st10" d="M1558.56,761.94v22.26h-4.47v-1.86c-1.17,1.41-2.88,2.1-5.04,2.1-4.56,0-8.07-3.24-8.07-8.31s3.51-8.31,8.07-8.31c1.98,0,3.66.63,4.83,1.95v-7.83h4.68ZM1553.97,776.13c0-2.79-1.8-4.47-4.11-4.47s-4.14,1.68-4.14,4.47,1.8,4.47,4.14,4.47,4.11-1.68,4.11-4.47Z"/>
    <path class="st10" d="M1578.6,777.45h-12.21c.45,2.01,2.16,3.24,4.62,3.24,1.71,0,2.94-.51,4.05-1.56l2.49,2.7c-1.5,1.71-3.75,2.61-6.66,2.61-5.58,0-9.21-3.51-9.21-8.31s3.69-8.31,8.61-8.31,8.4,3.18,8.4,8.37c0,.36-.06.87-.09,1.26ZM1566.34,774.72h7.95c-.33-2.04-1.86-3.36-3.96-3.36s-3.66,1.29-3.99,3.36Z"/>
    <path class="st10" d="M1598.31,774.96v9.24h-4.68v-8.52c0-2.61-1.2-3.81-3.27-3.81-2.25,0-3.87,1.38-3.87,4.35v7.98h-4.68v-16.14h4.47v1.89c1.26-1.38,3.15-2.13,5.34-2.13,3.81,0,6.69,2.22,6.69,7.14Z"/>
    <path class="st10" d="M1612.95,783.42c-.96.69-2.37,1.02-3.81,1.02-3.81,0-6.03-1.95-6.03-5.79v-6.63h-2.49v-3.6h2.49v-3.93h4.68v3.93h4.02v3.6h-4.02v6.57c0,1.38.75,2.13,2.01,2.13.69,0,1.38-.21,1.89-.6l1.26,3.3Z"/>
    <path class="st10" d="M1615.02,763.2c0-1.47,1.17-2.61,2.91-2.61s2.91,1.08,2.91,2.52c0,1.56-1.17,2.7-2.91,2.7s-2.91-1.14-2.91-2.61ZM1615.59,768.06h4.68v16.14h-4.68v-16.14Z"/>
    <path class="st10" d="M1629.75,767.73v.69h4.14v3.6h-4.02v12.18h-4.68v-12.18h-2.49v-3.6h2.49v-.72c0-3.63,2.22-6,6.24-6,1.32,0,2.7.27,3.57.87l-1.23,3.39c-.51-.36-1.17-.57-1.89-.57-1.38,0-2.13.75-2.13,2.34ZM1638.06,763.2c0-1.47,1.17-2.61,2.91-2.61s2.91,1.08,2.91,2.52c0,1.56-1.17,2.7-2.91,2.7s-2.91-1.14-2.91-2.61ZM1638.63,768.06h4.68v16.14h-4.68v-16.14Z"/>
    <path class="st10" d="M1663.38,777.45h-12.21c.45,2.01,2.16,3.24,4.62,3.24,1.71,0,2.94-.51,4.05-1.56l2.49,2.7c-1.5,1.71-3.75,2.61-6.66,2.61-5.58,0-9.21-3.51-9.21-8.31s3.69-8.31,8.61-8.31,8.4,3.18,8.4,8.37c0,.36-.06.87-.09,1.26ZM1651.11,774.72h7.95c-.33-2.04-1.86-3.36-3.96-3.36s-3.66,1.29-3.99,3.36Z"/>
    <path class="st10" d="M1683.03,761.94v22.26h-4.47v-1.86c-1.17,1.41-2.88,2.1-5.04,2.1-4.56,0-8.07-3.24-8.07-8.31s3.51-8.31,8.07-8.31c1.98,0,3.66.63,4.83,1.95v-7.83h4.68ZM1678.44,776.13c0-2.79-1.8-4.47-4.11-4.47s-4.14,1.68-4.14,4.47,1.8,4.47,4.14,4.47,4.11-1.68,4.11-4.47Z"/>
    <path class="st10" d="M1440.4,812.13c0-4.86,3.75-8.31,9-8.31,3.39,0,6.06,1.47,7.23,4.11l-3.63,1.95c-.87-1.53-2.16-2.22-3.63-2.22-2.37,0-4.23,1.65-4.23,4.47s1.86,4.47,4.23,4.47c1.47,0,2.76-.66,3.63-2.22l3.63,1.98c-1.17,2.58-3.84,4.08-7.23,4.08-5.25,0-9-3.45-9-8.31Z"/>
    <path class="st10" d="M1457.92,812.13c0-4.86,3.75-8.31,8.88-8.31s8.85,3.45,8.85,8.31-3.72,8.31-8.85,8.31-8.88-3.45-8.88-8.31ZM1470.91,812.13c0-2.79-1.77-4.47-4.11-4.47s-4.14,1.68-4.14,4.47,1.8,4.47,4.14,4.47,4.11-1.68,4.11-4.47Z"/>
    <path class="st10" d="M1495.27,810.96v9.24h-4.68v-8.52c0-2.61-1.2-3.81-3.27-3.81-2.25,0-3.87,1.38-3.87,4.35v7.98h-4.68v-16.14h4.47v1.89c1.26-1.38,3.15-2.13,5.34-2.13,3.81,0,6.69,2.22,6.69,7.14Z"/>
    <path class="st10" d="M1509.91,819.42c-.96.69-2.37,1.02-3.81,1.02-3.81,0-6.03-1.95-6.03-5.79v-6.63h-2.49v-3.6h2.49v-3.93h4.68v3.93h4.02v3.6h-4.02v6.57c0,1.38.75,2.13,2.01,2.13.69,0,1.38-.21,1.89-.6l1.26,3.3Z"/>
    <path class="st10" d="M1522.57,803.82v4.32c-.39-.03-.69-.06-1.05-.06-2.58,0-4.29,1.41-4.29,4.5v7.62h-4.68v-16.14h4.47v2.13c1.14-1.56,3.06-2.37,5.55-2.37Z"/>
    <path class="st10" d="M1524.79,799.2c0-1.47,1.17-2.61,2.91-2.61s2.91,1.08,2.91,2.52c0,1.56-1.17,2.7-2.91,2.7s-2.91-1.14-2.91-2.61ZM1525.36,804.06h4.68v16.14h-4.68v-16.14Z"/>
    <path class="st10" d="M1551.97,812.13c0,5.07-3.51,8.31-8.04,8.31-2.16,0-3.9-.69-5.07-2.1v1.86h-4.47v-22.26h4.68v7.83c1.2-1.32,2.85-1.95,4.86-1.95,4.53,0,8.04,3.24,8.04,8.31ZM1547.22,812.13c0-2.79-1.77-4.47-4.11-4.47s-4.11,1.68-4.11,4.47,1.77,4.47,4.11,4.47,4.11-1.68,4.11-4.47Z"/>
    <path class="st10" d="M1571.34,804.06v16.14h-4.44v-1.92c-1.23,1.41-3.03,2.16-5.01,2.16-4.05,0-6.9-2.28-6.9-7.26v-9.12h4.68v8.43c0,2.7,1.2,3.9,3.27,3.9s3.72-1.38,3.72-4.35v-7.98h4.68Z"/>
    <path class="st10" d="M1586.1,819.42c-.96.69-2.37,1.02-3.81,1.02-3.81,0-6.03-1.95-6.03-5.79v-6.63h-2.49v-3.6h2.49v-3.93h4.68v3.93h4.02v3.6h-4.02v6.57c0,1.38.75,2.13,2.01,2.13.69,0,1.38-.21,1.89-.6l1.26,3.3Z"/>
    <path class="st10" d="M1588.17,799.2c0-1.47,1.17-2.61,2.91-2.61s2.91,1.08,2.91,2.52c0,1.56-1.17,2.7-2.91,2.7s-2.91-1.14-2.91-2.61ZM1588.74,804.06h4.68v16.14h-4.68v-16.14Z"/>
    <path class="st10" d="M1596.57,812.13c0-4.86,3.75-8.31,8.88-8.31s8.85,3.45,8.85,8.31-3.72,8.31-8.85,8.31-8.88-3.45-8.88-8.31ZM1609.56,812.13c0-2.79-1.77-4.47-4.11-4.47s-4.14,1.68-4.14,4.47,1.8,4.47,4.14,4.47,4.11-1.68,4.11-4.47Z"/>
    <path class="st10" d="M1633.92,810.96v9.24h-4.68v-8.52c0-2.61-1.2-3.81-3.27-3.81-2.25,0-3.87,1.38-3.87,4.35v7.98h-4.68v-16.14h4.47v1.89c1.26-1.38,3.15-2.13,5.34-2.13,3.81,0,6.69,2.22,6.69,7.14Z"/>
    <path class="st10" d="M1636.59,818.7l1.56-3.36c1.44.93,3.63,1.56,5.61,1.56,2.16,0,2.97-.57,2.97-1.47,0-2.64-9.75.06-9.75-6.39,0-3.06,2.76-5.22,7.47-5.22,2.22,0,4.68.51,6.21,1.41l-1.56,3.33c-1.59-.9-3.18-1.2-4.65-1.2-2.1,0-3,.66-3,1.5,0,2.76,9.75.09,9.75,6.45,0,3-2.79,5.13-7.62,5.13-2.73,0-5.49-.75-6.99-1.74Z"/>
  </g>
</svg>