<?xml version="1.0" encoding="UTF-8"?>
<svg id="Layer_1" xmlns="http://www.w3.org/2000/svg" version="1.1" viewBox="0 0 2460 1105">
  <!-- Generator: Adobe Illustrator 29.3.1, SVG Export Plug-In . SVG Version: 2.1.0 Build 151)  -->
  <defs>
    <style>
      .st0 {
        fill: #bea9d9;
      }

      .st1 {
        isolation: isolate;
      }

      .st2 {
        fill: #c54052;
      }

      .st3 {
        fill: #695285;
      }

      .st4 {
        fill: #695286;
      }

      .st5 {
        fill: #6a5387;
      }
    </style>
  </defs>
  <g id="Layer_4">
    <g>
      <g>
        <path class="st0" d="M1237,317c-9-4.4-32.8-18.4-40.7-19.8-37.7-6.4-30.6,43.4-30.3,66.3.2,13.9,3.5,20.1-6.4,32.5-10.6,13.2-40.9,34.2-46.5,48-4.6-3.5-9.5-8.1-14.3-11.2-64.8-42.7-120.9-51.6-195-67-31.8-6.6-66.3-7.5-99.2-8.8-55.6-2.1-110,9.1-164.8,19.3-27,5-66.3,26.6-93.2,37.8-40.5,16.9-63.7,38.2-99.2,61.8-12.6,8.4-24.8,12.7-35.8,24.2s-23.9,29.2-38.5,43.5c-7,6.8-8.7,9.5-14.6,16.4-11.1,12.8-26.9,24.1-34.2,39.8s-4.7,20.7-16.3,25.7-14.9-2.7-19.9-9.1c-9.7-12.5-19-25.5-28.6-38.2s-7.1-7.6-10.4-11.6c-2-1.1-17.3,7.8-20.8,9.3-5.9,2.5-27.6,11-32.7,10.8s-6.3-2.2-7.1-2.9c-1.4-1.1-10.9-13.8-11.1-15.3-.6-4.6,3.9-10.8,5.2-15.4s1.4-13.4,2.9-19.1c7-26.3,22.7-58.1,36.7-81.3,32.3-53.3,61.7-96.8,113.9-133.1,70.9-49.2,152.4-94.8,236.9-115.1,20.8-5,42.5-6.6,63.1-10.9,12.7-2.7,26-9.5,38.7-12.3,64-13.8,130.5-18.4,195.6-10.2,21.8,2.8,40.3,5.4,62.1,7.1,40.9,3.1,98,18.2,136.5,33.3,34.9,13.8,60.2,31.7,90.9,52.1,24.2,16,51.3,32.3,74,50,1.2,1,2.4,2,3.1,3.4h0Z"/>
        <path class="st4" d="M1237,317c14.7,7.2,18.7,13.7,36.8,9.3,15.6-3.9,49.9-20.1,63.7-18.2s21.5,13.7,21.5,25.3c0,16.9-8.4,40.4-9.8,58.2s-.5,7.4,0,10.6c1.9,11,29.7,41.8,37.2,53.8,7.9,12.7,7,27.9-6.1,36.7-11.5,7.8-51.7,8.6-67.6,12.4s-9.2,3.9-12.6,7.4c-13,13.5-25.8,41.9-39.1,52.9-10,8.2-26.9,7.5-35.4-2.6-10.3-12.2-19.2-40.6-28.4-55.6s-6.4-9.2-12.9-12.1c-17.3-7.7-40.4-10.7-57.5-18.5s-19-19.8-13.7-32.8,35.9-34.8,46.5-48c9.9-12.4,6.6-18.6,6.4-32.5-.3-22.9-7.4-72.7,30.3-66.3,7.9,1.3,31.7,15.3,40.7,19.8v.2Z"/>
        <g>
          <path class="st3" d="M292.7,796.2c9.9-2,15.2,1.8,19.5,10.1s9.5,30,16.3,36.7,38.6,12.8,44.4,22.6c11.5,19.6-23.9,33.5-33.3,46.4-4.7,12.4-2.8,27.3-4.6,40.4s-10.2,18.6-22,15.1c-7.3-2.2-22.8-15.6-31.3-19.7s-4.9-2.5-7.3-2.8c-9.1-.9-28.6,7.5-39.2,8.7-11.6,1.2-20.4-5.9-19-18s9.8-29.3,9.4-39.1-1.3-5.6-2.2-7.6c-4.5-9.6-16.2-22.3-19.5-31.5-2.5-6.9-1.1-14.6,5.1-19,8.8-6.1,33.6-3.4,45.4-5.6,12.3-2.3,27.3-34.4,38.3-36.7h0Z"/>
          <path class="st3" d="M1223.7,812.2c2.6-.5,6-.5,8.5,0,7.4,1.5,21.9,23.4,28.2,29.8,7.4,7.4,9.7,6.9,20,8s27.6-.9,35.4,4.6c20.3,14.2-15.2,41.9-16.5,57.4-.9,11.1,9.7,31,9.6,42.6,0,10.2-8.9,16.1-18.5,15.4s-30.4-9.7-40-8.8c-2.4.2-5.1,1.7-7.3,2.8-8.5,4.1-24,17.6-31.3,19.7-9.9,2.9-19.8-2.3-21.6-12.5-1.9-11.2-.9-24.3-2.5-35.5s-1.5-5.9-2.5-7.5c-3.5-5.9-20.4-16.9-26.4-22.6-7.2-6.8-12.9-13.5-6.8-23.9s30.1-14.1,39.1-18.9c13-7,15.5-29.8,22.6-42.4s5.1-7.2,9.9-8.1h.1Z"/>
        </g>
      </g>
      <g>
        <path class="st0" d="M1558,1105c-5.6-28.8-12.1-57.3-16-86.5-10-75.4-8.5-148.8-8-225,.6-92.7,14.1-183,19.8-275.1,2.4-39.3.6-78.8,1.1-117.9,0-10.2,2.4-37.1-.4-45.9-2.5-7.9-2.3-9.7-.3-18.7s4.2-10.2,4.5-12.5c1.1-9.1,1.1-3.8,3.7-9.3,7.1-15.3,18.5-23.1,32.7-30,34.5-16.7,77.3-25.6,115.6-34.7,88.9-21.1,180.2-15.2,270.5-21.4,35.6-2.4,68.4-5.5,104.1-5.9s49.9,1,74.3-1.6,35.4,3.7,51.7,4.6,18.4.8,23,0,3.8-3.6,5.2-3.9,8.5,4.5,11.1,4.7,3.3-2,5.6-1.9,5.9,3.7,7.3,3.9,2.4-1.7,3.9-1.9c2.7-.4,9.6,7,12,9.1,14.1,12.5,23.2,22.8,33.5,37.5,4.9,7.1,10.6,26.8,13.6,36s.4,12.3,1.5,16.8c8.5,35.2,6.2,75,6.9,112.2.6,32.2,2.6,61.5-1,94-.8,7.3-3.1,15-3.9,22.1-5.1,46.7-7,91.1-8.2,137.8-1.6,63.1-4.7,125.8-8.9,189.1-2.4,36.3-4.1,72.7-8.1,108.9-1.8,15.9-5.3,32.4-6.8,48.2-1.8,18.4,1.3,35-4.7,53.3s-5.1,8.3-5.3,14.2h-730v-.2ZM2048.4,422.6c-8.1-7.6-19.9-10.2-30.7-6.5s-5.9,2.9-6.5,3.2c-.9.5-2,3.4-4.3,4.2s-4-1.3-6,0-5.5,7.7-5.8,8.3c-3.9,8.1-4.2,35-4,44.8.3,16.7,11.5,59.6,23.3,71.5s20.2,13.9,33.6,9.5,10.6-5.7,11-6.2c6.3-7.3,10.3-28,10.9-37.8,1.2-17.3-2.6-25.5-4.9-41.1-2.8-19.6-.8-34.8-16.7-49.8h0ZM1720.6,435.4c-14.1-8.7-34.5-5-43,9.7-1,1.7-.7,4.2-2.1,5.9s-7,4.3-7.5,7.4-.4,8.9-1.1,12.9c-3.1,17.6-6.3,34.1-2.6,51.8,2.4,11.7,7.1,26.7,12.9,37.1s10.2,13.8,11.1,14.4,3,.3,4.5,1,2.8,2.8,3.9,3,14.7-1.7,15.7-2c13.6-3.9,24.2-33,26.4-45.6,4-22.4,0-34.9-3.2-56.2s-.2-30.6-14.9-39.6v.2ZM1790,623c-4.9,0-6.5-1.3-7,4-1.3,12.9,2.9,38.5,8.5,50,10.5,21.6,29.5,48.6,55.5,51-.4,3.9,1.6,1,2,1,1.6,0,3.2.9,5,1s1.1,0,3,0c29.5-2.2,49.6-16.9,57.5-46,4.8-17.6,5.5-49.2,3.5-67.5-.2-1.5-2.4-9.9-3-10.8s-2.2-.4-2.7-1c-6.2-6.7-7-8.9-17.7-8.6-5.8,0-9.8,2.9-14.3,3.8-11.1,2.4-22.5,4.1-33.6,6.4s-12.5,4-16.4,4.4-5.6-1.5-8-1.6c-6.7-.3-9.3,4-14.3,5.4s-2.8-.4-4,0c-8.4,2.4-9.1,1.3-14,8.5h0Z"/>
        <g>
          <path class="st5" d="M1720.6,435.4c14.7,9.1,12.8,25.6,14.9,39.6,3.2,21.3,7.2,33.8,3.2,56.2s-12.8,41.7-26.4,45.6-14.9,2.1-15.7,2c-1.1-.2-2.4-2.3-3.9-3s-3.4-.4-4.5-1-10.1-12.5-11.1-14.4c-5.8-10.4-10.5-25.4-12.9-37.1-3.7-17.8-.5-34.3,2.6-51.8.7-4.1.4-9.3,1.1-12.9s6.3-5.9,7.5-7.4,1.1-4.2,2.1-5.9c8.5-14.7,28.9-18.4,43-9.7v-.2Z"/>
          <path class="st5" d="M2048.4,422.6c15.9,15,13.9,30.2,16.7,49.8,2.3,15.6,6,23.8,4.9,41.1-.7,9.8-4.6,30.5-10.9,37.8s-10.1,5.9-11,6.2c-13.4,4.4-24.2,0-33.6-9.5s-23-54.8-23.3-71.5c-.2-9.8.2-36.6,4-44.8.3-.6,5.3-8,5.8-8.3,1.9-1.2,3.9.7,6,0s3.5-3.7,4.3-4.2,6.1-3.1,6.5-3.2c10.7-3.7,22.6-1.1,30.7,6.5h-.1Z"/>
          <path class="st5" d="M1790,623c-2.1,3-1.6,4.9-7,4,.5-5.3,2.1-4,7-4Z"/>
          <g>
            <path class="st5" d="M1790,623c4.9-7.2,5.6-6.1,14-8.5s2.7.4,4,0c5-1.4,7.7-5.8,14.3-5.4s5.6,1.8,8,1.6c3.9-.4,11.9-3.5,16.4-4.4,11.2-2.2,22.5-4,33.6-6.4,4.4-.9,8.5-3.7,14.3-3.8,10.7-.3,11.5,1.9,17.7,8.6s2,0,2.7,1,2.8,9.3,3,10.8c2,18.3,1.3,49.9-3.5,67.5-7.9,29.1-28,43.8-57.5,46,0-1.5-2.9-1.5-3,0-1.8,0-3.4-.9-5-1-.2-1-1.2-.9-2-1-26-2.4-45-29.3-55.5-51s-9.8-37.1-8.5-50c5.4.9,4.9-1,7-4h0Z"/>
            <path class="st5" d="M1857,730c-1.9,0-1.5,0-3,0,0-1.5,2.9-1.5,3,0Z"/>
            <path class="st5" d="M1849,729c-.4,0-2.4,2.9-2-1,.8,0,1.8,0,2,1Z"/>
          </g>
        </g>
      </g>
    </g>
  </g>
  <g id="Layer_2">
    <g>
      <path class="st5" d="M293.6,471.1c-3,1.2-6.2,1.8-9.4,2-3.2.1-6.5-.6-9.8-2v-13.3c-.1-12.4,1.1-21.7,3.7-27.8,2.6-6.1,6.6-11,11.9-14.7,7.1-4.8,14.3-6.1,21.8-4,7.5,2.2,14,7.2,19.4,15.3l14.9,21.9c5.9,8.7,11.4,14.4,16.4,17s9.9,2.3,14.5-.8c6-4.1,8.2-10.3,6.7-18.7-1.5-8.4-6.1-18.2-13.6-29.3l-7.3-10.8c.8-1.1,1.9-2.2,3.1-3.4,1.2-1.2,2.5-2.2,4-3.2,3-2,6-3.4,8.9-4.2l7.3,10.8c8.5,12.6,16,20.9,22.3,25,6.4,4.1,12,4.4,17.1,1s6.2-6.9,6.3-12.3c.2-5.4-1.3-11.8-4.3-19.1-3-7.3-7.4-15.1-13.1-23.5l-1.5-2.2c-7.3,1.8-13.6,1.9-18.8.2-2-3.9-3.2-8-3.8-12.3-.5-4.3-.3-8.2.8-11.8,1.1-3.6,2.8-6.2,5.2-7.8,3.8-2.6,8.9-1.8,15.2,2.3,6.3,4.1,12.5,10.7,18.7,19.8,7.9,11.6,13.5,22.7,16.9,33.4,3.4,10.6,4.2,20.2,2.3,28.7s-6.5,15.3-14.1,20.4-10.2,5.1-15.8,5.3-11.3-1.3-16.8-4.3c.2,6.5-1.1,12.6-3.9,18.2-2.8,5.7-7,10.4-12.6,14.2-9.1,6.2-18.5,7.6-28.1,4.2s-18.7-11.3-27.1-23.6l-14.2-20.8c-3.1-4.5-6.1-7.7-9.1-9.4-3-1.7-5.9-1.6-8.8.4s-3.3,3.4-4.4,6.5-1.6,8.8-1.4,17.1l.3,15.8.2-.2Z"/>
      <path class="st5" d="M533.8,385.4c-12.7,9.1-25.8,12.5-39.4,10.1s-26-10.2-37.3-23.4c-6.7,3.4-14.5,5.7-23.5,7.1s-17.6,1.6-25.8.5c-2.6-.4-11.7-2.9-13-4.7s5-3.1,5.2-5.9,1.2-4.9,2.9-6.1,4.2-1.5,8-1.2c5.7.5,11.8.3,18.3-.7s12.1-2.5,16.9-4.6c-4-7.6-6.3-15.4-6.9-23.3-.5-7.9.7-15.4,3.7-22.3,3-7,7.7-12.8,14.2-17.4s10.1-5.7,15.5-6.5,10.6-.2,15.4,1.7c4.9,1.9,8.9,5.1,12.1,9.6,6.5,9,7.9,19,4.2,30-3.7,11-12,21-24.8,30.2-2,1.4-4,2.7-6.1,3.8,7.4,8.2,15.5,13,24.5,14.3s17.6-1,25.9-7c1.5-1.1,3.3-1.3,5.2-.5,2,.7,3.8,2.3,5.5,4.6s2.3,4.4,2.1,6.5-1.2,3.8-3.1,5.2h.3ZM466.6,308.3c-5.6,4.1-8.7,9.7-9.3,17-.6,7.3,1.5,14.9,6.2,22.9,1.7-.9,3.2-1.8,4.7-2.8,8.7-6.3,14.6-12.5,17.8-18.8,3.1-6.3,3.1-11.7-.2-16.3s-5-4.8-8.6-5.2c-3.5-.4-7,.6-10.5,3.2h-.1Z"/>
      <path class="st5" d="M528.6,388.4c-1.8.8-4.6,0-6.4-1-1.8-1.1-3.2-2.9-4.3-5.4s-1.4-4.8-.8-6.9c.6-2.1,6.7-5.4,8.9-6.4,8.8-4,11.8-8.2,18.2-16.1s11.2-16.3,14.3-24.9c-4.5-6.5-9.5-15.3-14.9-26.1-5.4-10.9-12.1-25.2-20-42.9h.2l-.3-.2c-5.3-11.8-9.6-21.8-13-30.1-3.4-8.3-5.9-15.4-7.6-21.3s-2.8-11.1-3.3-15.5c-.5-4.5-.5-8.7.1-12.8.8-6.1,2.8-11.1,6.2-15.1,3.3-4,7.6-7.2,12.7-9.5,10.3-4.6,20.3-3.6,29.9,3,9.6,6.6,18,17.9,25.2,33.9,8.3,18.6,13.1,39.6,14.2,62.8s-1.4,47-7.7,71.2c.7.8,1.4,1.6,2.2,2.3,3.8,3.5,8,5.6,12.5,6.2s9.1-.2,13.7-2.2,3.7-.7,5.5.3,3.3,2.8,4.5,5.5c2.5,5.5,1.3,9.4-3.6,11.6-7.8,3.5-15.4,4.8-22.9,3.8-7.5-.9-13.7-3.5-18.8-7.8-.6-.5-1.1-1-1.6-1.4-4.7,9.7-10.6,18.4-17.6,26-7.1,7.6-14.9,14.4-25.5,19.1h0ZM541.6,251.7c5.7,12.8,10.6,23.5,14.6,32s7.5,15.6,10.5,21.2c2.9-20.8,3.5-40,1.8-57.7s-5.9-33.9-12.4-48.5c-4.9-11-9.9-18.8-15.1-23.6-5.1-4.8-10-6.1-14.6-4-5.2,2.3-7.7,7.1-7.6,14.3,0,3.8.8,8.2,2.1,13.4s3.6,12,6.9,20.3c3.3,8.3,8,19.2,14,32.5h-.2Z"/>
      <path class="st5" d="M605.2,351.9c-2,.5-3.7-1-5.3-2.4s-2.8-3.4-3.4-6.1-.6-5.2.4-7.1,1.5-1.8,3.8-2.3c8.8-2.2,17.4-8.1,23.4-14.9s10.2-14.9,12.6-24.5c-.9-2.2-1.6-4.4-2.2-6.8-2.6-10.4-3-20-1.1-28.9s5.8-16.5,11.5-22.9c5.8-6.3,13.2-10.6,22.1-12.9s12.8-2,19.4-.8c6.2,1.2,11.7,3.8,16.4,7.8-.2,6.2-3.2,11.3-9,15.5-6.2-5.1-13.4-6.7-21.5-4.6-8.1,2.1-13.9,6.8-17.3,14.1-3.4,7.4-3.8,16.2-1.2,26.6,2.7,10.7,8,18.4,15.9,23.3s17.6,5.8,29.1,2.9c1.8-.5,3.6,0,5.2,1.5,1.6,1.5,2.8,3.5,3.5,6.2s.5,4.9-.4,6.8-2.6,3.1-5,3.7c-10.7,2.7-20.5,3-29.7.9-9.1-2.1-16.9-6.3-23.2-12.6-4,9.1-9.7,16.7-17.2,23-7.5,6.2-16.5,11.8-26.7,14.4h0Z"/>
      <path class="st5" d="M694,327.6c-2,.3-3.7-.3-5.2-1.9-1.5-1.5-2.4-3.7-2.8-6.4s0-5.2,1.2-7,2.9-2.9,5.2-3.2c8.7-1.3,17.1-3.4,23.7-9.2,6.5-5.7,10.7-14.4,14.1-23.2-.9-2.9-1.6-6.1-2.1-9.3-1.5-10.3-.7-19.8,2.6-28.5,3.2-8.7,8.3-15.9,15.3-21.7s15.2-9.4,24.8-10.8c9.6-1.4,18.5-.4,26.8,3.1s15.2,9,20.8,16.3c5.6,7.4,9.1,16.2,10.6,26.5s.7,19.9-2.4,28.7c-3.1,8.8-8.1,16.1-14.9,21.9-6.8,5.8-15.1,9.4-24.8,10.8-9.2,1.4-17.7.5-25.6-2.5-7.9-3.1-14.6-7.8-20.1-14.3-4.9,8.3-11.4,15.2-19.4,20.5-8.1,5.3-17.2,8.7-27.5,10.3h-.3ZM783.8,295.3c9.2-1.4,16-5.7,20.6-12.9,4.5-7.3,6-16.3,4.4-27s-2.3-10-4.5-14.2c-8.6,1-16.6.4-24.1-1.7-7.4-2.1-13.5-5.6-18.3-10.4-5.4,3.3-9.3,8.1-11.7,14.4-2.4,6.3-3,13.4-1.8,21.4s5.6,18.5,12,24.1c6.5,5.6,14.3,7.7,23.4,6.4h0Z"/>
      <path class="st5" d="M850.1,324.6c-3.5-.7-6.6-1.9-9.3-3.4l13.8-67.8c2.3-11.5.2-17.9-6.3-19.2s-7.7-.2-13.8,1.4c-6.1,1.6-13.2,4.1-21.3,7.6-1.4.6-2.9.7-4.3.5s-3.7-1.9-5.3-4.6c-1.5-2.7-2-5.3-1.5-7.8s2.1-4.1,4.8-5.2c11.4-4.6,20.5-7.7,27.4-9.3,6.8-1.6,13.3-1.7,19.4-.5s10.9,4,14.6,8.4c3.6,4.4,5.7,9.8,6.3,16.2,4.5-5.6,9.8-9.5,15.8-11.8s12.3-2.8,19-1.4c13.9,2.8,21.9,11.9,23.9,27.2,4.8-6.1,10.5-10.5,17-13,6.6-2.6,13.5-3.1,20.9-1.6,10.1,2,17.1,6.8,21.2,14.3,4.1,7.5,4.9,17,2.6,28.6l-6,29.6c-1.6,7.8-1.7,13.6-.3,17.4s4.3,6.2,8.8,7.1,3.3,1.6,4.1,3.5c.7,1.9.8,4.3.2,7.1s-1.5,4.2-3.1,5.8c-1.6,1.6-3.7,2.1-6.4,1.6-20.6-4.2-28.3-18.9-23.1-44.1l5.5-27.2c1.5-7.4,1.3-13.3-.6-17.8-1.9-4.5-5.3-7.3-10.3-8.3-7.5-1.5-14.3,1.6-20.4,9.3-6.1,7.7-10.6,19.1-13.7,34.3l-7.4,36.6c-1.5.1-3.1.2-4.9.1-1.8,0-3.4-.3-5-.6-3.4-.7-6.6-1.9-9.5-3.5l12-59.1c1.7-8.4,1.6-15.1-.4-20.1-2-5.1-5.8-8.2-11.5-9.3s-10,0-14.7,3.3c-4.7,3.2-8.9,8.3-12.6,15.2-3.7,6.9-6.5,15.1-8.5,24.7l-7.4,36.6c-1.5.1-3.1.2-4.9.1-1.8,0-3.4-.3-5-.6l.2-.3Z"/>
      <path class="st5" d="M983.6,352.3c-1.7-.8-4.1-5-4.4-7.1-.3-2.1.2-4.3,1.5-6.8,2.8-5.6,6.5-7.2,11.2-4.9,3.8,1.9,7.9,3.2,12.4,3.9,4.5.7,10.1.9,16.7.5-.7-11.3,2-22.9,7.9-34.8,4-8,9-14.4,15.1-19,6-4.7,12.6-7.4,19.7-8.4,7.1-.9,14,.3,20.7,3.7s10.1,6.7,13.2,11.5c3.1,4.9,4.7,10.2,4.8,16.1,0,5.9-1.3,11.9-4.4,18-4.1,8.3-10.3,14.6-18.6,19.1-8.3,4.4-20.2,7.8-35.7,10.1,2.7,5,7.5,9.3,14.5,12.8,3.8,1.9,7.8,3.2,12,4.1,4.3.8,8.6,1.2,13,1.2,1.2,2.4,1.6,5.2,1.2,8.5s-1.3,6.2-2.6,8.8c-5.5.3-11,0-16.5-1s-10.9-2.8-16.2-5.4h-.2c-6.2-3.2-11.5-7.1-15.9-11.9s-7.5-9.9-9.3-15.3c-16.3,1.6-28.7,2.2-40.1-3.5v-.2ZM1046.5,310c-5.1,10.2-7.4,19.3-6.8,27.2,11.3-1.6,20.4-4.2,27.3-7.7s11.5-7.8,14.1-12.9c2.3-4.7,3-8.9,2.1-12.7-.9-3.8-3.4-6.7-7.4-8.7s-10.4-2.3-15.9.5c-5.6,2.9-10,7.6-13.3,14.2h0Z"/>
    </g>
  </g>
  <g id="Layer_3">
    <g class="st1">
      <g class="st1">
        <path class="st2" d="M528.8,571.7h-55.4c2,9.1,9.8,14.7,20.9,14.7s13.3-2.3,18.4-7.1l11.3,12.2c-6.8,7.8-17,11.8-30.2,11.8-25.3,0-41.8-15.9-41.8-37.7s16.7-37.7,39-37.7,38.1,14.4,38.1,37.9-.3,3.9-.4,5.7ZM473.1,559.3h36c-1.5-9.2-8.4-15.2-18-15.2s-16.6,5.8-18.1,15.2Z"/>
        <path class="st2" d="M587.8,602.3l-16-22.4-16.6,22.4h-23.1l28.2-36.9-27.2-36.3h23.8l15.5,21.4,15.9-21.4h22.6l-27.2,35.8,28.3,37.4h-24.1Z"/>
        <path class="st2" d="M614.4,565.7c0-22,17-37.7,40.8-37.7s27.5,6.7,32.8,18.6l-16.5,8.8c-3.9-6.9-9.8-10.1-16.5-10.1-10.7,0-19.2,7.5-19.2,20.3s8.4,20.3,19.2,20.3,12.5-3,16.5-10.1l16.5,9c-5.3,11.7-17.4,18.5-32.8,18.5-23.8,0-40.8-15.6-40.8-37.7Z"/>
        <path class="st2" d="M699.7,501.4h21.2v100.9h-21.2v-100.9Z"/>
        <path class="st2" d="M814.4,529.1v73.2h-20.1v-8.7c-5.6,6.4-13.7,9.8-22.7,9.8-18.4,0-31.3-10.3-31.3-32.9v-41.3h21.2v38.2c0,12.2,5.4,17.7,14.8,17.7s16.9-6.3,16.9-19.7v-36.2h21.2Z"/>
        <path class="st2" d="M827,595.5l7.1-15.2c6.5,4.2,16.5,7.1,25.4,7.1s13.5-2.6,13.5-6.7c0-12-44.2.3-44.2-29s12.5-23.7,33.9-23.7,21.2,2.3,28.2,6.4l-7.1,15.1c-7.2-4.1-14.4-5.4-21.1-5.4-9.5,0-13.6,3-13.6,6.8,0,12.5,44.2.4,44.2,29.2s-12.6,23.3-34.5,23.3-24.9-3.4-31.7-7.9Z"/>
        <path class="st2" d="M903.7,507.1c0-6.7,5.3-11.8,13.2-11.8s13.2,4.9,13.2,11.4-5.3,12.2-13.2,12.2-13.2-5.2-13.2-11.8ZM906.3,529.1h21.2v73.2h-21.2v-73.2Z"/>
        <path class="st2" d="M1019.8,529.1l-30.9,73.2h-21.9l-30.7-73.2h21.9l20.3,49.8,20.9-49.8h20.4Z"/>
        <path class="st2" d="M1097.8,571.7h-55.4c2,9.1,9.8,14.7,20.9,14.7s13.3-2.3,18.4-7.1l11.3,12.2c-6.8,7.8-17,11.8-30.2,11.8-25.3,0-41.8-15.9-41.8-37.7s16.7-37.7,39-37.7,38.1,14.4,38.1,37.9-.3,3.9-.4,5.7ZM1042.1,559.3h36c-1.5-9.2-8.4-15.2-18-15.2s-16.6,5.8-18.1,15.2Z"/>
      </g>
      <g class="st1">
        <path class="st2" d="M457.5,692.3l-26.5,73.2h-20.4l-16.5-45.4-17,45.4h-20.4l-26.4-73.2h20l17.3,49.5,18-49.5h18l17.4,49.5,17.8-49.5h18.8Z"/>
        <path class="st2" d="M459.9,728.9c0-22,17-37.7,40.3-37.7s40.1,15.6,40.1,37.7-16.9,37.7-40.1,37.7-40.3-15.6-40.3-37.7ZM518.8,728.9c0-12.6-8-20.3-18.6-20.3s-18.8,7.6-18.8,20.3,8.2,20.3,18.8,20.3,18.6-7.6,18.6-20.3Z"/>
        <path class="st2" d="M678.1,723.6v41.9h-21.2v-38.6c0-11.8-5.3-17.3-13.9-17.3s-16.2,6.1-16.2,19.2v36.7h-21.2v-38.6c0-11.8-5-17.3-13.9-17.3s-16,6.1-16,19.2v36.7h-21.2v-73.2h20.3v8.4c5.4-6.3,13.6-9.5,23-9.5s18.9,3.9,24.1,12c5.8-7.5,15.4-12,26.4-12,17.4,0,29.9,10.1,29.9,32.4Z"/>
        <path class="st2" d="M769.2,734.9h-55.4c2,9.1,9.8,14.7,20.9,14.7s13.3-2.3,18.4-7.1l11.3,12.2c-6.8,7.8-17,11.8-30.2,11.8-25.3,0-41.8-15.9-41.8-37.7s16.7-37.7,39-37.7,38.1,14.4,38.1,37.9-.3,3.9-.4,5.7ZM713.6,722.5h36c-1.5-9.2-8.4-15.2-18-15.2s-16.6,5.8-18.1,15.2Z"/>
        <path class="st2" d="M858.6,723.6v41.9h-21.2v-38.6c0-11.8-5.4-17.3-14.8-17.3s-17.5,6.3-17.5,19.7v36.2h-21.2v-73.2h20.3v8.6c5.7-6.3,14.3-9.7,24.2-9.7,17.3,0,30.3,10.1,30.3,32.4Z"/>
        <path class="st2" d="M875,718.7h38.5v17h-38.5v-17Z"/>
        <path class="st2" d="M926.1,728.9c0-22,17-37.7,40.3-37.7s40.1,15.6,40.1,37.7-16.9,37.7-40.1,37.7-40.3-15.6-40.3-37.7ZM985,728.9c0-12.6-8-20.3-18.6-20.3s-18.8,7.6-18.8,20.3,8.2,20.3,18.8,20.3,18.6-7.6,18.6-20.3Z"/>
        <path class="st2" d="M1095.5,723.6v41.9h-21.2v-38.6c0-11.8-5.4-17.3-14.8-17.3s-17.5,6.3-17.5,19.7v36.2h-21.2v-73.2h20.3v8.6c5.7-6.3,14.3-9.7,24.2-9.7,17.3,0,30.3,10.1,30.3,32.4Z"/>
        <path class="st2" d="M1114.6,664.6h21.2v100.9h-21.2v-100.9Z"/>
        <path class="st2" d="M1228.2,692.3l-33,77.7c-7.1,17.7-17.1,23-30.3,23s-15.6-2.4-20.4-6.7l7.8-15.1c3.3,2.9,7.8,4.6,12,4.6s9.1-2.6,12-9.1l.3-.7-31.7-73.7h21.9l20.5,49.6,20.7-49.6h20.4Z"/>
      </g>
      <g class="st1">
        <path class="st2" d="M656.6,898.1h-55.4c2,9.1,9.8,14.7,20.9,14.7s13.3-2.3,18.4-7.1l11.3,12.2c-6.8,7.8-17,11.8-30.2,11.8-25.3,0-41.8-15.9-41.8-37.7s16.7-37.7,39-37.7,38.1,14.4,38.1,37.9-.3,3.9-.4,5.7ZM600.9,885.7h36c-1.5-9.2-8.4-15.2-18-15.2s-16.6,5.8-18.1,15.2Z"/>
        <path class="st2" d="M742.4,855.5l-30.9,73.2h-21.9l-30.7-73.2h21.9l20.3,49.8,20.9-49.8h20.4Z"/>
        <path class="st2" d="M820.3,898.1h-55.4c2,9.1,9.8,14.7,20.9,14.7s13.3-2.3,18.4-7.1l11.3,12.2c-6.8,7.8-17,11.8-30.2,11.8-25.3,0-41.8-15.9-41.8-37.7s16.7-37.7,39-37.7,38.1,14.4,38.1,37.9-.3,3.9-.4,5.7ZM764.7,885.7h36c-1.5-9.2-8.4-15.2-18-15.2s-16.6,5.8-18.1,15.2Z"/>
        <path class="st2" d="M909.7,886.8v41.9h-21.2v-38.6c0-11.8-5.4-17.3-14.8-17.3s-17.5,6.3-17.5,19.7v36.2h-21.2v-73.2h20.3v8.6c5.7-6.3,14.3-9.7,24.2-9.7,17.3,0,30.3,10.1,30.3,32.4Z"/>
        <path class="st2" d="M976,925.2c-4.4,3.1-10.7,4.6-17.3,4.6-17.3,0-27.3-8.8-27.3-26.2v-30.1h-11.3v-16.3h11.3v-17.8h21.2v17.8h18.2v16.3h-18.2v29.8c0,6.3,3.4,9.7,9.1,9.7s6.3-1,8.6-2.7l5.7,15Z"/>
      </g>
    </g>
  </g>
</svg>