<?xml version="1.0" encoding="UTF-8"?>
<svg id="Layer_1" xmlns="http://www.w3.org/2000/svg" version="1.1" viewBox="0 0 2460 1105">
  <!-- Generator: Adobe Illustrator 29.3.1, SVG Export Plug-In . SVG Version: 2.1.0 Build 151)  -->
  <defs>
    <style>
      .st0 {
        fill: #f7f2f6;
      }

      .st1 {
        fill: #bea9d9;
      }

      .st2 {
        fill: #d8cce8;
      }

      .st3 {
        fill: #695286;
      }

      .st4 {
        fill: #6a5387;
      }
    </style>
  </defs>
  <path class="st3" d="M140.7,218.7c1.7,2.1,3.2,7.3,5.3,10.2,9.3,12.4,22.3,23,32.5,34.5,21.8,24.3,41.8,50.4,61.9,76.1,4.7,6.1,13.6,21.9,19.7,25.3s5.7,1.4,5.9,1.6c.4.5-1.8,11.8-3,12.6-1.9,1.3-4.5-.6-6.5-.5s-5.6,3.8-7.6,2.5c-27.8-35.8-54-73-84.5-106.6-9.3-10.2-20.1-19.3-29-30s-12.1-15.3-12.4-17.6c-1.6-9.9,2.9-5.9,6-7.9s.6-4.1.9-4.6c.7-1.1,9,2.3,10.7,4.4Z"/>
  <path class="st3" d="M332.1,358.3l13-100.9c.9-.8,15.3,1.4,17.2,2.1s.1,9.3-.4,12.2c-4.6,25-6.7,51.6-8.9,77.1s-1.6,12.4-4.4,12.5c-4.7,0-11.6-2.7-16.6-3Z"/>
  <path class="st4" d="M170.7,444.7c.7.8,3.3,6.3,3.2,7.1-.3,1.4-2.7,2.3-3.3,3.7-2.4,5.2.6,6.5-8.8,6.8-7.2-4.6-14.3-9.2-22-13s-23.5-10.9-26.6-11.4-2,1.3-2.5,1.3-5-2.8-5.2-3-3.1-6-3.1-6.4c-.1-1.3,1.7-2.4,1.9-3.9s-1.1-3.9-.6-4.5c5.7-7.3,26,4.8,32.6,7.6s17.7,6.5,25.7,10.3,7.6,3.8,9,5.5Z"/>
  <path class="st1" d="M1298.5,890.3c-41.8,2.4-85.9-9.9-113.4-43.1-19.8-27-25-61.8-28.2-94.6-7-85.7-13.8-171.3-13.1-257.3-.3-27.1-1.9-54.1-1.8-81.1,1.4-31.8,3.3-63.1,6-95,6.1-87.6,38.1-103.2,119.7-116.6,35.8-3.5,71.7-5.4,107.7-7.6,26.5-.7,52.3,2,78.8,1.1,22.5-.3,45.5-2.4,68.1-2.9,26.4-.3,51.1,2.2,77.4,0,21.7-1.8,43.5-.7,65.2-1.4,14.9-.6,29.7-3.1,44.6-4.3,67.4-1.3,134.8-7.2,202.2-4,32.8,1.9,66-1.2,98.8-.9,41.1,3.1,82.4,2.1,123.5,1.2,28.9-1.9,57.5,1.3,86.3,3.6,23.1-.4,47.2-.7,65,16.2,24.1,20.5,26,54.9,28.9,84.5,2.4,30.5,5.1,60.9,6.3,91.4,2.5,31.7,2.6,62.9.6,94.5.9,31.9.8,63.7-.9,95.6-.8,21,1.4,41.8,1.3,62.8-.3,25-2.7,50.1-1.1,74.9,3,36,3.6,72.4-9.5,106.6-12.2,32.3-32.3,55.7-69,56-62.3,8.9-127,3.5-189.1,8.7-41.3,2-82.4,6.2-123.8,7.4-43.1,1-86-3.4-129.2-.7-34.3,2-69-.4-103.3,2.5-32.9,3.4-65.8,1.3-98.8,1.9-56,1.6-112.5,3.1-168.5,3.9-43.3-1-87.2-2.7-130.6-3.1h-.2ZM1363.9,352.6c-5.2,5.1-15.3,7.6-23.6,9.4-7,1.5-14,3.5-20.5,5.9-15.2,5.6-30,13.4-41.4,25.1-24.2,25.1-30.4,62.5-29.5,96.4.7,31.7,11.9,61.8,36.3,82.7,21.8,18.9,64.4,27.1,92.7,23.2,23.1-3.5,34.1-15,56.3,1.2,9.1,6.6,18,14,27.9,19.3,18.9,10.8,41.5,17,63.2,12.8,16.2-2.7,30.8-11.3,44.6-19.5,12.1-6.8,22.9-6.9,36.1-1.7,14.9,6.1,35.7,14,51,11.2,7.8-1.6,13.4-6.3,18.2-12.9,7-10,12-22,17.8-32.8,11.4-22.1,25.6-42.6,36.5-65.1,5.9-12.7,13.4-27,28.3-30.2,10.9-2.6,24.7-.9,36.6-.6,8.6.3,23.8,1.1,23.4,11.9-.2,6.4-3.7,12.4-6.8,18-3.9,6.7-8,13.4-12.5,20.1-8.1,12.2-15.6,24.8-23.1,37.4-16.2,25.6-8.7,38.2,16.7,50.1,15.9,7.7,31.9,15.1,49.3,18.4,13.8,1.9,27.8,1.8,41.5.2,26.5-3.4,50.7-16.2,73.1-30.4,23.3-15.8,33.2-11.4,56.2.9,23.9,12.1,50.6,13.5,77,14.9,19,1.3,38-.8,54.7-10.2,31.1-17,59.9-42.7,77-74.3,18.1-32.4,28.2-60.8,25.7-98.7-4.3-63.4-64.6-91.9-121.9-89.8-23.8,0-21.8-16.6-27.1-34.8-4-13.2-9.5-26.4-18.2-37.1-12.3-14.3-31.1-24.2-49-31-25.3-8.3-55.2-9.1-79.1,3.1-11.9,5.1-23,17-35.9,18.7-14.1,1.6-24.6-10.4-37.3-14.9-23.2-7.8-57.2-8.5-79.3,2.1-6,2.9-11.6,7.1-17.6,9.8-14.8,7.7-28,0-40.9-8-7.4-4.5-15.3-8-23.5-10.5-14-4.5-28.1-5.2-42.5-3.8-23.2,1.1-44.7,9.5-62,24.9-9.5,7.9-18,16.8-24.8,27.1-4.8,6.5-10.2,16.5-19.2,16-10.6-1.6-18.6-14-26.5-21.1-7.9-7.8-16.8-15.2-27.1-19.3-20-7.8-43.4-7.2-63.6-.2-25.4,10.4-54.3,27.9-70,50.8-3.7,5.6-6.3,12.2-8.2,18.3-2,6.1-4.3,12.5-8.9,16.7h-.1ZM1818.8,480.7c-5.6-6.7-23.4-5.4-33.1-6.6-22.3-1.8-35.8.1-47.3,21.2-16.6,29.8-34.2,59.1-51,88.9-12.2,20.7-24.8,40.8-34.2,62.8-3.3,7.5-7.1,15.1-8.9,23.1-3,11.7,1.4,21.3,13.8,21.4,6.1.2,13.6-1.9,19-2.9,6.1-1.2,12-1.1,10.2,7.7-1,5.4-3.9,11.8-6.3,17.1-3.7,8-7.5,15.7-11.6,23.6-5.6,10.8-10.3,21.7-15,32.8-3.5,8.5-8.3,17.7-9.1,26.8,0,8.4,6.7,5.4,12.9.9,4.5-3.3,9.3-8.3,13.3-12.7,37.8-41.7,78.3-80.9,117.3-121.3,8-8.9,20-19.3,21.6-31.3.9-13.2-15.6-15.3-26.2-16.3-12.6-1.5-35.3,2.5-29.9-15.6,2.4-7.7,7.4-15.3,11.3-22.4,8.5-15,17.5-29.9,27.8-44.3,7.8-10.9,16-22.1,22.2-33.9,3-5.7,7-13.6,3.2-18.9h0ZM1943.5,638.2c-3-4-8-3.6-12.9.3-6.9,5.8-10,15.1-13.3,23.6-5.1,14.2-9.5,28.6-14.4,42.8-7.7,22.2-16.3,43.9-22.1,66.9-2.4,11-10.4,31.6,1.2,38.6,3.7,1.8,8.6-.2,12.4-5.2,3.8-4.8,5.9-11.8,7.3-18.1,9.3-40.1,23.1-79.5,38.1-117.7,3.6-9.1,9.3-22.8,3.7-31.2h0ZM1386.6,637.7c-2.5-2.1-6.4-2-10.4.3-9.2,5.9-13.3,18.2-17.7,28-7.1,16.9-16.3,33.1-23.5,49.9-6,13.9-10.1,28.2-14.6,42.6-2.5,9-9.5,29.5.2,35,12.1,3.7,20.1-21.4,23.1-30.8,3.5-11,6.7-22.1,11-32.9,6.9-17.6,16.4-34.5,24-51.9,4.3-10.4,17.1-30.9,8.1-40.2h0ZM2135.3,640.3c-2.4-3.8-6.5-3.8-10.6-1-6.9,4.9-11.2,14.8-14.5,22.9-12.5,31.5-27.7,61.8-37.7,94.2-1.6,5.2-3,11.3-2.7,16.4.5,7.7,4.9,13.3,11.9,10.1,7.2-3.6,10.8-12.1,13.4-19.7,9.3-29.1,23.2-56.9,33.4-85.7,3.6-10.5,12.1-26.7,6.9-37.1h0ZM1517,779.7c2.9,3.3,8.1,2.4,11.6-1.1,4.5-4,7.7-11,9.7-17.2,8.4-28.8,26.3-54.5,37.1-82.2,1.7-4.6,3.4-10,3.4-14.6,0-9.9-7.1-15.3-15.2-8-5.5,4.8-9.2,13.1-11.9,20.2-9.6,24.3-23.9,47.2-33.1,71.7-3.2,9.2-8.5,22.9-1.7,31h0Z"/>
  <path class="st2" d="M2199.1,874.4c-36.3,3-71.7,1.4-108,1l108-1Z"/>
  <path class="st2" d="M1659.1,890.4c-19.9.3-41-.9-61-1,10-2.3,21.2-.3,31.5-1.1l29.5,2.1Z"/>
  <path class="st2" d="M1490.1,892.4c-16.3.4-33.1,2.3-49.5,2-1.9,0-3.9.5-5.5-1,16,0,33.2-2.2,49.5-2,1.7,0,4.4-.6,5.5,1Z"/>
  <path class="st2" d="M1391.1,892.4c-17.1-.4-34.5,1.2-51.5.8-2.8,0-9.9-1.1-12.5-2.8,16.1.2,32.1.4,48.3.4,4.5,0,11.3.4,15.7,1.6Z"/>
  <path class="st2" d="M1762.1,886.4c-29.4.3-55.9.8-85,3,5.3-4.5,15.2-.6,21.3-2,12.9-3,27.2-1.8,41.2-1.9,2.6,0,5.1-1.2,8-1.2,4.1,0,10.4,1.2,14.5,2.1Z"/>
  <path class="st2" d="M1905.1,886.4c-17.3-.1-35.6-1.6-53-2,2.4-2.9,7.6,0,9.5,0h28l15.5,2Z"/>
  <path class="st2" d="M1536.1,891.4c-14.7,2.1-30.1.6-45,1l16.5-2c9.4-.3,19.5,1,28.5,1Z"/>
  <path class="st2" d="M1586.1,889.4c-4.3,1.7-9.8,1.8-14.4,2-11.1.4-22.8,0-33.6,0,1-1.7,3.8-1,5.5-1,14.2-.1,28.4-.9,42.5-1Z"/>
  <path class="st2" d="M1947.1,885.4c-13.3.5-27,1.1-40,1l21.7-1.6c6.1,2.1,12.5-2.5,18.3.6Z"/>
  <path class="st2" d="M1850.1,884.4c-10.6-.2-23.2,0-34,0l9.5-2,24.5,2Z"/>
  <path class="st2" d="M1433.1,893.4c-8.3,2.1-17.6.4-26,0,6.9-1.8,15.3-1.1,22.6-1.1s3.3,1.1,3.4,1.1Z"/>
  <path class="st2" d="M1814.1,884.4c-1,1.7-3.8,1-5.5,1-9.9.1-19.6.8-29.5,1,9.2-2.9,19-1.8,28.5-2,2.3,0,4.6,0,6.5,0Z"/>
  <path class="st2" d="M2213.1,873.4c2.5-3.6,12-4.8,16.5-5s5.8,2.1,6.1,2.1c2.8.3,4.1-3.4,5.4,1.9-2.7-.3-7.4-2.8-9.4-2.9-5-.2-13.6,3.1-18.6,3.9Z"/>
  <path class="st2" d="M1976.1,884.4c-8.5.7-16.5.6-25,1,5.6-3,13.2-2.1,19.5-2s4.4-.6,5.5,1Z"/>
  <path class="st2" d="M1326.1,890.4c-8.5-.1-17.9.9-26-1,6.8,0,13.7,0,20.5,0s4.4-.6,5.5,1Z"/>
  <path class="st2" d="M1393.1,892.4c2.9-1.4,11.2-2.5,13,1-4.2-.2-9.5-.9-13-1Z"/>
  <path class="st2" d="M2006.1,881.4c-3,.2-6.8,1.8-9.5,2.1s-5.8-.3-8.5-1.1c3-.1,9-1.3,12.8-1.7s4.2-1.1,5.2.7Z"/>
  <path class="st2" d="M1674.1,889.4c-4.5.2-8.9.9-13,1,2.7-3,9.9-2.7,13-1Z"/>
  <path class="st2" d="M2256.1,867.4c-1.5,3.1-8,1.7-11,1,1.1-1.9,8.3-.9,11-1Z"/>
  <path class="st2" d="M2212.1,873.4c-3.3.5-6.7.6-10,1-1.2-3.3,7.9-2.5,10-1Z"/>
  <path class="st2" d="M2021.1,879.4c-1.8,4.1-5.8,1.3-8,1,1.7-1.8,5.5-.9,8-1Z"/>
  <path class="st2" d="M2264.1,867.4c2.1-2.6,5.9-1.4,8.3-2.1s4.9-3.4,5.7-3.9c.6,5.6-10.4,5.8-14,6Z"/>
  <path class="st2" d="M1987.1,882.4c-1.9.9-5.9,1.8-8,2-1.2-5.2,3.7-1.9,8-2Z"/>
  <path class="st2" d="M1596.1,889.4c-2.3,0-5.3,0-8,0,1.5-1.7,6.4-1.7,8,0Z"/>
  <path class="st2" d="M2088.1,875.4c-2,0-5.1.9-7,1-1.1-3.1,5.2-2.7,7-1Z"/>
  <path class="st2" d="M2261.1,867.4c-1.7,1.9-3,2.8-4,0,1.5,0,3.3,0,4,0Z"/>
  <path class="st2" d="M1770.1,886.4c-1.7,0-3.3,0-5,0,.7-1.6,4.3-1.6,5,0Z"/>
  <path class="st2" d="M1776.1,886.4c-1.7,0-3.3,0-5,0,.7-1.6,4.3-1.6,5,0Z"/>
  <path class="st2" d="M2011.1,880.4c-.1,0-.4,1.6-1.6,1.9s-1.3-.9-1.4-.9l3-1Z"/>
  <path class="st2" d="M2243.1,872.4l1-1c-.3.4-.3.8-1,1Z"/>
  <path class="st2" d="M1977.1,884.4h1c-.8,0-1,0-1,0Z"/>
  <path class="st2" d="M1949.1,885.4h1c-.5,0-.8,0-1,0Z"/>
  <path class="st2" d="M1763.1,886.4h1c-.3,0-.7,0-1,0Z"/>
  <path class="st2" d="M2262.1,867.4h1c-.3,0-.9,0-1,0Z"/>
  <path class="st2" d="M1777.1,886.4h1c-.4,0-.7,0-1,0Z"/>
  <path class="st2" d="M2089.1,875.4h1c-.3,0-.7,0-1,0Z"/>
  <path class="st2" d="M2200.1,874.4h1c-.7,0-1,0-1,0Z"/>
  <path class="st2" d="M1675.1,889.4h1c-.6,0-.9,0-1,0Z"/>
  <path class="st0" d="M1385.8,639.6c2.8,1.6,5.2,9.2,4.1,12.2s-3.5,1.2-4.7,3.3c-3.3,5.4-6.1,17.4-9,24-8.2,18.9-19.8,38.6-25.9,58.1-4.8,15.3-8.3,41-18.3,52.7-1,1.2-1.1,4.2-2.6,4.5s-9.1-2.6-9.3-3c-.9-1.3,1.3-5.4.9-5.9-1-1.3-5.5.9-5-3.4,1-8.3,6.8-19.7,9.2-27.8s3.2-15.5,5.4-22.6c6.4-20.9,19.3-41.9,27.8-62.2,3.2-7.7,5.9-20,9.2-26.7s6.5-6.1,6.9-6.2c1.9-.3,3.3,3.3,5.1,3.8s4.7-1.4,6.1-.7Z"/>
  <path class="st0" d="M2136.9,640.5c.3.4.4,8.9.1,10.1s-1.6.8-1.9,1.5c-6.5,16.9-11.9,34.5-18.3,51.5-8.5,22.7-20.9,47.1-24.8,71.2-.6,3.9,1.7,7.5-4.7,8.2s-14-.4-14.7-.6-2.7-4.3-2.7-4.5c-.2-6.5,9.1-34.4,11.8-42.3,11-31.7,26.8-62.4,36.1-94.9,1.3-3.9,4-.9,6.7-1.2,5-.6,1.3-6.2,9.7.4.7.5,2.4.4,2.7.7Z"/>
  <path class="st4" d="M1620.1,635.4"/>
  <g>
    <path class="st3" d="M1359,343.9c2.2-2.5,1.5-7.4,1.6-10.8,0-8.7,2.8-17.5,6.3-25.4,16-30,56.6-53.1,86.5-65.2,8.4-3.2,17.4-1.5,26.1-.7,8.2.7,16.5-.8,24.5,1.5,20.8,6.5,37.3,30.1,51.8,46.5,6.9,8.6,12.9,12.2,18.6.2,3.9-7.9,8-15.6,12.9-22.9,3.7-6.4,7.8-12.3,13.8-16.4,4.2-2.9,8.6-5.8,12.3-9.4,20.7-18.9,21.4-18.7,47.9-22.2,9.9-1.9,17.5-3.4,26.7-2.5,7.5.6,15.4,0,22.8,1.7,6.4,1.6,12.3,5.1,18.1,8.2,5.1,2.8,10.4,5.3,15,8,20.9,12.2,21.5,28.1,42.9,3.6,6-5.5,15.3-8.8,22.5-11.9,2.4-1,4.8-2,7.4-2.6,7.8-2,16.1-.8,24.1-.9,7.7.2,14.4-.3,21.7.4,5.4.5,10.5,2.4,15.8,3.7,12.1,2.7,20.1,7.8,28,18.1,9.1,12.8,17,3.7,26-4,10.3-8.9,21-15.5,32.9-21.5,11.4-4,22.2-6.5,34.7-4.6,11.4,2.2,23.2-.5,34.4,3.4,9.6,3.6,18.3,10.1,27.2,15.5,8.9,5.4,19.2,8.2,25.7,17.2,6.7,9.2,12.2,19.8,15.8,30.9,2.8,8.6,5.7,16.4,7.6,25.4.9,5,1.6,10.1,1.8,15.2,0,3.9.4,8.6,2.1,10.2,3.1,2.8,7.8.2,11.3-.3,5-1,10-1.5,15.5-.7,4,.5,7.9,1.4,11.8,2,6.2.9,11.8-.1,18,.4,5.1.4,9.8,2.6,14.8,4.4,7.3,2.5,14.1,6.1,21,9.7,5.4,2.6,11.2,4.3,15.8,7.6,3.9,2.6,6.5,7,9.9,10.6,1.8,1.9,3.5,3.7,5.2,5.5,15,16.4,23.3,39.7,23.1,62.6,0,8.3-1.7,16.5-2.2,24.8-.3,6.9.4,12.7-1.1,19.2-1,4.6-3,8.9-4.7,13.3-4.8,14.1-10.3,27-17.5,39.8-5.8,10.5-9.8,21-17.3,30.2-10.8,12.6-22.3,24.2-34.3,35.1-4.6,4-9,7.3-13.9,9.9-4.7,2.5-9.9,4.6-14.1,8-5,3.6-9,7.9-14.9,9.7-5.1,1.5-10.4,2.5-15.7,2.9-17.9,1.4-35.7.4-53.6-2.6-7.1-.7-12.9.7-19.8-.8-5.8-1.2-11.6-3.8-17.3-5.5-6.8-2.1-13-4.3-19.2-7.9-7.1-3.9-13-9.3-19.7-13.6-9.4-6.3-17.2.3-24.5,6.6-13.1,10.5-28.1,20-43.5,26.4-17.8,10.4-28.7,13.3-48.9,14.4-16.8,1.7-44.1,1.1-58.9-7.3-4.8-3.1-8.5-7.3-13.5-9.5-5.8-2.7-12.6-2.3-18.5-4.9-7.4-3.5-34.1-3.2-40.2-8.6-10-8.1,16-25.4,22-34.1,10.8-14.1,16.7-31.6,26.5-46.3,6.1-9.3,13.8-18.5,18.9-28.5,2-4.1,3.1-8.6,4.8-12.8,6.6-14,7.3-17.2-8-17.4-11.7.2-23.5.4-35.1-.8-6.6-.6-13.3-1.7-20-1.6-8.3-.2,2.8-8.2,0,0-13.9,40.6-59,86-74.6,125.6-4.6,10-11.2,27.5-21.5,31-14.4,2.6-30.1-2.5-44.2-7-6.2-2.1-11.5-4.4-17-7.8-4.7-2.9-9.9-7.2-14.6-8-6-1.1-10.7,3.9-15.6,7.9-15.3,12.3-33.9,22.2-52.9,26.2-28.6,4.2-56.7-9.6-79.2-27.2-6.9-5.3-13-11.5-19.3-17.7-2.8-2.7-5.6-4.7-8.3-5.4-3.8-1.1-7.3,1.1-10.6,2.8-6.5,3.8-15.2,6.7-22.9,8.9-18.9,5.1-38.9,1.9-57.9-2.5-15.3-4.2-28-7.8-40-16.2-15.9-12.7-30.5-33-36.7-53.4-11.4-44.4-8.5-104.6,19.5-141.6,9.1-11.6,21.3-21.2,35-26.1,11-4.6,22.1-9.7,33.7-12.9,6.2-1.7,12.7-1.9,19.1-1.9,3.1,0,7.9-.4,9.7-2.9h0Z"/>
    <path class="st0" d="M1833.1,474.7c1.1,4.4,5.3,5.8,3.9,8.6s-.6,7.1-2.1,10.8c-6.7,15.8-28.3,37-38.7,53.3-10.6,16.6-20.9,32-30.2,49.3-1.5,2.8-12.5,19.6-12.3,20.8.8,3.6,11.2.5,13.6.6,15.9.3,38.5.1,53.8,2.6s14,7.2,11.2,14.3c-1.4,3.5-14.1,16.7-17.7,20.3-45.5,45.6-94.3,88.5-138.9,135.2-4.9,5.2-10,9.3-14.8,14.3s-8.1,13.4-14.1,13.9-12-.5-9.8-7.8c2.5-8.2,18.6-29.1,19.5-34.4s-1.4-4-.3-7.8c2.8-9.5,15.2-24.4,20.4-33.7,4.6-8.2,6.3-15.3,9.3-23.5,1.4-4,12.9-20.1,12.3-22.9s-2.3-1.6-3.9-1.4c-3.6.5-18,8-23.3,9.9-9.5,3.3-18.5,7-28.6,2.5s-6.9-6-6.6-9.7c.7-9.7,6.4-15.2,9.9-23,8.4-18.6,13-32.2,24.9-49.8,18.9-27.8,36.4-59.1,54.4-88,7.8-12.6,16.8-25,23.7-38.1,6.3-12,3.1-20.8,22.2-20.5s18.6,1.7,27.1,2.2c15.8,1,19.1,4.3,35.1,2Z"/>
    <path class="st0" d="M1945.8,638.6c2.1,1.5.6,7.7-.3,9.9-5.9,14.4-11.7,29-16.8,44.2-11.2,33.8-23.8,72.5-29.5,107.5s0,6.1-.4,9.1c-4.1,1.3-19.7,2.4-21.7-1.1s-.3-3.8-.1-5.2c2.5-17.3,10-45.7,15-63s5.9-14.4,8.2-21.8c7.8-25,14.5-50.6,24-75,5.9-15.2,8.6-5.1,21.5-4.5Z"/>
    <path class="st0" d="M1514.1,781.4c.2-3.7-.4-7.6.2-11.3,5.5-32.6,26.8-62.2,38.2-92.8,2.9-7.6,5.7-15.9,6.5-24h18.5c2.1,0,1.5,6.7,1.3,8.3-4.7,28.9-28.1,60.2-37.5,87.5-3.4,9.7-4.9,21.3-7.7,31.3-1.7,2.8-3.9,1-5,1h-14.5Z"/>
  </g>
  <g>
    <path class="st1" d="M730.7,139.7c3.8,3.6,10.9,9.9,14.2,14.3,4.9,6.6,8.1,15.7,12.2,22.9,25.6,44.9,52.6,87.1,74.9,134.1,54,114,74.1,234.6,102.6,356.4s21.6,79.6,29.4,119.6c3.5,17.9,1.6,26.8-.8,44-.2,1.2.8,2.7.6,3.8-.5,2.7-7.6,11.6-10.2,13.6s-3.4,1.2-4.9,2.1-1.3,2.6-2.3,2.9c-22.3,6.2-64.5-3.5-87.9-6.9-52.4-7.5-105.5-14.7-157.6-24.4-33.5-6.2-67.8-15.6-101.4-20.6-35.1-5.2-70.8-9.4-106-14-12.1-1.6-24.4-1.7-36.4-4.1.1,2.8-.3,5.7,0,8.4,3,22.6,11.9,47.1,17.8,69.2s4,20.7,6.8,30.2c5.1,17,16.6,35.6,23.1,52.9,2.4,6.4,8.6,20.9,6.4,27s-1.3,2.9-2.2,3.8c-6.3,6.6-29.1,4.4-38.5,5.5s-24.9,9.1-31.3-2.7-7.4-31.5-14-44c-12.8-53.1-27.2-106.1-38.2-159.8-12.6-1.9-26.2-5-38.7-6s-12.8.6-19.3,0c-11.1,14.2-19.9,29.9-31.1,44-6.9,8.7-15.7,19.9-23,28-11.9,13.4-14.5,12.8-31.4,15.5-1.5.2-2.7,1.9-4,1.9s-11-5-11.6-5.7c-6.5-7.4-21.7-45.3-26.2-56.6-22.3-55.7-45.1-113.9-60.8-172.1-5.1-19-16.7-48.8-4.8-66.9s6.7-5.1,11.1-6.7.7-1.6,1.5-1.8c14.8-4.1,34.9,6.4,49.2,10.5,17.2,4.8,35.4,8.3,52.8,12.2s17.8,4,18.7,3.9c3.4-.3,9.2-9.8,11.8-12.3,36.1-35.2,72.1-71.8,107.7-107.8,45.8-46.3,90.9-93.4,137.4-138.5s96.7-91,139.5-139.5,17.2-23.1,30.3-32.9,8.9-5.5,12.7-6.2c6.5-1.1,16.9-1.8,21.7,2.9ZM737.8,206.7c-3.2-2.2-13.3-2-16.2.6-4.4,3.9-2.9,10.2-3.7,14.3-3.3,17.5-1,24.1.2,41.3,3.3,46.8,10,84.6,21.3,129.7,11.1,44.4,22,88.8,33,133,16,64.3,37.4,124.1,64.5,184.5s17.3,34.9,23.8,51.2,1,8,2.9,12.1c3.9,8.1,19.7,23.8,27.7,28.3s12.4,5.1,21,3.2,8.1-7.4,10.5-12.6,0-3.7.7-4.8,2.3-.6,2.7-1.9-.9-9.4-1.1-10.7c-.5-2.7-2.2-2.3-2.7-3.5-1.2-2.8-2.7-13.4-3.8-18-8.7-35.3-20.4-69.9-30.1-104.9-26.3-95.1-56.2-189.5-86.5-283.5-15.3-47.5-27.2-97.4-51.3-141.7s-9.2-14.4-12.7-16.8Z"/>
    <path class="st4" d="M737.8,206.7c3.5,2.4,10.5,12.7,12.7,16.8,24.1,44.3,35.9,94.2,51.3,141.7,30.3,94,60.2,188.4,86.5,283.5,9.7,35,21.3,69.6,30.1,104.9s2.7,15.2,3.8,18,2.2.8,2.7,3.5,1.3,10.2,1.1,10.7c-.4,1.2-2.3,1.3-2.7,1.9-.7,1.1,0,3.3-.7,4.8-2.3,5.1-4.6,11.3-10.5,12.6-8.6,1.9-13.5,1.1-21-3.2s-23.8-20.2-27.7-28.3-1.2-7.8-2.9-12.1c-6.5-16.3-16.3-34.7-23.8-51.2-27.1-60.4-48.5-120.2-64.5-184.5-11-44.2-21.9-88.6-33-133-11.3-45.2-18-83-21.3-129.7-1.2-17.2-3.6-23.8-.2-41.3s-.7-10.4,3.7-14.3,13.1-2.8,16.2-.6Z"/>
  </g>
</svg>