<?xml version="1.0" encoding="UTF-8"?>
<svg xmlns="http://www.w3.org/2000/svg" version="1.1" viewBox="0 0 2460 1105">
  <!-- Generator: Adobe Illustrator 29.3.1, SVG Export Plug-In . SVG Version: 2.1.0 Build 151)  -->
  <defs>
    <style>
      .st0 {
        fill: #f8f2f6;
      }

      .st1 {
        fill: #6c5487;
      }

      .st2 {
        fill: #766190;
      }

      .st3 {
        fill: #6e588b;
      }

      .st4 {
        fill: #391f1f;
      }

      .st5 {
        fill: #6e5689;
      }

      .st6 {
        fill: #f8f3f6;
      }

      .st7 {
        fill: #715b8c;
      }

      .st8 {
        fill: #745f8e;
      }

      .st9 {
        fill: #705a8b;
      }

      .st10 {
        fill: #cb5658;
      }

      .st11 {
        fill: #6d5789;
      }

      .st12 {
        fill: #f8f3f7;
      }

      .st13 {
        fill: #6b5588;
      }

      .st14 {
        fill: #6d5689;
      }

      .st15 {
        fill: #70598c;
      }

      .st16 {
        fill: #c44143;
      }

      .st17 {
        fill: #ba3d3f;
      }

      .st18 {
        fill: #6c5587;
      }

      .st19 {
        fill: #705a8c;
      }

      .st20 {
        fill: #6d5788;
      }

      .st21 {
        fill: #6f598c;
      }

      .st22 {
        fill: #c95052;
      }

      .st23 {
        fill: #bfaad9;
      }
    </style>
  </defs>
  <g id="Layer_1">
    <path class="st4" d="M1211.3,563.8c1.7-5.4,1.9-10.5,2.5-16.3.5-7-3.8-10.7,2.7-14.2,6.3-3.9,22.7-9.8,29.7-13.2,10.2-4.7,19.6-10.3,30.7-13,16.5-4.4,32.4-9.9,49-14.3,10.5-2.8,45.7-9.9,56.2-12.4,12.7-3.6.8,2.6,13.4,6.6,28,9.2,58.8,7.2,85.6-3.6,30.8-12.1,60.3-31.7,84.7-54.6,9.3-8.5,19-16.7,27-26.4,9.2-10.3,14.3-24.6,24.8-33.6,5.8-4.6,12.8-7.4,19.4-10.9,10.9-6,23.2-12.3,34.3-18.8,10.2-6.5,19.4-13.6,30-19.8,6.7-4.1,13.9-8.3,20.5-12.7,16.2-10.1,33.3-18.8,49.5-28.7,7-3.7,13.3-7.8,20.4-11.6,4.6-2.3,8.9-5,13.2-8,17.7-12.2,31.7-28.9,48.4-42.5,9.8-9.2,20.5-17.7,30.9-26,7.2-6.7,13.9-11.7,22.9-15.8,11.2-5.3,22.1-11.2,33.3-16.7,21.8-11.8,43.7-29.3,64.3-45.5,16.4-12.6,32.3-26,45.5-41.9,10-11.6,22.6-21.2,34.3-31.1,13.6-11.3,24.9-25.7,38.2-37.1,1.6-1.2,3-1.6,4.8-1.7,79.2-.3,272.6.2,325.2,0,4.3,0,7.1,0,8.3,0,.6,0,1.4,0,1.4.8-1.5,25.9,1.1,813.7,0,1029.7,0,44.7,0,72,0,74.2,0,.5-.2.4-.7.4-.5,0-1.3,0-2.5,0-405.8.3-2395.3-.2-2455.4,0-.3,0-.3-.3-.4-.6,0-.2,0-.5,0-.7-.2-6.6,0-10.7,0-20.3,0-22,0-57.3,0-72.9,0-2.3.3-4.8,1.2-6.6,2.1-3.5,5.1-4,9.1-5.7,7.5-2.6,14.7-7.5,21.1-12.4,20.4-15.7,48.1-23.9,72.8-14.6,16.3,6.1,26.1,9.9,42.8,2.6,24.5-10.7,50.1-17.5,75.9-24.3,22.5-6.1,45.1-12.3,67.9-17.3,77.8-18.1,157.8-12.9,236.9-19.1,18.1-1.3,34.6-4.4,51.6-10.7,56.5-21.3,111.2-47.1,172.7-50.2,13-.7,24.6-4.1,34-13.4,6.4-5.9,13.1-11.9,18.6-18.7,7.2-9.1,15.6-17.7,25.6-24.3,34-22.3,30.4-30.6,52.7-58.8,8.6-10.1,19.1-18.3,30.5-25.1,30.9-17.6,65.8-28.4,92.7-52.2,5.7-4.9,10.8-9.8,16.6-15,4.2-3.7,9.1-7.3,13.1-11.2,3.7-3.7,19.1-16.4,22.8-18.1,2.7-1.5-.5,7.6,0,9.6,1,4.5-2.8,11.9,3.4,11,6.9-.9,10.6-7.7,14-13.3,5.3-9.5-4.2-10.1,4.8-15.9,12.1-8.8,40-24.9,53.3-31.9,7.1-4.1,13.1-9.2,19.7-13.6,7.4-5.3,29.3-15.9,37.3-19.8,11.6-6.3,2.1,2.7,2.3,16.1M1671.2,361.4c1.7-2.5-2.2-2.3-4.7-3.3-4.7-2-9-3.2-12.9-.2-6,4.8-7.1,15.8-12.4,21.4-5.7,6.3-15.1,9-17.5,17.7-.6,2.2-.9,4.6-.3,6.7.8,3.1,4,6.1,7.1,4.8,3.1-1.4,3-8.1,4.2-11.1,2.3-7.4,9-10.1,14.1-15.5,3.6-3.9,3.5-11.6,7.3-15.3,3.2-3.6,12.1-1.5,15.1-5.1h0ZM1408.7,521.1c-5.5-2.8-9.9.4-14.9,4-3.7,2.6-9.6,4.7-7.9,9.3,2.6,3.9,15.4-6.9,19.6-6.2,4,.3,4.4,9.7,6.6,12.7,3,4.4,11.3-3.6,16.6-7.4,7.7-5.7,5.3-4.2,16.4-.6,3.6,1.1,3.2,4.7,4.4.4,1.6-5.6-3.3-9.7-8.9-10.7-4.4-1.1-15,7.2-19.7,9.2-7.3,3.3-5-3.5-11.9-7l-.3-3.6Z"/>
    <path class="st17" d="M1410.5,521.4c2.3,1.5,6.3,6.1,7.8,8.6,13.5-10.5,33.8-18.5,33.5,7-5.9-1.4-7.8,4.9-11.3-1.3s-.4-3.3-.8-3.6c-3.5-3-15.9,6.7-18.4,9.9s-.6,7.3-7.8,5.7-2.4-12.8-7.5-15.8c-7.3-4.4-10.6,5.8-13.7,6-4.5.2-7.6-.9-7.3-5.6.2-3.9,10.1-11.2,13.5-12s9.1-.7,11.9,1.1Z"/>
    <path class="st17" d="M1671.6,364.9c-1.2,1.4-11,.5-13.6,2.4-3.8,2.7-3.1,12.2-5.8,14.7s-3.6.9-5.1,1.9c-3.6,2.4-12.9,12.3-12.5,16.5s5.8,8-3.5,8.6-9.9-9.4-7-15.7,8-10.2,10-12.4,9.9-7.6,10.3-8.2c.6-1.1.1-3.6,1-5.5,3.9-8.6,11.7-14.2,21.5-12s6.6,7.3,4.6,9.7Z"/>
    <path class="st8" d="M930.1,561c0,1.2.4,2.8-.2,3.8-17.3,11.3-35.2,22.2-51.7,34.8-1.6,1.2-9.8,7.3-10.1,7.9-2.5,3.6-.8,6.5-7.9,8.1-6.5,1.5-4.3-3.9-8-8,.1-.6,4.9-5.3,5.9-6.1,15.7-13.3,46.9-35.8,65-44.5l7,4Z"/>
    <path class="st2" d="M889.1,511l-48.3-5.1c-2.5-.8-2.5-9.9,0-10.7,6.2-2,32.3,3.9,41,4.5s6.5-2.6,7.3,1.9-.3,6.5,0,9.5Z"/>
    <path class="st10" d="M1699.6,247.2c.2.2,0,1.6.5,2.4s1.4.5,1.6,1.1c2.3,8.7-7.4,7.2-13,8.8s-18.5,7.2-21.3,6.5-.5-1.6-1.5-2c-2.4-.9-4.5,1.7-3-4.3s7.2-5.9,10.7-7.2,23.5-7.6,25.8-5.3Z"/>
    <path class="st22" d="M1661.5,226.2c4.9-1.4,6.9.9,7.1,5.6s-6.9,12.8-9,16.5c-1.1,2-5.2,11.8-5.8,12.2-1.2.8-7.9.8-9.1,0-1.7-1.2-1-4.7-.4-6.5,1.4-4.2,10.8-20.4,13.6-24.4s2-3,3.5-3.5Z"/>
    <path class="st22" d="M1693.5,300.7c-3.7,3.4-10-2-14.3-2.6s-12.2.9-15.8-.3-3.6-3.3-3.6-3.5c-2.3-9.9,7.2-6.3,12.4-6.2s5.4-1,7.8-.8c3.6.2,16.1,4.3,15.5,9.1s-1.8,4.3-2,4.4Z"/>
    <path class="st2" d="M940.2,627.8c-.8-1.4.3-3.9.8-5.4,1.5-4.9,6.8-17.3,9.6-21.4,4.5-6.6,11.6-3,10,4.9s-4.3,7-5.8,10.3-3.9,17.1-9.1,15.5-5.3-3.7-5.5-4Z"/>
    <g>
      <path class="st16" d="M1251.9,366l-9-38.5c-2.6-39.5,2.8-88.4,24.8-122.1,10.7-16.3,23.9-33.9,36.2-48.9,11.2-13.7,40.1-24.9,57-31s17.8-3.3,28.4-4.5,15.7-6,21.6-7.5c47.1-12.5,114.5-5.6,155.3,20.7,22.9,14.8,24.4,28.3,38.2,48.8,2.9,4.3,6.9,6.7,9.9,13.1,18.1,39.4,24.4,83.3,15.3,126.2-3.5,16.6-11,31.8-15.7,46.7-1.6,5.2-14.1,25.3-18,30.5-10.1,13.2-21.9,21.3-33.5,32.5-11.1,10.6-20.8,18.2-34.1,26.9-38.8,25.1-79.8,43.1-126.7,30.1-8-2.2-16.1-5.8-24.5-7.9s-5.9-.4-8-1c-13-3.4-27.8-7.5-38.3-14.1-9.1-5.8-17.3-14.2-25.1-20.9-7.6-6.5-11.5-13.7-18-21s-6.8-4.8-8.5-9c.8-.6,1.7-2.5,3-3.5,8-6.6,14.9-13.7,23.1-20.1l-8.1-15.4c-.5-.4-7.2,2.8-8,3.5-7.2,7.2-12.8,12.8-21,19.5-3.9-4.3-3.9-9.9-8-14,5.3-3.1,24.8-17.5,26.5-23,1.8-5.5-1.4-3.7-4.9-6.2s-4.7-5.7-9.9-4.7-10.3,9.4-13.8,12.2-5.1,2-5.9,2.6Z"/>
      <g>
        <path class="st20" d="M1088.1,606.6c-6,8.6-9.9,22-17.1,29.9s-6.1,2-11-.9-5.7-1.4-5.9-1.6c-2.6-2.8,6.3-8.3,4.9-9.8l1.3-4.3c.9-5.3.1-2.8,3.4-5.9s7.4-14.2,9.3-17.7c2.9-5.5,6.9-10.7,8.9-17.1s-3.1-18.1-5.7-25.2-3.2-10.1-4.8-13.7c-2.6-5.7-12.8-15.4-7.7-22.4s2.6-.6,3.2-1.2,0-3,1.9-3.6,8-.3,8.3,0,.2,2.8.8,3.6c6.2,9.7,13.3,22.1,17.3,33.3s7.1,23.5,6.7,27.4-7.6,15.5-9.2,20.6"/>
        <path class="st18" d="M1196.9,557.4c-.1-1.2-.1-15.5,0-17.4.2-2.7,1.8-5.6,2-8.5s.5-11.9-.1-13.9-9.8-3.2-11.9-2.6c.5-2.4-1.2-2.1-2.6-2.8-6.3-3.4-13.1-6.3-19.4-9.9-.4-3.7,1.2-9.7,2.1-13.8s.2-1.9,1.6-2.4c6.3-2.2,16.5,7.6,22.7,10.1s10.2,2.2,15,4,8.4,4.4,8.7,4.8,1.9,7.3,2,8.5c.4,4.6.2,11.7,0,16.5s0,.7,0,1c-.2,5.2-2.1,12.9-2,18.5s2,7.5,1.1,10.7-4.3,3.4-4.6,3.5"/>
        <path class="st23" d="M1197.9,388c-7.3.1-13.6-1.8-21,0-.6,2.8,1.3,5.8,1,8.4s-2.4,3.4-1.5,5.5,3.3,4.4,3.5,4.5c2.8,1.7,25.2-.7,30-1.5l5,12.3c4.4.7,3.6,5,5,8.7-8.8,4.2-15.8,10.6-25.7,12.7s-25.3,2-37.6,2.3-12.5,1.3-12.6,4.3,2,13.1,2.4,13.7c1.7,2.5,8.4,0,11,0,17.2-.2,37.6-.4,53.8-7.4s11.5-7.2,16.8-9.7c2.7,9.5,3.4,19.5,5.4,29.1s2.8,3.9,2.5,7.3-4.5,13.2-5.9,15.2c-2.6,3.6-11.9,7.5-15.1,11.4-.3-.4-7.6-4.3-8.7-4.8-4.7-1.9-10.2-2.2-15-4s-16.3-12.2-22.7-10.1-1.3,1.2-1.6,2.4c-1,4.1-2.5,10.1-2.1,13.8,6.3,3.5,13.1,6.4,19.4,9.9s3.2.4,2.6,2.8c-.4.1-5.7,4.6-7.1,5.4-8.9,5.1-22.4,14.5-30.6,18.4s-27.9,6.6-34.1,8-13.7,1.5-20.2,3.3c-4.1-11.2-11.1-23.5-17.3-33.3s-.3-3.3-.8-3.6-7.3-.3-8.3,0c-1.8.6-1.2,2.9-1.9,3.6s-2.5.3-3.2,1.2c-5.1,7,5.1,16.6,7.7,22.4s3.3,9.6,4.8,13.7c-8.2-1.2-16.6,4.8-23.5,5.9-2.5.4-5.2-.3-7.8.2-9.4,1.7-18.7,3.5-28.1,5l-15.9-11.2c-26.2-49-54.8-109.8-57.6-166.3-.2-4-2.8-4.6-3-6.1-1.1-8.6,0-11.6,7.2-15.9s21.5-6.8,32.1-10.8c31.2-11.8,67-21.8,96-37.7,16.9-9.3,36.5-12.5,55.8-16.5,2-.4,3.6-2.1,5.5-2.5,4.1-.8,11.8.5,15.4,2.5,14,7.9,27.9,42.2,34.5,57.4s7.7,20.1,11.5,30ZM1122.7,324.2c-6.5,2-8.1,14.6-6.5,20.1s14.7,17.9,19.8,16.3c8.7-2.7,4.1-18.7,1.8-24.9s-6.1-14.2-15.1-11.5ZM1058,380c2,1.7-9.8,16.9-10,19.6s4.3,6.4,6.5,6.4,9-11.1,10.2-13.8,5.6-14,6.1-16c1.7-8-6.4-5.6-11.2-6.4s-12.8-2.5-19.1-3.9c-7.8,15.4,7,11.8,17.5,14ZM1119.9,378.1c-.4-.5-6.9-3.5-8.2-3-2.5.8-3.3,7.4-3.7,9.9-6.3-.1-10.1-5.3-16.5-1s-7.2,15.5-4.3,17.9,9.8-1,10.7-2-.1-4.4.2-5.8c.6-.7,11.1,5.5,17,.5s5.9-15,4.9-16.4Z"/>
        <path class="st1" d="M1251.9,366c.8-.6,3.6-.7,5.9-2.6,3.5-2.8,10.2-11.5,13.8-12.2,5.2-1.1,6.5,2.2,9.9,4.7s6.7.6,4.9,6.2c-1.8,5.4-21.2,19.9-26.5,23-11.5,6.7-37.1,17.8-50,20s-27.1,3.2-30,1.5-3.4-4.3-3.5-4.5c-.8-2.1,1.3-3.6,1.5-5.5s-1.6-5.6-1-8.4c7.4-1.8,13.7.1,21,0,16.4-.3,41.2-13.3,54-22Z"/>
        <path class="st5" d="M1267.9,399c8.2-6.7,13.8-12.2,21-19.5s7.4-3.9,8-3.5l8.1,15.4c-8.2,6.3-15.1,13.5-23.1,20.1s-2.2,2.9-3,3.5c-15.9,12.7-32.9,18.3-51,27s-11.1,7.3-16.8,9.7c-16.2,7-36.6,7.2-53.8,7.4s-9.3,2.4-11,0-2.4-12.8-2.4-13.7c0-3.1,10-4.3,12.6-4.3,12.3-.3,25.2.4,37.6-2.3s17-8.5,25.7-12.7c20.6-9.8,30-12.4,48-27Z"/>
        <path class="st3" d="M1122.7,324.2c9-2.7,12.4,4.5,15.1,11.5s7,22.2-1.8,24.9-18.5-11.9-19.8-16.3,0-18.1,6.5-20.1Z"/>
        <path class="st21" d="M1058,380c-10.5-2.2-25.3,1.4-17.5-14,6.3,1.4,12.7,2.9,19.1,3.9s12.9-1.6,11.2,6.4-5,13.5-6.1,16-7.6,13.8-10.2,13.8-6.7-3.9-6.5-6.4,12-17.9,10-19.6Z"/>
        <path class="st21" d="M1119.9,378.1c1,1.4-3.1,14.8-4.9,16.4-5.9,5-16.4-1.1-17-.5-.3,1.5.6,5-.2,5.8s-9.4,3.1-10.7,2c-2.9-2.4.6-15.5,4.3-17.9,6.4-4.3,10.2.9,16.5,1,.4-2.5,1.2-9.1,3.7-9.9s7.8,2.5,8.2,3Z"/>
      </g>
    </g>
    <path class="st23" d="M694.2,109.8c15.6,31.8,21.1,67.4,25.9,102.2,5.1,45.9,10.8,91.7,8.6,138-.1,12.2,1.7,23.6,1.9,35.4.1,19.5-3.6,39.2-5.9,58.5-4.1,33-3.8,66.5-8.5,99.5-6.3,47.2-.2,94.6,2.9,141.8-.4,19,.5,36.1-2,55.2-3.9,25.8-12.8,51.2-28.2,72.5-14.4,17.9-33.7,33-56,39.3-14.1,3.3-27.1,2-41.5,2.4-10.9.5-22-.3-32.7-.4-24.3.8-48.6,0-73-.7-29.6-2.6-59.1-5.8-88.8-6.7-27-.1-53.9,3.2-80.8,3-15.6-.2-31.4-.8-46.9,0-27.4.9-54.6-4.5-81.5-8.4-37-8.5-80.6-14.2-102.7-49.1-13.7-19.7-19.3-43.3-20-67-1.7-23.9-1.6-48.2-3.3-72.2-2-19.9-1.9-38.9-2.6-58.8-1-16.1-3.5-32.2-4.2-48.3-1.3-14.7,0-28.3.5-42.7,0-8.7-.8-17.4-.7-26,0-10.5,1.4-21.1,1.6-31.9.3-11.2-1.1-22.5-1.6-33.5-1.2-32.2-4.7-65.5-4.8-97.9,3-28.4-.4-56.7,3.4-85,4-26.9,10-52.7,19.2-78.6,7.7-24.6,22.5-46.4,43.3-61.6,19.5-14.8,43.9-22.7,68.1-25.5,18.6-1,37.2-1.6,55.8-3.9,21.7-1.9,43.2-.4,64.7-2.2,17.6-.9,35.1.4,52.7-.3,15.9.1,31.5,5.9,47.3,5.8,48.2-1.5,96.4-7,144.7-7.6,11.6-.6,22.1-1.9,33.2-1.2,16.4,1.8,33.4,5.1,49.3,9.6,23.1,9.8,48.8,24.3,62.5,46.2v.2ZM231.6,114.6c-5.3-.1-10.8-.4-16.2-.2-9.9.2-22.6,2.7-32.5,5.4-8.4,2.2-16.2,5.9-22.6,12-14.7,13.5-21.9,34.3-11.1,52.2,5.5,8.4,14.1,13.2,24.1,17.2,15,6,30.5,7.5,46.2,9.1,42.1,4.5,84.5,8.7,127,7.9,21.9,0,44.3,1.1,66.1.4,19.9-1,39.8-4.7,59.9-3.3,16.2.6,32.2,2.3,48.2,1.2,14.9-.9,29.6-3.9,44.3-4.9,12.8-1.1,26.3-.2,38.8-3.5,15.5-4.2,27.6-17.3,29.2-33.5,1.1-9.5.8-20-3.7-28.6-4.6-8.5-14.6-12.4-24.2-16-7-2.4-14-4.8-21.1-6.7-28.1-7.5-57.5-4.5-86.3-5-12.7-.6-25.3-2.8-38.1-3.2-36.7-1.8-73.7,2.1-110.4,1.7-22.6-.9-44.7-3.3-67.6-3.1-5.8,0-11.9,0-17.7,0-10.9.2-21.6,1.5-32,1.1h-.2ZM625.2,268.3c-12.8-15.6-37.3-16.4-56.1-17.6-41.1-2.3-81.6,2.4-122.7,5.1-23.6,1.4-47.2,2-70.8,1-22.5-1-44.4-3.9-66.8-4.7-28.1-1.3-56.4-1.1-84.4.7-16,.9-32.5-.2-48.4,2.3-7,1.1-13.7,2.9-19.8,6.4-16.3,9.5-21.3,28.3-21.9,46.2-1.3,37.3-3.4,85.8,17.2,117.3,8.9,11.6,24,19.2,37.9,22.7,14.8,3.6,30,.6,45,1,27.4,1.7,54.6,4.6,82.1,6.4,18,1.3,35.7,4.3,53.6,5.3,17.1.8,34.5,2.6,51.3,3.5,46.2,1.1,92.5-2,138.5-4.5,26.3-.9,62.8,1.8,74.1-27.9,2.2-5.6,3.5-11.6,4.2-17.7,2.8-27.9.3-56.9,0-85-.4-18.1-2.3-45.6-13-60.3h-.1ZM307.9,480.5c-14.2-1.9-28.1-.3-42.5.4-6.3.2-12.7,0-19,0-16.5-.3-33.1,1.2-50,3-6.5.7-12.9,1.4-19.3,2.5-20,3.5-38.3,14.2-46.6,32.6-5.7,15.6-2.7,32.8-1.5,49.1,8.4,51.6-3.1,104.1,5.5,155.5,3.5,24.8,15.4,51.5,39.1,62.6,17.8,8.2,38.3,11.5,57.8,14.5,31.4,4.9,63.2,4.6,94.7,6.5,15.2.7,30.4,3.8,45.5,5,12.5.7,24.7-.7,37.5.8,8.9.9,17.8,2,26.4,2.4,13.6.7,27.2-.5,40.8-.6,19.5.4,38.7,1.6,57.9.5,11.3-.2,22.6-1.5,33.8-2.7,9.2-1.1,18.9-1.1,27.9-2.8,10.8-1.7,19.3-6.9,27.8-13.6,5.8-4.3,11.1-9.4,14.3-15.7,4.5-8.2,4.8-17.7,5.4-26.8.6-7.3.4-14.6,1-22,2.1-16.3,5.9-32.8,4.1-49.3-1.2-24.6-.3-49.9-5.3-74.4-6.7-32.4,6.1-66.7-23.7-91.2-12.7-11.3-29.2-14.8-45.5-16.8-4.8-.8-9.6-1.3-14.5-1.5-21.3-.7-43.1-2.9-64.3-3.4-12.9-.4-25.9-.3-38.8-.5-7.8-.4-15.5-2-23.2-3.1-17.1-2.8-34.9-1.3-52-2.7-8.4-.6-16.6-2.1-24.9-3.3-16.1-2.6-32.3-2.8-48.4-4.9h-.2Z"/>
    <path class="st12" d="M232,115.4c.3.2.2,1.6.9,1.6,3.3,0,9.1-2.8,12-3,18.3-.9,48.3-.7,66.7.3s32,3.3,50.2,2.7c37.9-1.3,77-4.2,114.9-1.1s13.6,3,19,3.1,15.2-1,22.9-1c24.8-.2,47.1-.6,71.3,6.7s17.2,7.9,23.9,9.1,2.7-.7,3.6-.5c4,.8,6,5.4,8,7.4s2.2.4,3.1,1.3,3.3,5.6,3.5,6.5c1.3,6.9,0,21.2,0,29s2.1,5.9-.9,10-3.5,2.2-3.8,2.7c-1.7,2.9-2.3,5.7-6,8.8s-6.5,2.8-7,3.2-.2,2.6-1.8,3.7c-9.2,6.3-34.9,4.3-46.9,5.1-20.3,1.2-39.4,7-60,6s-40.5-3.2-60-2-14.1,2.6-20.9,3.1c-28.4,1.9-59.2-.5-88,0-45.6.8-91.8-5.8-137-10s-42.1-10-50.5-22.6c-2.3-3.5-5.7-11.8-6-16.2s1.8-1.1,2-2c.9-3.9-1-9.5-.7-12.6.8-6.9,17.9-27.7,24.4-30.4,12.4-5.1,51.5-15.1,62.9-8.9Z"/>
    <g>
      <path class="st12" d="M309.2,483.9c.5-.4.5-2.5,1.7-2.8,2.1-.5,7.3,2.4,9.2,2.7,8.9,1.2,21,.5,30.3,1.7s14.1,3.4,20.7,4.3c20.9,2.9,43.1-.2,64.6,2.6s10.7,4.5,12,4.4,3-1.5,4.4-1.6,2.6,1.7,4.8,1.9c8,.6,12.1-.7,19.1-2,10-1.8,16.4,4.5,27.9,3s4-2.9,5.9-3c4.6-.2,17.3,4.6,24,5s7.8.4,10,0,3-2.8,4.8-2.8,12,2.5,14.1,2.9c3.1.7,6,2.9,9.2,3s1.5-2.7,4.1-2.9c7.3-.6,11.1,3.8,15,4.5,9.1,1.7,17.5,3,25.4,9.7,3.9,3.3,8.6,10.7,11.9,13.9s4.4,2.8,6,6.4c2.5,5.6,6.1,33.1,6,40.8s-4.9,12-1.8,19.8c5.8,14.1,7,42.4,7.8,59.2.4,8.7-1.2,20-.1,28.1s2,1.3,2.1,2.1c.2,1.8-1.5,4.9-1.1,7.9.5,4.8,1.9,6.9.8,12.8-1.8,9.2-7.1,15.9-5.7,26.1,1.1,8.4.4,5.3-.9,13.1s2,6.7,2,7.9c0,4.9-4,11.7-4.1,17.1s4.7,5.1-1.5,12.4-13.2,10-18.5,14.5-.6,2.8-1.6,3.6c-1.6,1.2-9.7,2.7-10.1,3.1s0,2.4-1.2,3.3c-5.4,4.2-28.2,2.5-36.6,3.5-3.3.4-6.4,1-9.8,1.4s-15.7,3.5-19,2.6-.7-2-1.2-2c-1.4,0-5.4,1.8-7.9,2-4.5.4-8.3-1-11.9-.9s-9.2,3-13.9,1.9c-11.6-2.8-26.2-2.4-39.2-2s-20.5,1.6-31,1.1c-15.1-.7-37.1-6-51-4.2s-1.3,2.1-2,2.1c-8.6.4-27.2-3.9-37-5.1-34.1-3.8-67.4-1.7-101.6-6.2-22.5-3-50.2-6.6-70.1-15.9-1.9-.9-8.4-2.5-8.7-2.8s3.2-3.9-3.1-6.4-3.7-.2-4.7-.8-2.2-4.9-3.2-6.3c-5.4-7-9.2-12.8-12.7-21.3s-4.6-21.6-6.5-31.5-1.4-15.1-1.8-22.3c-1.7-32.4,1.7-66,1-99-.2-11.7-4.4-23-5-35s1.1-17.1,0-23-3-3.2-2.9-4.8,4.2-6.3,4.7-8.5c1-5.3.3-7.2,4.5-12.9s8.5-7.7,14.9-11.3,9-6.1,12.5-8c7.4-4,58-7.9,69.9-8.6s38.7,2,50.8-.4c2.2-.4,3-2.6,4.1-2.8s9,.9,9.6,1c2.1.4,10.8,4.2,11.6,3.7ZM595.6,530.6c-2.5-3.5-1.2-3.9-7.1-4.2-17.2-1-34.6.3-51.9-.3-25.1-.9-50.8-4.7-75.9-4-16.6.4-46.4,1.3-61.9,5.1s-5.1,6.4-5.6,14.4c-3.6,59-6,117.6-3,176.9.5,9.2.2,21.2,1.4,29.8s9.3,11.1,19,11.7c27.9,1.8,56.2-3.1,84-4.1,17.5-.6,35.6.9,53.1,0s9-2.1,13-2.1c6.3,0,21.9,7.2,22.4-5.4s0-6.7.2-10c1.8-60.9,7.3-122.1,12-183s3.9-18.9,1.9-23.7-1.2-.8-1.5-1.2ZM317.7,675.4c8.5-5.1,11.2-15.6,12.5-25,2.7-19.3,4.8-60.3-3.5-77.3s-10.7-12.9-22.2-15.8c-27.5-7-55.7-8.8-82.7.7-12.3,4.3-22.8,9.3-28.5,21.5s-1.9,17.9-2,23c-.7,24.6,3.7,34.7,7.8,57.3s-.6,11.8,2.7,15.3,6.8,4.6,7.2,4.8c12.1,4.9,33.9,8.2,46.7,8.2,10.4,0,24.9-.2,34.8-2.2,3.6-.7,12.5-5.5,16.9-7.1,4.4-1.6,5.4-.4,10.2-3.3Z"/>
      <g>
        <path class="st23" d="M317.7,675.4c-4.9,2.9-5.8,1.7-10.2,3.3-4.4,1.6-13.3,6.4-16.9,7.1-9.9,2-24.4,2.2-34.8,2.2-12.8,0-34.6-3.3-46.7-8.2s-6.9-4.5-7.2-4.8c-3.4-3.4-2-11-2.7-15.3-4.1-22.6-8.5-32.7-7.8-57.3.1-5.1.4-19.5,2-23,5.7-12.2,16.2-17.2,28.5-21.5,27-9.4,55.3-7.6,82.7-.7,11.5,2.9,16.8,4.8,22.2,15.8,8.3,16.9,6.2,58,3.5,77.3s-4,20-12.5,25ZM273,575.2c-7.5,2.6-2.8,24.9,3.8,24.9s5.9-23.9,0-25.1-2.8-.2-3.8.2ZM306,575.2c-7.2,2.2-3.9,27,5.7,23.7s5-27-5.7-23.7ZM290.2,600.1c-1-.7-3.6.9-4.9.9,1.6,7.3,8.5,16.6,14.2,6.7,3.2-5.5-.3-9-3.1-6.6s.5,6.2-3.6,5-2.1-5.6-2.6-6Z"/>
        <path class="st15" d="M273,575.2c1.1-.4,2.7-.4,3.8-.2,5.9,1.1,7.9,25,0,25.1s-11.3-22.3-3.8-24.9Z"/>
        <path class="st15" d="M306,575.2c10.7-3.2,9.8,22.3,5.7,23.7-9.5,3.3-12.8-21.6-5.7-23.7Z"/>
        <path class="st8" d="M290.2,600.1c.5.4,1.5,5.6,2.6,6,4,1.3,2.7-4.3,3.6-5,2.8-2.4,6.3,1.1,3.1,6.6-5.7,9.9-12.6.7-14.2-6.7,1.3,0,3.9-1.6,4.9-.9Z"/>
      </g>
      <g>
        <path class="st7" d="M595.6,530.6c.3.4,1.2.6,1.5,1.2,2,4.8-1.4,17.7-1.9,23.7-4.6,60.9-10.2,122.1-12,183,0,3.4,0,6.8-.2,10-.5,12.6-16.1,5.4-22.4,5.4s-8.8,1.9-13,2.1c-17.5.8-35.5-.7-53.1,0-27.8,1-56.1,5.9-84,4.1-9.8-.6-17.6-.9-19-11.7s-1-20.6-1.4-29.8c-3-59.4-.6-118,3-176.9.5-8-4.4-12,5.6-14.4,15.4-3.8,45.3-4.7,61.9-5.1,25.2-.6,50.8,3.1,75.9,4s34.7-.7,51.9.3,4.6.7,7.1,4.2ZM583.2,540c-43.6,1.1-86.9-5-130.5-4l-45.3,3.2c-5.1,25-3.4,50.9-4.1,76.4-1,35.7-1.2,66.8.9,103,.5,9.1-.2,18.4,1,27.5l163.9-5,14-201Z"/>
        <path class="st0" d="M583.2,540l-14,201-163.9,5c-1.2-9.1-.5-18.4-1-27.5-2.1-36.2-1.9-67.2-.9-103,.7-25.5-1-51.4,4.1-76.4l45.3-3.2c43.6-1,86.8,5.2,130.5,4ZM434.6,686.6c3.2,1.5,6.5,1,9.5,2,4.4,1.6,14.1,6.7,17.7,7.3,27.2,4.2,54.1,2.8,80.7-6.2.4-.1,6.9-4.5,7.2-4.8,2.6-2.7,2-10.9,2.6-14.4,4-22.6,8.6-33.8,7.9-58.1s-.4-19.6-1.6-22.4c-7.3-16.8-34.2-24.9-51.1-27.8-16.4-2.9-44.1.9-60.4,5-11.5,2.9-16.8,4.8-22.2,15.8-8.3,16.9-6,58-3.5,77.3s3.9,17.5,7.4,21.6,5.5,4.5,5.8,4.7Z"/>
        <g>
          <path class="st23" d="M434.6,686.6c-.3-.2-5.3-4.2-5.8-4.7-3.5-4-6.7-16.2-7.4-21.6-2.5-19.3-4.8-60.3,3.5-77.3s10.7-12.9,22.2-15.8c16.4-4.2,44-7.9,60.4-5,16.9,3,43.8,11.1,51.1,27.8,1.2,2.7,1.5,18,1.6,22.4.7,24.4-3.9,35.6-7.9,58.1s0,11.7-2.6,14.4-6.8,4.7-7.2,4.8c-26.5,8.9-53.5,10.4-80.7,6.2s-13.3-5.7-17.7-7.3-6.2-.5-9.5-2ZM442,585.2c-6,1.7-6,21.2-2.8,23.4,9.9,6.6,15.6-27.1,2.8-23.4ZM473.9,585.2c-4.5,1.5-7.2,24.9.8,24.9s12.4-29.3-.8-24.9ZM466.2,611c-6.9-4.1-5.4,4.4-7.5,5-4.8,1.5-1-6.9-6.9-4.9-3.5,1.2,0,7.2,1.8,8.9,6.2,6,11.3-3.6,12.6-9Z"/>
          <path class="st15" d="M473.9,585.2c13.2-4.4,8.8,24.9.8,24.9s-5.4-23.4-.8-24.9Z"/>
          <path class="st15" d="M442,585.2c12.9-3.7,7.1,29.9-2.8,23.4-3.2-2.2-3.2-21.6,2.8-23.4Z"/>
          <path class="st8" d="M466.2,611c-1.2,5.5-6.4,15-12.6,9s-5.3-7.8-1.8-8.9c5.9-2,2,6.4,6.9,4.9,2.1-.7.6-9.1,7.5-5Z"/>
        </g>
      </g>
    </g>
    <g>
      <path class="st6" d="M626.8,267.3c6.9,8.1,7,29.8,11.3,40.2-1,35.8,3.6,75.2,0,111-1.1,10.5-5.7,23.2-14,30-7.9,6.5-7.8,4-16.3,5.7s-4.5,2.5-6.7,3.3c-8.2,2.6-30.6.8-41.4,1.6-46.2,3.3-93.3,5.3-140.1,5-11.6,0-22.2-3.2-35-3.1-28.6.3-55.2-6.9-83.9-6.9s-13.7-.8-15.9-1.1-5.2-2.6-9.1-3c-6.2-.6-11.4,2.1-15.9,1.9s-11.7-3.5-17.1-3.9c-19.1-1.6-37.4,5.6-56.7-.2s-28.8-12.8-33.1-18.8c-22-30.4-20.3-86.7-18.6-123.5s1.3-25,11.6-37.4c10.5-12.6,17.7-10.7,32.6-13.4s9.4-2.6,18.2-1.7c15.9,1.6,25.4-.5,41-1.1,36.5-1.5,75-.7,110.1,3,44.1,4.7,91,2.1,136-1.9,25-2.2,50.7-3.7,76-2.7,20.8.8,52.7.2,67,17ZM261.9,284.4c-22.6-18.1-58.2-7-70.8,17.9-1.8,3.5-6.3,17.9-2.9,20.2s13,.8,14.4.3c2.2-.8,2.2-7.7,2.9-10.1,3-9.5,15.3-18.8,25.2-19.8,9.3-.9,25,2.1,24.4,14.3-.2,5.1-7.4,19.4-10.9,23.2s-12.4,3.8-13.8,11.2-.4,7.5-.2,10.8,2.2,24.2,3.5,26.5c1.9,3.4,15,.5,16-.9,1.7-2.5-1.9-23.9-2.6-28.4,19.2-12.3,36.7-47.6,14.7-65.2ZM504.2,338.5c-.9,4.6.7,11.6,0,16.5-3.2-.2-5.4-3.1-8.3-4.2-8.9-3.5-21.2-4.8-28.2,3.2s-3.4,12.9-3.5,17.5.2,5.6,1.1,8.5c-9.4-.1-13.1-1.3-16.2,8.3s-.3,26.1-3.7,38.6c19.2,3,38.7,3.3,58.2,3.1,3.1-6.4,10.3.3,14.1-6.1s2.6-25-2-31.9-9.6-7-10.3-11.7,6.4-8.9,4.8-12.3c6,1.2,11.3,3.1,17.5,4s14.1,1.7,20,2c17.5.9,18.8-.9,19.5-18.4.6-14.2,0-26.1-17-27.6,20.3-34.8-40.8-39.4-24-3-6.6,1.5-20.5,6-22,13.5ZM404.7,321.6c-1.9-1.8-5.8-6.4-8.8-5.5s-8.3,10-8.5,10.6c-.9,3.5,7.6,8.8,10.1,12.5s3.5,6,2.7,6.7c-2.2,0-4.2-1-6.4-1-22.7-.8-45.6,3.1-68,3-4.5,0-18.7-.7-20.4,4.7s1.7,4.6,1.9,6.9-2.5,7.5,2.5,8.4c10.7,2,27.8-3,39-4,9.4-.8,20.6-1.8,29.9-2.1,9.6-.2,17.2,1.8,26.5,2l-9.9,25.3c.5,1.7,12.4,7.1,14.3,6.6s14.6-32.9,17.5-37.4c.2-5.7-6.6-12.1-9.3-16.7-4.7-8-5.9-13.3-13.2-20.3ZM595.3,398.9c-.9-1.4.6-11.2-.6-14.9s-5-6.3-6.5-7.5c-9.6-7.1-24.2-4.1-28.8,7.3-1.6,4-.7,10.8-1.7,12.3-1.7,2.6-12.8,3.1-15.1,11.9s-1.6,24.5,6.3,26.8,17.8,2.1,23.7,2.3,28.2,2.4,29.6-8.5.6-24.6-3.3-28.3-3.3-.9-3.6-1.4ZM238.1,391.2c-12.1,2.5-11.9,20.1-1,24.5s13.6,2,16.7-4.7c5.7-12.2-2.4-22.5-15.8-19.8Z"/>
      <path class="st14" d="M504.2,338.5c1.5-7.5,15.3-12,22-13.5-16.8-36.4,44.3-31.8,24,3,17,1.5,17.6,13.3,17,27.6-.7,17.6-2,19.4-19.5,18.4s-14.1-1.2-20-2-11.5-2.8-17.5-4c1.5,3.4-5.1,10.7-4.8,12.3.7,4.7,8.1,8.4,10.3,11.7,4.5,6.9,6.3,24.7,2,31.9s-11-.3-14.1,6.1c-19.5.2-39-.1-58.2-3.1,3.5-12.5,0-26.5,3.7-38.6s6.8-8.4,16.2-8.3c-.8-2.9-1.1-5.5-1.1-8.5.1-4.6.7-14.4,3.5-17.5,7-8,19.3-6.7,28.2-3.2s5.1,4,8.3,4.2c.7-4.9-.9-11.9,0-16.5Z"/>
      <path class="st9" d="M404.7,321.6c7.3,7,8.5,12.3,13.2,20.3,2.7,4.5,9.5,10.9,9.3,16.7-2.9,4.5-15.3,36.7-17.5,37.4s-13.8-4.9-14.3-6.6l9.9-25.3c-9.3-.3-16.9-2.3-26.5-2-9.3.2-20.6,1.2-29.9,2.1-11.2,1-28.3,6-39,4s-2.2-5.8-2.5-8.4-2.8-4.3-1.9-6.9c1.8-5.4,15.9-4.7,20.4-4.7,22.4,0,45.2-3.8,68-3s4.2,1,6.4,1c.7-.7-2-5.7-2.7-6.7-2.5-3.8-11-9-10.1-12.5s7.8-10.4,8.5-10.6c2.9-.9,6.9,3.7,8.8,5.5Z"/>
      <path class="st19" d="M261.9,284.4c22,17.7,4.5,53-14.7,65.2.8,4.5,4.4,25.9,2.6,28.4s-14.1,4.3-16,.9-3.3-22.4-3.5-26.5-.3-7.6.2-10.8c1.3-7.4,9.6-6.7,13.8-11.2s10.7-18.1,10.9-23.2c.6-12.3-15.1-15.3-24.4-14.3-9.9,1-22.2,10.3-25.2,19.8s-.7,9.3-2.9,10.1-13.4.4-14.4-.3c-3.4-2.4,1.1-16.7,2.9-20.2,12.6-24.9,48.2-36,70.8-17.9Z"/>
      <path class="st13" d="M595.3,398.9c.3.5,2.7.5,3.6,1.4,3.9,3.7,4,22.8,3.3,28.3-1.3,10.9-21.4,8.8-29.6,8.5s-18.5-.8-23.7-2.3c-7.9-2.3-7.9-20.4-6.3-26.8s13.3-9.4,15.1-11.9.1-8.2,1.7-12.3c4.6-11.4,19.1-14.4,28.8-7.3s6,5.8,6.5,7.5c1.1,3.7-.4,13.5.6,14.9Z"/>
      <path class="st7" d="M238.1,391.2c13.3-2.8,21.5,7.5,15.8,19.8s-10.4,7.3-16.7,4.7c-11-4.4-11.2-22,1-24.5Z"/>
    </g>
  </g>
  <g id="Layer_2">
    <g>
      <path class="st11" d="M212.6,153.9v22.4c0,10-5.4,14.6-15.1,14.6s-10.1-1.2-13.2-3.7l3.1-5.6c2.3,1.9,6.1,3,9.5,3,5.5,0,7.9-2.5,7.9-7.4v-1.2c-2,2.3-5,3.4-8.5,3.4-7.5,0-13.5-5.1-13.5-13s6-13,13.5-13,6.9,1.2,8.9,3.9v-3.5h7.4ZM204.9,166.5c0-4-3-6.6-7.1-6.6s-7.1,2.7-7.1,6.6,3,6.6,7.1,6.6,7.1-2.6,7.1-6.6Z"/>
      <path class="st11" d="M217.8,167.4c0-8.1,6.3-13.9,14.8-13.9s14.8,5.8,14.8,13.9-6.2,13.9-14.8,13.9-14.8-5.8-14.8-13.9ZM239.5,167.4c0-4.7-3-7.5-6.9-7.5s-6.9,2.8-6.9,7.5,3,7.5,6.9,7.5,6.9-2.8,6.9-7.5Z"/>
      <path class="st11" d="M250.6,167.4c0-8.1,6.3-13.9,14.8-13.9s14.8,5.8,14.8,13.9-6.2,13.9-14.8,13.9-14.8-5.8-14.8-13.9ZM272.2,167.4c0-4.7-3-7.5-6.9-7.5s-6.9,2.8-6.9,7.5,3,7.5,6.9,7.5,6.9-2.8,6.9-7.5Z"/>
      <path class="st11" d="M312.7,143.7v37.1h-7.5v-3.1c-1.9,2.4-4.8,3.5-8.4,3.5-7.6,0-13.5-5.4-13.5-13.9s5.9-13.9,13.5-13.9,6.1,1.1,8.1,3.3v-13.1h7.8ZM305.1,167.4c0-4.7-3-7.5-6.9-7.5s-6.9,2.8-6.9,7.5,3,7.5,6.9,7.5,6.9-2.8,6.9-7.5Z"/>
      <path class="st11" d="M318.9,163.6h14.2v6.3h-14.2v-6.3Z"/>
      <path class="st11" d="M348.3,153.4v1.1h6.9v6h-6.7v20.3h-7.8v-20.3h-4.2v-6h4.2v-1.2c0-6.1,3.7-10,10.4-10s4.5.5,6,1.5l-2.1,5.7c-.9-.6-2-1-3.1-1-2.3,0-3.6,1.2-3.6,3.9ZM362.1,145.8c0-2.5,2-4.4,4.9-4.4s4.9,1.8,4.9,4.2-2,4.5-4.9,4.5-4.9-1.9-4.9-4.4ZM363.1,153.9h7.8v26.9h-7.8v-26.9Z"/>
      <path class="st11" d="M394.8,153.5v7.2c-.6,0-1.1-.1-1.8-.1-4.3,0-7.2,2.4-7.2,7.5v12.7h-7.8v-26.9h7.5v3.6c1.9-2.6,5.1-4,9.3-4Z"/>
      <path class="st11" d="M397,178.3l2.6-5.6c2.4,1.6,6.1,2.6,9.4,2.6s5-.9,5-2.5c0-4.4-16.3.1-16.3-10.7s4.6-8.7,12.5-8.7,7.8.9,10.4,2.4l-2.6,5.6c-2.7-1.5-5.3-2-7.8-2-3.5,0-5,1.1-5,2.5,0,4.6,16.3.2,16.3,10.8s-4.7,8.6-12.7,8.6-9.2-1.2-11.7-2.9Z"/>
      <path class="st11" d="M443.5,179.5c-1.6,1.2-4,1.7-6.4,1.7-6.4,0-10.1-3.2-10.1-9.7v-11.1h-4.2v-6h4.2v-6.6h7.8v6.6h6.7v6h-6.7v11c0,2.3,1.2,3.6,3.4,3.6s2.3-.4,3.1-1l2.1,5.5Z"/>
      <path class="st11" d="M446.4,163.6h14.2v6.3h-14.2v-6.3Z"/>
      <path class="st11" d="M465.7,145.8c0-2.5,1.9-4.4,4.9-4.4s4.9,1.8,4.9,4.2-1.9,4.5-4.9,4.5-4.9-1.9-4.9-4.4ZM466.7,153.9h7.8v26.9h-7.8v-26.9Z"/>
      <path class="st11" d="M479.1,178.3l2.6-5.6c2.4,1.6,6.1,2.6,9.4,2.6s5-.9,5-2.5c0-4.4-16.3.1-16.3-10.7s4.6-8.7,12.5-8.7,7.8.9,10.4,2.4l-2.6,5.6c-2.7-1.5-5.3-2-7.8-2-3.5,0-5,1.1-5,2.5,0,4.6,16.3.2,16.3,10.8s-4.7,8.6-12.7,8.6-9.2-1.2-11.7-2.9Z"/>
      <path class="st11" d="M505.7,178.3l2.6-5.6c2.4,1.6,6.1,2.6,9.4,2.6s5-.9,5-2.5c0-4.4-16.3.1-16.3-10.7s4.6-8.7,12.5-8.7,7.8.9,10.4,2.4l-2.6,5.6c-2.7-1.5-5.3-2-7.8-2-3.5,0-5,1.1-5,2.5,0,4.6,16.3.2,16.3,10.8s-4.7,8.6-12.7,8.6-9.2-1.2-11.7-2.9Z"/>
      <path class="st11" d="M561.9,153.9v26.9h-7.4v-3.2c-2,2.4-5.1,3.6-8.4,3.6-6.8,0-11.5-3.8-11.5-12.1v-15.2h7.8v14.1c0,4.5,2,6.5,5.5,6.5s6.2-2.3,6.2-7.3v-13.3h7.8Z"/>
      <path class="st11" d="M595.4,169.6h-20.4c.8,3.4,3.6,5.4,7.7,5.4s4.9-.8,6.8-2.6l4.2,4.5c-2.5,2.9-6.3,4.4-11.1,4.4-9.3,0-15.4-5.9-15.4-13.9s6.2-13.9,14.4-13.9,14,5.3,14,14,0,1.4-.1,2.1ZM574.9,165h13.3c-.6-3.4-3.1-5.6-6.6-5.6s-6.1,2.2-6.7,5.6Z"/>
    </g>
  </g>
</svg>