<?xml version="1.0" encoding="UTF-8"?>
<svg id="Layer_1" data-name="Layer 1" xmlns="http://www.w3.org/2000/svg" viewBox="0 0 276.32 229.45">
  <defs>
    <style>
      .cls-1 {
        fill: #ccbde3;
      }

      .cls-2 {
        fill: #5a2728;
      }

      .cls-3 {
        fill: #653e3f;
      }

      .cls-4 {
        fill: #7d6798;
      }

      .cls-5 {
        fill: #766192;
      }

      .cls-6 {
        fill: #613b3c;
      }

      .cls-7 {
        fill: #ccbce3;
      }

      .cls-8 {
        fill: #4f2425;
      }

      .cls-9 {
        fill: #c74748;
      }
    </style>
  </defs>
  <g>
    <path class="cls-9" d="M212.41,95.33c7.83-.65,13.21,1.63,20.36,1.89,15.5.58,36.74-7.42,39.76,15.86,3.74,28.78,5.15,74.66,2.26,103.47-.32,3.22-1.5,9.17-4.41,10.86-6.62,3.85-35.75,1.04-45.01,1.02-5.56,0-10.21.75-16.51.62-11.73-.24-36.53.29-46.86-3.3-5.17-1.8-7.53-9.56-8.19-14.72-2.19-17.31.59-39.45-.03-57.75-.38-11.27-2.89-22.4-2.28-33.81.3-5.62.22-14.82,6.32-16.57s18.42-3.62,24.94-4.5c8.58-1.16,20.86-2.35,29.63-3.08ZM248.62,119c-3.09-2.98-14.11,9.69-17.55,11.34-4.41,2.11-9.82.58-8.61,7.19,5.35.59,9.22-1.8,13.44-4.54,2.07-1.34,15.2-11.59,12.72-13.98ZM198.33,135.47c-.42-.51-10.17-2.94-12.63-4.27s-11.97-11.45-13.41-6.2c-.3,2.85,4.44,5.97,6.63,7.52,5.32,3.75,13,7.61,19.54,7.18-.21-1.18.41-3.58-.13-4.23ZM232.4,161.36c8.89,5.65,8.48-17.78,1.44-18.44-8.98-.84-2.73,17.62-1.44,18.44ZM188.49,146.41c-8.64-5.39-9.56,16.82-2.53,18.38,8.49,1.88,4.15-17.37,2.53-18.38ZM222.1,169.27c-.68.19-8.47,6.58-11.62,8.09s-12.06,3.61-13.13,4.32c-7.82,5.21,15.09,9.83,17.19,10.09,4.2.51,11.2.85,12.25-4.65.67-3.51,1.23-19.46-4.69-17.84Z"/>
    <path class="cls-8" d="M222.1,169.27c5.92-1.62,5.36,14.33,4.69,17.84-1.05,5.5-8.05,5.16-12.25,4.65-2.1-.25-25.01-4.88-17.19-10.09,1.07-.71,9.96-2.8,13.13-4.32s10.93-7.9,11.62-8.09Z"/>
    <path class="cls-2" d="M248.62,119c2.48,2.39-10.66,12.64-12.72,13.98-4.22,2.74-8.09,5.13-13.44,4.54-1.21-6.61,4.21-5.08,8.61-7.19,3.44-1.65,14.46-14.31,17.55-11.34Z"/>
    <path class="cls-2" d="M232.4,161.36c-1.28-.82-7.53-19.28,1.44-18.44,7.04.66,7.44,24.08-1.44,18.44Z"/>
    <path class="cls-8" d="M188.49,146.41c1.62,1.01,5.96,20.26-2.53,18.38-7.03-1.56-6.12-23.77,2.53-18.38Z"/>
    <path class="cls-2" d="M198.33,135.47c.54.66-.07,3.06.13,4.23-6.53.43-14.22-3.43-19.54-7.18-2.2-1.55-6.94-4.67-6.63-7.52,1.44-5.26,10.93,4.86,13.41,6.2s12.21,3.75,12.63,4.27Z"/>
  </g>
  <g>
    <g>
      <path class="cls-7" d="M57.38,123.53c1.55-.3,3.74,1.39,4.63,2.68,10.33,22.47,21.87,44.7,34.14,66.17,2.78,4.86,19.31,28.23,18.28,31.72-.44,1.49-2.31,1.85-3.72,1.8l-108.56.49c-6.17-3.04,2.64-11.24,4.82-14.81,13.42-22.05,24.17-45.39,37.05-67.62,2.45-4.22,8.09-19.4,13.36-20.42ZM69.67,186.7c-6.73-4.47-7.44,14.05-2.47,14.94,6.42,1.15,3.35-14.35,2.47-14.94ZM38.21,188.83c-1.53,1.25-2.29,16.34,4.73,14.01,3.77-1.25.67-18.43-4.73-14.01ZM64.32,207.31c-.6-.63-16.82.49-17.44,1.12-.3.31.16,3.26-.02,4.32,2.57-.69,16.85-.46,17.46-1.09.15-.16.15-4.19,0-4.35Z"/>
      <path class="cls-4" d="M69.67,186.7c.89.59,3.95,16.09-2.47,14.94-4.97-.89-4.26-19.41,2.47-14.94Z"/>
      <path class="cls-5" d="M38.21,188.83c5.4-4.42,8.5,12.76,4.73,14.01-7.02,2.33-6.26-12.76-4.73-14.01Z"/>
      <path class="cls-4" d="M64.32,207.31c.15.16.15,4.19,0,4.35-.6.63-14.89.4-17.46,1.09.18-1.07-.28-4.02.02-4.32.61-.62,16.84-1.75,17.44-1.12Z"/>
    </g>
    <g>
      <path class="cls-6" d="M132.11,73.37c-2.42,3.88,4.04,13.28-2.28,14.59-3.8.79-8.45-6.28-10.29-5.95-1.17.21-10.28,8.51-13.02,9.95-33.16,17.41-55.19,1.96-58.43-33.61C44.74,21.62,84.49-1.85,117.25.11c32.49,1.95,46.86,40.41,27.14,65.38-3.44,4.36-11.89,7.26-12.28,7.88ZM126.66,70.09c.31-.36,6.78-2.58,8.69-3.83,22.97-14.92,13.65-57.17-13.9-60.54-14.63-1.79-29.62,1.71-42.22,8.8-23.72,13.35-30.41,31.1-23.32,57.81,6.46,24.34,28.53,25.66,48.26,15.1,3.23-1.73,13.96-11.97,16.32-11.8.97.07,4.75,5.17,7.06,5.2.58-.74-2.49-8.91-.9-10.74Z"/>
      <path class="cls-1" d="M84.83,38.56c21.71-1.1,26.1,30.41,5.02,33.45-28.93,4.18-28.65-32.26-5.02-33.45Z"/>
      <path class="cls-3" d="M111.21,26.32c-1.94-2.01-9.7,8.51-10.9,2.7-1.14-5.5,15.1-12.42,16.36-.97.55,5.02-2.85,6.52,3.19,10.95l-2.78,3.6c-7.13-3.89-7.02-8.97-5.87-16.28Z"/>
      <path class="cls-3" d="M125.38,45.95c.55.39,1.76,4.65-.61,5.38-8.15,2.54-3.29-8.17.61-5.38Z"/>
    </g>
  </g>
</svg>