<?xml version="1.0" encoding="UTF-8"?>
<svg id="Layer_1" xmlns="http://www.w3.org/2000/svg" version="1.1" viewBox="0 0 1325.6 667">
  <!-- Generator: Adobe Illustrator 29.3.1, SVG Export Plug-In . SVG Version: 2.1.0 Build 151)  -->
  <defs>
    <style>
      .st0 {
        fill: #675484;
      }

      .st1 {
        fill: #bcabd3;
      }

      .st2 {
        isolation: isolate;
      }

      .st3 {
        fill: #a795bb;
      }

      .st4 {
        fill: #bcabd7;
      }

      .st5 {
        display: none;
      }
    </style>
  </defs>
  <g id="Layer_2">
    <g class="st2">
      <g class="st2">
        <path class="st0" d="M559.4,503.1c5.5,0,10.9-2.6,16.1-7.9s9.7-12.3,13.4-21.1c-.7-4-1-8.1-1-12.2,0-12,2.6-22.7,7.8-32s12.2-16.7,21.1-22.1c8.9-5.4,19-8.1,30.1-8.1s21.2,2.7,30,8.1,15.8,12.8,20.9,22.1c5.1,9.3,7.6,20,7.6,32s-2.5,22.8-7.6,32.2c-5.1,9.5-12,17-20.8,22.4-8.8,5.4-18.8,8.1-30.1,8.1s-19.4-2.2-27.6-6.6-15-10.5-20.4-18.1c-10.3,16.5-24.1,24.8-41.2,24.8s-3.9-1-5.2-3-2-4.6-2-7.8c0-7.2,3-10.8,9-10.8h0ZM646.6,503.1c10.7,0,19.2-3.8,25.6-11.2,6.4-7.5,9.6-17.5,9.6-30s-.9-11.8-2.8-17c-10-.3-19-2.3-27.1-6s-14.5-8.7-19.1-15c-6.7,2.8-11.9,7.6-15.8,14.4-3.8,6.8-5.8,14.8-5.8,24.1s3.2,22,9.6,29.5c6.4,7.5,15,11.2,25.6,11.2h.2Z"/>
        <path class="st0" d="M674.4,519.9c-5.3-1.3-4.4-11.4-3.4-12.5,1.7-1.7,9,8.6,9,5.4,0-7.2,4.8-9.8,10.8-9.8s10.1-2.7,14.4-8.1c4.2-5.4,8-14.5,11.1-27.1l7.5-29.2c7-26,20.3-40.2,40-39,14.8,1.6,18.4,6.1,18.4,6.1,0,0,9.5,8.4,10.9,16.9,3.8-7.3,8.9-13,15.1-17s13.3-6,21.1-6c16.3,0,27.4,8.4,33.2,25.2,4-8,9.4-14.2,16.2-18.6s14.6-6.6,23.2-6.6,20.9,3.8,27.2,11.2c6.3,7.5,9.5,18.1,9.5,31.8v34.8c0,9.2,1.2,15.8,3.6,19.8,2.4,4,6.3,6,11.6,6s4.1,1,5.4,3,1.9,4.7,1.9,8-.7,5.1-2.1,7.2c-1.4,2.2-3.7,3.2-6.9,3.2-24.2,0-36.2-14.8-36.2-44.5v-32c0-8.7-1.6-15.3-4.8-20s-7.7-7-13.5-7c-8.8,0-15.8,5-20.9,15.1-5.1,10.1-7.6,24-7.6,41.9v43c-1.7.5-3.5.9-5.5,1.2s-3.9.5-5.8.5c-4,0-7.8-.6-11.5-1.8v-69.5c0-9.8-1.7-17.4-5.1-22.6-3.4-5.2-8.5-7.9-15.1-7.9s-11.5,2.4-16,7.1-8,11.4-10.6,20-3.9,18.5-3.9,29.9v43c-1.7.5-3.5.9-5.5,1.2s-3.9.5-5.8.5c-4.2,0-7.9-.6-11.2-1.8v-79.8c0-13.5-3.8-20.2-11.5-20.2s-6.5,1.6-9,4.8c-2.5,3.2-4.7,8.2-6.5,15.2l-9.2,36c-4.3,16.5-10.3,28.5-18,36.1s-32.7,9.5-44.7,6.7l.2.2Z"/>
        <path class="st0" d="M953.7,524.6c-2.2,0-3.9-1-5.2-3s-2-4.6-2-7.8c0-7.2,3-10.8,9-10.8s9.8-.8,14.8-2.4,10.8-4.3,17.5-8.1c-6.5-11.3-9.8-24.7-9.8-40s1.9-19.5,5.8-27.4c3.8-7.9,9.2-14.2,16-18.8,6.8-4.6,14.6-6.9,23.2-6.9s13.8,1.7,19.5,5.1,10.1,8.1,13.2,14.1c3.2,6,4.8,12.9,4.8,20.8s-3.1,20.4-9.4,29.2c-6.2,8.8-16.8,18.4-31.6,28.8,5.3,3.8,12.5,5.8,21.5,5.8s4.2,1,5.5,3,2,4.7,2,8-.8,5.7-2.2,7.5-3.7,2.8-6.5,2.8c-8,0-15.5-1.3-22.5-4s-12.8-6.3-17.5-11c-16,10-31.3,15-46,15h-.1ZM999.7,450.6c0,13.2,2.3,23.7,7,31.5,10.8-7.5,18.9-14.8,24.1-22,5.2-7.2,7.9-14,7.9-20.5s-1.5-10.7-4.4-14.1-7-5.1-12.1-5.1-11.9,2.9-16.1,8.8c-4.2,5.8-6.4,13-6.4,21.5h0Z"/>
        <path class="st0" d="M1037.3,524.6c-2.2,0-3.9-1-5.2-3-1.3-2-2-4.6-2-7.8,0-7.2,3-10.8,9-10.8s10.1-2.7,14.4-8.1c4.2-5.4,8-14.5,11.1-27.1l7.5-29.2c7-26,20.5-41.9,40-39,15.1,2.3,13.4,2.4,19,6.6s8.8,10.4,10.8,17.9c4.7-7.8,10.7-13.9,18-18.1s15.5-6.4,24.5-6.4c13,0,23,4.2,30.1,12.8,7.1,8.5,10.6,20.4,10.6,35.8v29.2c0,9.2,1.2,15.8,3.6,19.8s6.3,6,11.6,6,4.1,1,5.4,3,1.9,4.7,1.9,8-.7,5.1-2.1,7.2c-1.4,2.2-3.7,3.2-6.9,3.2-24.2,0-36.2-14.8-36.2-44.5v-32c0-18-7.1-27-21.2-27s-13.8,2.9-19.4,8.8c-5.6,5.8-9.9,13.9-13,24.2-3.1,10.3-4.6,22.3-4.6,36v31c-1.7.5-3.5.9-5.5,1.2s-3.9.5-5.8.5c-4,0-7.8-.6-11.2-1.8v-79.8c0-6.5-.8-11.5-2.5-15s-4.7-5.2-9-5.2-6.5,1.6-9,4.8c-2.5,3.2-4.7,8.2-6.5,15.2l-9.2,36c-4.3,16.5-10.3,28.5-18,36.1s-17.7,11.4-30,11.4h-.2Z"/>
      </g>
    </g>
    <g class="st2">
      <g class="st2">
        <g class="st2">
          <path class="st4" d="M725.4,559.4c0-4.9,3.9-8.7,9.7-8.7s9.7,3.6,9.7,8.4-3.9,9-9.7,9-9.7-3.8-9.7-8.7ZM727.3,575.6h15.6v53.8h-15.6v-53.8Z"/>
          <path class="st4" d="M832.4,598.6v30.8h-15.6v-28.4c0-8.7-4-12.7-10.9-12.7s-12.9,4.6-12.9,14.5v26.6h-15.6v-53.8h14.9v6.3c4.2-4.6,10.5-7.1,17.8-7.1,12.7,0,22.3,7.4,22.3,23.8h0Z"/>
          <path class="st4" d="M910.8,602.5c0-16.2,12.5-27.7,29.6-27.7s29.5,11.5,29.5,27.7-12.4,27.7-29.5,27.7-29.6-11.5-29.6-27.7ZM954.1,602.5c0-9.3-5.9-14.9-13.7-14.9s-13.8,5.6-13.8,14.9,6,14.9,13.8,14.9,13.7-5.6,13.7-14.9Z"/>
          <path class="st4" d="M995.1,624.4l5.2-11.2c4.8,3.1,12.1,5.2,18.7,5.2s9.9-1.9,9.9-4.9c0-8.8-32.5.2-32.5-21.3s9.1-19.8,24.8-19.8,15.7,4.1,20.8,7.1l-5.2,11.1c-5.3-3-10.6-4-15.5-4-7,0-10,2.2-10,5,0,9.2,32.5.3,32.5,21.5s-8.5,18.5-24.6,18.5-19.1-3.9-24.1-7.2h0Z"/>
          <path class="st4" d="M1068.2,624.4l5.2-11.2c4.8,3.1,12.1,5.2,18.7,5.2s9.9-1.9,9.9-4.9c0-8.8-32.5.2-32.5-21.3s9-19.8,24.7-19.8,15.8,4.1,20.9,7.1l-5.2,11.1c-5.3-3-10.6-4-15.5-4-7,0-10,2.2-10,5,0,9.2,32.5.3,32.5,21.5s-10.2,18.7-26.3,18.7-17.4-4.1-22.4-7.4h0Z"/>
        </g>
      </g>
    </g>
  </g>
  <g id="Layer_3" class="st5">
    <g>
      <g id="Layer_31">
        <g id="Layer_4">
          <path class="st0" d="M608.3,49.7l8.6-24c19.8,6.3,34.1,11.8,43.1,16.4-2.4-20.4-3.6-34.4-3.7-42.1h27c-.4,11.1-1.8,25.1-4.3,41.9,12.8-5.9,27.5-11.3,44-16.2l8.6,24c-15.8,4.7-31.3,7.9-46.5,9.5,7.6,6,18.3,16.6,32.1,31.9l-22.4,14.4c-7.2-8.9-15.7-21-25.6-36.3-9.2,15.9-17.3,28-24.3,36.3l-22-14.4c14.4-16.1,24.8-26.8,31-31.9-16-2.8-31.3-6-45.7-9.5h.1Z"/>
        </g>
        <g id="Layer_21">
          <path class="st3" d="M359.7,397.8s43.9-103.1,24.5-93.2c-13,6.7-17,47.4-19.1,73.6-1.1,13.3,1.4,27.1,1.6,27,0,0,6.6,22.1,16.3,38,9.7,15.9,18.7,16,20.9,16.3,24,3.5,41.7-13.8,41.7-13.8,0,0,21.7-12.8,43.3-97.5,21.6-84.7-2.1-125.1-2.1-125.1l19.5-14.7c66.8,33.7,98.8,9.5,98.8,9.5,61-37.9,79.4-74.7,79.4-74.7l25.2,21c-1,18.9-50.5,67.3-82.5,87.3-32,20-93.6,7.4-93.6,7.4,4.7,42.6-12.6,138.3-43.6,186.7-31,48.4-63.6,54.7-87.3,54.7s-44.5-20.3-44.5-20.3c-16.8,34.7-68.9,79.6-89.9,85.9-21,6.3-36.8,0-36.8,0,0,0-80.2-25.1-83.1-129.4-2.9-106,27.3-194.9,27.3-194.9,0,0-55.3,45.9-67.3,56.1-11,9.4-85.2,53.6-85.2,53.6L0,323.9s30.5-7.4,119.9-91.5,111.5-156.7,111.5-156.7l66.6,29.6s-63.7,2.4-82,216.8c-18.3,214.4,45.2,206.5,45.2,206.5,5.1,3.1,37.2-10.6,68.5-73.3,0,0-60.2-128.6,29.5-183,0,0,22.4-17.5,48-1.4,26.3,16.5,19.3,46.3,19.3,46.3,0,0-6.3,31.2-20.2,67.3-21,54.9-23.4,58.7-23.4,58.7"/>
          <path class="st0" d="M359.7,397.8s43.9-103.1,24.5-93.2c-13,6.7-17,47.4-19.1,73.6-1.1,13.3,1.4,27.1,1.6,27,0,0,6.6,22.1,16.3,38,9.7,15.9,18.7,16,20.9,16.3,24,3.5,41.7-13.8,41.7-13.8,0,0,21.7-12.8,43.3-97.5,21.6-84.7-2.1-125.1-2.1-125.1l19.5-14.7c66.8,33.7,98.8,9.5,98.8,9.5,61-37.9,79.4-74.7,79.4-74.7l25.2,21c-1,18.9-50.5,67.3-82.5,87.3-32,20-93.6,7.4-93.6,7.4,4.7,42.6-12.6,138.3-43.6,186.7-31,48.4-63.6,54.7-87.3,54.7s-44.5-20.3-44.5-20.3c-16.8,34.7-68.9,79.6-89.9,85.9-21,6.3-36.8,0-36.8,0,0,0-80.2-25.1-83.1-129.4-2.9-106,27.3-194.9,27.3-194.9,0,0-55.3,45.9-67.3,56.1-11,9.4-85.2,53.6-85.2,53.6L0,323.9s30.5-7.4,119.9-91.5,111.5-156.7,111.5-156.7l66.6,29.6s-63.7,2.4-82,216.8c-18.3,214.4,45.2,206.5,45.2,206.5,5.1,3.1,37.2-10.6,68.5-73.3,0,0-60.2-128.6,29.5-183,0,0,22.4-17.5,48-1.4,26.3,16.5,19.3,46.3,19.3,46.3,0,0-6.3,31.2-20.2,67.3-21,54.9-23.4,58.7-23.4,58.7"/>
          <path class="st4" d="M517.5,133.1"/>
        </g>
        <path class="st1" d="M231.4,75.7l-55.7,165.8c-6.9,21.9-12.7,45.5-17.3,70.8,0,0-6.8,46.3-8.2,62-3.7,40.5-2.7,87.1,7.9,115.6,7.1,19.1,18.1,38.4,37.7,54.7,13.9,11.5,35.6,31.6,72.4,21.2,0,0,9.4-3.7,16-8.2,0,0-32.6,11-51.2-49.4,1.1,1.2-14.8-20.7-18.7-72.7-.7-9.5-2.7-24.6-1.7-46.4,1.1-86.8,18.1-266,85.3-283.7l-66.6-29.6h.1Z"/>
        <path class="st1" d="M382.9,443.2c21.1,47.5,48.8,56.7,40.4,54.9-18.3,3-26.4,1.3-26.4,1.3-41.9-14.6-67.2-44.1-67.2-44.1,0,0-20.2-49.2-19.8-90.3s16.6-61.4,16.6-61.4c0,0,32.1-48,64.6-39s34.1,29.2,35.8,37.4-4.6,32.5-4.6,32.5c-1.8-.7-7.8-48-40-29,0,0-14,5.6-17.4,79.9,2.2,20.8,8.8,39.8,18.1,57.8h-.1Z"/>
        <path class="st1" d="M486.7,223.1s19.8,22.4,46.8,35.8c0,0,53,10.9,76,0,0,0,24.4-3.4,65-45.9,0,0-73.6,80.2-168.3-4.6"/>
      </g>
      <g id="Layer_5">
        <path class="st4" d="M359.7,397.9s43.9-103.1,24.5-93.2c-13,6.7-17,47.4-19.1,73.6-1.1,13.3,1.4,27.1,1.6,27,0,0,6.6,22.1,16.3,38,9.7,15.9,18.7,16,20.9,16.3,24,3.5,41.7-13.8,41.7-13.8,0,0,21.7-12.8,43.3-97.5,21.6-84.7-2.1-125.1-2.1-125.1l19.5-14.7c66.8,33.7,98.8,9.5,98.8,9.5,61-37.9,79.4-74.7,79.4-74.7l25.2,21c-1,18.9-50.5,67.3-82.5,87.3-32,20-93.6,7.4-93.6,7.4,4.7,42.6-12.6,138.3-43.6,186.7-31,48.4-63.6,54.7-87.3,54.7s-44.5-20.3-44.5-20.3c-16.8,34.7-68.9,79.6-89.9,85.9-21,6.3-36.8,0-36.8,0,0,0-80.2-25.1-83.1-129.4-2.9-106,27.3-194.9,27.3-194.9,0,0-55.3,45.9-67.3,56.1-11,9.4-85.2,53.6-85.2,53.6L0,324s30.5-7.4,119.9-91.5,111.5-156.7,111.5-156.7l66.6,29.6s-63.7,2.4-82,216.8c-18.3,214.4,45.2,206.5,45.2,206.5,5.1,3.1,37.2-10.6,68.5-73.3,0,0-60.2-128.6,29.5-183,0,0,22.4-17.5,48-1.4,26.3,16.5,19.3,46.3,19.3,46.3,0,0-6.3,31.2-20.2,67.3-21,54.9-23.4,58.7-23.4,58.7"/>
      </g>
    </g>
  </g>
  <g id="Layer_41">
    <g id="Layer_32">
      <g id="Layer_42">
        <path class="st0" d="M608.3,50l8.6-24.2c19.9,6.4,34.4,11.8,43.4,16.5-2.4-20.5-3.6-34.7-3.8-42.4h27.2c-.4,11.2-1.8,25.3-4.3,42.2,12.9-5.9,27.7-11.3,44.3-16.3l8.6,24.2c-15.9,4.8-31.5,7.9-46.8,9.5,7.6,6,18.4,16.7,32.3,32.2l-22.5,14.5c-7.3-9-15.8-21.2-25.7-36.6-9.3,16-17.4,28.2-24.4,36.6l-22.2-14.5c14.5-16.2,24.9-26.9,31.2-32.2-16.2-2.8-31.5-6-46-9.5h.1Z"/>
      </g>
      <g id="Layer_22">
        <path class="st3" d="M358,400.5s44.2-103.9,24.6-93.8c-13.1,6.7-17.1,47.7-19.3,74.1-1.1,13.4,1.4,27.3,1.6,27.2,0,0,6.6,22.3,16.4,38.3s18.8,16.1,21,16.4c24.2,3.5,42-13.9,42-13.9,0,0,21.9-12.9,43.6-98.1s-2.1-126-2.1-126l19.6-14.8c67.2,33.9,99.5,9.5,99.5,9.5,61.4-38.1,79.9-75.2,79.9-75.2l25.4,21.2c-1.1,19.1-50.8,67.8-83.1,87.9s-94.2,7.4-94.2,7.4c4.8,42.9-12.7,139.2-43.9,187.9-31.2,48.7-64.1,55-87.9,55s-44.8-20.5-44.8-20.5c-16.9,34.9-69.3,80.1-90.5,86.5-21.2,6.3-37.1,0-37.1,0,0,0-80.8-25.2-83.6-130.2-2.9-106.7,27.5-196.2,27.5-196.2,0,0-55.7,46.2-67.8,56.5-11.1,9.5-85.8,54-85.8,54l-23.3-27.5s30.7-7.4,120.7-92.1c90-84.7,112.2-157.8,112.2-157.8l67.1,29.8s-64.1,2.4-82.6,218.3c-18.4,215.9,45.5,207.9,45.5,207.9,5.1,3.1,37.4-10.6,69-73.8,0,0-60.6-129.5,29.6-184.2,0,0,22.5-17.6,48.4-1.4,26.5,16.6,19.4,46.6,19.4,46.6,0,0-6.3,31.4-20.3,67.8-21.2,55.2-23.5,59.1-23.5,59.1"/>
        <path class="st0" d="M358,400.5s44.2-103.9,24.6-93.8c-13.1,6.7-17.1,47.7-19.3,74.1-1.1,13.4,1.4,27.3,1.6,27.2,0,0,6.6,22.3,16.4,38.3s18.8,16.1,21,16.4c24.2,3.5,42-13.9,42-13.9,0,0,21.9-12.9,43.6-98.1s-2.1-126-2.1-126l19.6-14.8c67.2,33.9,99.5,9.5,99.5,9.5,61.4-38.1,79.9-75.2,79.9-75.2l25.4,21.2c-1.1,19.1-50.8,67.8-83.1,87.9s-94.2,7.4-94.2,7.4c4.8,42.9-12.7,139.2-43.9,187.9-31.2,48.7-64.1,55-87.9,55s-44.8-20.5-44.8-20.5c-16.9,34.9-69.3,80.1-90.5,86.5-21.2,6.3-37.1,0-37.1,0,0,0-80.8-25.2-83.6-130.2-2.9-106.7,27.5-196.2,27.5-196.2,0,0-55.7,46.2-67.8,56.5-11.1,9.5-85.8,54-85.8,54l-23.3-27.5s30.7-7.4,120.7-92.1c90-84.7,112.2-157.8,112.2-157.8l67.1,29.8s-64.1,2.4-82.6,218.3c-18.4,215.9,45.5,207.9,45.5,207.9,5.1,3.1,37.4-10.6,69-73.8,0,0-60.6-129.5,29.6-184.2,0,0,22.5-17.6,48.4-1.4,26.5,16.6,19.4,46.6,19.4,46.6,0,0-6.3,31.4-20.3,67.8-21.2,55.2-23.5,59.1-23.5,59.1"/>
        <path class="st4" d="M516.8,134"/>
      </g>
      <path class="st1" d="M228.8,76.2l-56.1,166.9c-6.9,22.1-12.8,45.8-17.4,71.3,0,0-6.9,46.6-8.3,62.4-3.7,40.8-2.8,87.7,8,116.4,7.2,19.2,18.2,38.7,38,55,14,11.6,35.9,31.8,72.9,21.3,0,0,9.5-3.7,16.1-8.2,0,0-32.8,11-51.5-49.8,1.1,1.2-14.9-20.8-18.9-73.2-.7-9.5-2.8-24.7-1.7-46.7,1.1-87.3,18.2-267.8,85.9-285.6l-67.1-29.8h0Z"/>
      <path class="st1" d="M381.4,446.2c21.3,47.8,49.2,57.1,40.7,55.3-18.5,3-26.6,1.3-26.6,1.3-42.2-14.7-67.7-44.4-67.7-44.4,0,0-20.3-49.6-19.9-90.9s16.7-61.8,16.7-61.8c0,0,32.3-48.3,65-39.3,32.7,9.1,34.3,29.5,36.1,37.6s-4.7,32.8-4.7,32.8c-1.8-.7-7.8-48.4-40.3-29.2,0,0-14.1,5.7-17.5,80.4,2.2,20.9,8.9,40,18.3,58.2h-.1Z"/>
      <path class="st1" d="M485.9,224.6s20,22.6,47.1,36c0,0,53.3,10.9,76.5,0,0,0,24.6-3.4,65.5-46.2,0,0-74.1,80.7-169.5-4.7"/>
    </g>
  </g>
</svg>