<?xml version="1.0" encoding="UTF-8"?>
<svg id="Layer_1" xmlns="http://www.w3.org/2000/svg" version="1.1" viewBox="0 0 1117.1 1117.1">
  <!-- Generator: Adobe Illustrator 29.3.1, SVG Export Plug-In . SVG Version: 2.1.0 Build 151)  -->
  <defs>
    <style>
      .st0 {
        fill: #baa0cc;
      }

      .st1 {
        fill: #bea6d4;
      }

      .st2 {
        fill: #3f2121;
      }

      .st3 {
        fill: #bea5d4;
      }

      .st4 {
        fill: #432325;
      }

      .st5 {
        fill: #bda5d4;
      }

      .st6 {
        fill: #bfa6d4;
      }

      .st7 {
        fill: #4a2b2d;
      }

      .st8 {
        fill: #c44244;
      }

      .st9 {
        fill: #c44549;
      }

      .st10 {
        fill: #412121;
      }

      .st11 {
        fill: #402121;
      }

      .st12 {
        fill: #432222;
      }

      .st13 {
        fill: #6c5588;
      }

      .st14 {
        fill: #402021;
      }

      .st15 {
        fill: #412223;
      }

      .st16 {
        fill: #bfa9d9;
      }

      .st17 {
        fill: #c44143;
      }

      .st18 {
        fill: #bfa0cc;
      }

      .st19 {
        fill: #c44042;
      }

      .st20 {
        fill: #442a2a;
      }
    </style>
  </defs>
  <path class="st7" d="M876.7,813.4v20.7c-3.5-.7-6.3-6.7-8.7-9.8v-14.2c1,.4,7.5,2.9,8.7,3.3Z"/>
  <g>
    <path class="st16" d="M867.9,649.9c2.6,0,5.2.2,8.7,0,10.5-.5,26.6-2.2,33.8,7.1s6.1,15,4,22.6-11.2,24.6-15.1,29.6-16.7,13.3-16.2,18.6l29.7,40.2c3.9,14.7,14,36.5-4.9,44.6-10.6,4.5-20.4,4.3-31.3.9s-7.7-2.8-8.7-3.3c-5.4-2.3-13.2-7.7-18.5-10.9s-16.8-12.6-20.1-12.1c-3.5,4.1-4.3,9.8-6.1,14.3-4.7,11.3-9.9,23-15.8,33.8s-10.2,14.7-13.6,22.9c-4,.6-9.2,8.9-18.5,10.9s-7.2-.2-12,0l-10.9-10.9c-.4-6.6-4.6-12.9-5.3-19.2s0-47.7-3.4-50.6c-6.8,1-14.4.3-21.1,1.2-12.9,1.7-22.5,7.8-36.6,2.5s-17.7-12.1-19.7-16.8-2.4-6.9-1.1-12c3.1-11.7,23.6-27.1,32.2-35.9s10.3-13.1,15.8-19.9,9.4-8.7,10.3-10.7-.1-18.3-.5-21.8-1.7-7.9-2.2-12c-1.6-12.9-5.4-24.7-1.1-37.7s13.5-20.6,26.5-18.7c19.3,2.7,44.3,29,60.7,40.7s5.4,7.2,14.8,8.1,17.9-.5,23.8-1.2c6.3-.7,17.5-4.2,22.5-4.3Z"/>
    <path class="st13" d="M849.4,799.2c3.3,9.5,12.2,17.1,18.5,25.1s5.2,9.1,8.7,9.8c42.6,62.9,90.2,123.3,135.4,184.7s15.1,21.9,22.9,32.7c1,1.5,3.1,1.2,3.2,3.4s-1.2,8.1-2.2,8.8c-2.1,1.5-4.9-1-6.9-.5s-4.7,6-10.1,2.1c-8.3-11.4-15.6-23.5-24-34.9-38.7-52.7-79.4-104.7-118.2-157.1-2.5-3.4-5.6-8.8-8.7-13.1s-5.1-8.8-8.3-13c-11.7-15.6-24.9-30.2-36.4-45.9,1.8-4.4,2.6-10.2,6.1-14.3,3.3-.6,16.3,9.8,20.1,12.1Z"/>
    <path class="st9" d="M867.9,810.1v14.2c-6.3-8-15.3-15.6-18.5-25.1,5.3,3.2,13.2,8.6,18.5,10.9Z"/>
  </g>
  <g>
    <path class="st20" d="M876.7,873.4v174.5s-814.5-3.3-814.5-3.3l-2.3-972c4.2.2,3-3.8,4-4,32.3-.1,64.7.4,97,.1,153.6-1.4,307.5-4.1,461.1-5.5s169.8-.2,254.7-2.1v588.8c-3.5.2-6.1,0-8.7,0V69.8s-799.3,7.6-799.3,7.6c.3,119-.3,238.1,0,357.2.3,153.5,1.3,307.6,2.3,461.1.3,46.7-.3,93.5,0,140.2l797.1,3.3v-178.8c3.1,4.2,6.2,9.7,8.7,13.1Z"/>
    <path class="st19" d="M867.9,860.3v178.8s-797.1-3.3-797.1-3.3c-.3-46.7.3-93.4,0-140.2-1-153.5-2-307.6-2.3-461.1-.2-119,.3-238.1,0-357.2l799.3-7.6v580.1c-5,0-16.2,3.6-22.5,4.3-5.9.6-18.3,1.7-23.8,1.2-9.4-.9-8.8-3.8-14.8-8.1-16.5-11.6-41.5-37.9-60.7-40.7-13-1.8-22.6,7-26.5,18.7s-.4,24.7,1.1,37.7l-146.1,1.1c5.6-13.2-9.1-8.6-12.9-11.1s-.7-9.4-7.2-9.7-6.5,10.8-9.2,12.7-15-1.6-14.2,8.1l-425.3,3.3v10.8c.1,0,432.9-2.1,432.9-2.1-1,4.2-2.6,12.1,3.8,12.1s8.7-8.9,12-8.9,17.8,17.6,16.9-3.2l151.6-1.1c.4,3.5,1.5,19.6.5,21.8s-8.2,8.1-10.3,10.7c-5.5,6.9-9.6,13.6-15.8,19.9s-29.1,24.2-32.2,35.9c-28.9.3-57.8-.3-86.7,0-112.9,1.1-226.1,2.6-339,3.4-40.3.3-86-3-125.5-.1s-6.8,4.2-4.9,11.6c39.7.6,79.7.8,119.5.5,57.5-.3,115.7-1.9,173.3-2.3,88.2-.6,176.3-.1,264.5-1,2,4.7,14.7,14.9,19.7,16.8,14.1,5.3,23.7-.8,36.6-2.5s14.3-.2,21.1-1.2c3.4,2.8,2.6,43.5,3.4,50.6s4.9,12.6,5.3,19.2c-28.5.2-57.1-.3-85.6,0-57.5.4-115.7,1.9-173.3,2.3-126.8.8-253.4.3-380.1,2.1.4,2.1-.7,9.9.1,10.8,1.6,1.9,33.4,1.3,38.6,1.3,165.3-2.6,330.7-2,496.1-3.3,38-.3,77.2-.4,115-2.2s6,1.3,12,0h54.5c0,0,0-10.9,0-10.9-11,1.3-25.5-1.7-36,0,3.4-8.2,9.4-15.1,13.6-22.9s11.1-22.5,15.8-33.8c11.5,15.8,24.7,30.3,36.4,45.9s5.6,9.3,8.3,13ZM501.6,283.5l323.8-2.2c0-4,.5-8.2-1.3-11.8-26.6,0-53.4-.4-80-.2-167.8,1.4-335.9,3.3-503.7,4.5-43.5.3-87.1-.7-130.4.4-2.1,1.4-.6,8.8-1,11.5l381.6-2.2c.1,1.5,5.3,13.9,7.2,15.2,9.1-4.4,6.6-4,4.2-10.8s-.2-3.7-.5-4.3ZM510.4,291.3c-1.4,2.3,1,7.7,4.8,7.6s10.9-4.1,11.9-4.6c5.6-3.2,1.4-8.8-3-8.6s-13.2,5-13.6,5.6ZM498.3,306.4c-3-1.8-15.8.5-17.3,2.3s.2,6.8-.1,8.6c6.7-.2,17.3-2.7,17.5-10.9ZM518.7,325.8c1-.8,1.2-2.8.9-4.1s-6.4-15.4-7.1-15.9c-2.3-1.5-6.6,1.2-6.7,4.4s3.5,13.1,4.6,15.1,6.3,2.1,8.3.5ZM407.8,371.8l-55.6,1.1c-7.3-11.2-10.5-13-16.4,0h-13.1c-70.6,0-141.1,0-211.5,1.1.8,6.6-3.2,11.2,4.9,12,14.4,1.4,29.3-1,43.6-1.1,52.9-.6,105.8.6,158.7,0,2.5,1.6,4.4,4.3,7.6,4.4,1.3,1.8-13.3,11.8-6.1,17.5s15.3-3.7,18.6-3.4,9.1,7.4,15.1,7.3c17.3,0,3.2-14.3,5.2-17s9.9-3.9,10.8-9.9h37.1c-1.6,31,1.6,68.8,33.8,82.9-6.7-.2-13.5-.2-20.2,0-99.4,1.8-199.2,2-298.8,2.2l-6,1.2,1.1,10.9,363.1-2.2c.3,22.1.7,53.8,17.5,70.3,9.1,8.9,22.5,11.8,33.8,16.9-27.6-.4-55.2,2.2-82.9,1.1-.5-2.5-1.4-8.7-3.8-8.8-6.3-.4-6.2,3.8-6,8.8l-319.5,2.2c.9,6.5-3.3,11.3,4.9,12s22.7.2,32.8,0c94.5-1.4,189.3-1.7,284-2.2,2.9,0,5.8,0,8.7,0,33.8-.2,67.6-1.3,101.4-1.1,1.8,16,7.5,30.5,17.5,43,8.5,10.7,15.4,17,30,15.9,20.9-1.6,69.4-34.3,84.3-49.8s6.3-7.6,6.7-10.2l146.1-1.1c-.5-3.6,1.9-10.1-2.7-10.9l-267.7,1.1c.2-1.4-.4-2.8,1.1-3.8,2.8-2,17.1-4.7,22.3-7.2,11.8-5.9,29-22,37.8-32s25.5-34.8,25-45.3l182.1-1.1c0-4,.5-8.2-1.3-11.8l-183,.9c-.3-.7-4.1-5.6-4.9-6.6-6-6.9-10.4-9-19.7-8.8-15.4.5-25.9,5.6-36.5,16.4h-92.7c.2-1.4-.2-3,.2-4.6,1.2-4.4,8.7-7.4,12.3-10.7,14.5-13,37.2-49.7,40.9-68.7l279.1-2.2c-.3-2.6,1-9-1-10.4-92.2-1.9-184.7,1.2-277,.6-.8-6.7-5.2-14.5-12.7-14.9-12.4-.6-17.5,5.5-24.4,14.9l-89.4,1.1c.8-5.9,8.8-31.8,5.3-34.8h-14.1c-.5,11.7-5,23.1-6.5,34.8ZM671.3,398.4c-10.8-10.7-14.8,11-17.2,12.5s-9.5-2.6-12.1,3.8,5.5,9,5.8,10.2c.7,3.5-6.4,12.3,1.3,15.9s11.8-4.4,16.7-4.7,6.7,4.7,10.9,5.4,10.5.8,11.9-2.1c2.8-5.6-4.3-8.1-3.7-11.3s5.8-5.5,6.9-8.4c4.9-13.5-14.6-6.5-15.7-7.6s-1.1-10.2-4.8-13.8ZM436.2,527.8l-8.8-.5c-1.3,1.9-1.6,19.7-.5,21.2s6.9.8,9.3,1c-.6-7.3-2.3-14.6,0-21.8ZM442.9,555.9c.7.4,15.3-1.8,16.2-2.5,1.9-1.3,2.6-9.6-2.7-9.3s-14.2,3.3-14.8,3.8c-2.3,1.7,0,7.3,1.3,8ZM428.3,553.1c-1.2-1.3-15.5-.6-17.5,0-3.4,1-3.1,6.6-1.7,8.3,2.7,3.1,27.8.7,19.2-8.2ZM832,956.8l-716.5,4.7v13c0,0,716.6-4.7,716.6-4.7v-13Z"/>
    <path class="st11" d="M720.7,662.9c.5,4.1,1.7,7.7,2.2,12l-151.6,1.1c-1.5-.2-4.6-6.2-4.4-6.5s6.7-3.8,7.6-5.5l146.1-1.1Z"/>
    <path class="st11" d="M490.7,283.5l-381.6,2.2c.4-2.7-1-10.1,1-11.5,43.4-1.2,87-.1,130.4-.4,167.8-1.1,335.9-3,503.7-4.5,26.7-.2,53.4.1,80,.2,1.8,3.7,1.2,7.9,1.3,11.8l-323.8,2.2c-.1-.3-3.6-5.3-3.9-5.4-1.5-.4-7.2,2.8-7,5.4Z"/>
    <path class="st14" d="M531,664c.5,5.8,4.9,6.9,9.8,7.6.3.4-1.9,3.2-2.2,4.3l-432.8,2.1v-10.8c-.1,0,425.1-3.3,425.1-3.3Z"/>
    <path class="st6" d="M671.3,398.4c3.7,3.6,4.2,13.3,4.8,13.8,1.1,1.1,20.7-5.9,15.7,7.6s-6.6,6.9-6.9,8.4c-.6,3.2,6.5,5.7,3.7,11.3s-9,2.6-11.9,2.1c-4.2-.7-7.4-5.6-10.9-5.4s-8.7,8.4-16.7,4.7-.5-12.4-1.3-15.9-8.6-3.5-5.8-10.2,9.5-2.1,12.1-3.8,6.4-23.3,17.2-12.5Z"/>
    <path class="st3" d="M531,664c-.8-9.7,10.6-5.5,14.2-8.1s1.4-13,9.2-12.7,5.8,8.8,7.2,9.7c3.8,2.4,18.6-2.1,12.9,11.1-1,1.7-7.4,5.1-7.6,5.5s2.9,6.3,4.4,6.5c.9,20.8-12.9,3.2-16.9,3.2s-7.1,8.9-12,8.9-4.8-7.9-3.8-12.1,2.4-4,2.2-4.3c-4.9-.8-9.3-1.8-9.8-7.6Z"/>
    <g>
      <path class="st14" d="M549.5,370.7c92.3.6,184.8-2.6,277-.6,2,1.4.7,7.8,1,10.4l-279.1,2.2c.8-4.1,1.6-7.7,1.1-12Z"/>
      <path class="st11" d="M322.8,372.9c-4.6,3.3-4.8,6.5-4.4,12-52.9.5-105.8-.7-158.7,0-14.3.2-29.2,2.5-43.6,1.1s-4.1-5.4-4.9-12c70.5-1.2,141-1.1,211.5-1.1Z"/>
      <path class="st2" d="M512.5,370.7c-2,2.8-6,9-7.6,12l-82.9,1.1c.2-4.4.5-7.6,1.1-12l89.4-1.1Z"/>
      <path class="st12" d="M407.8,371.8c-.5,4-.9,8-1.1,12h-37.1c1.7-11-12.3-4.7-14.7-5.8s-1.9-3.8-2.7-5.1l55.6-1.1Z"/>
    </g>
    <path class="st18" d="M436.2,527.8c-2.3,7.2-.6,14.5,0,21.8-2.4-.3-8,.9-9.3-1s-.8-19.4.5-21.2l8.8.5Z"/>
    <path class="st18" d="M518.7,325.8c-1.9,1.6-6.7,2.1-8.3-.5s-4.7-12.8-4.6-15.1,4.4-5.9,6.7-4.4,6.8,14.4,7.1,15.9.1,3.3-.9,4.1Z"/>
    <path class="st18" d="M428.3,553.1c8.6,9-16.5,11.4-19.2,8.2s-1.7-7.3,1.7-8.3,16.2-1.2,17.5,0Z"/>
    <g>
      <path class="st11" d="M438.3,567c.2,3.4,1.7,8.4,2.2,12-94.6.5-189.5.8-284,2.2-10.1.1-23,.8-32.8,0s-4-5.5-4.9-12l319.5-2.2Z"/>
      <path class="st11" d="M564.8,565.9l267.7-1.1c4.6.8,2.2,7.3,2.7,10.9l-146.1,1.1c.5-3.7-1.4-2.8-2.5-4.6s.6-3.8-2.3-4.2c-10.4-1.5-9.1,7.7-15.9,8.8s-11.6.9-15.8,1.1c-28.5,1.3-58.1-1.1-86.7,0-.7-4.2-1.6-7.5-1.1-12Z"/>
      <path class="st11" d="M531,565.9c6.2,0,12.5-.5,18.6.5,2,1.4.7,8.7,1,11.5-33.8-.2-67.6.9-101.4,1.1,0-4-.3-8.1-1.1-12,27.6,1.1,55.3-1.5,82.9-1.1Z"/>
      <path class="st0" d="M438.3,567c-.2-5-.3-9.2,6-8.8,2.4.1,3.3,6.3,3.8,8.8.8,3.9,1.2,8,1.1,12-2.9,0-5.8,0-8.7,0-.5-3.6-2-8.6-2.2-12Z"/>
    </g>
    <path class="st18" d="M442.9,555.9c-1.3-.7-3.6-6.3-1.3-8s13.7-3.7,14.8-3.8c5.3-.3,4.5,8,2.7,9.3s-15.5,2.9-16.2,2.5Z"/>
    <path class="st0" d="M501.6,283.5c.3.6,0,2.8.5,4.3,2.4,6.8,4.9,6.5-4.2,10.8-1.9-1.3-7.1-13.7-7.2-15.2-.2-2.7,5.5-5.8,7-5.4s3.7,5.1,3.9,5.4Z"/>
    <path class="st18" d="M510.4,291.3c.4-.6,12.3-5.5,13.6-5.6,4.4-.2,8.6,5.4,3,8.6s-11.2,4.6-11.9,4.6c-3.8,0-6.2-5.4-4.8-7.6Z"/>
    <path class="st18" d="M498.3,306.4c-.1,8.2-10.8,10.7-17.5,10.9.4-1.8-.6-7.8.1-8.6,1.6-1.8,14.3-4.1,17.3-2.3Z"/>
    <g>
      <path class="st5" d="M352.2,372.9c.8,1.3.1,3.9,2.7,5.1s16.5-5.2,14.7,5.8-10,8.8-10.8,9.9c-2,2.7,12.1,16.9-5.2,17-6,0-12.5-7.1-15.1-7.3s-12.1,8.5-18.6,3.4,7.4-15.8,6.1-17.5c-3.3-.1-5.1-2.8-7.6-4.4-.4-5.5-.2-8.7,4.4-12h6.5l5.9,2.2c1.2,0,.3-1.6.6-2.2,5.9-13,9.1-11.2,16.4,0Z"/>
      <path class="st7" d="M335.8,372.9c-.3.6.6,2.3-.6,2.2l-5.9-2.2h6.5Z"/>
    </g>
    <path class="st17" d="M504.8,382.7c-3.6,6.5-8.8,18.1-11.4,25.1-5,13.3-7.5,27.7-10.9,41.4-1.2,2-17.3,4.2-20.7,4.4-39.9,2.6-41.2-40.2-39.8-69.8l82.9-1.1Z"/>
    <path class="st17" d="M577.9,477.6c-3.6,4.4-8.9,11.9-12,16.9-10.7,17-14.5,36.3-16.4,56.1-2.3.3-4.6,1.3-7,1.3-7.5,0-26.2-6.9-32.2-11.5-14.1-11-16.7-44.7-16.3-61.6l84-1.1Z"/>
    <path class="st17" d="M668.4,576.8c0,2.1-1.5,3-2.7,4.4-11,12.1-54,40.1-69.8,40.4s-11.8-4.2-16.3-10c-7.9-10-11.7-21.2-13.7-33.7,28.6-1,58.2,1.4,86.7,0s12.1-.6,15.8-1.1Z"/>
    <path class="st8" d="M635.7,477.6c-.3,5.5-11.7,23.6-15.5,28.7-9.9,13.2-36.8,39.3-53.8,40s-1.8-.7-1.5-2.6c3.8-28.1,14-46.2,33.7-66.1h37.1Z"/>
    <g>
      <path class="st10" d="M440.5,466.7c2.5,0,5.6,1.9,8.3,2.1l31-2.1c0,4,0,8,0,12l-363.1,2.2-1.1-10.9,6-1.2c99.6-.2,199.4-.4,298.8-2.2,6.7-.1,13.5-.2,20.2,0Z"/>
      <path class="st11" d="M648.8,465.6l183-.9c1.8,3.7,1.2,7.9,1.3,11.8l-182.1,1.1c0-1.4-1.7-10.7-2.2-12Z"/>
      <path class="st11" d="M587.7,466.7c-2.3,2.3-7.7,8.4-9.8,10.9l-84,1.1c0-4.5.4-7.6,1.1-12h92.7Z"/>
      <path class="st4" d="M635.7,477.6h-37.1c8.1-8.2,15.5-13.1,27.8-12.1,4.8.4,9.5,7.2,9.3,12.1Z"/>
    </g>
    <g>
      <path class="st1" d="M407.8,371.8c1.5-11.7,6-23.1,6.5-34.9h14.1c3.4,3.1-4.5,29-5.3,34.9s-.9,7.6-1.1,12c-1.4,29.6,0,72.4,39.8,69.8s19.5-2.5,20.7-4.4c3.4-13.7,6-28.1,10.9-41.4,2.6-7,7.9-18.7,11.4-25.1s5.6-9.2,7.6-12c6.8-9.3,11.9-15.5,24.4-14.9s11.9,8.1,12.7,14.9-.3,7.9-1.1,12c-3.8,19-26.4,55.7-40.9,68.7s-11.1,6.3-12.3,10.7,0,3.3-.2,4.6c-.7,4.4-1,7.5-1.1,12-.3,16.9,2.2,50.7,16.3,61.6s24.6,11.6,32.2,11.5,4.7-.9,7-1.3c2-19.8,5.7-39.1,16.4-56.1,3.1-5,8.4-12.5,12-16.9s7.5-8.6,9.8-10.9c10.6-10.8,21-15.9,36.5-16.4s13.7,1.8,19.7,8.8,4.6,5.9,4.9,6.6c.5,1.3,2.1,10.6,2.2,12,.4,10.5-17.8,37-25,45.3s-26,26.1-37.8,32c-5.1,2.5-19.4,5.2-22.3,7.2s-.9,2.4-1.1,3.8c-.5,4.5.4,7.8,1.1,12,2,12.5,5.8,23.7,13.7,33.7s8.6,10.1,16.3,10c15.8-.3,58.8-28.3,69.8-40.4s2.6-2.3,2.7-4.4c6.7-1.1,5.5-10.3,15.9-8.8s1.2,2.2,2.3,4.2,3.1,1,2.5,4.6-4.7,8.2-6.7,10.2c-14.9,15.5-63.4,48.1-84.3,49.8-14.6,1.1-21.5-5.1-30-15.9-9.9-12.5-15.7-27.1-17.5-43s1-10.1-1-11.5c-6.1-1-12.4-.4-18.6-.5-11.3-5.1-24.7-8-33.8-16.9-16.8-16.6-17.1-48.2-17.5-70.3,0-4,0-8,0-12l-31,2.1c-2.7-.2-5.7-2-8.3-2.1-32.2-14.1-35.4-51.8-33.8-82.9s.6-8,1.1-12ZM532.1,382.7c0-.2,1.9-.4,2.2-3.7s.3-8.3-1.7-8.2-8.1,10.3-9.3,12c-9,13.2-18.1,32.1-21.3,47.9s-1.3,3.7,0,4.4c1.8.1,2.7-1.7,3.6-2.9,10-13,22.1-33.8,26.4-49.4ZM501,436.2v1.1c.7-.4.7-.7,0-1.1ZM598.6,477.6c-19.7,19.9-29.9,38-33.7,66.1-.3,1.9-.8,2.7,1.5,2.6,17-.7,43.9-26.8,53.8-40,3.8-5.1,15.1-23.2,15.5-28.7s-4.4-11.7-9.3-12.1c-12.3-1-19.7,3.9-27.8,12.1Z"/>
      <path class="st9" d="M532.1,382.7c-4.3,15.6-16.3,36.4-26.4,49.4-.9,1.2-1.8,3.1-3.6,2.9-1.3-.7-.3-3.2,0-4.4,3.2-15.8,12.3-34.7,21.3-47.9h8.7Z"/>
      <path class="st7" d="M532.1,382.7h-8.7c1.1-1.7,7.6-11.9,9.3-12s1.9,6.8,1.7,8.2c-.4,3.3-2.2,3.5-2.2,3.7Z"/>
      <path class="st9" d="M501,436.2c.7.4.7.7,0,1.1v-1.1Z"/>
    </g>
    <g>
      <path class="st14" d="M752.4,858.1l10.9,10.9c-37.8,1.8-77,1.9-115,2.2-165.4,1.3-330.8.7-496.1,3.3-5.2,0-37.1.6-38.6-1.3s.3-8.7-.1-10.8c126.6-1.8,253.3-1.3,380.1-2.1,57.5-.4,115.7-1.8,173.3-2.3,28.5-.2,57.1.3,85.6,0Z"/>
      <path class="st11" d="M665.1,763.3c-1.4,5.1-1,7.1,1.1,12-88.2.9-176.2.4-264.5,1-57.5.4-115.8,2-173.3,2.3-39.8.2-79.8.1-119.5-.5-1.9-7.3-3.5-11,4.9-11.6,39.5-2.9,85.2.4,125.5.1,112.9-.8,226.1-2.3,339-3.4,28.9-.3,57.8.3,86.7,0Z"/>
      <path class="st15" d="M793.8,858.1c10.5-1.7,25,1.2,36,0v10.9c0,0-54.5,0-54.5,0,9.3-2,14.6-10.3,18.5-10.9Z"/>
      <rect class="st14" x="115.5" y="959.1" width="716.5" height="13" transform="translate(-6.3 3.1) rotate(-.4)"/>
    </g>
  </g>
</svg>