<?xml version="1.0" encoding="UTF-8"?>
<svg id="Layer_1" xmlns="http://www.w3.org/2000/svg" version="1.1" viewBox="0 0 1117.1 1117.1">
  <!-- Generator: Adobe Illustrator 29.3.1, SVG Export Plug-In . SVG Version: 2.1.0 Build 151)  -->
  <defs>
    <style>
      .st0 {
        fill: #6d568a;
      }

      .st1 {
        fill: #6b5387;
      }

      .st2 {
        fill: #c44144;
      }

      .st3 {
        fill: #6b5487;
      }

      .st4 {
        fill: #3d2020;
      }

      .st5 {
        fill: #3b2020;
      }

      .st6 {
        fill: #bfaada;
      }
    </style>
  </defs>
  <g>
    <path class="st6" d="M677.1,837.4c-8,.6-15.6,4.3-23.6,5.3-27.2,3.6-55.8-.8-82.6,3.5-4.9.8-6.2,4.3-7.7,4.3-5.8.1-11.7-3.1-19.6-2.2s-2.6,2-5.2,1.9-6.5-2.4-9.3-2.8c-23.9-3.8-47.3-6.1-70.8-9.9-3.8-.6-19.8-3.1-22.5-4.5-9.9-5.4-22.3-8.9-33.3-13.8s-11.9-7.2-16.6-9.6-10.4-3-15-4.6-5.6-.7-7.1-1.4-.6-3.5-3-4.9-5.9-1.1-8.4-2.5-3.3-4.9-6.1-6-4.2.6-4.9.2c-1.2-.7-7.1-4.2-7.8-4.8-1.7-1.3-1.5-3.6-2.5-4.6-1.4-1.4-6.3-1.6-8.4-3s-2.1-3.3-3.4-4.2c-19.9-14.4-40.1-36.5-53.3-57.1s-14.8-24.4-15.3-29.2c-1-12-3.2-14.3-5-24.5s.8-4.2.2-6.6-5.1-7-3.6-9.6,1.9-.3,1.9-.8c0-2.4-5.3-10.2-5.3-13.3s1.6-2.3,1.7-3.9c.1-3.1-4-14-4.9-17.9-5.9-27.5-8.1-50.5-7.9-78.3s.8-23.6,2.8-37.5,5.8-35.4,8.2-52.8c4.6-32.4,19.1-66,32.4-95.3,4.2-9.2,7-12,12.8-20,7.6-10.6,15.3-21.6,22.4-32s6.2-11.4,11.5-16.9c9-9.2,18-19.1,26.7-27.9s16-10.1,25.5-16,9.4-8.4,16.4-12c61.1-31.7,138-49.2,207-44.2,4.1.3,11,2.3,14.5,2s1.5-3.1,4.4-3.5,15.1,2.9,19.7,3.4c8.8-3.3,17,2.1,25.1,2.2s1.4-2,2.3-2.3c5.4-1.3,8.2,2.9,11.9,3.3s4.2-1.3,7-.6c5.3,1.2,24.3,13.1,30.5,16.5,16.3,9,38.7,20.5,52.9,32.1,17.9,14.6,37.8,27.2,55.6,42.5s3,5.1,5.4,6.6,5.2,1.1,7.1,2.7c3.3,2.8,9.8,14.5,13.1,18.5s6.3,3.6,8.7,5.5,2.6,6.9,4.4,8.7,3.7,1.3,5.4,3.3c3,3.5,8,18,10.6,23.2,9.8,19.5,14,43.2,19.6,64.4.6,2.2-1,6,.5,9s2.8,1,3.3,3.5c1.9,10.3,1.7,22.2,3.4,32.6.9,5.5,3.3,10.8,4.1,15.5,3.6,20.1,1.6,41.8,4.4,62.1.3,2.5,2.1,3.9,2.2,5.4.7,7-4.7,20.1-4.4,26s2.9-.3,2.2,4.3-4.4,13.5-4.3,15.4,2.6,2.9,2,5.2-5.8,11-7.2,14.7c-6.5,17.2-11.7,37-18.2,53.8-4,10.2-7.9,15.3-10.8,26.5s-3.8,3.1-3,6.2c-14.1-2.5-24.8.3-35.3-1s.2-2.4-3.3-2.3c-19.5.2-54.6,6.3-72.6,12.6-28.3,9.9-62.1,37.7-74.2,65.4-1,2.2-.6,5.1-1.6,7.1s-3.5,2.7-3.7,4,2.1,2.9,2,6.2c-.2,9.4-7,19.4-6.5,28.6s2.9,20.5,6.6,30ZM467.5,417.9c-1.4-.7-3.6-.1-5.2-.8-5.4-2.4-13.6-6.9-20-4.8s-1.4,2.4-2.6,3.1-4.5.5-5.4,1.4-.4,2.6-1.3,3.6c-1.4,1.6-4.9,3.5-6.2,5.3-3.2,4.6-10.2,35-8.9,40.3s2.3,3.2,2.8,4.9c1.8,6.7,2.8,16.5,6.7,22.4s2.6,1,3.7,1.8c3.2,2.4,3.1,2,5.9,3.7s.7,1.9,2.1,2.7c3.1,1.6,16.1.6,19.3-1,10-5.1,16-26,17-36.4s1.8-30.6,0-35.7-1.8-1-2.1-1.6c-1.2-2.2-3.1-7.4-5.7-8.8ZM701.8,444.2c-5.7-2.9-6.4-1.4-11.1-1.7s-2.3-1.5-3.8-1.5-12.3,5.2-13.6,6c-2.4,1.4-6.9,7.9-8,10.5-5.8,13.6-2.5,51.9,3.7,65.8s9.8,12.9,18.8,13.9,8.8.1,9.3,0c8.7-1.1,20.4-19,22.3-26.8,4.3-18.2,1.7-44.7-9.5-59.7-1.3-1.7-6.2-5.7-8-6.6ZM608.2,543.2c-5.1-3-12.8,9.3-15.6,11.8-6.1,5.3-17.1,13.4-25.1,14.2-15.5,1.6-30.6.6-37-15.3s-2.8-17.9-8.5-17.2c-15.6,1.8-10.2,11.8-5.7,22.7,9.2,22.5,28.3,27,51.3,25.1,19.3-1.5,34.2-17.8,47.3-30.2-.2-1.4-6.1-10.8-6.7-11.1Z"/>
    <g>
      <path class="st3" d="M701.8,444.2c1.8.9,6.7,4.9,8,6.6,11.2,14.9,13.8,41.5,9.5,59.7s-13.6,25.7-22.3,26.8-8.7,0-9.3,0c-9-1.1-15.1-5.7-18.8-13.9-6.2-13.9-9.6-52.2-3.7-65.8,1.1-2.7,5.7-9.1,8-10.5s12.8-6,13.6-6c1.5,0,2.4,1.4,3.8,1.5,4.7.3,5.4-1.2,11.1,1.7Z"/>
      <path class="st1" d="M467.5,417.9c2.6,1.4,4.5,6.5,5.7,8.8s1.7.5,2.1,1.6c1.9,5.1.7,29.2,0,35.7-1,10.4-7,31.3-17,36.4s-16.2,2.6-19.3,1-1.6-2.3-2.1-2.7c-2.8-1.7-2.8-1.3-5.9-3.7s-2.7-.4-3.7-1.8c-3.9-5.9-5-15.8-6.7-22.4s-2.3-2.9-2.8-4.9c-1.3-5.3,5.7-35.7,8.9-40.3s4.8-3.7,6.2-5.3.7-3,1.3-3.6c.9-.9,4-.6,5.4-1.4s1.2-2.6,2.6-3.1c6.4-2.2,14.6,2.4,20,4.8s3.8,0,5.2.8Z"/>
      <path class="st0" d="M608.2,543.2c.6.3,6.5,9.7,6.7,11.1-13.1,12.4-28.1,28.6-47.3,30.2-22.9,1.8-42.1-2.6-51.3-25.1-4.4-10.9-9.9-20.9,5.7-22.7s6.5,12.5,8.5,17.2c6.5,15.9,21.5,16.9,37,15.3s19-8.8,25.1-14.2,10.5-14.8,15.6-11.8Z"/>
    </g>
  </g>
  <g>
    <path class="st2" d="M677.1,837.4c-3.7-9.5-6.1-19.9-6.6-30s6.3-19.2,6.5-28.6-2.2-5.2-2-6.2,2.9-2.5,3.7-4,.6-4.9,1.6-7.1c12.2-27.6,45.9-55.5,74.2-65.4s53.1-12.4,72.6-12.6c3.5,0,2.5,2.2,3.3,2.3,10.5,1.3,21.2-1.5,35.3,1,12.3,2.2,26.4,2.9,38.2,6,1.5.4,2.7,2.2,4,2.4,3,.5,7.1-3,8.4-2.8s4,2.7,6.4,3.4c17.5,5.2,28.8,6.3,44.4,16.6,7.4,4.8,20.8,15.5,26.7,21.3s3.2,6.5,4.9,8.2,4.1,1.5,5,2.7.4,3.2,1.2,4.3c1.5,2.1,4.8,4.1,5.5,6.6s-1.1,4.9-.6,5.5,2.9-.1,3.9,1.1-.8,4.5.4,6.8c3.9,7,2.6,6.3,4.4,14.3s1.9.6,2.1,1.5c.6,2.5,3.6,24.5,3.4,25.8s-2.9.7-3.4,3.4-2.2,16.6-2.1,17.4c.7,6.1,2.1,6.9-.6,14.7-5,14.2-20.8,34-33.3,42-1.8,1.1-7.2,2.2-9,3.8s-.8,3.2-1.8,3.9c-1.9,1.4-17.6,4.7-20.8,5.4s-4.5,3.3-6.3,3.7c-15.4,3.6-36.8,4.4-53,5.8-9.1.8-25.4,3.5-34,3.2s-3.9-2.3-7.5-2.3-8.6,2.4-10.9,2-3.3-2.9-5.9-3.8c-9.7-3.6-34-3.7-45.5-4.7s-10.3-2.4-13.1-2.2-3.4,3.5-5.3,3.2-2.4-2.2-4-2.7c-12.1-3.8-17.4-4.3-28.7-10.6s-7.9-1.3-9.3-2.1-1.3-2.6-3.1-3.9c-7.2-5.1-17.1-9.5-24.3-13.8s-3.2-5.1-4.8-6.7c-11.7-11.3-14.2-13-20.3-28.7ZM801.1,726.5c-9.5-5.2-13.7-3.6-23.1-3.5s-6.5-2.2-12.8.2c-7.8,3-18.8,15.2-21.8,22.9-2.4,6.1-2.6,21.5,0,27.7s7.8,10.3,6.8,11.2c-2.3-.1-4.3-.1-6.6.5-4.6,1.4-13.5,6.3-16.7,9.4s-7,7.7-7.3,8.3c-6.7,10.5-6.1,38.8-3,50.8,1.6,5.9,11.5,14.4,17.7,15,25,2.4,48.5-2.5,73.2-3.4s12.8.3,18.3,0c1.5,0,10.1-1.2,10.6-1.5s3.6-7.3,6.5-7.9c-.3-12.8,5.2-31.8,1.7-44-.7-2.4-2.8-2.3-3.8-3.8-8-12.3-13.4-13.2-25.3-21.6s-4.4-2.2-6.4-2.9c-.8-1.2,4.7-6.5,5.9-8.8,6.1-12.3,6.1-30.4-3.7-40.8s-9.5-7.5-10.1-7.8ZM945.4,838c1.2-7-.9-17.1,0-24.5h28.8c.7-4.7,10.1-13,9.5-16.8s-6.3-3.5-7.7-5.6c-2.3-3.2-1.3-6.2-2.4-8.5-2.4-5.5-25.8-2.1-31.4-3-1.3-4.7-2.3-31.4-6.2-32.6l-30.9,4.3c-1.9,5.2,3.7,29.1,1,31.5-5.6,1.9-10.2-1.5-14.5-2.1s-13.6-.4-16.2.3-8.9,5.1-9.2,5.5c-.6.7-.6,2.4-1.4,3.5s-4.8,3.8-4.4,5.5,3,1.1,3.3,2.4-.5,7.5,0,8,5.1-.4,5.5,0-.4,11,0,13.1c4.9-1.1,10.4,1.2,14.7,1.2s23.1-4.5,25.7-2.9-.2,3.6.2,5.2,1.7,2.8,1.9,4.7c.6,4.7-.6,9.8,1.3,14.5,7.7-.2,15.6.7,23.3.1s8.7-.5,9.3-3.8Z"/>
    <g>
      <path class="st5" d="M801.1,726.5c.6.3,9.3,6.9,10.1,7.8,9.8,10.4,9.9,28.5,3.7,40.8s-6.7,7.6-5.9,8.8c2,.7,4.8,1.7,6.4,2.9,12,8.4,17.4,9.3,25.3,21.6s3.1,1.4,3.8,3.8c3.5,12.2-2,31.2-1.7,44-2.9.6-5.9,7.6-6.5,7.9s-9.1,1.4-10.6,1.5c-5.6.3-12.7-.2-18.3,0-24.6.8-48.2,5.7-73.2,3.4-6.2-.6-16.1-9.1-17.7-15-3.2-11.9-3.7-40.3,3-50.8.3-.5,6.2-7.2,7.3-8.3,3.2-3.1,12.2-8,16.7-9.4s4.3-.7,6.6-.5c1.1-.9-6.1-9.6-6.8-11.2-2.5-6.2-2.3-21.6,0-27.7,3-7.8,14-19.9,21.8-22.9,6.2-2.4,7.7-.2,12.8-.2,9.4,0,13.6-1.7,23.1,3.5Z"/>
      <path class="st4" d="M945.4,838c-.6,3.3-6.1,3.6-9.3,3.8-7.7.6-15.6-.3-23.3-.1-1.9-4.8-.7-9.8-1.3-14.5s-1.6-3.1-1.9-4.7,1.7-4.1-.2-5.2-20.7,2.8-25.7,2.9-9.8-2.3-14.7-1.2c-.3-2.1.5-12.6,0-13.1s-5,.4-5.5,0,.4-6.3,0-8-3-1.4-3.3-2.4c-.4-1.6,3.3-4.1,4.4-5.5s.8-2.8,1.4-3.5,8.7-5.4,9.2-5.5c2.6-.7,13.3-.7,16.2-.3,4.3.6,8.9,4.1,14.5,2.1,2.8-2.4-2.9-26.3-1-31.5l30.9-4.3c3.9,1.1,4.9,27.9,6.2,32.6,5.6.8,29-2.6,31.4,3s0,5.4,2.4,8.5,7.7,5,7.7,5.6c.6,3.7-8.8,12.1-9.5,16.8h-28.8c-.9,7.4,1.2,17.4,0,24.5Z"/>
    </g>
  </g>
</svg>