<?xml version="1.0" encoding="UTF-8"?>
<svg xmlns="http://www.w3.org/2000/svg" version="1.1" viewBox="0 0 1325.6 666.98">
  <!-- Generator: Adobe Illustrator 29.3.1, SVG Export Plug-In . SVG Version: 2.1.0 Build 151)  -->
  <defs>
    <style>
      .st0, .st1 {
        fill: #675484;
      }

      .st1 {
        font-family: Borel-Regular, Borel;
        font-size: 250px;
      }

      .st2 {
        fill: #bcabd3;
      }

      .st3 {
        fill: #a795bb;
      }

      .st4 {
        font-family: Montserrat-Bold, Montserrat;
        font-size: 100px;
        font-weight: 700;
        letter-spacing: .2em;
      }

      .st4, .st5 {
        fill: #bcabd7;
      }
    </style>
  </defs>
  <g id="Layer_2">
    <text class="st1" transform="translate(559.61 521.08)"><tspan x="0" y="0">omen </tspan></text>
    <text/>
    <text class="st4" transform="translate(477.15 628.63) scale(.99 1)"><tspan x="0" y="0">in oss</tspan></text>
  </g>
  <g id="Layer_3">
    <g>
      <g id="Layer_31" data-name="Layer_3">
        <g id="Layer_4">
          <path class="st0" d="M608.31,49.68l8.58-24c19.78,6.31,34.14,11.77,43.1,16.39-2.36-20.39-3.61-34.42-3.73-42.08h27.05c-.37,11.15-1.81,25.12-4.29,41.91,12.81-5.86,27.49-11.27,44.03-16.23l8.58,24c-15.8,4.73-31.28,7.89-46.46,9.47,7.59,5.97,18.28,16.62,32.09,31.94l-22.39,14.36c-7.22-8.9-15.74-21.01-25.56-36.33-9.21,15.89-17.29,28-24.26,36.33l-22.02-14.36c14.43-16.11,24.75-26.76,30.97-31.94-16.05-2.81-31.29-5.97-45.71-9.47h.01Z"/>
        </g>
        <g id="Layer_21" data-name="Layer_2">
          <path class="st3" d="M359.72,397.77s43.94-103.15,24.48-93.16c-12.99,6.67-17,47.35-19.13,73.61-1.08,13.28,1.43,27.12,1.6,27,0,0,6.57,22.14,16.26,38.03,9.69,15.9,18.68,15.98,20.89,16.31,24.01,3.51,41.71-13.84,41.71-13.84,0,0,21.73-12.79,43.3-97.46,21.56-84.66-2.1-125.14-2.1-125.14l19.45-14.72c66.78,33.66,98.85,9.47,98.85,9.47,61-37.86,79.4-74.67,79.4-74.67l25.24,21.04c-1.05,18.93-50.48,67.31-82.55,87.29-32.07,19.98-93.6,7.36-93.6,7.36,4.73,42.59-12.62,138.29-43.64,186.67-31.02,48.38-63.65,54.67-87.29,54.69-14.49.01-44.52-20.33-44.52-20.33-16.82,34.71-68.88,79.59-89.91,85.91-21.04,6.31-36.81,0-36.81,0,0,0-80.21-25.07-83.08-129.36-2.92-105.96,27.34-194.92,27.34-194.92,0,0-55.29,45.88-67.31,56.11-11.02,9.39-85.18,53.63-85.18,53.63L0,323.91s30.5-7.36,119.89-91.49c89.39-84.13,111.47-156.7,111.47-156.7l66.6,29.6s-63.7,2.41-82.03,216.84c-18.33,214.43,45.22,206.46,45.22,206.46,5.08,3.12,37.16-10.56,68.53-73.27,0,0-60.21-128.65,29.45-182.99,0,0,22.4-17.46,48.03-1.4,26.29,16.48,19.28,46.27,19.28,46.27,0,0-6.3,31.16-20.16,67.31-21.04,54.86-23.35,58.72-23.35,58.72"/>
          <path class="st0" d="M359.72,397.77s43.94-103.15,24.48-93.16c-12.99,6.67-17,47.35-19.13,73.61-1.08,13.28,1.43,27.12,1.6,27,0,0,6.57,22.14,16.26,38.03,9.69,15.9,18.68,15.98,20.89,16.31,24.01,3.51,41.71-13.84,41.71-13.84,0,0,21.73-12.79,43.3-97.46,21.56-84.66-2.1-125.14-2.1-125.14l19.45-14.72c66.78,33.66,98.85,9.47,98.85,9.47,61-37.86,79.4-74.67,79.4-74.67l25.24,21.04c-1.05,18.93-50.48,67.31-82.55,87.29-32.07,19.98-93.6,7.36-93.6,7.36,4.73,42.59-12.62,138.29-43.64,186.67-31.02,48.38-63.65,54.67-87.29,54.69-14.49.01-44.52-20.33-44.52-20.33-16.82,34.71-68.88,79.59-89.91,85.91-21.04,6.31-36.81,0-36.81,0,0,0-80.21-25.07-83.08-129.36-2.92-105.96,27.34-194.92,27.34-194.92,0,0-55.29,45.88-67.31,56.11-11.02,9.39-85.18,53.63-85.18,53.63L0,323.91s30.5-7.36,119.89-91.49c89.39-84.13,111.47-156.7,111.47-156.7l66.6,29.6s-63.7,2.41-82.03,216.84c-18.33,214.43,45.22,206.46,45.22,206.46,5.08,3.12,37.16-10.56,68.53-73.27,0,0-60.21-128.65,29.45-182.99,0,0,22.4-17.46,48.03-1.4,26.29,16.48,19.28,46.27,19.28,46.27,0,0-6.3,31.16-20.16,67.31-21.04,54.86-23.35,58.72-23.35,58.72"/>
          <path class="st5" d="M517.48,133.12"/>
        </g>
        <path class="st2" d="M231.36,75.72l-55.74,165.79c-6.9,21.93-12.71,45.47-17.28,70.81,0,0-6.82,46.33-8.24,61.99-3.67,40.48-2.73,87.15,7.91,115.6,7.15,19.11,18.12,38.44,37.74,54.67,13.91,11.51,35.65,31.57,72.42,21.21,0,0,9.44-3.67,16.04-8.17,0,0-32.62,10.97-51.17-49.42,1.14,1.17-14.76-20.67-18.73-72.73-.72-9.48-2.73-24.58-1.69-46.43,1.13-86.75,18.07-265.96,85.34-283.72l-66.6-29.6h0Z"/>
        <path class="st2" d="M382.93,443.25c21.15,47.47,48.84,56.74,40.39,54.91-18.33,3.02-26.39,1.28-26.39,1.28-41.92-14.62-67.24-44.1-67.24-44.1,0,0-20.19-49.25-19.77-90.27s16.58-61.36,16.58-61.36c0,0,32.09-48.01,64.58-39.01,32.5,9,34.11,29.25,35.84,37.36s-4.63,32.53-4.63,32.53c-1.78-.67-7.75-48.05-40.04-29.02,0,0-14.02,5.64-17.44,79.9,2.23,20.75,8.83,39.78,18.14,57.78h0Z"/>
        <path class="st2" d="M486.73,223.11s19.84,22.43,46.8,35.76c0,0,52.97,10.85,75.96,0,0,0,24.43-3.36,65.01-45.85,0,0-73.64,80.2-168.32-4.63"/>
      </g>
      <g id="Layer_5">
        <path class="st5" d="M359.72,397.85s43.94-103.15,24.48-93.16c-12.99,6.67-17,47.35-19.13,73.61-1.08,13.28,1.43,27.12,1.6,27,0,0,6.57,22.14,16.26,38.03,9.69,15.9,18.68,15.98,20.89,16.31,24.01,3.51,41.71-13.84,41.71-13.84,0,0,21.73-12.79,43.3-97.46,21.56-84.66-2.1-125.14-2.1-125.14l19.45-14.72c66.78,33.66,98.85,9.47,98.85,9.47,61-37.86,79.4-74.67,79.4-74.67l25.24,21.04c-1.05,18.93-50.48,67.31-82.55,87.29-32.07,19.98-93.6,7.36-93.6,7.36,4.73,42.59-12.62,138.29-43.64,186.67-31.02,48.38-63.65,54.67-87.29,54.69-14.49.01-44.52-20.33-44.52-20.33-16.82,34.71-68.88,79.59-89.91,85.91-21.04,6.31-36.81,0-36.81,0,0,0-80.21-25.07-83.08-129.36-2.92-105.96,27.34-194.92,27.34-194.92,0,0-55.29,45.88-67.31,56.11-11.02,9.39-85.18,53.63-85.18,53.63L0,323.98s30.5-7.36,119.89-91.49c89.39-84.13,111.47-156.7,111.47-156.7l66.6,29.6s-63.7,2.41-82.03,216.84c-18.33,214.43,45.22,206.46,45.22,206.46,5.08,3.12,37.16-10.56,68.53-73.27,0,0-60.21-128.65,29.45-182.99,0,0,22.4-17.46,48.03-1.4,26.29,16.48,19.28,46.27,19.28,46.27,0,0-6.3,31.16-20.16,67.31-21.04,54.86-23.35,58.72-23.35,58.72"/>
      </g>
    </g>
  </g>
</svg>